<svg width="393" height="852" viewBox="0 0 393 852" fill="none" xmlns="http://www.w3.org/2000/svg">
<g clip-path="url(#clip0_570_12316)">
<rect width="393" height="852" fill="white"/>
<path d="M46.7666 23.7231C47.4085 23.7231 48.0173 23.8421 48.5928 24.0801C49.1683 24.3125 49.6774 24.6777 50.1201 25.1758C50.5684 25.6683 50.9198 26.3019 51.1743 27.0767C51.4289 27.8459 51.5562 28.7728 51.5562 29.8574V29.874C51.5562 31.2188 51.3625 32.3698 50.9751 33.3271C50.5877 34.2845 50.0316 35.0205 49.3066 35.5352C48.5872 36.0443 47.7267 36.2988 46.7251 36.2988C45.9891 36.2988 45.325 36.166 44.7329 35.9004C44.1463 35.6292 43.6593 35.2585 43.272 34.7881C42.8901 34.3122 42.6328 33.7699 42.5 33.1611L42.4834 33.0698H44.5835L44.6167 33.1528C44.7218 33.4295 44.8713 33.673 45.0649 33.8833C45.2642 34.0936 45.5021 34.2568 45.7788 34.373C46.061 34.4837 46.3765 34.5391 46.7251 34.5391C47.356 34.5391 47.8706 34.3537 48.269 33.9829C48.673 33.6066 48.9746 33.1058 49.1738 32.4805C49.3786 31.8496 49.4948 31.1523 49.5225 30.3887C49.528 30.3057 49.5308 30.2254 49.5308 30.1479C49.5308 30.0649 49.5308 29.9847 49.5308 29.9072L49.1572 27.9067C49.1572 27.453 49.0521 27.0407 48.8418 26.6699C48.6315 26.2992 48.3465 26.0059 47.9868 25.79C47.6326 25.5742 47.2314 25.4663 46.7832 25.4663C46.3516 25.4663 45.9559 25.5715 45.5962 25.7817C45.2365 25.992 44.9487 26.2798 44.7329 26.645C44.5171 27.0047 44.4092 27.4087 44.4092 27.8569V27.8735C44.4092 28.3384 44.5116 28.7507 44.7163 29.1104C44.9211 29.4645 45.2005 29.744 45.5547 29.9487C45.9089 30.1535 46.3128 30.2559 46.7666 30.2559C47.2204 30.2559 47.6271 30.1562 47.9868 29.957C48.3465 29.7578 48.6315 29.4811 48.8418 29.127C49.0521 28.7728 49.1572 28.3716 49.1572 27.9233V27.9067H49.6553V30.1147H49.3647C49.2209 30.4302 49.0078 30.7235 48.7256 30.9946C48.4434 31.2658 48.0947 31.4844 47.6797 31.6504C47.2702 31.8164 46.7887 31.8994 46.2354 31.8994C45.4717 31.8994 44.7965 31.7279 44.21 31.3848C43.6234 31.0417 43.1613 30.5713 42.8237 29.9736C42.4917 29.376 42.3257 28.7008 42.3257 27.9482V27.9316C42.3257 27.1182 42.5138 26.396 42.8901 25.7651C43.272 25.1287 43.7977 24.6307 44.4673 24.271C45.1424 23.9058 45.9089 23.7231 46.7666 23.7231ZM54.8247 34.3896C54.4484 34.3896 54.133 34.2651 53.8784 34.0161C53.6294 33.7616 53.5049 33.4517 53.5049 33.0864C53.5049 32.7157 53.6294 32.4058 53.8784 32.1567C54.133 31.9022 54.4484 31.7749 54.8247 31.7749C55.2065 31.7749 55.522 31.9022 55.771 32.1567C56.02 32.4058 56.1445 32.7157 56.1445 33.0864C56.1445 33.4517 56.02 33.7616 55.771 34.0161C55.522 34.2651 55.2065 34.3896 54.8247 34.3896ZM54.8247 28.2305C54.4484 28.2305 54.133 28.106 53.8784 27.8569C53.6294 27.6024 53.5049 27.2925 53.5049 26.9272C53.5049 26.5565 53.6294 26.2466 53.8784 25.9976C54.133 25.743 54.4484 25.6157 54.8247 25.6157C55.2065 25.6157 55.522 25.743 55.771 25.9976C56.02 26.2466 56.1445 26.5565 56.1445 26.9272C56.1445 27.2925 56.02 27.6024 55.771 27.8569C55.522 28.106 55.2065 28.2305 54.8247 28.2305ZM63.9038 36V33.7007H58.0435V31.9492C58.3589 31.4124 58.6743 30.8729 58.9897 30.3306C59.3107 29.7882 59.6344 29.2487 59.9609 28.7119C60.293 28.1696 60.6222 27.6356 60.9487 27.1099C61.2808 26.5786 61.61 26.0557 61.9365 25.541C62.2686 25.0208 62.6006 24.5145 62.9326 24.022H65.9458V31.9326H67.5645V33.7007H65.9458V36H63.9038ZM60.0356 31.9824H63.937V25.7319H63.8125C63.569 26.1082 63.3172 26.4956 63.0571 26.894C62.8026 27.2925 62.5452 27.6992 62.2852 28.1143C62.0251 28.5293 61.7677 28.9471 61.5132 29.3677C61.2586 29.7827 61.0068 30.2005 60.7578 30.6211C60.5088 31.0361 60.2681 31.4484 60.0356 31.8579V31.9824ZM72.02 36V26.1304H71.8706L68.8906 28.2305V26.2217L72.02 24.022H74.1533V36H72.02Z" fill="black"/>
<path d="M82.2507 30.5545C82.0199 30.5504 81.8275 30.4996 81.6736 30.4021C81.5237 30.3005 81.4124 30.1724 81.3395 30.0179C81.2666 29.8594 81.2382 29.6928 81.2544 29.518C81.2706 29.3391 81.3314 29.1745 81.4367 29.0241C81.542 28.8696 81.6979 28.7456 81.9044 28.6521L91.6243 24.1584C91.9038 24.0324 92.161 23.9815 92.3959 24.0059C92.6308 24.0263 92.8231 24.1096 92.973 24.2559C93.1228 24.3982 93.2119 24.5852 93.2403 24.8169C93.2727 25.0445 93.2241 25.3006 93.0945 25.5852L88.6294 35.3044C88.5322 35.5239 88.4046 35.6885 88.2467 35.7983C88.0887 35.9121 87.9207 35.9771 87.7425 35.9934C87.5643 36.0137 87.3962 35.9873 87.2382 35.9141C87.0803 35.8409 86.9527 35.7271 86.8555 35.5727C86.7583 35.4223 86.7097 35.2353 86.7097 35.0117L86.6976 30.6643C86.6976 30.5992 86.6652 30.5667 86.6004 30.5667L82.2507 30.5545Z" fill="black"/>
<rect x="135.5" y="12" width="122" height="36" rx="18" fill="black"/>
<circle cx="239.5" cy="30" r="6" fill="#0E101F"/>
<circle cx="239.5" cy="29.9999" r="4.90909" fill="#01031A"/>
<g filter="url(#filter0_f_570_12316)">
<ellipse cx="239.5" cy="27.2726" rx="2.72727" ry="1.09091" fill="white" fill-opacity="0.1"/>
</g>
<g filter="url(#filter1_f_570_12316)">
<ellipse cx="239.5" cy="32.1818" rx="2.72727" ry="1.63636" fill="white" fill-opacity="0.1"/>
</g>
<path d="M284.917 32H286.083C286.728 32 287.25 32.5037 287.25 33.125V35.375C287.25 35.9963 286.728 36.5 286.083 36.5H284.917C284.272 36.5 283.75 35.9963 283.75 35.375V33.125C283.75 32.5037 284.272 32 284.917 32Z" fill="black"/>
<path d="M289.917 30H291.083C291.728 30 292.25 30.5037 292.25 31.125V35.375C292.25 35.9963 291.728 36.5 291.083 36.5H289.917C289.272 36.5 288.75 35.9963 288.75 35.375V31.125C288.75 30.5037 289.272 30 289.917 30Z" fill="black"/>
<path opacity="0.2" d="M294.917 27H296.083C296.728 27 297.25 27.5037 297.25 28.125V35.375C297.25 35.9963 296.728 36.5 296.083 36.5H294.917C294.272 36.5 293.75 35.9963 293.75 35.375V28.125C293.75 27.5037 294.272 27 294.917 27Z" fill="black"/>
<path opacity="0.2" d="M299.917 24H301.083C301.728 24 302.25 24.5037 302.25 25.125V35.375C302.25 35.9963 301.728 36.5 301.083 36.5H299.917C299.272 36.5 298.75 35.9963 298.75 35.375V25.125C298.75 24.5037 299.272 24 299.917 24Z" fill="black"/>
<path d="M315.107 32.6929C312.774 32.6929 311.119 31.0449 311.119 28.6982C311.119 26.3516 312.774 24.7036 315.107 24.7036H321.066C323.393 24.7036 325.054 26.3516 325.054 28.6982C325.054 31.0449 323.393 32.6929 321.066 32.6929H319.128C318.799 32.3501 318.772 31.6052 319.023 31.3284H320.994C322.53 31.3284 323.617 30.2473 323.617 28.6982C323.617 27.1558 322.53 26.0681 320.994 26.0681H315.18C313.644 26.0681 312.556 27.1558 312.556 28.6982C312.556 30.2473 313.644 31.3284 315.18 31.3284H315.529C315.45 31.7371 315.483 32.2314 315.542 32.6929H315.107ZM320.434 35.8438C318.1 35.8438 316.446 34.1958 316.446 31.8491C316.446 29.5024 318.1 27.8545 320.434 27.8545H322.365C322.675 28.1973 322.701 28.9158 322.477 29.219H320.506C318.97 29.219 317.883 30.3 317.883 31.8491C317.883 33.3916 318.97 34.4792 320.506 34.4792H326.32C327.856 34.4792 328.944 33.3916 328.944 31.8491C328.944 30.3 327.856 29.219 326.32 29.219H325.971C326.05 28.8037 326.023 28.3159 325.958 27.8545H326.393C328.726 27.8545 330.381 29.5024 330.381 31.8491C330.381 34.1958 328.726 35.8438 326.393 35.8438H320.434Z" fill="black"/>
<g opacity="0.3">
<path d="M340.416 24.7777C339.75 25.7866 339.75 27.1911 339.75 30C339.75 32.8089 339.75 34.2134 340.416 35.2223C340.704 35.659 341.075 36.034 341.506 36.3259C342.503 37 343.89 37 346.665 37H357.533C360.308 37 361.695 37 362.692 36.3259C363.123 36.034 363.494 35.659 363.782 35.2223C364.448 34.2134 364.448 32.8089 364.448 30C364.448 27.1911 364.448 25.7866 363.782 24.7777C363.494 24.341 363.123 23.966 362.692 23.6741C361.695 23 360.308 23 357.533 23H346.665C343.89 23 342.503 23 341.506 23.6741C341.075 23.966 340.704 24.341 340.416 24.7777Z" fill="black"/>
<path d="M366.75 29.75C366.75 30.6231 366.232 31.4112 365.436 31.75V27.75C366.232 28.0888 366.75 28.8769 366.75 29.75Z" fill="black"/>
</g>
<path d="M339.75 30C339.75 27.1911 339.75 25.7866 340.424 24.7777C340.716 24.341 341.091 23.966 341.528 23.6741C342.537 23 343.941 23 346.75 23H349.629V37H346.75C343.941 37 342.537 37 341.528 36.3259C341.091 36.034 340.716 35.659 340.424 35.2223C339.75 34.2134 339.75 32.8089 339.75 30Z" fill="#F7CE45"/>
<path d="M349.46 34.1719C347.709 34.1719 346.555 33.2319 346.447 31.8462L346.442 31.7764H347.994L348 31.8354C348.069 32.437 348.623 32.8667 349.46 32.8667C350.288 32.8667 350.83 32.4048 350.83 31.7495V31.7388C350.83 30.9976 350.277 30.5894 349.337 30.5894H348.451V29.4346H349.315C350.132 29.4346 350.658 29.0049 350.658 28.3765V28.3657C350.658 27.7212 350.212 27.3237 349.45 27.3237C348.687 27.3237 348.177 27.7373 348.112 28.3818L348.107 28.4302H346.614L346.619 28.3657C346.732 26.98 347.822 26.0776 349.45 26.0776C351.115 26.0776 352.189 26.9155 352.189 28.1509V28.1616C352.189 29.1284 351.48 29.7568 350.572 29.9448V29.9771C351.727 30.0845 352.479 30.7505 352.479 31.8032V31.814C352.479 33.2212 351.271 34.1719 349.46 34.1719ZM353.424 34V32.9097L355.921 30.4443C357.012 29.3862 357.307 28.9941 357.307 28.4517V28.4355C357.307 27.7749 356.856 27.313 356.115 27.313C355.357 27.313 354.836 27.8179 354.836 28.5537V28.5806H353.338L353.333 28.5591C353.333 27.0713 354.493 26.0508 356.19 26.0508C357.785 26.0508 358.902 26.9639 358.902 28.3013V28.3174C358.902 29.1982 358.446 29.9287 357.033 31.2339L355.599 32.5713V32.6948H359.015V34H353.424Z" fill="black"/>
<mask id="path-16-inside-1_570_12316" fill="white">
<path d="M0 60H393V104H0V60Z"/>
</mask>
<path d="M0 60H393V104H0V60Z" fill="white"/>
<path d="M393 104V103.5H0V104V104.5H393V104Z" fill="#D2D2D2" mask="url(#path-16-inside-1_570_12316)"/>
<path d="M19.5645 82.9492C19.571 82.7474 19.61 82.5618 19.6816 82.3926C19.7598 82.2233 19.877 82.0605 20.0332 81.9043L27.5527 74.5508C27.8001 74.3034 28.1029 74.1797 28.4609 74.1797C28.7083 74.1797 28.9297 74.2383 29.125 74.3555C29.3268 74.4727 29.4863 74.6322 29.6035 74.834C29.7272 75.0293 29.7891 75.2474 29.7891 75.4883C29.7891 75.8529 29.6523 76.1719 29.3789 76.4453L22.6895 82.9492L29.3789 89.4531C29.6523 89.7331 29.7891 90.0521 29.7891 90.4102C29.7891 90.6576 29.7272 90.8789 29.6035 91.0742C29.4863 91.2695 29.3268 91.4258 29.125 91.543C28.9297 91.6602 28.7083 91.7188 28.4609 91.7188C28.1029 91.7188 27.8001 91.5951 27.5527 91.3477L20.0332 83.9941C19.8704 83.8379 19.75 83.6751 19.6719 83.5059C19.6003 83.3301 19.5645 83.1445 19.5645 82.9492Z" fill="#222222"/>
<path d="M143.734 89.3516C139.74 89.3516 137.26 86.5195 137.26 81.9688V81.9492C137.26 77.3789 139.73 74.5566 143.724 74.5566C146.928 74.5566 149.359 76.5879 149.691 79.4688V79.5469H147.221L147.211 79.5078C146.849 77.8379 145.502 76.7344 143.724 76.7344C141.332 76.7344 139.838 78.7363 139.838 81.9395V81.959C139.838 85.1719 141.332 87.1738 143.734 87.1738C145.521 87.1738 146.849 86.1777 147.211 84.625L147.221 84.5762H149.691V84.6445C149.32 87.4668 146.986 89.3516 143.734 89.3516ZM156.451 89.2148C153.248 89.2148 151.315 87.125 151.315 83.668V83.6484C151.315 80.2207 153.277 78.1211 156.451 78.1211C159.635 78.1211 161.588 80.2109 161.588 83.6484V83.668C161.588 87.125 159.645 89.2148 156.451 89.2148ZM156.451 87.2422C158.141 87.2422 159.098 85.9238 159.098 83.6777V83.6582C159.098 81.4121 158.131 80.084 156.451 80.084C154.762 80.084 153.795 81.4121 153.795 83.6582V83.6777C153.795 85.9238 154.762 87.2422 156.451 87.2422ZM167.655 89.2148C164.94 89.2148 163.299 87.9648 163.094 86.1582V86.1387H165.506L165.516 86.1582C165.77 86.9004 166.483 87.418 167.694 87.418C168.905 87.418 169.744 86.8711 169.744 86.0703V86.0508C169.744 85.4258 169.276 85.0156 168.104 84.752L166.375 84.3613C164.344 83.9121 163.377 82.9551 163.377 81.3828V81.373C163.377 79.4492 165.135 78.1211 167.655 78.1211C170.252 78.1211 171.805 79.4102 171.961 81.1387V81.1582H169.676L169.666 81.1289C169.491 80.4551 168.787 79.9082 167.645 79.9082C166.561 79.9082 165.78 80.4355 165.78 81.2363V81.2461C165.78 81.8711 166.229 82.252 167.381 82.5156L169.11 82.8965C171.199 83.3652 172.186 84.2539 172.186 85.8066V85.8262C172.186 87.8574 170.282 89.2148 167.655 89.2148ZM178.35 89.0488C175.899 89.0488 174.893 88.2285 174.893 86.168V80.2109H173.233V78.3262H174.893V75.709H177.364V78.3262H179.62V80.2109H177.364V85.5918C177.364 86.6562 177.784 87.1055 178.799 87.1055C179.141 87.1055 179.327 87.0957 179.62 87.0664V88.9414C179.268 89.0098 178.819 89.0488 178.35 89.0488ZM191.138 89.2148C187.925 89.2148 186.03 87.1348 186.03 83.6484V83.6289C186.03 80.1816 187.915 78.1211 191.128 78.1211C193.872 78.1211 195.513 79.6445 195.786 81.8516V81.8906H193.491L193.481 81.8613C193.257 80.8262 192.466 80.084 191.138 80.084C189.477 80.084 188.501 81.3926 188.501 83.6289V83.6484C188.501 85.9141 189.487 87.2422 191.138 87.2422C192.397 87.2422 193.169 86.666 193.472 85.543L193.491 85.5039L195.786 85.4941L195.767 85.5723C195.415 87.7598 193.843 89.2148 191.138 89.2148ZM202.263 89.2148C199.089 89.2148 197.165 87.0859 197.165 83.6875V83.6777C197.165 80.3184 199.109 78.1211 202.146 78.1211C205.183 78.1211 207.058 80.25 207.058 83.4727V84.2734H199.597C199.626 86.1875 200.661 87.3008 202.312 87.3008C203.63 87.3008 204.382 86.6367 204.616 86.1484L204.646 86.0801H206.96L206.931 86.168C206.589 87.5449 205.163 89.2148 202.263 89.2148ZM202.175 80.0254C200.817 80.0254 199.802 80.9434 199.616 82.6426H204.685C204.519 80.8945 203.532 80.0254 202.175 80.0254ZM209.081 89V78.3262H211.513V79.957H211.679C212.187 78.8145 213.212 78.1211 214.755 78.1211C217.138 78.1211 218.437 79.5566 218.437 82.0957V89H216.005V82.6621C216.005 81.002 215.331 80.1621 213.857 80.1621C212.411 80.1621 211.513 81.1777 211.513 82.7793V89H209.081ZM225.099 89.0488C222.648 89.0488 221.642 88.2285 221.642 86.168V80.2109H219.982V78.3262H221.642V75.709H224.113V78.3262H226.369V80.2109H224.113V85.5918C224.113 86.6562 224.533 87.1055 225.548 87.1055C225.89 87.1055 226.076 87.0957 226.369 87.0664V88.9414C226.017 89.0098 225.568 89.0488 225.099 89.0488ZM232.855 89.2148C229.681 89.2148 227.758 87.0859 227.758 83.6875V83.6777C227.758 80.3184 229.701 78.1211 232.738 78.1211C235.775 78.1211 237.65 80.25 237.65 83.4727V84.2734H230.189C230.218 86.1875 231.254 87.3008 232.904 87.3008C234.222 87.3008 234.974 86.6367 235.209 86.1484L235.238 86.0801H237.552L237.523 86.168C237.181 87.5449 235.756 89.2148 232.855 89.2148ZM232.767 80.0254C231.41 80.0254 230.394 80.9434 230.209 82.6426H235.277C235.111 80.8945 234.125 80.0254 232.767 80.0254ZM239.674 89V78.3262H242.105V79.9668H242.271C242.633 78.8242 243.609 78.1504 245.016 78.1504C245.387 78.1504 245.768 78.1992 246.002 78.2676V80.4453C245.611 80.3672 245.211 80.3086 244.791 80.3086C243.17 80.3086 242.105 81.2754 242.105 82.7988V89H239.674ZM251.385 89.2148C248.67 89.2148 247.029 87.9648 246.824 86.1582V86.1387H249.236L249.246 86.1582C249.5 86.9004 250.213 87.418 251.424 87.418C252.635 87.418 253.475 86.8711 253.475 86.0703V86.0508C253.475 85.4258 253.006 85.0156 251.834 84.752L250.106 84.3613C248.074 83.9121 247.108 82.9551 247.108 81.3828V81.373C247.108 79.4492 248.865 78.1211 251.385 78.1211C253.983 78.1211 255.535 79.4102 255.692 81.1387V81.1582H253.406L253.397 81.1289C253.221 80.4551 252.518 79.9082 251.375 79.9082C250.291 79.9082 249.51 80.4355 249.51 81.2363V81.2461C249.51 81.8711 249.959 82.252 251.111 82.5156L252.84 82.8965C254.93 83.3652 255.916 84.2539 255.916 85.8066V85.8262C255.916 87.8574 254.012 89.2148 251.385 89.2148Z" fill="#07192E"/>
<g clip-path="url(#clip1_570_12316)">
<rect width="393" height="748" transform="translate(0 104)" fill="#F4F6F9"/>
<g clip-path="url(#clip2_570_12316)">
<mask id="path-20-inside-2_570_12316" fill="white">
<path d="M16 128C16 123.582 19.5817 120 24 120H369C373.418 120 377 123.582 377 128V256C377 260.418 373.418 264 369 264H24C19.5817 264 16 260.418 16 256V128Z"/>
</mask>
<mask id="path-22-inside-3_570_12316" fill="white">
<path d="M16 120H377V168H16V120Z"/>
</mask>
<path d="M16 120H377V168H16V120Z" fill="white"/>
<path d="M377 168V167.5H16V168V168.5H377V168Z" fill="#F4F6F9" mask="url(#path-22-inside-3_570_12316)"/>
<path d="M32.2666 150V139.682H32.1338L29.0874 141.89V140.313L32.2749 138.022H33.7607V150H32.2666ZM39.7443 150V139.682H39.6115L36.5651 141.89V140.313L39.7526 138.022H41.2385V150H39.7443ZM47.2221 150V139.682H47.0893L44.0429 141.89V140.313L47.2304 138.022H48.7162V150H47.2221ZM57.2399 150V147.518H51.4044V146.157C53.0231 143.442 54.8575 140.521 56.5343 138.022H58.7008V146.182H60.4025V147.518H58.7008V150H57.2399ZM52.9318 146.19H57.2482V139.408H57.1486C55.8038 141.417 54.235 143.891 52.9318 146.09V146.19Z" fill="#07192E"/>
<path d="M353.694 151.469C353.252 151.469 352.875 151.278 352.565 150.896L348.266 145.601C348.144 145.457 348.055 145.316 348 145.177C347.95 145.039 347.925 144.895 347.925 144.746C347.925 144.414 348.036 144.14 348.257 143.924C348.479 143.708 348.758 143.6 349.096 143.6C349.478 143.6 349.799 143.763 350.059 144.09L353.661 148.655L360.692 137.516C360.836 137.294 360.985 137.139 361.14 137.051C361.295 136.957 361.489 136.91 361.721 136.91C362.059 136.91 362.335 137.015 362.551 137.225C362.767 137.435 362.875 137.704 362.875 138.03C362.875 138.163 362.853 138.296 362.809 138.429C362.764 138.562 362.695 138.7 362.601 138.844L354.832 150.863C354.566 151.267 354.187 151.469 353.694 151.469Z" fill="#07192E"/>
<mask id="path-26-inside-4_570_12316" fill="white">
<path d="M16 168H377V216H16V168Z"/>
</mask>
<path d="M16 168H377V216H16V168Z" fill="white"/>
<path d="M377 216V215.5H16V216V216.5H377V216Z" fill="#F4F6F9" mask="url(#path-26-inside-4_570_12316)"/>
<path d="M29.5273 198V186.022H31.2622L35.3628 196.016H35.4956L39.5962 186.022H41.3311V198H39.9365V188.853H39.8452L36.0601 198H34.7983L31.0132 188.853H30.9219V198H29.5273ZM46.2522 198.158C44.5505 198.158 43.2639 197.128 43.2639 195.501V195.485C43.2639 193.891 44.4426 192.97 46.5261 192.845L49.091 192.688V191.874C49.091 190.77 48.4187 190.172 47.0822 190.172C46.0114 190.172 45.3059 190.571 45.0734 191.268L45.0651 191.293H43.6208L43.6291 191.243C43.8615 189.84 45.2229 188.894 47.132 188.894C49.3151 188.894 50.5354 190.015 50.5354 191.874V198H49.091V196.68H48.9582C48.3938 197.635 47.4558 198.158 46.2522 198.158ZM44.7414 195.468C44.7414 196.373 45.5134 196.904 46.551 196.904C48.0202 196.904 49.091 195.941 49.091 194.663V193.85L46.7004 193.999C45.3391 194.082 44.7414 194.563 44.7414 195.452V195.468ZM52.767 198V189.052H54.2113V190.38H54.3442C54.6845 189.442 55.5229 188.894 56.7348 188.894C57.0087 188.894 57.3158 188.927 57.4569 188.952V190.355C57.1581 190.305 56.8842 190.272 56.5688 190.272C55.1908 190.272 54.2113 191.144 54.2113 192.455V198H52.767ZM62.2452 198.158C59.7384 198.158 58.1364 196.34 58.1364 193.501V193.484C58.1364 190.704 59.7301 188.894 62.2369 188.894C64.4117 188.894 65.715 190.147 65.9806 191.741L65.9889 191.791H64.5529L64.5446 191.766C64.3204 190.886 63.5236 190.172 62.2369 190.172C60.6266 190.172 59.6139 191.467 59.6139 193.484V193.501C59.6139 195.56 60.6432 196.879 62.2369 196.879C63.4406 196.879 64.2042 196.348 64.5363 195.352L64.5529 195.302L65.9806 195.294L65.964 195.385C65.5988 197.004 64.3951 198.158 62.2452 198.158ZM70.6859 198.158C68.6522 198.158 67.6063 196.962 67.6063 194.846V189.052H69.0506V194.497C69.0506 196.107 69.6317 196.879 71.0594 196.879C72.6366 196.879 73.4749 195.917 73.4749 194.348V189.052H74.9193V198H73.4749V196.664H73.3421C72.9022 197.618 71.9974 198.158 70.6859 198.158ZM80.2803 198.158C78.2881 198.158 76.9185 197.195 76.7525 195.717H78.23C78.4707 196.464 79.1846 196.954 80.3301 196.954C81.5337 196.954 82.3887 196.381 82.3887 195.568V195.551C82.3887 194.945 81.9322 194.522 80.8282 194.256L79.4419 193.924C77.7652 193.526 77.0098 192.795 77.0098 191.509V191.5C77.0098 190.015 78.4375 188.894 80.3384 188.894C82.2144 188.894 83.5176 189.832 83.7168 191.293H82.2974C82.1065 190.587 81.4092 190.098 80.3301 190.098C79.2676 190.098 78.4873 190.646 78.4873 191.434V191.451C78.4873 192.057 78.9356 192.438 79.9898 192.696L81.3677 193.028C83.0528 193.435 83.8662 194.165 83.8662 195.443V195.46C83.8662 197.054 82.314 198.158 80.2803 198.158ZM92.8203 198.282C90.7451 198.282 89.5747 196.996 89.4502 195.277L89.4419 195.161H90.936L90.9443 195.244C91.0356 196.149 91.625 196.904 92.812 196.904C94.1401 196.904 94.854 196.116 94.854 194.655V186.022H96.3481V194.671C96.3481 196.938 95.0366 198.282 92.8203 198.282ZM101.269 198.158C99.5675 198.158 98.2809 197.128 98.2809 195.501V195.485C98.2809 193.891 99.4596 192.97 101.543 192.845L104.108 192.688V191.874C104.108 190.77 103.436 190.172 102.099 190.172C101.028 190.172 100.323 190.571 100.09 191.268L100.082 191.293H98.6379L98.6462 191.243C98.8786 189.84 100.24 188.894 102.149 188.894C104.332 188.894 105.552 190.015 105.552 191.874V198H104.108V196.68H103.975C103.411 197.635 102.473 198.158 101.269 198.158ZM99.7585 195.468C99.7585 196.373 100.53 196.904 101.568 196.904C103.037 196.904 104.108 195.941 104.108 194.663V193.85L101.717 193.999C100.356 194.082 99.7585 194.563 99.7585 195.452V195.468ZM107.784 198V189.052H109.228V190.396H109.361C109.809 189.45 110.648 188.894 111.968 188.894C113.976 188.894 115.097 190.081 115.097 192.206V198H113.653V192.555C113.653 190.944 112.989 190.172 111.561 190.172C110.133 190.172 109.228 191.135 109.228 192.704V198H107.784ZM120.375 198.158C118.383 198.158 117.013 197.195 116.847 195.717H118.325C118.566 196.464 119.279 196.954 120.425 196.954C121.628 196.954 122.483 196.381 122.483 195.568V195.551C122.483 194.945 122.027 194.522 120.923 194.256L119.537 193.924C117.86 193.526 117.105 192.795 117.105 191.509V191.5C117.105 190.015 118.532 188.894 120.433 188.894C122.309 188.894 123.612 189.832 123.812 191.293H122.392C122.201 190.587 121.504 190.098 120.425 190.098C119.362 190.098 118.582 190.646 118.582 191.434V191.451C118.582 192.057 119.03 192.438 120.085 192.696L121.462 193.028C123.148 193.435 123.961 194.165 123.961 195.443V195.46C123.961 197.054 122.409 198.158 120.375 198.158ZM128.7 198.158C126.707 198.158 125.338 197.195 125.172 195.717H126.649C126.89 196.464 127.604 196.954 128.749 196.954C129.953 196.954 130.808 196.381 130.808 195.568V195.551C130.808 194.945 130.351 194.522 129.247 194.256L127.861 193.924C126.184 193.526 125.429 192.795 125.429 191.509V191.5C125.429 190.015 126.857 188.894 128.758 188.894C130.634 188.894 131.937 189.832 132.136 191.293H130.717C130.526 190.587 129.828 190.098 128.749 190.098C127.687 190.098 126.907 190.646 126.907 191.434V191.451C126.907 192.057 127.355 192.438 128.409 192.696L129.787 193.028C131.472 193.435 132.285 194.165 132.285 195.443V195.46C132.285 197.054 130.733 198.158 128.7 198.158ZM137.796 198.158C135.248 198.158 133.67 196.398 133.67 193.534V193.518C133.67 190.646 135.248 188.894 137.796 188.894C140.344 188.894 141.921 190.646 141.921 193.518V193.534C141.921 196.398 140.344 198.158 137.796 198.158ZM137.796 196.879C139.489 196.879 140.444 195.643 140.444 193.534V193.518C140.444 191.401 139.489 190.172 137.796 190.172C136.103 190.172 135.148 191.401 135.148 193.518V193.534C135.148 195.643 136.103 196.879 137.796 196.879ZM143.755 198V189.052H145.199V190.396H145.332C145.78 189.45 146.618 188.894 147.938 188.894C149.947 188.894 151.068 190.081 151.068 192.206V198H149.623V192.555C149.623 190.944 148.959 190.172 147.531 190.172C146.104 190.172 145.199 191.135 145.199 192.704V198H143.755Z" fill="#07192E"/>
<mask id="path-29-inside-5_570_12316" fill="white">
<path d="M16 216H377V264H16V216Z"/>
</mask>
<path d="M16 216H377V264H16V216Z" fill="white"/>
<path d="M377 264V263.5H16V264V264.5H377V264Z" fill="#F4F6F9" mask="url(#path-29-inside-5_570_12316)"/>
<path d="M32.9888 246L28.5728 234.022H30.1416L33.6611 244.066H33.7939L37.3135 234.022H38.8823L34.4663 246H32.9888ZM44.9821 246.282C41.7282 246.282 39.6945 243.875 39.6945 240.023V240.007C39.6945 236.147 41.7199 233.74 44.9738 233.74C47.4973 233.74 49.4646 235.325 49.8215 237.625L49.8132 237.641H48.3108L48.3024 237.625C47.904 236.089 46.6257 235.118 44.9738 235.118C42.6745 235.118 41.2302 237.01 41.2302 240.007V240.023C41.2302 243.02 42.6745 244.904 44.9821 244.904C46.6506 244.904 47.9206 244.049 48.2941 242.671L48.3108 242.655H49.8215V242.671C49.4231 244.863 47.5305 246.282 44.9821 246.282ZM51.9203 246V234.022H53.4145V239.202H59.9887V234.022H61.4828V246H59.9887V240.546H53.4145V246H51.9203ZM66.8688 246V235.682H66.736L63.6896 237.89V236.313L66.8771 234.022H68.3629V246H66.8688Z" fill="#07192E"/>
</g>
<path d="M16 120H377H16ZM377 256C377 260.694 373.194 264.5 368.5 264.5H24.5C19.8056 264.5 16 260.694 16 256C16 260.142 19.5817 263.5 24 263.5H369C373.418 263.5 377 260.142 377 256ZM16 264V120V264ZM377 120V264V120Z" fill="#F4F6F9" mask="url(#path-20-inside-2_570_12316)"/>
<rect x="16" y="754" width="361" height="44" rx="22" fill="#07192E"/>
<mask id="mask0_570_12316" style="mask-type:luminance" maskUnits="userSpaceOnUse" x="146" y="765" width="22" height="22">
<path d="M157 786C162.753 786 167.417 781.523 167.417 776C167.417 770.477 162.753 766 157 766C151.247 766 146.583 770.477 146.583 776C146.583 781.523 151.247 786 157 786Z" fill="white" stroke="white" stroke-linejoin="round"/>
<path d="M157 772V780M152.833 776H161.167" stroke="black" stroke-linecap="round" stroke-linejoin="round"/>
</mask>
<g mask="url(#mask0_570_12316)">
<path d="M144.499 764H169.499V788H144.499V764Z" fill="white"/>
</g>
<path d="M182.142 781.5H179.892L183.989 769.864H186.591L190.693 781.5H188.443L185.335 772.25H185.244L182.142 781.5ZM182.216 776.938H188.352V778.631H182.216V776.938ZM195.168 781.653C194.482 781.653 193.869 781.477 193.327 781.125C192.785 780.773 192.357 780.261 192.043 779.591C191.729 778.92 191.571 778.106 191.571 777.148C191.571 776.178 191.73 775.36 192.049 774.693C192.371 774.023 192.804 773.517 193.35 773.176C193.895 772.831 194.503 772.659 195.174 772.659C195.685 772.659 196.105 772.746 196.435 772.92C196.765 773.091 197.026 773.297 197.219 773.54C197.412 773.778 197.562 774.004 197.668 774.216H197.753V769.864H199.816V781.5H197.793V780.125H197.668C197.562 780.337 197.408 780.562 197.208 780.801C197.007 781.036 196.742 781.237 196.412 781.403C196.083 781.57 195.668 781.653 195.168 781.653ZM195.742 779.966C196.177 779.966 196.549 779.848 196.855 779.614C197.162 779.375 197.395 779.044 197.554 778.619C197.713 778.195 197.793 777.701 197.793 777.136C197.793 776.572 197.713 776.081 197.554 775.665C197.399 775.248 197.168 774.924 196.861 774.693C196.558 774.462 196.185 774.347 195.742 774.347C195.283 774.347 194.901 774.466 194.594 774.705C194.287 774.943 194.056 775.273 193.901 775.693C193.746 776.114 193.668 776.595 193.668 777.136C193.668 777.682 193.746 778.169 193.901 778.597C194.06 779.021 194.293 779.356 194.6 779.602C194.91 779.845 195.291 779.966 195.742 779.966ZM205.306 781.653C204.62 781.653 204.007 781.477 203.465 781.125C202.924 780.773 202.495 780.261 202.181 779.591C201.867 778.92 201.709 778.106 201.709 777.148C201.709 776.178 201.869 775.36 202.187 774.693C202.509 774.023 202.942 773.517 203.488 773.176C204.033 772.831 204.641 772.659 205.312 772.659C205.823 772.659 206.244 772.746 206.573 772.92C206.903 773.091 207.164 773.297 207.357 773.54C207.55 773.778 207.7 774.004 207.806 774.216H207.891V769.864H209.954V781.5H207.931V780.125H207.806C207.7 780.337 207.547 780.562 207.346 780.801C207.145 781.036 206.88 781.237 206.55 781.403C206.221 781.57 205.806 781.653 205.306 781.653ZM205.88 779.966C206.316 779.966 206.687 779.848 206.994 779.614C207.3 779.375 207.533 779.044 207.692 778.619C207.852 778.195 207.931 777.701 207.931 777.136C207.931 776.572 207.852 776.081 207.692 775.665C207.537 775.248 207.306 774.924 206.999 774.693C206.696 774.462 206.323 774.347 205.88 774.347C205.422 774.347 205.039 774.466 204.732 774.705C204.425 774.943 204.194 775.273 204.039 775.693C203.884 776.114 203.806 776.595 203.806 777.136C203.806 777.682 203.884 778.169 204.039 778.597C204.198 779.021 204.431 779.356 204.738 779.602C205.049 779.845 205.429 779.966 205.88 779.966ZM218.291 776.386V781.5H216.234V772.773H218.2V774.256H218.303C218.503 773.767 218.823 773.379 219.263 773.091C219.706 772.803 220.253 772.659 220.905 772.659C221.507 772.659 222.032 772.788 222.479 773.045C222.929 773.303 223.278 773.676 223.524 774.165C223.774 774.653 223.897 775.246 223.893 775.943V781.5H221.837V776.261C221.837 775.678 221.685 775.222 221.382 774.892C221.083 774.562 220.668 774.398 220.138 774.398C219.778 774.398 219.458 774.477 219.178 774.636C218.901 774.792 218.683 775.017 218.524 775.312C218.369 775.608 218.291 775.966 218.291 776.386ZM229.908 781.67C229.033 781.67 228.277 781.489 227.641 781.125C227.008 780.758 226.522 780.239 226.181 779.568C225.84 778.894 225.669 778.1 225.669 777.188C225.669 776.29 225.84 775.502 226.181 774.824C226.525 774.142 227.006 773.612 227.624 773.233C228.241 772.85 228.967 772.659 229.8 772.659C230.338 772.659 230.845 772.746 231.323 772.92C231.804 773.091 232.228 773.356 232.595 773.716C232.967 774.076 233.258 774.534 233.47 775.091C233.683 775.644 233.789 776.303 233.789 777.068V777.699H226.635V776.312H231.817C231.813 775.919 231.728 775.568 231.561 775.261C231.395 774.951 231.162 774.706 230.862 774.528C230.567 774.35 230.222 774.261 229.828 774.261C229.408 774.261 229.039 774.364 228.72 774.568C228.402 774.769 228.154 775.034 227.976 775.364C227.802 775.689 227.713 776.047 227.709 776.438V777.648C227.709 778.155 227.802 778.591 227.987 778.955C228.173 779.314 228.433 779.591 228.766 779.784C229.099 779.973 229.489 780.068 229.936 780.068C230.236 780.068 230.506 780.027 230.749 779.943C230.991 779.856 231.202 779.729 231.38 779.562C231.558 779.396 231.692 779.189 231.783 778.943L233.703 779.159C233.582 779.667 233.351 780.11 233.01 780.489C232.673 780.864 232.241 781.155 231.715 781.364C231.188 781.568 230.586 781.67 229.908 781.67ZM237.343 781.5L234.877 772.773H236.974L238.508 778.909H238.587L240.155 772.773H242.229L243.798 778.875H243.883L245.394 772.773H247.496L245.025 781.5H242.883L241.246 775.602H241.127L239.491 781.5H237.343Z" fill="white"/>
<rect width="393" height="54" transform="translate(0 798)" fill="url(#paint0_linear_570_12316)"/>
</g>
</g>
<defs>
<filter id="filter0_f_570_12316" x="235.773" y="25.1816" width="7.45459" height="4.18164" filterUnits="userSpaceOnUse" color-interpolation-filters="sRGB">
<feFlood flood-opacity="0" result="BackgroundImageFix"/>
<feBlend mode="normal" in="SourceGraphic" in2="BackgroundImageFix" result="shape"/>
<feGaussianBlur stdDeviation="0.5" result="effect1_foregroundBlur_570_12316"/>
</filter>
<filter id="filter1_f_570_12316" x="235.773" y="29.5454" width="7.45459" height="5.27295" filterUnits="userSpaceOnUse" color-interpolation-filters="sRGB">
<feFlood flood-opacity="0" result="BackgroundImageFix"/>
<feBlend mode="normal" in="SourceGraphic" in2="BackgroundImageFix" result="shape"/>
<feGaussianBlur stdDeviation="0.5" result="effect1_foregroundBlur_570_12316"/>
</filter>
<linearGradient id="paint0_linear_570_12316" x1="196.5" y1="0" x2="196.5" y2="54" gradientUnits="userSpaceOnUse">
<stop stop-color="white" stop-opacity="0"/>
<stop offset="1" stop-color="white"/>
</linearGradient>
<clipPath id="clip0_570_12316">
<rect width="393" height="852" fill="white"/>
</clipPath>
<clipPath id="clip1_570_12316">
<rect width="393" height="748" fill="white" transform="translate(0 104)"/>
</clipPath>
<clipPath id="clip2_570_12316">
<path d="M16 128C16 123.582 19.5817 120 24 120H369C373.418 120 377 123.582 377 128V256C377 260.418 373.418 264 369 264H24C19.5817 264 16 260.418 16 256V128Z" fill="white"/>
</clipPath>
</defs>
</svg>
