<svg width="489" height="466" viewBox="0 0 489 466" fill="none" xmlns="http://www.w3.org/2000/svg">
<g filter="url(#filter0_d_570_13023)">
<path d="M48 60C48 51.1634 55.1634 44 64 44H425C433.837 44 441 51.1634 441 60V414H48V60Z" fill="white" shape-rendering="crispEdges"/>
<rect x="224.5" y="54" width="40" height="6" rx="3" fill="black" fill-opacity="0.1"/>
<path d="M201.584 92V77.9082H204.104V89.8809H210.568V92H201.584ZM214.939 92.1758C212.908 92.1758 211.434 90.9258 211.434 88.9824V88.9629C211.434 87.0586 212.889 85.9453 215.486 85.7891L218.23 85.623V84.7051C218.23 83.6406 217.537 83.0547 216.229 83.0547C215.115 83.0547 214.393 83.4551 214.148 84.1582L214.139 84.1973H211.844L211.854 84.1094C212.088 82.3125 213.807 81.1211 216.346 81.1211C219.09 81.1211 220.633 82.4492 220.633 84.7051V92H218.23V90.5352H218.064C217.479 91.5703 216.346 92.1758 214.939 92.1758ZM213.836 88.8652C213.836 89.7734 214.607 90.3105 215.682 90.3105C217.146 90.3105 218.23 89.3535 218.23 88.084V87.2246L215.828 87.3809C214.471 87.4688 213.836 87.9668 213.836 88.8457V88.8652ZM222.553 92V81.3262H224.984V82.957H225.15C225.658 81.8145 226.684 81.1211 228.227 81.1211C230.609 81.1211 231.908 82.5566 231.908 85.0957V92H229.477V85.6621C229.477 84.002 228.803 83.1621 227.328 83.1621C225.883 83.1621 224.984 84.1777 224.984 85.7793V92H222.553ZM238.369 95.75C235.557 95.75 233.867 94.5488 233.623 92.752L233.633 92.7227H236.064L236.074 92.752C236.24 93.4355 237.051 93.9141 238.408 93.9141C240.068 93.9141 241.035 93.1426 241.035 91.7754V89.7344H240.869C240.254 90.877 239.092 91.502 237.617 91.502C234.912 91.502 233.232 89.4121 233.232 86.3848V86.3652C233.232 83.2793 234.912 81.1504 237.666 81.1504C239.141 81.1504 240.293 81.873 240.898 83.084H241.025V81.3262H243.457V91.7363C243.457 94.1973 241.484 95.75 238.369 95.75ZM238.369 89.5684C240.059 89.5684 241.074 88.2695 241.074 86.3848V86.3652C241.074 84.4805 240.049 83.1719 238.369 83.1719C236.68 83.1719 235.723 84.4805 235.723 86.3652V86.3848C235.723 88.2695 236.68 89.5684 238.369 89.5684ZM248.971 92.2148C246.568 92.2148 245.338 90.7695 245.338 88.2305V81.3262H247.77V87.6738C247.77 89.3242 248.385 90.1641 249.85 90.1641C251.422 90.1641 252.262 89.1484 252.262 87.5469V81.3262H254.693V92H252.262V90.3789H252.096C251.598 91.5215 250.514 92.2148 248.971 92.2148ZM259.572 92.1758C257.541 92.1758 256.066 90.9258 256.066 88.9824V88.9629C256.066 87.0586 257.521 85.9453 260.119 85.7891L262.863 85.623V84.7051C262.863 83.6406 262.17 83.0547 260.861 83.0547C259.748 83.0547 259.025 83.4551 258.781 84.1582L258.771 84.1973H256.477L256.486 84.1094C256.721 82.3125 258.439 81.1211 260.979 81.1211C263.723 81.1211 265.266 82.4492 265.266 84.7051V92H262.863V90.5352H262.697C262.111 91.5703 260.979 92.1758 259.572 92.1758ZM258.469 88.8652C258.469 89.7734 259.24 90.3105 260.314 90.3105C261.779 90.3105 262.863 89.3535 262.863 88.084V87.2246L260.461 87.3809C259.104 87.4688 258.469 87.9668 258.469 88.8457V88.8652ZM271.775 95.75C268.963 95.75 267.273 94.5488 267.029 92.752L267.039 92.7227H269.471L269.48 92.752C269.646 93.4355 270.457 93.9141 271.814 93.9141C273.475 93.9141 274.441 93.1426 274.441 91.7754V89.7344H274.275C273.66 90.877 272.498 91.502 271.023 91.502C268.318 91.502 266.639 89.4121 266.639 86.3848V86.3652C266.639 83.2793 268.318 81.1504 271.072 81.1504C272.547 81.1504 273.699 81.873 274.305 83.084H274.432V81.3262H276.863V91.7363C276.863 94.1973 274.891 95.75 271.775 95.75ZM271.775 89.5684C273.465 89.5684 274.48 88.2695 274.48 86.3848V86.3652C274.48 84.4805 273.455 83.1719 271.775 83.1719C270.086 83.1719 269.129 84.4805 269.129 86.3652V86.3848C269.129 88.2695 270.086 89.5684 271.775 89.5684ZM283.412 92.2148C280.238 92.2148 278.314 90.0859 278.314 86.6875V86.6777C278.314 83.3184 280.258 81.1211 283.295 81.1211C286.332 81.1211 288.207 83.25 288.207 86.4727V87.2734H280.746C280.775 89.1875 281.811 90.3008 283.461 90.3008C284.779 90.3008 285.531 89.6367 285.766 89.1484L285.795 89.0801H288.109L288.08 89.168C287.738 90.5449 286.312 92.2148 283.412 92.2148ZM283.324 83.0254C281.967 83.0254 280.951 83.9434 280.766 85.6426H285.834C285.668 83.8945 284.682 83.0254 283.324 83.0254Z" fill="#07192E"/>
<rect width="361" height="220" transform="translate(64 110)" fill="white"/>
<path d="M168.771 228V212.499H178.375V214.239H170.705V219.213H177.978V220.932H170.705V226.26H178.375V228H168.771ZM180.992 228V216.828H182.861V218.418H182.904C183.505 217.376 184.644 216.613 186.341 216.613C188.79 216.613 190.208 218.203 190.208 220.749V228H188.339V221.082C188.339 219.267 187.491 218.268 185.772 218.268C184.01 218.268 182.861 219.524 182.861 221.426V228H180.992ZM197.67 231.975C194.909 231.975 193.169 230.675 192.804 229.021L192.782 228.924H194.662L194.705 229.021C195.059 229.826 196.123 230.32 197.648 230.32C199.614 230.32 200.731 229.235 200.731 227.506V226.077H200.688C200.022 227.312 198.733 228.107 197.133 228.107C194.318 228.107 192.395 225.841 192.395 222.35V222.339C192.395 218.869 194.34 216.613 197.176 216.613C198.755 216.613 200.001 217.473 200.688 218.719H200.731V216.828H202.6V227.688C202.6 230.277 200.699 231.975 197.67 231.975ZM197.541 226.453C199.442 226.453 200.731 224.831 200.731 222.35V222.339C200.731 219.879 199.431 218.268 197.541 218.268C195.554 218.268 194.307 219.857 194.307 222.339V222.35C194.307 224.885 195.554 226.453 197.541 226.453ZM205.464 228V212.499H207.333V228H205.464ZM211.26 214.938C210.616 214.938 210.089 214.411 210.089 213.767C210.089 213.111 210.616 212.596 211.26 212.596C211.916 212.596 212.431 213.111 212.431 213.767C212.431 214.411 211.916 214.938 211.26 214.938ZM210.326 228V216.828H212.195V228H210.326ZM219.055 228.215C216.423 228.215 214.833 226.872 214.607 224.874L214.597 224.777H216.466L216.487 224.885C216.713 226.002 217.54 226.657 219.065 226.657C220.58 226.657 221.482 226.023 221.482 225.014V225.003C221.482 224.197 221.063 223.746 219.796 223.435L218.023 223.005C215.918 222.5 214.897 221.522 214.897 219.911V219.9C214.897 217.978 216.584 216.613 219.001 216.613C221.45 216.613 223.008 218.042 223.147 219.911L223.158 220.051H221.375L221.364 219.976C221.214 218.891 220.387 218.171 219.001 218.171C217.647 218.171 216.81 218.826 216.81 219.814V219.825C216.81 220.588 217.314 221.114 218.55 221.415L220.322 221.845C222.578 222.393 223.395 223.284 223.395 224.874V224.885C223.395 226.84 221.547 228.215 219.055 228.215ZM225.786 228V212.499H227.655V218.611H227.698C228.299 217.354 229.513 216.613 231.178 216.613C233.552 216.613 235.174 218.45 235.174 221.157V228H233.305V221.479C233.305 219.46 232.274 218.268 230.534 218.268C228.804 218.268 227.655 219.578 227.655 221.479V228H225.786ZM246.638 231.76C244.543 229.106 243.587 225.948 243.587 222.124C243.587 218.3 244.543 215.163 246.638 212.499H248.206C246.659 214.293 245.488 218.536 245.488 222.124C245.488 225.712 246.659 229.966 248.206 231.76H246.638ZM254.83 228.215C251.661 228.215 249.652 225.959 249.652 222.403V222.393C249.652 218.869 251.704 216.613 254.808 216.613C257.59 216.613 259.234 218.461 259.47 220.373L259.481 220.459H257.655L257.633 220.373C257.354 219.256 256.452 218.268 254.808 218.268C252.864 218.268 251.564 219.879 251.564 222.414V222.425C251.564 225.024 252.896 226.561 254.83 226.561C256.355 226.561 257.333 225.701 257.644 224.455L257.666 224.369H259.503L259.492 224.444C259.191 226.571 257.354 228.215 254.83 228.215ZM265.385 228.215C262.936 228.215 261.518 226.625 261.518 224.079V216.828H263.387V223.746C263.387 225.562 264.235 226.561 265.954 226.561C267.716 226.561 268.865 225.304 268.865 223.402V216.828H270.734V228H268.865V226.41H268.822C268.221 227.452 267.082 228.215 265.385 228.215ZM277.487 228.215C274.855 228.215 273.265 226.872 273.039 224.874L273.029 224.777H274.898L274.919 224.885C275.145 226.002 275.972 226.657 277.497 226.657C279.012 226.657 279.914 226.023 279.914 225.014V225.003C279.914 224.197 279.496 223.746 278.228 223.435L276.455 223.005C274.35 222.5 273.329 221.522 273.329 219.911V219.9C273.329 217.978 275.016 216.613 277.433 216.613C279.882 216.613 281.44 218.042 281.579 219.911L281.59 220.051H279.807L279.796 219.976C279.646 218.891 278.819 218.171 277.433 218.171C276.079 218.171 275.242 218.826 275.242 219.814V219.825C275.242 220.588 275.746 221.114 276.982 221.415L278.754 221.845C281.01 222.393 281.827 223.284 281.827 224.874V224.885C281.827 226.84 279.979 228.215 277.487 228.215ZM287.752 228.215C285.7 228.215 284.69 227.291 284.69 225.153V218.375H283.057V216.828H284.69V213.81H286.624V216.828H288.751V218.375H286.624V225.143C286.624 226.335 287.15 226.668 288.149 226.668C288.375 226.668 288.59 226.636 288.751 226.625V228.14C288.514 228.172 288.117 228.215 287.752 228.215ZM295.417 228.215C292.313 228.215 290.239 225.97 290.239 222.414V222.393C290.239 218.837 292.323 216.613 295.406 216.613C298.489 216.613 300.584 218.826 300.584 222.393V222.414C300.584 225.98 298.5 228.215 295.417 228.215ZM295.428 226.561C297.394 226.561 298.672 225.035 298.672 222.414V222.393C298.672 219.771 297.383 218.268 295.406 218.268C293.462 218.268 292.152 219.782 292.152 222.393V222.414C292.152 225.046 293.451 226.561 295.428 226.561ZM302.825 228V216.828H304.694V218.461H304.737C305.242 217.354 306.359 216.613 307.798 216.613C309.324 216.613 310.452 217.397 310.935 218.762H310.978C311.601 217.419 312.912 216.613 314.48 216.613C316.693 216.613 318.122 218.063 318.122 220.287V228H316.253V220.717C316.253 219.181 315.404 218.268 313.932 218.268C312.45 218.268 311.408 219.374 311.408 220.899V228H309.539V220.513C309.539 219.159 308.636 218.268 307.251 218.268C305.768 218.268 304.694 219.438 304.694 220.996V228H302.825ZM321.641 231.76H320.072C321.619 229.966 322.79 225.712 322.79 222.124C322.79 218.536 321.619 214.293 320.072 212.499H321.641C323.735 215.163 324.691 218.3 324.691 222.124C324.691 225.948 323.735 229.106 321.641 231.76Z" fill="#1A1A1A"/>
<path d="M216.057 259.234C213.011 259.234 210.95 257.74 210.774 255.328L210.764 255.191H212.522L212.542 255.328C212.747 256.744 214.114 257.613 216.155 257.613C218.186 257.613 219.466 256.695 219.466 255.24V255.23C219.466 253.99 218.655 253.297 216.721 252.867L215.159 252.525C212.405 251.92 211.116 250.68 211.116 248.619V248.609C211.126 246.295 213.177 244.674 216.077 244.674C218.831 244.674 220.843 246.266 220.999 248.57L221.009 248.717H219.251L219.231 248.58C219.016 247.145 217.815 246.295 216.028 246.295C214.143 246.305 212.913 247.203 212.913 248.561V248.57C212.913 249.723 213.763 250.445 215.598 250.846L217.161 251.188C220.052 251.822 221.263 252.994 221.263 255.143V255.152C221.263 257.652 219.28 259.234 216.057 259.234ZM225.421 259L222.579 248.844H224.269L226.3 257.105H226.339L228.634 248.844H230.275L232.579 257.105H232.618L234.65 248.844H236.329L233.497 259H231.769L229.474 251.139H229.435L227.15 259H225.421ZM242.255 259.195C239.336 259.195 237.578 257.154 237.578 253.961V253.951C237.578 250.807 239.375 248.648 242.148 248.648C244.921 248.648 246.611 250.709 246.611 253.756V254.381H239.296C239.336 256.471 240.488 257.691 242.295 257.691C243.584 257.691 244.492 257.047 244.785 256.178L244.814 256.09H246.484L246.464 256.188C246.132 257.867 244.472 259.195 242.255 259.195ZM242.138 250.152C240.664 250.152 239.511 251.158 239.326 253.053H244.882C244.716 251.08 243.623 250.152 242.138 250.152ZM252.498 259.195C249.9 259.195 248.182 257.125 248.182 253.922V253.912C248.182 250.709 249.92 248.648 252.469 248.648C253.904 248.648 255.086 249.371 255.721 250.543H255.76V244.908H257.459V259H255.76V257.281H255.721C255.086 258.463 253.953 259.195 252.498 259.195ZM252.83 257.691C254.549 257.691 255.77 256.197 255.77 253.922V253.912C255.77 251.646 254.539 250.152 252.83 250.152C251.033 250.152 249.92 251.598 249.92 253.912V253.922C249.92 256.256 251.033 257.691 252.83 257.691ZM261.061 247.125C260.475 247.125 259.996 246.646 259.996 246.061C259.996 245.465 260.475 244.996 261.061 244.996C261.657 244.996 262.125 245.465 262.125 246.061C262.125 246.646 261.657 247.125 261.061 247.125ZM260.211 259V248.844H261.911V259H260.211ZM268.179 259.195C265.786 259.195 264.341 257.975 264.136 256.158L264.126 256.07H265.825L265.845 256.168C266.05 257.184 266.802 257.779 268.188 257.779C269.565 257.779 270.386 257.203 270.386 256.285V256.275C270.386 255.543 270.005 255.133 268.852 254.85L267.241 254.459C265.327 254 264.399 253.111 264.399 251.646V251.637C264.399 249.889 265.932 248.648 268.13 248.648C270.356 248.648 271.772 249.947 271.899 251.646L271.909 251.773H270.288L270.278 251.705C270.141 250.719 269.389 250.064 268.13 250.064C266.899 250.064 266.138 250.66 266.138 251.559V251.568C266.138 252.262 266.596 252.74 267.72 253.014L269.331 253.404C271.382 253.902 272.124 254.713 272.124 256.158V256.168C272.124 257.945 270.444 259.195 268.179 259.195ZM274.329 259V244.908H276.029V250.465H276.068C276.614 249.322 277.718 248.648 279.232 248.648C281.39 248.648 282.864 250.318 282.864 252.779V259H281.165V253.072C281.165 251.236 280.228 250.152 278.646 250.152C277.073 250.152 276.029 251.344 276.029 253.072V259H274.329Z" fill="#999999"/>
<path d="M224.742 285L228.938 273.727H230.328L234.516 285H233.039L231.898 281.773H227.359L226.219 285H224.742ZM229.617 275.414L227.789 280.578H231.477L229.648 275.414H229.617ZM235.952 285V276.875H237.311V278.25H237.342C237.616 277.312 238.319 276.719 239.233 276.719C239.467 276.719 239.67 276.758 239.78 276.773V278.094C239.67 278.055 239.381 278.016 239.053 278.016C237.998 278.016 237.311 278.75 237.311 279.984V285H235.952ZM243.458 285.156C241.841 285.156 240.755 284.18 240.755 282.703V282.688C240.755 281.305 241.833 280.438 243.7 280.328L246.028 280.195V279.516C246.028 278.523 245.38 277.922 244.247 277.922C243.2 277.922 242.544 278.422 242.387 279.148L242.372 279.219H241.059L241.067 279.133C241.184 277.797 242.348 276.719 244.262 276.719C246.184 276.719 247.387 277.758 247.387 279.383V285H246.028V283.68H245.997C245.52 284.57 244.544 285.156 243.458 285.156ZM242.145 282.703C242.145 283.484 242.786 283.977 243.762 283.977C245.044 283.977 246.028 283.094 246.028 281.914V281.25L243.856 281.383C242.77 281.445 242.145 281.93 242.145 282.688V282.703ZM253.503 285.156C252.339 285.156 251.433 284.57 250.925 283.625H250.894V285H249.534V273.727H250.894V278.234H250.925C251.433 277.297 252.378 276.719 253.527 276.719C255.566 276.719 256.956 278.367 256.956 280.93V280.938C256.956 283.5 255.581 285.156 253.503 285.156ZM253.237 283.953C254.675 283.953 255.566 282.805 255.566 280.938V280.93C255.566 279.078 254.675 277.922 253.237 277.922C251.87 277.922 250.886 279.117 250.886 280.93V280.938C250.886 282.758 251.862 283.953 253.237 283.953ZM259.439 275.5C258.97 275.5 258.588 275.117 258.588 274.648C258.588 274.172 258.97 273.797 259.439 273.797C259.916 273.797 260.291 274.172 260.291 274.648C260.291 275.117 259.916 275.5 259.439 275.5ZM258.759 285V276.875H260.119V285H258.759ZM265.688 285.156C263.383 285.156 261.922 283.516 261.922 280.93V280.922C261.922 278.359 263.414 276.719 265.672 276.719C267.695 276.719 268.891 278.062 269.062 279.453L269.07 279.516H267.742L267.727 279.453C267.523 278.641 266.867 277.922 265.672 277.922C264.258 277.922 263.312 279.094 263.312 280.938V280.945C263.312 282.836 264.281 283.953 265.688 283.953C266.797 283.953 267.508 283.328 267.734 282.422L267.75 282.359H269.086L269.078 282.414C268.859 283.961 267.523 285.156 265.688 285.156Z" fill="#999999"/>
<path d="M231.165 307V298.545H234.007C236.509 298.545 237.997 300.104 237.997 302.758V302.77C237.997 305.436 236.521 307 234.007 307H231.165ZM232.22 306.051H233.937C235.853 306.051 236.919 304.879 236.919 302.781V302.77C236.919 300.66 235.853 299.494 233.937 299.494H232.22V306.051ZM241.283 307.117C240.07 307.117 239.255 306.385 239.255 305.277V305.266C239.255 304.229 240.064 303.578 241.464 303.496L243.211 303.396V302.887C243.211 302.143 242.724 301.691 241.875 301.691C241.089 301.691 240.597 302.066 240.48 302.611L240.468 302.664H239.484L239.49 302.6C239.578 301.598 240.451 300.789 241.886 300.789C243.328 300.789 244.23 301.568 244.23 302.787V307H243.211V306.01H243.187C242.83 306.678 242.097 307.117 241.283 307.117ZM240.298 305.277C240.298 305.863 240.779 306.232 241.511 306.232C242.472 306.232 243.211 305.57 243.211 304.686V304.188L241.582 304.287C240.767 304.334 240.298 304.697 240.298 305.266V305.277ZM245.875 307V300.906H246.895V301.773H246.918C247.246 301.205 247.867 300.789 248.793 300.789C250.129 300.789 250.902 301.656 250.902 303.045V307H249.883V303.227C249.883 302.236 249.42 301.691 248.482 301.691C247.521 301.691 246.895 302.377 246.895 303.414V307H245.875ZM254.715 307.117C253.28 307.117 252.412 306.385 252.289 305.295L252.284 305.242H253.303L253.315 305.301C253.438 305.91 253.889 306.268 254.721 306.268C255.547 306.268 256.039 305.922 256.039 305.371V305.365C256.039 304.926 255.811 304.68 255.12 304.51L254.153 304.275C253.004 304 252.448 303.467 252.448 302.588V302.582C252.448 301.533 253.368 300.789 254.686 300.789C256.022 300.789 256.871 301.568 256.948 302.588L256.954 302.664H255.981L255.975 302.623C255.893 302.031 255.442 301.639 254.686 301.639C253.948 301.639 253.491 301.996 253.491 302.535V302.541C253.491 302.957 253.766 303.244 254.44 303.408L255.407 303.643C256.637 303.941 257.082 304.428 257.082 305.295V305.301C257.082 306.367 256.075 307.117 254.715 307.117ZM258.575 307V298.545H259.595V303.596H259.618L262.29 300.906H263.526L260.884 303.537L263.608 307H262.425L260.163 304.158L259.595 304.703V307H258.575Z" fill="#999999"/>
<rect width="366" height="0.5" transform="translate(64 237.5)" fill="#CCCCCC"/>
<rect width="366" height="0.5" transform="translate(64 203)" fill="#CCCCCC"/>
<rect width="366" height="93" transform="translate(64 110)" fill="url(#paint0_linear_570_13023)"/>
<rect width="366" height="92" transform="matrix(1 0 0 -1 64 330)" fill="url(#paint1_linear_570_13023)"/>
<path d="M135.998 360.148H134.225C134.157 359.769 134.03 359.436 133.844 359.148C133.659 358.86 133.432 358.616 133.163 358.415C132.894 358.214 132.593 358.062 132.259 357.96C131.93 357.858 131.579 357.807 131.208 357.807C130.538 357.807 129.937 357.975 129.407 358.312C128.88 358.65 128.464 359.144 128.157 359.795C127.854 360.447 127.702 361.242 127.702 362.182C127.702 363.129 127.854 363.928 128.157 364.58C128.464 365.231 128.882 365.723 129.413 366.057C129.943 366.39 130.54 366.557 131.202 366.557C131.57 366.557 131.918 366.508 132.248 366.409C132.581 366.307 132.882 366.157 133.151 365.96C133.42 365.763 133.647 365.523 133.833 365.239C134.022 364.951 134.153 364.621 134.225 364.25L135.998 364.256C135.903 364.828 135.719 365.354 135.447 365.835C135.178 366.312 134.831 366.725 134.407 367.074C133.987 367.419 133.505 367.686 132.964 367.875C132.422 368.064 131.831 368.159 131.191 368.159C130.183 368.159 129.286 367.92 128.498 367.443C127.71 366.962 127.089 366.275 126.634 365.381C126.183 364.487 125.958 363.42 125.958 362.182C125.958 360.939 126.185 359.873 126.64 358.983C127.094 358.089 127.716 357.403 128.504 356.926C129.291 356.445 130.187 356.205 131.191 356.205C131.808 356.205 132.384 356.294 132.918 356.472C133.456 356.646 133.939 356.903 134.367 357.244C134.795 357.581 135.149 357.994 135.43 358.483C135.71 358.968 135.899 359.523 135.998 360.148ZM140.002 368.193C139.449 368.193 138.949 368.091 138.502 367.886C138.055 367.678 137.701 367.377 137.44 366.983C137.182 366.589 137.053 366.106 137.053 365.534C137.053 365.042 137.148 364.636 137.337 364.318C137.527 364 137.782 363.748 138.104 363.562C138.426 363.377 138.786 363.237 139.184 363.142C139.582 363.047 139.987 362.975 140.4 362.926C140.923 362.866 141.347 362.816 141.673 362.778C141.998 362.737 142.235 362.67 142.383 362.58C142.531 362.489 142.604 362.341 142.604 362.136V362.097C142.604 361.6 142.464 361.216 142.184 360.943C141.907 360.67 141.495 360.534 140.945 360.534C140.373 360.534 139.923 360.661 139.593 360.915C139.267 361.165 139.042 361.443 138.917 361.75L137.32 361.386C137.51 360.856 137.786 360.428 138.15 360.102C138.517 359.773 138.94 359.534 139.417 359.386C139.894 359.235 140.396 359.159 140.923 359.159C141.271 359.159 141.64 359.201 142.031 359.284C142.424 359.364 142.792 359.511 143.133 359.727C143.478 359.943 143.76 360.252 143.979 360.653C144.199 361.051 144.309 361.568 144.309 362.205V368H142.65V366.807H142.582C142.472 367.027 142.307 367.242 142.087 367.455C141.868 367.667 141.585 367.843 141.241 367.983C140.896 368.123 140.483 368.193 140.002 368.193ZM140.371 366.83C140.841 366.83 141.243 366.737 141.576 366.551C141.913 366.366 142.169 366.123 142.343 365.824C142.521 365.521 142.61 365.197 142.61 364.852V363.727C142.549 363.788 142.432 363.845 142.258 363.898C142.087 363.947 141.892 363.991 141.673 364.028C141.453 364.062 141.239 364.095 141.031 364.125C140.822 364.152 140.648 364.174 140.508 364.193C140.178 364.235 139.877 364.305 139.604 364.403C139.335 364.502 139.12 364.644 138.957 364.83C138.798 365.011 138.718 365.254 138.718 365.557C138.718 365.977 138.873 366.295 139.184 366.511C139.495 366.723 139.89 366.83 140.371 366.83ZM147.771 362.818V368H146.072V359.273H147.702V360.693H147.81C148.011 360.231 148.326 359.86 148.754 359.58C149.185 359.299 149.729 359.159 150.384 359.159C150.979 359.159 151.5 359.284 151.947 359.534C152.394 359.78 152.74 360.148 152.987 360.636C153.233 361.125 153.356 361.729 153.356 362.449V368H151.657V362.653C151.657 362.021 151.492 361.527 151.163 361.17C150.833 360.811 150.38 360.631 149.805 360.631C149.411 360.631 149.06 360.716 148.754 360.886C148.451 361.057 148.21 361.307 148.032 361.636C147.858 361.962 147.771 362.356 147.771 362.818ZM158.81 368.176C157.966 368.176 157.238 367.985 156.629 367.602C156.022 367.216 155.557 366.684 155.231 366.006C154.905 365.328 154.742 364.551 154.742 363.676C154.742 362.79 154.909 362.008 155.242 361.33C155.576 360.648 156.045 360.116 156.651 359.733C157.257 359.35 157.971 359.159 158.793 359.159C159.456 359.159 160.047 359.282 160.566 359.528C161.085 359.771 161.504 360.112 161.822 360.551C162.144 360.991 162.335 361.504 162.396 362.091H160.742C160.651 361.682 160.443 361.33 160.117 361.034C159.795 360.739 159.363 360.591 158.822 360.591C158.348 360.591 157.933 360.716 157.577 360.966C157.225 361.212 156.951 361.564 156.754 362.023C156.557 362.477 156.458 363.015 156.458 363.636C156.458 364.273 156.555 364.822 156.748 365.284C156.941 365.746 157.214 366.104 157.566 366.358C157.922 366.612 158.341 366.739 158.822 366.739C159.144 366.739 159.435 366.68 159.697 366.562C159.962 366.441 160.183 366.269 160.362 366.045C160.543 365.822 160.67 365.553 160.742 365.239H162.396C162.335 365.803 162.151 366.307 161.844 366.75C161.538 367.193 161.127 367.542 160.612 367.795C160.1 368.049 159.5 368.176 158.81 368.176ZM167.474 368.176C166.614 368.176 165.873 367.992 165.252 367.625C164.635 367.254 164.157 366.733 163.82 366.062C163.487 365.388 163.32 364.598 163.32 363.693C163.32 362.799 163.487 362.011 163.82 361.33C164.157 360.648 164.627 360.116 165.229 359.733C165.835 359.35 166.544 359.159 167.354 359.159C167.847 359.159 168.324 359.241 168.786 359.403C169.248 359.566 169.663 359.822 170.031 360.17C170.398 360.519 170.688 360.972 170.9 361.528C171.112 362.081 171.218 362.754 171.218 363.545V364.148H164.281V362.875H169.553C169.553 362.428 169.462 362.032 169.281 361.688C169.099 361.339 168.843 361.064 168.513 360.864C168.188 360.663 167.805 360.562 167.366 360.562C166.888 360.562 166.472 360.68 166.116 360.915C165.763 361.146 165.491 361.449 165.298 361.824C165.108 362.195 165.013 362.598 165.013 363.034V364.028C165.013 364.612 165.116 365.108 165.32 365.517C165.529 365.926 165.818 366.239 166.19 366.455C166.561 366.667 166.995 366.773 167.491 366.773C167.813 366.773 168.106 366.727 168.371 366.636C168.637 366.542 168.866 366.402 169.059 366.216C169.252 366.03 169.4 365.801 169.502 365.528L171.11 365.818C170.981 366.292 170.75 366.706 170.417 367.062C170.087 367.415 169.673 367.689 169.173 367.886C168.676 368.08 168.11 368.176 167.474 368.176ZM174.302 356.364V368H172.603V356.364H174.302Z" fill="#07192E"/>
<rect x="252.5" y="340" width="172.5" height="44" rx="22" fill="#07192E"/>
<path d="M328.136 359.562C328.083 359.066 327.859 358.68 327.465 358.403C327.075 358.127 326.567 357.989 325.942 357.989C325.503 357.989 325.126 358.055 324.812 358.188C324.497 358.32 324.257 358.5 324.09 358.727C323.924 358.955 323.838 359.214 323.835 359.506C323.835 359.748 323.889 359.958 323.999 360.136C324.113 360.314 324.266 360.466 324.46 360.591C324.653 360.712 324.867 360.814 325.102 360.898C325.336 360.981 325.573 361.051 325.812 361.108L326.903 361.381C327.342 361.483 327.764 361.621 328.17 361.795C328.579 361.97 328.944 362.189 329.266 362.455C329.592 362.72 329.85 363.04 330.039 363.415C330.228 363.79 330.323 364.229 330.323 364.733C330.323 365.415 330.149 366.015 329.8 366.534C329.452 367.049 328.948 367.453 328.289 367.744C327.634 368.032 326.84 368.176 325.908 368.176C325.003 368.176 324.217 368.036 323.55 367.756C322.888 367.475 322.369 367.066 321.994 366.528C321.622 365.991 321.422 365.335 321.391 364.562H323.465C323.496 364.968 323.621 365.305 323.84 365.574C324.06 365.843 324.346 366.044 324.698 366.176C325.054 366.309 325.452 366.375 325.891 366.375C326.35 366.375 326.751 366.307 327.096 366.17C327.444 366.03 327.717 365.837 327.914 365.591C328.111 365.341 328.211 365.049 328.215 364.716C328.211 364.413 328.122 364.163 327.948 363.966C327.774 363.765 327.53 363.598 327.215 363.466C326.905 363.33 326.541 363.208 326.124 363.102L324.8 362.761C323.842 362.515 323.085 362.142 322.528 361.642C321.975 361.138 321.698 360.47 321.698 359.636C321.698 358.951 321.884 358.35 322.255 357.835C322.63 357.32 323.139 356.92 323.783 356.636C324.427 356.348 325.156 356.205 325.971 356.205C326.797 356.205 327.52 356.348 328.141 356.636C328.766 356.92 329.257 357.316 329.613 357.824C329.969 358.328 330.153 358.907 330.164 359.562H328.136ZM334.123 368.176C333.57 368.176 333.072 368.078 332.629 367.881C332.189 367.68 331.841 367.384 331.583 366.994C331.329 366.604 331.202 366.123 331.202 365.551C331.202 365.059 331.293 364.652 331.475 364.33C331.657 364.008 331.905 363.75 332.219 363.557C332.534 363.364 332.888 363.218 333.282 363.119C333.68 363.017 334.091 362.943 334.515 362.898C335.026 362.845 335.441 362.797 335.759 362.756C336.077 362.71 336.308 362.642 336.452 362.551C336.6 362.456 336.674 362.311 336.674 362.114V362.08C336.674 361.652 336.547 361.32 336.293 361.085C336.04 360.85 335.674 360.733 335.197 360.733C334.693 360.733 334.293 360.843 333.998 361.062C333.706 361.282 333.509 361.542 333.407 361.841L331.487 361.568C331.638 361.038 331.888 360.595 332.237 360.239C332.585 359.879 333.011 359.61 333.515 359.432C334.019 359.25 334.576 359.159 335.185 359.159C335.606 359.159 336.024 359.208 336.441 359.307C336.858 359.405 337.238 359.568 337.583 359.795C337.928 360.019 338.204 360.324 338.413 360.71C338.625 361.097 338.731 361.58 338.731 362.159V368H336.754V366.801H336.685C336.56 367.044 336.384 367.271 336.157 367.483C335.933 367.691 335.651 367.86 335.31 367.989C334.973 368.114 334.577 368.176 334.123 368.176ZM334.657 366.665C335.07 366.665 335.428 366.583 335.731 366.42C336.034 366.254 336.267 366.034 336.43 365.761C336.596 365.489 336.68 365.191 336.68 364.869V363.841C336.615 363.894 336.505 363.943 336.35 363.989C336.199 364.034 336.028 364.074 335.839 364.108C335.649 364.142 335.462 364.172 335.276 364.199C335.091 364.225 334.93 364.248 334.793 364.267C334.487 364.309 334.212 364.377 333.969 364.472C333.727 364.566 333.536 364.699 333.396 364.869C333.255 365.036 333.185 365.252 333.185 365.517C333.185 365.896 333.324 366.182 333.6 366.375C333.877 366.568 334.229 366.665 334.657 366.665ZM347.782 359.273L344.674 368H342.401L339.293 359.273H341.487L343.492 365.756H343.583L345.594 359.273H347.782ZM352.272 368.17C351.397 368.17 350.641 367.989 350.005 367.625C349.372 367.258 348.886 366.739 348.545 366.068C348.204 365.394 348.033 364.6 348.033 363.688C348.033 362.79 348.204 362.002 348.545 361.324C348.889 360.642 349.371 360.112 349.988 359.733C350.605 359.35 351.331 359.159 352.164 359.159C352.702 359.159 353.21 359.246 353.687 359.42C354.168 359.591 354.592 359.856 354.96 360.216C355.331 360.576 355.622 361.034 355.835 361.591C356.047 362.144 356.153 362.803 356.153 363.568V364.199H348.999V362.812H354.181C354.177 362.419 354.092 362.068 353.925 361.761C353.759 361.451 353.526 361.206 353.227 361.028C352.931 360.85 352.586 360.761 352.192 360.761C351.772 360.761 351.403 360.864 351.085 361.068C350.766 361.269 350.518 361.534 350.34 361.864C350.166 362.189 350.077 362.547 350.073 362.938V364.148C350.073 364.655 350.166 365.091 350.352 365.455C350.537 365.814 350.797 366.091 351.13 366.284C351.463 366.473 351.853 366.568 352.3 366.568C352.6 366.568 352.871 366.527 353.113 366.443C353.355 366.356 353.566 366.229 353.744 366.062C353.922 365.896 354.056 365.689 354.147 365.443L356.067 365.659C355.946 366.167 355.715 366.61 355.374 366.989C355.037 367.364 354.605 367.655 354.079 367.864C353.552 368.068 352.95 368.17 352.272 368.17Z" fill="white"/>
</g>
<defs>
<filter id="filter0_d_570_13023" x="0" y="0" width="489" height="466" filterUnits="userSpaceOnUse" color-interpolation-filters="sRGB">
<feFlood flood-opacity="0" result="BackgroundImageFix"/>
<feColorMatrix in="SourceAlpha" type="matrix" values="0 0 0 0 0 0 0 0 0 0 0 0 0 0 0 0 0 0 127 0" result="hardAlpha"/>
<feOffset dy="4"/>
<feGaussianBlur stdDeviation="24"/>
<feComposite in2="hardAlpha" operator="out"/>
<feColorMatrix type="matrix" values="0 0 0 0 0 0 0 0 0 0 0 0 0 0 0 0 0 0 0.1 0"/>
<feBlend mode="normal" in2="BackgroundImageFix" result="effect1_dropShadow_570_13023"/>
<feBlend mode="normal" in="SourceGraphic" in2="effect1_dropShadow_570_13023" result="shape"/>
</filter>
<linearGradient id="paint0_linear_570_13023" x1="183" y1="17.8085" x2="183" y2="62.3298" gradientUnits="userSpaceOnUse">
<stop stop-color="white"/>
<stop offset="1" stop-color="white" stop-opacity="0"/>
</linearGradient>
<linearGradient id="paint1_linear_570_13023" x1="183" y1="17.617" x2="183" y2="61.6596" gradientUnits="userSpaceOnUse">
<stop stop-color="white"/>
<stop offset="1" stop-color="white" stop-opacity="0"/>
</linearGradient>
</defs>
</svg>
