<svg width="393" height="852" viewBox="0 0 393 852" fill="none" xmlns="http://www.w3.org/2000/svg">
<g clip-path="url(#clip0_570_12027)">
<rect width="393" height="852" fill="#F4F6F9"/>
<rect width="393" height="60" fill="white"/>
<path d="M46.7666 23.7231C47.4085 23.7231 48.0173 23.8421 48.5928 24.0801C49.1683 24.3125 49.6774 24.6777 50.1201 25.1758C50.5684 25.6683 50.9198 26.3019 51.1743 27.0767C51.4289 27.8459 51.5562 28.7728 51.5562 29.8574V29.874C51.5562 31.2188 51.3625 32.3698 50.9751 33.3271C50.5877 34.2845 50.0316 35.0205 49.3066 35.5352C48.5872 36.0443 47.7267 36.2988 46.7251 36.2988C45.9891 36.2988 45.325 36.166 44.7329 35.9004C44.1463 35.6292 43.6593 35.2585 43.272 34.7881C42.8901 34.3122 42.6328 33.7699 42.5 33.1611L42.4834 33.0698H44.5835L44.6167 33.1528C44.7218 33.4295 44.8713 33.673 45.0649 33.8833C45.2642 34.0936 45.5021 34.2568 45.7788 34.373C46.061 34.4837 46.3765 34.5391 46.7251 34.5391C47.356 34.5391 47.8706 34.3537 48.269 33.9829C48.673 33.6066 48.9746 33.1058 49.1738 32.4805C49.3786 31.8496 49.4948 31.1523 49.5225 30.3887C49.528 30.3057 49.5308 30.2254 49.5308 30.1479C49.5308 30.0649 49.5308 29.9847 49.5308 29.9072L49.1572 27.9067C49.1572 27.453 49.0521 27.0407 48.8418 26.6699C48.6315 26.2992 48.3465 26.0059 47.9868 25.79C47.6326 25.5742 47.2314 25.4663 46.7832 25.4663C46.3516 25.4663 45.9559 25.5715 45.5962 25.7817C45.2365 25.992 44.9487 26.2798 44.7329 26.645C44.5171 27.0047 44.4092 27.4087 44.4092 27.8569V27.8735C44.4092 28.3384 44.5116 28.7507 44.7163 29.1104C44.9211 29.4645 45.2005 29.744 45.5547 29.9487C45.9089 30.1535 46.3128 30.2559 46.7666 30.2559C47.2204 30.2559 47.6271 30.1562 47.9868 29.957C48.3465 29.7578 48.6315 29.4811 48.8418 29.127C49.0521 28.7728 49.1572 28.3716 49.1572 27.9233V27.9067H49.6553V30.1147H49.3647C49.2209 30.4302 49.0078 30.7235 48.7256 30.9946C48.4434 31.2658 48.0947 31.4844 47.6797 31.6504C47.2702 31.8164 46.7887 31.8994 46.2354 31.8994C45.4717 31.8994 44.7965 31.7279 44.21 31.3848C43.6234 31.0417 43.1613 30.5713 42.8237 29.9736C42.4917 29.376 42.3257 28.7008 42.3257 27.9482V27.9316C42.3257 27.1182 42.5138 26.396 42.8901 25.7651C43.272 25.1287 43.7977 24.6307 44.4673 24.271C45.1424 23.9058 45.9089 23.7231 46.7666 23.7231ZM54.8247 34.3896C54.4484 34.3896 54.133 34.2651 53.8784 34.0161C53.6294 33.7616 53.5049 33.4517 53.5049 33.0864C53.5049 32.7157 53.6294 32.4058 53.8784 32.1567C54.133 31.9022 54.4484 31.7749 54.8247 31.7749C55.2065 31.7749 55.522 31.9022 55.771 32.1567C56.02 32.4058 56.1445 32.7157 56.1445 33.0864C56.1445 33.4517 56.02 33.7616 55.771 34.0161C55.522 34.2651 55.2065 34.3896 54.8247 34.3896ZM54.8247 28.2305C54.4484 28.2305 54.133 28.106 53.8784 27.8569C53.6294 27.6024 53.5049 27.2925 53.5049 26.9272C53.5049 26.5565 53.6294 26.2466 53.8784 25.9976C54.133 25.743 54.4484 25.6157 54.8247 25.6157C55.2065 25.6157 55.522 25.743 55.771 25.9976C56.02 26.2466 56.1445 26.5565 56.1445 26.9272C56.1445 27.2925 56.02 27.6024 55.771 27.8569C55.522 28.106 55.2065 28.2305 54.8247 28.2305ZM63.9038 36V33.7007H58.0435V31.9492C58.3589 31.4124 58.6743 30.8729 58.9897 30.3306C59.3107 29.7882 59.6344 29.2487 59.9609 28.7119C60.293 28.1696 60.6222 27.6356 60.9487 27.1099C61.2808 26.5786 61.61 26.0557 61.9365 25.541C62.2686 25.0208 62.6006 24.5145 62.9326 24.022H65.9458V31.9326H67.5645V33.7007H65.9458V36H63.9038ZM60.0356 31.9824H63.937V25.7319H63.8125C63.569 26.1082 63.3172 26.4956 63.0571 26.894C62.8026 27.2925 62.5452 27.6992 62.2852 28.1143C62.0251 28.5293 61.7677 28.9471 61.5132 29.3677C61.2586 29.7827 61.0068 30.2005 60.7578 30.6211C60.5088 31.0361 60.2681 31.4484 60.0356 31.8579V31.9824ZM72.02 36V26.1304H71.8706L68.8906 28.2305V26.2217L72.02 24.022H74.1533V36H72.02Z" fill="black"/>
<path d="M82.2507 30.5545C82.0199 30.5504 81.8275 30.4996 81.6736 30.4021C81.5237 30.3005 81.4124 30.1724 81.3395 30.0179C81.2666 29.8594 81.2382 29.6928 81.2544 29.518C81.2706 29.3391 81.3314 29.1745 81.4367 29.0241C81.542 28.8696 81.6979 28.7456 81.9044 28.6521L91.6243 24.1584C91.9038 24.0324 92.161 23.9815 92.3959 24.0059C92.6308 24.0263 92.8231 24.1096 92.973 24.2559C93.1228 24.3982 93.2119 24.5852 93.2403 24.8169C93.2727 25.0445 93.2241 25.3006 93.0945 25.5852L88.6294 35.3044C88.5322 35.5239 88.4046 35.6885 88.2467 35.7983C88.0887 35.9121 87.9207 35.9771 87.7425 35.9934C87.5643 36.0137 87.3962 35.9873 87.2382 35.9141C87.0803 35.8409 86.9527 35.7271 86.8555 35.5727C86.7583 35.4223 86.7097 35.2353 86.7097 35.0117L86.6976 30.6643C86.6976 30.5992 86.6652 30.5667 86.6004 30.5667L82.2507 30.5545Z" fill="black"/>
<rect x="135.5" y="12" width="122" height="36" rx="18" fill="black"/>
<circle cx="239.5" cy="30" r="6" fill="#0E101F"/>
<circle cx="239.5" cy="30" r="4.90909" fill="#01031A"/>
<g filter="url(#filter0_f_570_12027)">
<ellipse cx="239.5" cy="27.2727" rx="2.72727" ry="1.09091" fill="white" fill-opacity="0.1"/>
</g>
<g filter="url(#filter1_f_570_12027)">
<ellipse cx="239.5" cy="32.1818" rx="2.72727" ry="1.63636" fill="white" fill-opacity="0.1"/>
</g>
<path d="M284.917 32H286.083C286.728 32 287.25 32.5037 287.25 33.125V35.375C287.25 35.9963 286.728 36.5 286.083 36.5H284.917C284.272 36.5 283.75 35.9963 283.75 35.375V33.125C283.75 32.5037 284.272 32 284.917 32Z" fill="black"/>
<path d="M289.917 30H291.083C291.728 30 292.25 30.5037 292.25 31.125V35.375C292.25 35.9963 291.728 36.5 291.083 36.5H289.917C289.272 36.5 288.75 35.9963 288.75 35.375V31.125C288.75 30.5037 289.272 30 289.917 30Z" fill="black"/>
<path opacity="0.2" d="M294.917 27H296.083C296.728 27 297.25 27.5037 297.25 28.125V35.375C297.25 35.9963 296.728 36.5 296.083 36.5H294.917C294.272 36.5 293.75 35.9963 293.75 35.375V28.125C293.75 27.5037 294.272 27 294.917 27Z" fill="black"/>
<path opacity="0.2" d="M299.917 24H301.083C301.728 24 302.25 24.5037 302.25 25.125V35.375C302.25 35.9963 301.728 36.5 301.083 36.5H299.917C299.272 36.5 298.75 35.9963 298.75 35.375V25.125C298.75 24.5037 299.272 24 299.917 24Z" fill="black"/>
<path d="M315.107 32.6929C312.774 32.6929 311.119 31.0449 311.119 28.6982C311.119 26.3516 312.774 24.7036 315.107 24.7036H321.066C323.393 24.7036 325.054 26.3516 325.054 28.6982C325.054 31.0449 323.393 32.6929 321.066 32.6929H319.128C318.799 32.3501 318.772 31.6052 319.023 31.3284H320.994C322.53 31.3284 323.617 30.2473 323.617 28.6982C323.617 27.1558 322.53 26.0681 320.994 26.0681H315.18C313.644 26.0681 312.556 27.1558 312.556 28.6982C312.556 30.2473 313.644 31.3284 315.18 31.3284H315.529C315.45 31.7371 315.483 32.2314 315.542 32.6929H315.107ZM320.434 35.8438C318.1 35.8438 316.446 34.1958 316.446 31.8491C316.446 29.5024 318.1 27.8545 320.434 27.8545H322.365C322.675 28.1973 322.701 28.9158 322.477 29.219H320.506C318.97 29.219 317.883 30.3 317.883 31.8491C317.883 33.3916 318.97 34.4792 320.506 34.4792H326.32C327.856 34.4792 328.944 33.3916 328.944 31.8491C328.944 30.3 327.856 29.219 326.32 29.219H325.971C326.05 28.8037 326.023 28.3159 325.958 27.8545H326.393C328.726 27.8545 330.381 29.5024 330.381 31.8491C330.381 34.1958 328.726 35.8438 326.393 35.8438H320.434Z" fill="black"/>
<g opacity="0.3">
<path d="M340.416 24.7777C339.75 25.7866 339.75 27.1911 339.75 30C339.75 32.8089 339.75 34.2134 340.416 35.2223C340.704 35.659 341.075 36.034 341.506 36.3259C342.503 37 343.89 37 346.665 37H357.533C360.308 37 361.695 37 362.692 36.3259C363.123 36.034 363.494 35.659 363.782 35.2223C364.448 34.2134 364.448 32.8089 364.448 30C364.448 27.1911 364.448 25.7866 363.782 24.7777C363.494 24.341 363.123 23.966 362.692 23.6741C361.695 23 360.308 23 357.533 23H346.665C343.89 23 342.503 23 341.506 23.6741C341.075 23.966 340.704 24.341 340.416 24.7777Z" fill="black"/>
<path d="M366.75 29.75C366.75 30.6231 366.232 31.4112 365.436 31.75V27.75C366.232 28.0888 366.75 28.8769 366.75 29.75Z" fill="black"/>
</g>
<path d="M339.75 30C339.75 27.1911 339.75 25.7866 340.424 24.7777C340.716 24.341 341.091 23.966 341.528 23.6741C342.537 23 343.941 23 346.75 23H349.629V37H346.75C343.941 37 342.537 37 341.528 36.3259C341.091 36.034 340.716 35.659 340.424 35.2223C339.75 34.2134 339.75 32.8089 339.75 30Z" fill="#F7CE45"/>
<path d="M349.46 34.1719C347.709 34.1719 346.555 33.2319 346.447 31.8462L346.442 31.7764H347.994L348 31.8354C348.069 32.437 348.623 32.8667 349.46 32.8667C350.288 32.8667 350.83 32.4048 350.83 31.7495V31.7388C350.83 30.9976 350.277 30.5894 349.337 30.5894H348.451V29.4346H349.315C350.132 29.4346 350.658 29.0049 350.658 28.3765V28.3657C350.658 27.7212 350.212 27.3237 349.45 27.3237C348.687 27.3237 348.177 27.7373 348.112 28.3818L348.107 28.4302H346.614L346.619 28.3657C346.732 26.98 347.822 26.0776 349.45 26.0776C351.115 26.0776 352.189 26.9155 352.189 28.1509V28.1616C352.189 29.1284 351.48 29.7568 350.572 29.9448V29.9771C351.727 30.0845 352.479 30.7505 352.479 31.8032V31.814C352.479 33.2212 351.271 34.1719 349.46 34.1719ZM353.424 34V32.9097L355.921 30.4443C357.012 29.3862 357.307 28.9941 357.307 28.4517V28.4355C357.307 27.7749 356.856 27.313 356.115 27.313C355.357 27.313 354.836 27.8179 354.836 28.5537V28.5806H353.338L353.333 28.5591C353.333 27.0713 354.493 26.0508 356.19 26.0508C357.785 26.0508 358.902 26.9639 358.902 28.3013V28.3174C358.902 29.1982 358.446 29.9287 357.033 31.2339L355.599 32.5713V32.6948H359.015V34H353.424Z" fill="black"/>
<mask id="path-16-inside-1_570_12027" fill="white">
<path d="M0 60H393V104H0V60Z"/>
</mask>
<path d="M0 60H393V104H0V60Z" fill="white"/>
<path d="M393 104V103.5H0V104V104.5H393V104Z" fill="#D2D2D2" mask="url(#path-16-inside-1_570_12027)"/>
<path d="M133.98 89V74.9082H136.168L143.092 84.6152H143.248V74.9082H145.67V89H143.492L136.568 79.293H136.412V89H133.98ZM153.473 89.2148C150.299 89.2148 148.375 87.0859 148.375 83.6875V83.6777C148.375 80.3184 150.318 78.1211 153.355 78.1211C156.393 78.1211 158.268 80.25 158.268 83.4727V84.2734H150.807C150.836 86.1875 151.871 87.3008 153.521 87.3008C154.84 87.3008 155.592 86.6367 155.826 86.1484L155.855 86.0801H158.17L158.141 86.168C157.799 87.5449 156.373 89.2148 153.473 89.2148ZM153.385 80.0254C152.027 80.0254 151.012 80.9434 150.826 82.6426H155.895C155.729 80.8945 154.742 80.0254 153.385 80.0254ZM162.594 89L159.703 78.3262H162.145L163.922 86.3438H164.088L166.139 78.3262H168.453L170.523 86.3438H170.689L172.457 78.3262H174.869L171.979 89H169.43L167.35 81.2656H167.184L165.113 89H162.594ZM182.574 89V74.9082H188.463C191.139 74.9082 192.75 76.2559 192.75 78.4141V78.4336C192.75 79.9082 191.656 81.2168 190.24 81.4414V81.6172C192.135 81.793 193.443 83.1602 193.443 84.9863V85.0059C193.443 87.4766 191.607 89 188.6 89H182.574ZM187.848 76.8711H185.094V80.8457H187.525C189.312 80.8457 190.26 80.1523 190.26 78.873V78.8535C190.26 77.6035 189.371 76.8711 187.848 76.8711ZM187.926 82.6328H185.094V87.0371H188.023C189.879 87.0371 190.865 86.2656 190.865 84.8301V84.8105C190.865 83.3848 189.85 82.6328 187.926 82.6328ZM200.543 89.2148C197.34 89.2148 195.406 87.125 195.406 83.668V83.6484C195.406 80.2207 197.369 78.1211 200.543 78.1211C203.727 78.1211 205.68 80.2109 205.68 83.6484V83.668C205.68 87.125 203.736 89.2148 200.543 89.2148ZM200.543 87.2422C202.232 87.2422 203.189 85.9238 203.189 83.6777V83.6582C203.189 81.4121 202.223 80.084 200.543 80.084C198.854 80.084 197.887 81.4121 197.887 83.6582V83.6777C197.887 85.9238 198.854 87.2422 200.543 87.2422ZM212.73 89.2148C209.527 89.2148 207.594 87.125 207.594 83.668V83.6484C207.594 80.2207 209.557 78.1211 212.73 78.1211C215.914 78.1211 217.867 80.2109 217.867 83.6484V83.668C217.867 87.125 215.924 89.2148 212.73 89.2148ZM212.73 87.2422C214.42 87.2422 215.377 85.9238 215.377 83.6777V83.6582C215.377 81.4121 214.41 80.084 212.73 80.084C211.041 80.084 210.074 81.4121 210.074 83.6582V83.6777C210.074 85.9238 211.041 87.2422 212.73 87.2422ZM220.406 89V74.1953H222.838V82.7012H223.004L226.939 78.3262H229.752L225.455 82.8379L230.045 89H227.115L223.688 84.3809L222.838 85.25V89H220.406ZM233.16 76.5391C232.359 76.5391 231.705 75.9043 231.705 75.1035C231.705 74.3125 232.359 73.668 233.16 73.668C233.951 73.668 234.605 74.3125 234.605 75.1035C234.605 75.9043 233.951 76.5391 233.16 76.5391ZM231.939 89V78.3262H234.371V89H231.939ZM237.359 89V78.3262H239.791V79.957H239.957C240.465 78.8145 241.49 78.1211 243.033 78.1211C245.416 78.1211 246.715 79.5566 246.715 82.0957V89H244.283V82.6621C244.283 81.002 243.609 80.1621 242.135 80.1621C240.689 80.1621 239.791 81.1777 239.791 82.7793V89H237.359ZM254.176 92.75C251.363 92.75 249.674 91.5488 249.43 89.752L249.439 89.7227H251.871L251.881 89.752C252.047 90.4355 252.857 90.9141 254.215 90.9141C255.875 90.9141 256.842 90.1426 256.842 88.7754V86.7344H256.676C256.061 87.877 254.898 88.502 253.424 88.502C250.719 88.502 249.039 86.4121 249.039 83.3848V83.3652C249.039 80.2793 250.719 78.1504 253.473 78.1504C254.947 78.1504 256.1 78.873 256.705 80.084H256.832V78.3262H259.264V88.7363C259.264 91.1973 257.291 92.75 254.176 92.75ZM254.176 86.5684C255.865 86.5684 256.881 85.2695 256.881 83.3848V83.3652C256.881 81.4805 255.855 80.1719 254.176 80.1719C252.486 80.1719 251.529 81.4805 251.529 83.3652V83.3848C251.529 85.2695 252.486 86.5684 254.176 86.5684Z" fill="black"/>
<rect x="16" y="124" width="361" height="257" rx="8" fill="white"/>
<rect x="32" y="132" width="329" height="44" rx="6" fill="white"/>
<path d="M48.2585 150.727C48.1861 150.116 47.8923 149.641 47.3771 149.303C46.862 148.964 46.2301 148.795 45.4815 148.795C44.9342 148.795 44.4553 148.884 44.0447 149.061C43.6383 149.238 43.3203 149.482 43.0909 149.792C42.8655 150.101 42.7528 150.454 42.7528 150.848C42.7528 151.178 42.8313 151.462 42.9883 151.699C43.1493 151.933 43.3545 152.128 43.604 152.285C43.8536 152.438 44.1152 152.565 44.3888 152.665C44.6625 152.762 44.9141 152.84 45.1435 152.901L46.3991 153.239C46.7211 153.323 47.0793 153.44 47.4737 153.589C47.8722 153.738 48.2525 153.941 48.6147 154.199C48.9809 154.452 49.2828 154.778 49.5202 155.176C49.7577 155.575 49.8764 156.064 49.8764 156.643C49.8764 157.312 49.7013 157.915 49.3512 158.455C49.0051 158.994 48.498 159.422 47.8299 159.74C47.1658 160.058 46.3589 160.217 45.4091 160.217C44.5237 160.217 43.757 160.074 43.109 159.789C42.4651 159.503 41.958 159.105 41.5877 158.593C41.2215 158.082 41.0142 157.489 40.9659 156.812H42.5114C42.5516 157.279 42.7086 157.666 42.9822 157.972C43.2599 158.273 43.6101 158.499 44.0327 158.648C44.4593 158.793 44.9181 158.865 45.4091 158.865C45.9806 158.865 46.4937 158.772 46.9485 158.587C47.4033 158.398 47.7635 158.137 48.0291 157.803C48.2947 157.464 48.4276 157.07 48.4276 156.619C48.4276 156.209 48.3129 155.875 48.0835 155.617C47.854 155.36 47.5522 155.15 47.1779 154.989C46.8036 154.828 46.3991 154.687 45.9645 154.567L44.4432 154.132C43.4773 153.854 42.7126 153.458 42.1491 152.943C41.5857 152.428 41.304 151.754 41.304 150.92C41.304 150.228 41.4911 149.625 41.8654 149.109C42.2437 148.59 42.7508 148.188 43.3867 147.902C44.0266 147.612 44.741 147.467 45.5298 147.467C46.3267 147.467 47.035 147.61 47.6548 147.896C48.2746 148.178 48.7656 148.564 49.1278 149.055C49.4941 149.546 49.6873 150.103 49.7074 150.727H48.2585ZM55.6775 150.727V151.935H50.8721V150.727H55.6775ZM52.2726 148.506H53.6974V157.344C53.6974 157.746 53.7557 158.048 53.8724 158.249C53.9932 158.446 54.1461 158.579 54.3312 158.648C54.5204 158.712 54.7196 158.744 54.9289 158.744C55.0858 158.744 55.2146 158.736 55.3153 158.72C55.4159 158.7 55.4964 158.684 55.5567 158.672L55.8465 159.952C55.7499 159.988 55.6151 160.024 55.442 160.06C55.269 160.101 55.0496 160.121 54.784 160.121C54.3815 160.121 53.9871 160.034 53.6008 159.861C53.2184 159.688 52.9005 159.424 52.6469 159.07C52.3974 158.716 52.2726 158.269 52.2726 157.73V148.506ZM60.0493 160.217C59.4617 160.217 58.9284 160.107 58.4495 159.885C57.9706 159.66 57.5902 159.336 57.3085 158.913C57.0268 158.487 56.8859 157.972 56.8859 157.368C56.8859 156.837 56.9906 156.406 57.1998 156.076C57.4091 155.742 57.6888 155.48 58.039 155.291C58.3891 155.102 58.7755 154.961 59.1981 154.869C59.6247 154.772 60.0533 154.696 60.4839 154.639C61.0474 154.567 61.5042 154.512 61.8543 154.476C62.2085 154.436 62.4661 154.37 62.627 154.277C62.7921 154.184 62.8746 154.023 62.8746 153.794V153.746C62.8746 153.15 62.7116 152.687 62.3856 152.357C62.0636 152.027 61.5746 151.862 60.9186 151.862C60.2384 151.862 59.7052 152.011 59.3188 152.309C58.9324 152.607 58.6608 152.925 58.5038 153.263L57.1515 152.78C57.393 152.216 57.715 151.778 58.1175 151.464C58.5239 151.146 58.9666 150.924 59.4456 150.8C59.9285 150.671 60.4034 150.607 60.8703 150.607C61.1681 150.607 61.5102 150.643 61.8966 150.715C62.287 150.784 62.6633 150.926 63.0255 151.144C63.3917 151.361 63.6956 151.689 63.9371 152.128C64.1785 152.567 64.2993 153.154 64.2993 153.891V160H62.8746V158.744H62.8021C62.7055 158.946 62.5445 159.161 62.3192 159.39C62.0938 159.62 61.7939 159.815 61.4197 159.976C61.0454 160.137 60.5886 160.217 60.0493 160.217ZM60.2666 158.938C60.83 158.938 61.305 158.827 61.6913 158.605C62.0817 158.384 62.3755 158.098 62.5727 157.748C62.7739 157.398 62.8746 157.03 62.8746 156.643V155.339C62.8142 155.412 62.6814 155.478 62.4761 155.539C62.2749 155.595 62.0415 155.645 61.7758 155.69C61.5142 155.73 61.2587 155.766 61.0091 155.798C60.7636 155.826 60.5644 155.851 60.4115 155.871C60.0412 155.919 59.6951 155.998 59.3731 156.106C59.0552 156.211 58.7976 156.37 58.6004 156.583C58.4072 156.792 58.3106 157.078 58.3106 157.44C58.3106 157.935 58.4938 158.31 58.86 158.563C59.2303 158.813 59.6991 158.938 60.2666 158.938ZM66.3997 160V150.727H67.7761V152.128H67.8727C68.0417 151.669 68.3476 151.297 68.7903 151.011C69.233 150.725 69.7321 150.582 70.2875 150.582C70.3921 150.582 70.5229 150.584 70.6799 150.588C70.8368 150.592 70.9556 150.598 71.036 150.607V152.055C70.9877 152.043 70.8771 152.025 70.704 152.001C70.535 151.973 70.3559 151.959 70.1667 151.959C69.716 151.959 69.3135 152.053 68.9593 152.243C68.6092 152.428 68.3315 152.685 68.1262 153.015C67.925 153.341 67.8244 153.714 67.8244 154.132V160H66.3997ZM76.8386 150.727V151.935H72.0332V150.727H76.8386ZM73.4338 148.506H74.8585V157.344C74.8585 157.746 74.9168 158.048 75.0336 158.249C75.1543 158.446 75.3072 158.579 75.4924 158.648C75.6815 158.712 75.8807 158.744 76.09 158.744C76.247 158.744 76.3758 158.736 76.4764 158.72C76.577 158.7 76.6575 158.684 76.7179 158.672L77.0076 159.952C76.911 159.988 76.7762 160.024 76.6032 160.06C76.4301 160.101 76.2108 160.121 75.9451 160.121C75.5427 160.121 75.1483 160.034 74.7619 159.861C74.3796 159.688 74.0616 159.424 73.8081 159.07C73.5585 158.716 73.4338 158.269 73.4338 157.73V148.506ZM86.7956 150.727V151.935H81.9902V150.727H86.7956ZM83.3908 148.506H84.8155V157.344C84.8155 157.746 84.8739 158.048 84.9906 158.249C85.1113 158.446 85.2643 158.579 85.4494 158.648C85.6386 158.712 85.8378 158.744 86.0471 158.744C86.204 158.744 86.3328 158.736 86.4334 158.72C86.534 158.7 86.6145 158.684 86.6749 158.672L86.9647 159.952C86.8681 159.988 86.7333 160.024 86.5602 160.06C86.3871 160.101 86.1678 160.121 85.9022 160.121C85.4997 160.121 85.1053 160.034 84.7189 159.861C84.3366 159.688 84.0186 159.424 83.7651 159.07C83.5156 158.716 83.3908 158.269 83.3908 157.73V148.506ZM88.4387 160V150.727H89.8635V160H88.4387ZM89.1632 149.182C88.8855 149.182 88.646 149.087 88.4448 148.898C88.2476 148.709 88.149 148.482 88.149 148.216C88.149 147.95 88.2476 147.723 88.4448 147.534C88.646 147.345 88.8855 147.25 89.1632 147.25C89.4409 147.25 89.6783 147.345 89.8755 147.534C90.0768 147.723 90.1774 147.95 90.1774 148.216C90.1774 148.482 90.0768 148.709 89.8755 148.898C89.6783 149.087 89.4409 149.182 89.1632 149.182ZM91.9729 160V150.727H93.3493V152.176H93.4701C93.6633 151.681 93.9752 151.297 94.4058 151.023C94.8364 150.745 95.3536 150.607 95.9573 150.607C96.569 150.607 97.0782 150.745 97.4846 151.023C97.8952 151.297 98.2151 151.681 98.4445 152.176H98.5411C98.7786 151.697 99.1347 151.317 99.6096 151.035C100.085 150.749 100.654 150.607 101.318 150.607C102.147 150.607 102.825 150.866 103.353 151.385C103.88 151.9 104.143 152.703 104.143 153.794V160H102.719V153.794C102.719 153.11 102.532 152.621 102.157 152.327C101.783 152.033 101.342 151.886 100.835 151.886C100.183 151.886 99.6781 152.084 99.3199 152.478C98.9617 152.868 98.7826 153.363 98.7826 153.963V160H97.3337V153.649C97.3337 153.122 97.1627 152.697 96.8206 152.375C96.4785 152.049 96.0378 151.886 95.4985 151.886C95.1282 151.886 94.7821 151.985 94.4601 152.182C94.1422 152.379 93.8846 152.653 93.6874 153.003C93.4942 153.349 93.3976 153.75 93.3976 154.205V160H91.9729ZM110.136 160.193C109.243 160.193 108.472 159.996 107.824 159.602C107.18 159.203 106.683 158.648 106.333 157.935C105.987 157.219 105.814 156.386 105.814 155.436C105.814 154.486 105.987 153.649 106.333 152.925C106.683 152.196 107.17 151.629 107.794 151.222C108.422 150.812 109.154 150.607 109.991 150.607C110.474 150.607 110.951 150.687 111.422 150.848C111.893 151.009 112.321 151.271 112.708 151.633C113.094 151.991 113.402 152.466 113.631 153.058C113.861 153.649 113.976 154.378 113.976 155.243V155.847H106.828V154.615H112.527C112.527 154.092 112.422 153.625 112.213 153.214C112.008 152.804 111.714 152.48 111.331 152.243C110.953 152.005 110.506 151.886 109.991 151.886C109.424 151.886 108.933 152.027 108.518 152.309C108.108 152.587 107.792 152.949 107.57 153.396C107.349 153.842 107.238 154.321 107.238 154.832V155.653C107.238 156.354 107.359 156.947 107.601 157.434C107.846 157.917 108.186 158.286 108.621 158.539C109.055 158.789 109.561 158.913 110.136 158.913C110.51 158.913 110.848 158.861 111.15 158.756C111.456 158.648 111.72 158.487 111.941 158.273C112.162 158.056 112.334 157.786 112.454 157.464L113.831 157.851C113.686 158.318 113.442 158.728 113.1 159.082C112.758 159.433 112.336 159.706 111.832 159.903C111.329 160.097 110.764 160.193 110.136 160.193Z" fill="#767676"/>
<path d="M216.743 160L213.362 147.636H214.884L217.467 157.706H217.588L220.22 147.636H221.911L224.543 157.706H224.663L227.247 147.636H228.768L225.388 160H223.842L221.114 150.148H221.017L218.288 160H216.743ZM232.965 160.193C232.072 160.193 231.301 159.996 230.653 159.602C230.009 159.203 229.512 158.648 229.162 157.935C228.816 157.219 228.643 156.386 228.643 155.436C228.643 154.486 228.816 153.649 229.162 152.925C229.512 152.196 229.999 151.629 230.623 151.222C231.251 150.812 231.983 150.607 232.82 150.607C233.303 150.607 233.78 150.687 234.251 150.848C234.722 151.009 235.151 151.271 235.537 151.633C235.923 151.991 236.231 152.466 236.461 153.058C236.69 153.649 236.805 154.378 236.805 155.243V155.847H229.657V154.615H235.356C235.356 154.092 235.251 153.625 235.042 153.214C234.837 152.804 234.543 152.48 234.161 152.243C233.782 152.005 233.335 151.886 232.82 151.886C232.253 151.886 231.762 152.027 231.347 152.309C230.937 152.587 230.621 152.949 230.4 153.396C230.178 153.842 230.067 154.321 230.067 154.832V155.653C230.067 156.354 230.188 156.947 230.43 157.434C230.675 157.917 231.015 158.286 231.45 158.539C231.885 158.789 232.39 158.913 232.965 158.913C233.339 158.913 233.678 158.861 233.979 158.756C234.285 158.648 234.549 158.487 234.77 158.273C234.992 158.056 235.163 157.786 235.283 157.464L236.66 157.851C236.515 158.318 236.271 158.728 235.929 159.082C235.587 159.433 235.165 159.706 234.662 159.903C234.158 160.097 233.593 160.193 232.965 160.193ZM241.973 160.193C241.201 160.193 240.518 159.998 239.927 159.608C239.335 159.213 238.872 158.658 238.538 157.941C238.204 157.221 238.037 156.37 238.037 155.388C238.037 154.414 238.204 153.569 238.538 152.852C238.872 152.136 239.337 151.583 239.933 151.192C240.529 150.802 241.217 150.607 241.998 150.607C242.601 150.607 243.078 150.707 243.428 150.908C243.782 151.106 244.052 151.331 244.237 151.585C244.426 151.834 244.573 152.039 244.678 152.2H244.799V147.636H246.223V160H244.847V158.575H244.678C244.573 158.744 244.424 158.958 244.231 159.215C244.038 159.469 243.762 159.696 243.404 159.897C243.046 160.095 242.569 160.193 241.973 160.193ZM242.167 158.913C242.738 158.913 243.221 158.764 243.615 158.467C244.01 158.165 244.31 157.748 244.515 157.217C244.72 156.682 244.823 156.064 244.823 155.364C244.823 154.671 244.722 154.066 244.521 153.547C244.32 153.023 244.022 152.617 243.627 152.327C243.233 152.033 242.746 151.886 242.167 151.886C241.563 151.886 241.06 152.041 240.657 152.351C240.259 152.657 239.959 153.074 239.758 153.601C239.561 154.124 239.462 154.712 239.462 155.364C239.462 156.024 239.563 156.623 239.764 157.163C239.969 157.698 240.271 158.125 240.669 158.442C241.072 158.756 241.571 158.913 242.167 158.913ZM250.656 158.31L250.559 158.962C250.491 159.42 250.386 159.911 250.245 160.435C250.108 160.958 249.965 161.451 249.816 161.914C249.667 162.377 249.545 162.745 249.448 163.018H248.362C248.414 162.761 248.482 162.421 248.567 161.998C248.651 161.576 248.736 161.103 248.82 160.58C248.909 160.06 248.981 159.529 249.038 158.986L249.11 158.31H250.656ZM261.399 147.636V160H259.902V149.206H259.829L256.811 151.21V149.689L259.902 147.636H261.399ZM268.632 160.169C267.835 160.169 267.125 160.032 266.501 159.759C265.881 159.485 265.388 159.105 265.022 158.618C264.66 158.127 264.463 157.557 264.43 156.909H265.952C265.984 157.308 266.121 157.652 266.362 157.941C266.604 158.227 266.92 158.449 267.31 158.605C267.7 158.762 268.133 158.841 268.608 158.841C269.139 158.841 269.61 158.748 270.021 158.563C270.431 158.378 270.753 158.121 270.987 157.79C271.22 157.46 271.337 157.078 271.337 156.643C271.337 156.189 271.224 155.788 270.999 155.442C270.773 155.092 270.443 154.818 270.009 154.621C269.574 154.424 269.043 154.325 268.415 154.325H267.425V152.997H268.415C268.906 152.997 269.336 152.909 269.707 152.732C270.081 152.554 270.373 152.305 270.582 151.983C270.795 151.661 270.902 151.283 270.902 150.848C270.902 150.429 270.81 150.065 270.624 149.755C270.439 149.445 270.178 149.204 269.84 149.031C269.506 148.858 269.111 148.771 268.656 148.771C268.23 148.771 267.827 148.85 267.449 149.007C267.075 149.16 266.769 149.383 266.531 149.677C266.294 149.967 266.165 150.317 266.145 150.727H264.696C264.72 150.079 264.915 149.512 265.282 149.025C265.648 148.534 266.127 148.152 266.718 147.878C267.314 147.604 267.968 147.467 268.68 147.467C269.445 147.467 270.101 147.622 270.649 147.932C271.196 148.238 271.616 148.643 271.91 149.146C272.204 149.649 272.351 150.192 272.351 150.776C272.351 151.472 272.168 152.065 271.802 152.556C271.439 153.047 270.946 153.388 270.323 153.577V153.673C271.103 153.802 271.713 154.134 272.152 154.669C272.59 155.201 272.81 155.859 272.81 156.643C272.81 157.316 272.627 157.919 272.26 158.455C271.898 158.986 271.403 159.404 270.775 159.71C270.147 160.016 269.433 160.169 268.632 160.169ZM284.01 147.636H285.508V156.474C285.508 157.263 285.363 157.933 285.073 158.485C284.783 159.036 284.375 159.455 283.847 159.74C283.32 160.026 282.698 160.169 281.982 160.169C281.306 160.169 280.704 160.046 280.177 159.801C279.65 159.551 279.235 159.197 278.933 158.738C278.631 158.279 278.481 157.734 278.481 157.102H279.954C279.954 157.452 280.04 157.758 280.213 158.02C280.39 158.277 280.632 158.479 280.938 158.624C281.243 158.768 281.592 158.841 281.982 158.841C282.413 158.841 282.779 158.75 283.081 158.569C283.383 158.388 283.612 158.123 283.769 157.772C283.93 157.418 284.01 156.986 284.01 156.474V147.636ZM293.658 156.209V150.727H295.083V160H293.658V158.43H293.562C293.345 158.901 293.006 159.302 292.548 159.632C292.089 159.958 291.509 160.121 290.809 160.121C290.229 160.121 289.714 159.994 289.264 159.74C288.813 159.483 288.459 159.096 288.201 158.581C287.944 158.062 287.815 157.408 287.815 156.619V150.727H289.239V156.523C289.239 157.199 289.429 157.738 289.807 158.141C290.189 158.543 290.676 158.744 291.268 158.744C291.622 158.744 291.982 158.654 292.348 158.473C292.719 158.292 293.029 158.014 293.278 157.64C293.532 157.265 293.658 156.788 293.658 156.209ZM298.617 154.422V160H297.193V150.727H298.569V152.176H298.69C298.907 151.705 299.237 151.327 299.68 151.041C300.123 150.751 300.694 150.607 301.394 150.607C302.022 150.607 302.572 150.735 303.042 150.993C303.513 151.246 303.88 151.633 304.141 152.152C304.403 152.667 304.534 153.319 304.534 154.108V160H303.109V154.205C303.109 153.476 302.92 152.909 302.541 152.502C302.163 152.092 301.644 151.886 300.984 151.886C300.529 151.886 300.123 151.985 299.764 152.182C299.41 152.379 299.131 152.667 298.925 153.045C298.72 153.424 298.617 153.883 298.617 154.422ZM315.241 147.636V160H313.744V149.206H313.671L310.653 151.21V149.689L313.744 147.636H315.241ZM322.402 160.169C321.894 160.161 321.387 160.064 320.88 159.879C320.373 159.694 319.91 159.382 319.492 158.944C319.073 158.501 318.737 157.903 318.484 157.151C318.23 156.394 318.103 155.444 318.103 154.301C318.103 153.206 318.206 152.237 318.411 151.391C318.616 150.542 318.914 149.828 319.305 149.248C319.695 148.665 320.166 148.222 320.717 147.92C321.273 147.618 321.898 147.467 322.595 147.467C323.287 147.467 323.903 147.606 324.442 147.884C324.985 148.158 325.428 148.54 325.77 149.031C326.112 149.522 326.334 150.087 326.434 150.727H324.961C324.824 150.172 324.559 149.711 324.164 149.345C323.77 148.979 323.247 148.795 322.595 148.795C321.637 148.795 320.882 149.212 320.331 150.045C319.784 150.878 319.508 152.047 319.504 153.553H319.6C319.826 153.21 320.093 152.919 320.403 152.677C320.717 152.432 321.063 152.243 321.442 152.11C321.82 151.977 322.22 151.911 322.643 151.911C323.351 151.911 323.999 152.088 324.587 152.442C325.175 152.792 325.645 153.277 326 153.897C326.354 154.512 326.531 155.219 326.531 156.016C326.531 156.78 326.36 157.481 326.018 158.116C325.676 158.748 325.195 159.251 324.575 159.626C323.959 159.996 323.235 160.177 322.402 160.169ZM322.402 158.841C322.909 158.841 323.363 158.714 323.766 158.461C324.172 158.207 324.492 157.867 324.726 157.44C324.963 157.014 325.082 156.539 325.082 156.016C325.082 155.504 324.967 155.04 324.738 154.621C324.512 154.199 324.201 153.862 323.802 153.613C323.408 153.363 322.957 153.239 322.45 153.239C322.068 153.239 321.711 153.315 321.381 153.468C321.051 153.617 320.762 153.822 320.512 154.084C320.266 154.345 320.073 154.645 319.932 154.983C319.792 155.317 319.721 155.67 319.721 156.04C319.721 156.531 319.836 156.99 320.065 157.416C320.299 157.843 320.617 158.187 321.019 158.449C321.426 158.71 321.886 158.841 322.402 158.841ZM329.467 158.418C329.17 158.418 328.914 158.312 328.701 158.098C328.487 157.885 328.381 157.629 328.381 157.332C328.381 157.034 328.487 156.778 328.701 156.565C328.914 156.352 329.17 156.245 329.467 156.245C329.765 156.245 330.021 156.352 330.234 156.565C330.447 156.778 330.554 157.034 330.554 157.332C330.554 157.529 330.504 157.71 330.403 157.875C330.306 158.04 330.176 158.173 330.011 158.273C329.85 158.37 329.669 158.418 329.467 158.418ZM329.467 152.164C329.17 152.164 328.914 152.057 328.701 151.844C328.487 151.631 328.381 151.375 328.381 151.077C328.381 150.78 328.487 150.524 328.701 150.311C328.914 150.097 329.17 149.991 329.467 149.991C329.765 149.991 330.021 150.097 330.234 150.311C330.447 150.524 330.554 150.78 330.554 151.077C330.554 151.275 330.504 151.456 330.403 151.621C330.306 151.786 330.176 151.919 330.011 152.019C329.85 152.116 329.669 152.164 329.467 152.164ZM336.619 160.169C335.71 160.169 334.935 159.922 334.295 159.426C333.655 158.927 333.166 158.205 332.828 157.259C332.49 156.309 332.321 155.162 332.321 153.818C332.321 152.482 332.49 151.341 332.828 150.395C333.17 149.445 333.661 148.721 334.301 148.222C334.945 147.719 335.718 147.467 336.619 147.467C337.521 147.467 338.291 147.719 338.931 148.222C339.575 148.721 340.066 149.445 340.404 150.395C340.746 151.341 340.917 152.482 340.917 153.818C340.917 155.162 340.748 156.309 340.41 157.259C340.072 158.205 339.583 158.927 338.943 159.426C338.303 159.922 337.529 160.169 336.619 160.169ZM336.619 158.841C337.521 158.841 338.221 158.406 338.72 157.537C339.219 156.668 339.469 155.428 339.469 153.818C339.469 152.748 339.354 151.836 339.124 151.083C338.899 150.331 338.573 149.757 338.146 149.363C337.724 148.969 337.215 148.771 336.619 148.771C335.726 148.771 335.027 149.212 334.524 150.093C334.021 150.971 333.77 152.212 333.77 153.818C333.77 154.889 333.882 155.798 334.108 156.547C334.333 157.295 334.657 157.865 335.08 158.255C335.506 158.646 336.019 158.841 336.619 158.841ZM346.744 160.169C345.835 160.169 345.06 159.922 344.42 159.426C343.78 158.927 343.291 158.205 342.953 157.259C342.615 156.309 342.446 155.162 342.446 153.818C342.446 152.482 342.615 151.341 342.953 150.395C343.295 149.445 343.786 148.721 344.426 148.222C345.07 147.719 345.843 147.467 346.744 147.467C347.646 147.467 348.416 147.719 349.056 148.222C349.7 148.721 350.191 149.445 350.529 150.395C350.871 151.341 351.042 152.482 351.042 153.818C351.042 155.162 350.873 156.309 350.535 157.259C350.197 158.205 349.708 158.927 349.068 159.426C348.428 159.922 347.654 160.169 346.744 160.169ZM346.744 158.841C347.646 158.841 348.346 158.406 348.845 157.537C349.344 156.668 349.594 155.428 349.594 153.818C349.594 152.748 349.479 151.836 349.249 151.083C349.024 150.331 348.698 149.757 348.271 149.363C347.849 148.969 347.34 148.771 346.744 148.771C345.851 148.771 345.152 149.212 344.649 150.093C344.146 150.971 343.895 152.212 343.895 153.818C343.895 154.889 344.007 155.798 344.233 156.547C344.458 157.295 344.782 157.865 345.205 158.255C345.631 158.646 346.144 158.841 346.744 158.841Z" fill="#07192E"/>
<rect width="329" height="0.5" transform="translate(32 176)" fill="#D2D2D2"/>
<rect x="32" y="176.5" width="329" height="44" rx="6" fill="white"/>
<path d="M41.4972 204.5V192.136H48.9588V193.464H42.9943V197.642H48.5724V198.97H42.9943V203.172H49.0554V204.5H41.4972ZM52.3888 198.922V204.5H50.9641V195.227H52.3406V196.676H52.4613C52.6786 196.205 53.0086 195.827 53.4513 195.541C53.8941 195.251 54.4656 195.107 55.1658 195.107C55.7937 195.107 56.343 195.235 56.8139 195.493C57.2848 195.746 57.651 196.133 57.9126 196.652C58.1742 197.167 58.305 197.819 58.305 198.608V204.5H56.8803V198.705C56.8803 197.976 56.6912 197.409 56.3129 197.002C55.9345 196.592 55.4154 196.386 54.7553 196.386C54.3005 196.386 53.8941 196.485 53.5359 196.682C53.1817 196.879 52.902 197.167 52.6967 197.545C52.4915 197.924 52.3888 198.383 52.3888 198.922ZM63.9099 204.693C63.1372 204.693 62.455 204.498 61.8634 204.108C61.2718 203.713 60.8089 203.158 60.4749 202.441C60.1408 201.721 59.9738 200.87 59.9738 199.888C59.9738 198.914 60.1408 198.069 60.4749 197.352C60.8089 196.636 61.2738 196.083 61.8694 195.692C62.4651 195.302 63.1533 195.107 63.934 195.107C64.5377 195.107 65.0146 195.207 65.3648 195.408C65.719 195.606 65.9886 195.831 66.1737 196.085C66.3629 196.334 66.5098 196.539 66.6144 196.7H66.7352V192.136H68.1599V204.5H66.7835V203.075H66.6144C66.5098 203.244 66.3609 203.458 66.1677 203.715C65.9745 203.969 65.6988 204.196 65.3406 204.397C64.9825 204.595 64.5055 204.693 63.9099 204.693ZM64.1031 203.413C64.6746 203.413 65.1575 203.264 65.5519 202.967C65.9463 202.665 66.2462 202.248 66.4514 201.717C66.6567 201.182 66.7593 200.564 66.7593 199.864C66.7593 199.171 66.6587 198.566 66.4575 198.047C66.2562 197.523 65.9584 197.117 65.564 196.827C65.1696 196.533 64.6826 196.386 64.1031 196.386C63.4994 196.386 62.9963 196.541 62.5938 196.851C62.1954 197.157 61.8956 197.574 61.6943 198.101C61.4971 198.624 61.3985 199.212 61.3985 199.864C61.3985 200.524 61.4991 201.123 61.7004 201.663C61.9056 202.198 62.2075 202.625 62.6059 202.942C63.0084 203.256 63.5074 203.413 64.1031 203.413ZM78.781 195.227V196.435H73.9756V195.227H78.781ZM75.3762 193.006H76.8009V201.844C76.8009 202.246 76.8592 202.548 76.9759 202.749C77.0967 202.946 77.2496 203.079 77.4347 203.148C77.6239 203.212 77.8231 203.244 78.0324 203.244C78.1894 203.244 78.3182 203.236 78.4188 203.22C78.5194 203.2 78.5999 203.184 78.6602 203.172L78.95 204.452C78.8534 204.488 78.7186 204.524 78.5455 204.56C78.3725 204.601 78.1531 204.621 77.8875 204.621C77.4851 204.621 77.0906 204.534 76.7043 204.361C76.3219 204.188 76.004 203.924 75.7504 203.57C75.5009 203.216 75.3762 202.769 75.3762 202.23V193.006ZM80.4241 204.5V195.227H81.8488V204.5H80.4241ZM81.1485 193.682C80.8708 193.682 80.6314 193.587 80.4301 193.398C80.2329 193.209 80.1343 192.982 80.1343 192.716C80.1343 192.45 80.2329 192.223 80.4301 192.034C80.6314 191.845 80.8708 191.75 81.1485 191.75C81.4262 191.75 81.6637 191.845 81.8609 192.034C82.0621 192.223 82.1627 192.45 82.1627 192.716C82.1627 192.982 82.0621 193.209 81.8609 193.398C81.6637 193.587 81.4262 193.682 81.1485 193.682ZM83.9583 204.5V195.227H85.3347V196.676H85.4554C85.6486 196.181 85.9605 195.797 86.3912 195.523C86.8218 195.245 87.339 195.107 87.9426 195.107C88.5544 195.107 89.0635 195.245 89.47 195.523C89.8805 195.797 90.2005 196.181 90.4299 196.676H90.5265C90.7639 196.197 91.1201 195.817 91.595 195.535C92.0699 195.249 92.6394 195.107 93.3034 195.107C94.1325 195.107 94.8107 195.366 95.3379 195.885C95.8651 196.4 96.1287 197.203 96.1287 198.294V204.5H94.704V198.294C94.704 197.61 94.5169 197.121 94.1426 196.827C93.7683 196.533 93.3276 196.386 92.8205 196.386C92.1685 196.386 91.6634 196.584 91.3052 196.978C90.947 197.368 90.7679 197.863 90.7679 198.463V204.5H89.3191V198.149C89.3191 197.622 89.148 197.197 88.8059 196.875C88.4638 196.549 88.0231 196.386 87.4838 196.386C87.1136 196.386 86.7675 196.485 86.4455 196.682C86.1275 196.879 85.87 197.153 85.6728 197.503C85.4796 197.849 85.383 198.25 85.383 198.705V204.5H83.9583ZM102.121 204.693C101.228 204.693 100.457 204.496 99.8093 204.102C99.1654 203.703 98.6683 203.148 98.3182 202.435C97.9721 201.719 97.799 200.886 97.799 199.936C97.799 198.986 97.9721 198.149 98.3182 197.425C98.6683 196.696 99.1553 196.129 99.7791 195.722C100.407 195.312 101.139 195.107 101.977 195.107C102.46 195.107 102.936 195.187 103.407 195.348C103.878 195.509 104.307 195.771 104.693 196.133C105.08 196.491 105.387 196.966 105.617 197.558C105.846 198.149 105.961 198.878 105.961 199.743V200.347H98.8132V199.115H104.512C104.512 198.592 104.407 198.125 104.198 197.714C103.993 197.304 103.699 196.98 103.317 196.743C102.938 196.505 102.492 196.386 101.977 196.386C101.409 196.386 100.918 196.527 100.504 196.809C100.093 197.087 99.7771 197.449 99.5558 197.896C99.3344 198.342 99.2237 198.821 99.2237 199.332V200.153C99.2237 200.854 99.3445 201.447 99.5859 201.934C99.8314 202.417 100.172 202.786 100.606 203.039C101.041 203.289 101.546 203.413 102.121 203.413C102.496 203.413 102.834 203.361 103.136 203.256C103.442 203.148 103.705 202.987 103.926 202.773C104.148 202.556 104.319 202.286 104.44 201.964L105.816 202.351C105.671 202.818 105.428 203.228 105.086 203.582C104.743 203.933 104.321 204.206 103.818 204.403C103.315 204.597 102.749 204.693 102.121 204.693Z" fill="#767676"/>
<path d="M212.821 193.464V192.136H222.094V193.464H218.206V204.5H216.709V193.464H212.821ZM225.136 198.922V204.5H223.711V192.136H225.136V196.676H225.257C225.474 196.197 225.8 195.817 226.235 195.535C226.673 195.249 227.257 195.107 227.985 195.107C228.617 195.107 229.171 195.233 229.646 195.487C230.12 195.736 230.489 196.121 230.75 196.64C231.016 197.155 231.149 197.811 231.149 198.608V204.5H229.724V198.705C229.724 197.968 229.533 197.399 229.15 196.996C228.772 196.59 228.247 196.386 227.575 196.386C227.108 196.386 226.689 196.485 226.319 196.682C225.953 196.879 225.663 197.167 225.45 197.545C225.241 197.924 225.136 198.383 225.136 198.922ZM239.099 200.709V195.227H240.524V204.5H239.099V202.93H239.002C238.785 203.401 238.447 203.802 237.988 204.132C237.529 204.458 236.95 204.621 236.249 204.621C235.67 204.621 235.155 204.494 234.704 204.24C234.253 203.983 233.899 203.596 233.642 203.081C233.384 202.562 233.255 201.908 233.255 201.119V195.227H234.68V201.023C234.68 201.699 234.869 202.238 235.247 202.641C235.63 203.043 236.117 203.244 236.708 203.244C237.062 203.244 237.423 203.154 237.789 202.973C238.159 202.792 238.469 202.514 238.719 202.14C238.972 201.765 239.099 201.288 239.099 200.709ZM244.758 202.81L244.661 203.462C244.593 203.92 244.488 204.411 244.348 204.935C244.211 205.458 244.068 205.951 243.919 206.414C243.77 206.877 243.647 207.245 243.551 207.518H242.464C242.516 207.261 242.585 206.921 242.669 206.498C242.754 206.076 242.838 205.603 242.923 205.08C243.011 204.56 243.084 204.029 243.14 203.486L243.213 202.81H244.758ZM255.501 192.136V204.5H254.004V193.706H253.932L250.913 195.71V194.189L254.004 192.136H255.501ZM262.735 204.669C261.938 204.669 261.228 204.532 260.604 204.259C259.984 203.985 259.491 203.605 259.125 203.118C258.762 202.627 258.565 202.057 258.533 201.409H260.054C260.087 201.808 260.223 202.152 260.465 202.441C260.706 202.727 261.022 202.949 261.413 203.105C261.803 203.262 262.236 203.341 262.711 203.341C263.242 203.341 263.713 203.248 264.123 203.063C264.534 202.878 264.856 202.621 265.089 202.29C265.323 201.96 265.439 201.578 265.439 201.143C265.439 200.689 265.327 200.288 265.101 199.942C264.876 199.592 264.546 199.318 264.111 199.121C263.676 198.924 263.145 198.825 262.517 198.825H261.527V197.497H262.517C263.008 197.497 263.439 197.409 263.809 197.232C264.184 197.054 264.475 196.805 264.685 196.483C264.898 196.161 265.005 195.783 265.005 195.348C265.005 194.929 264.912 194.565 264.727 194.255C264.542 193.945 264.28 193.704 263.942 193.531C263.608 193.358 263.214 193.271 262.759 193.271C262.332 193.271 261.93 193.35 261.551 193.507C261.177 193.66 260.871 193.883 260.634 194.177C260.396 194.467 260.268 194.817 260.248 195.227H258.799C258.823 194.579 259.018 194.012 259.384 193.525C259.75 193.034 260.229 192.652 260.821 192.378C261.417 192.104 262.071 191.967 262.783 191.967C263.548 191.967 264.204 192.122 264.751 192.432C265.298 192.738 265.719 193.143 266.013 193.646C266.307 194.149 266.453 194.692 266.453 195.276C266.453 195.972 266.27 196.565 265.904 197.056C265.542 197.547 265.049 197.888 264.425 198.077V198.173C265.206 198.302 265.816 198.634 266.254 199.169C266.693 199.701 266.912 200.359 266.912 201.143C266.912 201.816 266.729 202.419 266.363 202.955C266.001 203.486 265.506 203.904 264.878 204.21C264.25 204.516 263.536 204.669 262.735 204.669ZM278.113 192.136H279.61V200.974C279.61 201.763 279.465 202.433 279.175 202.985C278.886 203.536 278.477 203.955 277.95 204.24C277.423 204.526 276.801 204.669 276.085 204.669C275.408 204.669 274.807 204.546 274.279 204.301C273.752 204.051 273.338 203.697 273.036 203.238C272.734 202.779 272.583 202.234 272.583 201.602H274.056C274.056 201.952 274.143 202.258 274.316 202.52C274.493 202.777 274.734 202.979 275.04 203.124C275.346 203.268 275.694 203.341 276.085 203.341C276.515 203.341 276.881 203.25 277.183 203.069C277.485 202.888 277.714 202.623 277.871 202.272C278.032 201.918 278.113 201.486 278.113 200.974V192.136ZM287.761 200.709V195.227H289.186V204.5H287.761V202.93H287.664C287.447 203.401 287.109 203.802 286.65 204.132C286.191 204.458 285.612 204.621 284.912 204.621C284.332 204.621 283.817 204.494 283.366 204.24C282.915 203.983 282.561 203.596 282.304 203.081C282.046 202.562 281.917 201.908 281.917 201.119V195.227H283.342V201.023C283.342 201.699 283.531 202.238 283.909 202.641C284.292 203.043 284.779 203.244 285.37 203.244C285.725 203.244 286.085 203.154 286.451 202.973C286.821 202.792 287.131 202.514 287.381 202.14C287.634 201.765 287.761 201.288 287.761 200.709ZM292.72 198.922V204.5H291.295V195.227H292.672V196.676H292.792C293.01 196.205 293.34 195.827 293.782 195.541C294.225 195.251 294.797 195.107 295.497 195.107C296.125 195.107 296.674 195.235 297.145 195.493C297.616 195.746 297.982 196.133 298.244 196.652C298.505 197.167 298.636 197.819 298.636 198.608V204.5H297.211V198.705C297.211 197.976 297.022 197.409 296.644 197.002C296.266 196.592 295.746 196.386 295.086 196.386C294.632 196.386 294.225 196.485 293.867 196.682C293.513 196.879 293.233 197.167 293.028 197.545C292.823 197.924 292.72 198.383 292.72 198.922ZM302.865 202.81L302.768 203.462C302.7 203.92 302.595 204.411 302.454 204.935C302.317 205.458 302.174 205.951 302.025 206.414C301.876 206.877 301.754 207.245 301.657 207.518H300.57C300.623 207.261 300.691 206.921 300.776 206.498C300.86 206.076 300.945 205.603 301.029 205.08C301.118 204.56 301.19 204.029 301.247 203.486L301.319 202.81H302.865ZM309.261 204.5V203.413L313.342 198.946C313.821 198.423 314.216 197.968 314.525 197.582C314.835 197.191 315.065 196.825 315.214 196.483C315.367 196.137 315.443 195.775 315.443 195.396C315.443 194.962 315.338 194.585 315.129 194.267C314.924 193.949 314.642 193.704 314.284 193.531C313.926 193.358 313.523 193.271 313.077 193.271C312.602 193.271 312.187 193.37 311.833 193.567C311.483 193.76 311.211 194.032 311.018 194.382C310.829 194.732 310.734 195.143 310.734 195.614H309.31C309.31 194.889 309.477 194.253 309.811 193.706C310.145 193.159 310.599 192.732 311.175 192.426C311.755 192.12 312.405 191.967 313.125 191.967C313.849 191.967 314.491 192.12 315.051 192.426C315.61 192.732 316.049 193.145 316.367 193.664C316.685 194.183 316.844 194.76 316.844 195.396C316.844 195.851 316.761 196.296 316.596 196.73C316.435 197.161 316.153 197.642 315.751 198.173C315.353 198.701 314.799 199.344 314.091 200.105L311.314 203.075V203.172H317.061V204.5H309.261ZM319.054 204.5V203.413L323.135 198.946C323.614 198.423 324.009 197.968 324.318 197.582C324.628 197.191 324.858 196.825 325.007 196.483C325.16 196.137 325.236 195.775 325.236 195.396C325.236 194.962 325.131 194.585 324.922 194.267C324.717 193.949 324.435 193.704 324.077 193.531C323.719 193.358 323.316 193.271 322.87 193.271C322.395 193.271 321.98 193.37 321.626 193.567C321.276 193.76 321.004 194.032 320.811 194.382C320.622 194.732 320.527 195.143 320.527 195.614H319.103C319.103 194.889 319.27 194.253 319.604 193.706C319.938 193.159 320.392 192.732 320.968 192.426C321.547 192.12 322.197 191.967 322.918 191.967C323.642 191.967 324.284 192.12 324.844 192.426C325.403 192.732 325.842 193.145 326.16 193.664C326.478 194.183 326.637 194.76 326.637 195.396C326.637 195.851 326.554 196.296 326.389 196.73C326.228 197.161 325.946 197.642 325.544 198.173C325.146 198.701 324.592 199.344 323.884 200.105L321.107 203.075V203.172H326.854V204.5H319.054ZM329.91 202.918C329.612 202.918 329.356 202.812 329.143 202.598C328.93 202.385 328.823 202.129 328.823 201.832C328.823 201.534 328.93 201.278 329.143 201.065C329.356 200.852 329.612 200.745 329.91 200.745C330.208 200.745 330.463 200.852 330.676 201.065C330.89 201.278 330.996 201.534 330.996 201.832C330.996 202.029 330.946 202.21 330.845 202.375C330.749 202.54 330.618 202.673 330.453 202.773C330.292 202.87 330.111 202.918 329.91 202.918ZM329.91 196.664C329.612 196.664 329.356 196.557 329.143 196.344C328.93 196.131 328.823 195.875 328.823 195.577C328.823 195.28 328.93 195.024 329.143 194.811C329.356 194.597 329.612 194.491 329.91 194.491C330.208 194.491 330.463 194.597 330.676 194.811C330.89 195.024 330.996 195.28 330.996 195.577C330.996 195.775 330.946 195.956 330.845 196.121C330.749 196.286 330.618 196.419 330.453 196.519C330.292 196.616 330.111 196.664 329.91 196.664ZM337.062 204.669C336.152 204.669 335.377 204.422 334.737 203.926C334.097 203.427 333.608 202.705 333.27 201.759C332.932 200.809 332.763 199.662 332.763 198.318C332.763 196.982 332.932 195.841 333.27 194.895C333.612 193.945 334.103 193.221 334.743 192.722C335.387 192.219 336.16 191.967 337.062 191.967C337.963 191.967 338.734 192.219 339.374 192.722C340.018 193.221 340.509 193.945 340.847 194.895C341.189 195.841 341.36 196.982 341.36 198.318C341.36 199.662 341.191 200.809 340.853 201.759C340.515 202.705 340.026 203.427 339.386 203.926C338.746 204.422 337.971 204.669 337.062 204.669ZM337.062 203.341C337.963 203.341 338.663 202.906 339.162 202.037C339.661 201.168 339.911 199.928 339.911 198.318C339.911 197.248 339.796 196.336 339.567 195.583C339.341 194.831 339.015 194.257 338.589 193.863C338.166 193.469 337.657 193.271 337.062 193.271C336.168 193.271 335.47 193.712 334.967 194.593C334.464 195.471 334.212 196.712 334.212 198.318C334.212 199.389 334.325 200.298 334.55 201.047C334.776 201.795 335.1 202.365 335.522 202.755C335.949 203.146 336.462 203.341 337.062 203.341ZM347.187 204.669C346.277 204.669 345.502 204.422 344.862 203.926C344.222 203.427 343.733 202.705 343.395 201.759C343.057 200.809 342.888 199.662 342.888 198.318C342.888 196.982 343.057 195.841 343.395 194.895C343.737 193.945 344.228 193.221 344.868 192.722C345.512 192.219 346.285 191.967 347.187 191.967C348.088 191.967 348.859 192.219 349.499 192.722C350.143 193.221 350.634 193.945 350.972 194.895C351.314 195.841 351.485 196.982 351.485 198.318C351.485 199.662 351.316 200.809 350.978 201.759C350.64 202.705 350.151 203.427 349.511 203.926C348.871 204.422 348.096 204.669 347.187 204.669ZM347.187 203.341C348.088 203.341 348.788 202.906 349.287 202.037C349.786 201.168 350.036 199.928 350.036 198.318C350.036 197.248 349.921 196.336 349.692 195.583C349.466 194.831 349.14 194.257 348.714 193.863C348.291 193.469 347.782 193.271 347.187 193.271C346.293 193.271 345.595 193.712 345.092 194.593C344.589 195.471 344.337 196.712 344.337 198.318C344.337 199.389 344.45 200.298 344.675 201.047C344.901 201.795 345.225 202.365 345.647 202.755C346.074 203.146 346.587 203.341 347.187 203.341Z" fill="#07192E"/>
<mask id="path-26-outside-2_570_12027" maskUnits="userSpaceOnUse" x="40" y="219.5" width="321" height="45" fill="black">
<rect fill="white" x="40" y="219.5" width="321" height="45"/>
<path d="M40 220.5H361V264.5H40V220.5Z"/>
</mask>
<path d="M40 220.5V220.833H361V220.5V220.167H40V220.5Z" fill="#545456" fill-opacity="0.34" mask="url(#path-26-outside-2_570_12027)"/>
<path d="M42.2744 244.225V242.897H45.6611C46.5189 242.897 47.1829 242.676 47.6533 242.233C48.1237 241.785 48.3589 241.168 48.3589 240.382V240.365C48.3589 239.574 48.1237 238.957 47.6533 238.514C47.1829 238.071 46.5189 237.85 45.6611 237.85H42.2744V236.522H46.043C46.7956 236.522 47.4596 236.682 48.0352 237.003C48.6107 237.324 49.0617 237.773 49.3882 238.348C49.7202 238.924 49.8862 239.59 49.8862 240.349V240.365C49.8862 241.123 49.7202 241.793 49.3882 242.374C49.0617 242.955 48.6107 243.409 48.0352 243.735C47.4596 244.062 46.7956 244.225 46.043 244.225H42.2744ZM41.5273 248.5V236.522H43.0215V248.5H41.5273ZM51.8054 248.5V235.999H53.2497V248.5H51.8054ZM58.0492 248.658C57.4847 248.658 56.9756 248.55 56.5218 248.334C56.0736 248.118 55.7167 247.811 55.451 247.413C55.1909 247.014 55.0609 246.544 55.0609 246.001V245.985C55.0609 245.454 55.1882 245 55.4427 244.624C55.6973 244.242 56.0681 243.943 56.555 243.727C57.042 243.511 57.6314 243.384 58.3231 243.345L61.6102 243.146V244.3L58.4974 244.499C57.8168 244.538 57.3187 244.679 57.0033 244.922C56.6934 245.166 56.5384 245.509 56.5384 245.952V245.968C56.5384 246.422 56.71 246.776 57.0531 247.031C57.3962 247.28 57.8278 247.404 58.348 247.404C58.8405 247.404 59.2777 247.307 59.6595 247.114C60.0414 246.915 60.3402 246.646 60.556 246.309C60.7774 245.971 60.888 245.589 60.888 245.163V242.374C60.888 241.821 60.7193 241.4 60.3817 241.112C60.0497 240.819 59.5489 240.672 58.8793 240.672C58.3425 240.672 57.9025 240.769 57.5594 240.963C57.2163 241.151 56.9867 241.419 56.8705 241.768L56.8622 241.793H55.4178L55.4261 241.743C55.5036 241.273 55.6973 240.863 56.0072 240.515C56.3226 240.16 56.7294 239.887 57.2274 239.693C57.7254 239.494 58.2927 239.394 58.9291 239.394C59.6595 239.394 60.2766 239.513 60.7801 239.751C61.2893 239.989 61.6739 240.332 61.9339 240.78C62.1996 241.223 62.3324 241.754 62.3324 242.374V248.5H60.888V247.18H60.7552C60.5671 247.496 60.3374 247.764 60.0663 247.985C59.8006 248.207 59.499 248.375 59.1615 248.492C58.8239 248.602 58.4532 248.658 58.0492 248.658ZM68.2027 248.658C67.3671 248.658 66.6421 248.467 66.0279 248.085C65.4136 247.703 64.9377 247.164 64.6001 246.466C64.2626 245.769 64.0938 244.947 64.0938 244.001V243.984C64.0938 243.055 64.2598 242.247 64.5918 241.561C64.9294 240.874 65.4053 240.343 66.0196 239.967C66.6338 239.585 67.3588 239.394 68.1944 239.394C68.9193 239.394 69.5446 239.521 70.0704 239.776C70.5961 240.03 71.0166 240.374 71.3321 240.805C71.6475 241.231 71.8495 241.71 71.938 242.241L71.9463 242.291H70.5103L70.502 242.266C70.3913 241.823 70.1395 241.447 69.7466 241.137C69.3537 240.827 68.8363 240.672 68.1944 240.672C67.6576 240.672 67.1927 240.808 66.7998 241.079C66.4069 241.35 66.1026 241.735 65.8868 242.233C65.6765 242.725 65.5713 243.309 65.5713 243.984V244.001C65.5713 244.687 65.6792 245.285 65.8951 245.794C66.1109 246.298 66.4152 246.688 66.8081 246.964C67.201 247.241 67.6631 247.379 68.1944 247.379C68.7976 247.379 69.2901 247.249 69.6719 246.989C70.0537 246.729 70.3277 246.35 70.4937 245.852L70.5103 245.802L71.938 245.794L71.9214 245.885C71.7997 246.422 71.5839 246.901 71.274 247.321C70.9641 247.736 70.5546 248.063 70.0454 248.301C69.5363 248.539 68.9221 248.658 68.2027 248.658ZM77.2771 248.658C76.4249 248.658 75.6916 248.47 75.0774 248.093C74.4686 247.717 73.9983 247.186 73.6662 246.5C73.3397 245.808 73.1765 244.994 73.1765 244.059V244.051C73.1765 243.127 73.3397 242.316 73.6662 241.619C73.9983 240.921 74.4659 240.376 75.0691 239.983C75.6723 239.59 76.3778 239.394 77.1858 239.394C77.9992 239.394 78.6965 239.582 79.2776 239.958C79.8641 240.335 80.3124 240.861 80.6223 241.536C80.9377 242.205 81.0954 242.986 81.0954 243.876V244.441H73.9236V243.287H80.3567L79.6428 244.341V243.769C79.6428 243.066 79.5376 242.487 79.3274 242.034C79.1171 241.58 78.8265 241.242 78.4558 241.021C78.085 240.794 77.6589 240.681 77.1775 240.681C76.696 240.681 76.2644 240.8 75.8825 241.038C75.5062 241.27 75.2074 241.616 74.9861 242.075C74.7647 242.535 74.654 243.099 74.654 243.769V244.341C74.654 244.978 74.7619 245.523 74.9778 245.977C75.1936 246.425 75.5007 246.771 75.8991 247.014C76.2976 247.252 76.768 247.371 77.3103 247.371C77.7142 247.371 78.0656 247.316 78.3645 247.205C78.6633 247.094 78.9096 246.953 79.1032 246.782C79.2969 246.61 79.4325 246.436 79.51 246.259L79.5432 246.184H80.9875L80.9709 246.25C80.8934 246.555 80.7551 246.851 80.5559 247.139C80.3622 247.421 80.1104 247.678 79.8005 247.911C79.4906 248.138 79.1226 248.32 78.6965 248.458C78.2759 248.591 77.8028 248.658 77.2771 248.658Z" fill="#767676"/>
<path d="M286.652 248.5V236.522H288.146V241.702H294.721V236.522H296.215V248.5H294.721V243.046H288.146V248.5H286.652ZM302.334 248.658C301.487 248.658 300.754 248.472 300.134 248.102C299.52 247.725 299.044 247.191 298.707 246.5C298.375 245.808 298.209 244.986 298.209 244.034V244.018C298.209 243.06 298.375 242.236 298.707 241.544C299.044 240.852 299.52 240.321 300.134 239.95C300.754 239.579 301.487 239.394 302.334 239.394C303.186 239.394 303.92 239.579 304.534 239.95C305.148 240.321 305.621 240.852 305.953 241.544C306.291 242.236 306.46 243.06 306.46 244.018V244.034C306.46 244.986 306.291 245.808 305.953 246.5C305.621 247.191 305.148 247.725 304.534 248.102C303.92 248.472 303.186 248.658 302.334 248.658ZM302.334 247.379C302.899 247.379 303.377 247.247 303.77 246.981C304.163 246.715 304.462 246.333 304.667 245.835C304.877 245.337 304.982 244.737 304.982 244.034V244.018C304.982 243.309 304.877 242.706 304.667 242.208C304.462 241.71 304.163 241.331 303.77 241.071C303.377 240.805 302.899 240.672 302.334 240.672C301.77 240.672 301.291 240.805 300.898 241.071C300.505 241.331 300.204 241.71 299.993 242.208C299.789 242.706 299.686 243.309 299.686 244.018V244.034C299.686 244.737 299.789 245.337 299.993 245.835C300.204 246.333 300.505 246.715 300.898 246.981C301.291 247.247 301.77 247.379 302.334 247.379ZM308.271 248.5V239.552H309.715V240.913H309.848C310.047 240.432 310.352 240.058 310.761 239.792C311.176 239.527 311.677 239.394 312.263 239.394C312.667 239.394 313.03 239.46 313.351 239.593C313.672 239.726 313.949 239.911 314.181 240.149C314.413 240.382 314.599 240.653 314.737 240.963H314.87C315.03 240.647 315.246 240.374 315.517 240.141C315.789 239.903 316.101 239.721 316.455 239.593C316.815 239.46 317.2 239.394 317.609 239.394C318.218 239.394 318.733 239.507 319.153 239.734C319.579 239.961 319.903 240.293 320.124 240.73C320.346 241.162 320.456 241.691 320.456 242.316V248.5H319.012V242.648C319.012 242.205 318.943 241.84 318.805 241.552C318.672 241.259 318.467 241.04 318.19 240.896C317.914 240.747 317.565 240.672 317.144 240.672C316.729 240.672 316.367 240.766 316.057 240.955C315.747 241.143 315.506 241.395 315.335 241.71C315.163 242.02 315.077 242.366 315.077 242.748V248.5H313.633V242.424C313.633 242.07 313.556 241.763 313.401 241.502C313.251 241.237 313.035 241.032 312.753 240.888C312.477 240.744 312.15 240.672 311.774 240.672C311.386 240.672 311.035 240.775 310.72 240.979C310.41 241.184 310.163 241.461 309.981 241.81C309.804 242.153 309.715 242.535 309.715 242.955V248.5H308.271ZM326.285 248.658C325.433 248.658 324.7 248.47 324.085 248.093C323.477 247.717 323.006 247.186 322.674 246.5C322.348 245.808 322.185 244.994 322.185 244.059V244.051C322.185 243.127 322.348 242.316 322.674 241.619C323.006 240.921 323.474 240.376 324.077 239.983C324.68 239.59 325.386 239.394 326.194 239.394C327.007 239.394 327.705 239.582 328.286 239.958C328.872 240.335 329.32 240.861 329.63 241.536C329.946 242.205 330.104 242.986 330.104 243.876V244.441H322.932V243.287H329.365L328.651 244.341V243.769C328.651 243.066 328.546 242.487 328.335 242.034C328.125 241.58 327.835 241.242 327.464 241.021C327.093 240.794 326.667 240.681 326.186 240.681C325.704 240.681 325.272 240.8 324.891 241.038C324.514 241.27 324.215 241.616 323.994 242.075C323.773 242.535 323.662 243.099 323.662 243.769V244.341C323.662 244.978 323.77 245.523 323.986 245.977C324.202 246.425 324.509 246.771 324.907 247.014C325.306 247.252 325.776 247.371 326.318 247.371C326.722 247.371 327.074 247.316 327.373 247.205C327.671 247.094 327.918 246.953 328.111 246.782C328.305 246.61 328.441 246.436 328.518 246.259L328.551 246.184H329.996L329.979 246.25C329.902 246.555 329.763 246.851 329.564 247.139C329.37 247.421 329.118 247.678 328.809 247.911C328.499 248.138 328.131 248.32 327.705 248.458C327.284 248.591 326.811 248.658 326.285 248.658Z" fill="#07192E"/>
<path d="M352.85 242.507C352.85 242.651 352.822 242.784 352.767 242.905C352.711 243.027 352.625 243.146 352.509 243.262L347.537 248.185C347.354 248.367 347.133 248.458 346.873 248.458C346.602 248.458 346.372 248.367 346.184 248.185C345.996 247.996 345.902 247.77 345.902 247.504C345.902 247.238 346.004 247.003 346.209 246.798L350.567 242.507L346.209 238.215C346.004 238.011 345.902 237.775 345.902 237.51C345.902 237.244 345.996 237.02 346.184 236.837C346.372 236.649 346.602 236.555 346.873 236.555C347.133 236.555 347.354 236.646 347.537 236.829L352.509 241.751C352.736 241.967 352.85 242.219 352.85 242.507Z" fill="#3C3C43" fill-opacity="0.3"/>
<rect width="329" height="0.5" transform="translate(32 264.5)" fill="#D2D2D2"/>
<rect x="32" y="265" width="329" height="44" rx="6" fill="white"/>
<path d="M42.0043 293H40.4347L44.9744 280.636H46.5199L51.0597 293H49.4901L45.7955 282.592H45.6989L42.0043 293ZM42.5838 288.17H48.9105V289.499H42.5838V288.17ZM55.7937 293.193C55.021 293.193 54.3388 292.998 53.7472 292.608C53.1555 292.213 52.6927 291.658 52.3587 290.941C52.0246 290.221 51.8576 289.37 51.8576 288.388C51.8576 287.414 52.0246 286.569 52.3587 285.852C52.6927 285.136 53.1576 284.583 53.7532 284.192C54.3488 283.802 55.0371 283.607 55.8178 283.607C56.4215 283.607 56.8984 283.707 57.2486 283.908C57.6027 284.106 57.8724 284.331 58.0575 284.585C58.2467 284.834 58.3936 285.039 58.4982 285.2H58.619V280.636H60.0437V293H58.6673V291.575H58.4982C58.3936 291.744 58.2447 291.958 58.0515 292.215C57.8583 292.469 57.5826 292.696 57.2244 292.897C56.8662 293.095 56.3893 293.193 55.7937 293.193ZM55.9869 291.913C56.5584 291.913 57.0413 291.764 57.4357 291.467C57.8301 291.165 58.13 290.748 58.3352 290.217C58.5405 289.682 58.6431 289.064 58.6431 288.364C58.6431 287.671 58.5425 287.066 58.3413 286.547C58.14 286.023 57.8422 285.617 57.4478 285.327C57.0534 285.033 56.5664 284.886 55.9869 284.886C55.3832 284.886 54.8801 285.041 54.4776 285.351C54.0792 285.657 53.7794 286.074 53.5781 286.601C53.3809 287.124 53.2823 287.712 53.2823 288.364C53.2823 289.024 53.3829 289.623 53.5842 290.163C53.7894 290.698 54.0913 291.125 54.4897 291.442C54.8922 291.756 55.3912 291.913 55.9869 291.913ZM69.9332 283.727L66.5043 293H65.0554L61.6264 283.727H63.1719L65.7315 291.116H65.8281L68.3878 283.727H69.9332ZM73.7602 293.217C73.1726 293.217 72.6394 293.107 72.1604 292.885C71.6815 292.66 71.3012 292.336 71.0194 291.913C70.7377 291.487 70.5969 290.972 70.5969 290.368C70.5969 289.837 70.7015 289.406 70.9108 289.076C71.1201 288.742 71.3998 288.48 71.7499 288.291C72.1001 288.102 72.4864 287.961 72.909 287.869C73.3356 287.772 73.7642 287.696 74.1949 287.639C74.7583 287.567 75.2151 287.512 75.5653 287.476C75.9194 287.436 76.177 287.37 76.338 287.277C76.503 287.184 76.5855 287.023 76.5855 286.794V286.746C76.5855 286.15 76.4225 285.687 76.0965 285.357C75.7745 285.027 75.2855 284.862 74.6295 284.862C73.9494 284.862 73.4161 285.011 73.0297 285.309C72.6434 285.607 72.3717 285.925 72.2148 286.263L70.8625 285.78C71.104 285.216 71.4259 284.778 71.8284 284.464C72.2349 284.146 72.6776 283.924 73.1565 283.8C73.6395 283.671 74.1144 283.607 74.5812 283.607C74.8791 283.607 75.2211 283.643 75.6075 283.715C75.9979 283.784 76.3742 283.926 76.7364 284.144C77.1027 284.361 77.4065 284.689 77.648 285.128C77.8895 285.567 78.0102 286.154 78.0102 286.891V293H76.5855V291.744H76.5131C76.4165 291.946 76.2555 292.161 76.0301 292.39C75.8047 292.62 75.5049 292.815 75.1306 292.976C74.7563 293.137 74.2995 293.217 73.7602 293.217ZM73.9775 291.938C74.541 291.938 75.0159 291.827 75.4023 291.605C75.7926 291.384 76.0864 291.098 76.2836 290.748C76.4849 290.398 76.5855 290.03 76.5855 289.643V288.339C76.5251 288.412 76.3923 288.478 76.1871 288.539C75.9858 288.595 75.7524 288.645 75.4868 288.69C75.2252 288.73 74.9696 288.766 74.7201 288.798C74.4746 288.826 74.2754 288.851 74.1224 288.871C73.7522 288.919 73.406 288.998 73.0841 289.106C72.7661 289.211 72.5086 289.37 72.3113 289.583C72.1182 289.792 72.0216 290.078 72.0216 290.44C72.0216 290.935 72.2047 291.31 72.5709 291.563C72.9412 291.813 73.4101 291.938 73.9775 291.938ZM81.5353 287.422V293H80.1106V283.727H81.487V285.176H81.6078C81.8251 284.705 82.1551 284.327 82.5978 284.041C83.0405 283.751 83.612 283.607 84.3123 283.607C84.9402 283.607 85.4895 283.735 85.9604 283.993C86.4313 284.246 86.7975 284.633 87.0591 285.152C87.3207 285.667 87.4515 286.319 87.4515 287.108V293H86.0268V287.205C86.0268 286.476 85.8377 285.909 85.4593 285.502C85.081 285.092 84.5618 284.886 83.9018 284.886C83.447 284.886 83.0405 284.985 82.6824 285.182C82.3282 285.379 82.0485 285.667 81.8432 286.045C81.638 286.424 81.5353 286.883 81.5353 287.422ZM93.322 293.193C92.4527 293.193 91.7041 292.988 91.0763 292.577C90.4484 292.167 89.9655 291.601 89.6274 290.881C89.2893 290.161 89.1203 289.338 89.1203 288.412C89.1203 287.47 89.2934 286.639 89.6395 285.919C89.9896 285.194 90.4766 284.629 91.1004 284.222C91.7282 283.812 92.4607 283.607 93.2979 283.607C93.9498 283.607 94.5374 283.727 95.0606 283.969C95.5838 284.21 96.0125 284.548 96.3465 284.983C96.6805 285.418 96.8878 285.925 96.9683 286.504H95.5436C95.4349 286.082 95.1934 285.707 94.8192 285.381C94.4489 285.051 93.9498 284.886 93.322 284.886C92.7666 284.886 92.2796 285.031 91.8611 285.321C91.4465 285.607 91.1225 286.011 90.8891 286.534C90.6597 287.054 90.545 287.663 90.545 288.364C90.545 289.08 90.6577 289.704 90.8831 290.235C91.1125 290.766 91.4345 291.179 91.849 291.473C92.2675 291.766 92.7586 291.913 93.322 291.913C93.6923 291.913 94.0283 291.849 94.3302 291.72C94.632 291.591 94.8876 291.406 95.0969 291.165C95.3061 290.923 95.455 290.634 95.5436 290.295H96.9683C96.8878 290.843 96.6886 291.336 96.3706 291.775C96.0567 292.209 95.6402 292.555 95.121 292.813C94.6059 293.066 94.0062 293.193 93.322 293.193ZM102.439 293.193C101.545 293.193 100.775 292.996 100.127 292.602C99.4827 292.203 98.9857 291.648 98.6356 290.935C98.2894 290.219 98.1164 289.386 98.1164 288.436C98.1164 287.486 98.2894 286.649 98.6356 285.925C98.9857 285.196 99.4727 284.629 100.097 284.222C100.724 283.812 101.457 283.607 102.294 283.607C102.777 283.607 103.254 283.687 103.725 283.848C104.196 284.009 104.624 284.271 105.011 284.633C105.397 284.991 105.705 285.466 105.934 286.058C106.164 286.649 106.278 287.378 106.278 288.243V288.847H99.1306V287.615H104.829C104.829 287.092 104.725 286.625 104.516 286.214C104.31 285.804 104.016 285.48 103.634 285.243C103.256 285.005 102.809 284.886 102.294 284.886C101.726 284.886 101.235 285.027 100.821 285.309C100.41 285.587 100.094 285.949 99.8731 286.396C99.6518 286.842 99.5411 287.321 99.5411 287.832V288.653C99.5411 289.354 99.6618 289.947 99.9033 290.434C100.149 290.917 100.489 291.286 100.924 291.539C101.358 291.789 101.863 291.913 102.439 291.913C102.813 291.913 103.151 291.861 103.453 291.756C103.759 291.648 104.023 291.487 104.244 291.273C104.465 291.056 104.636 290.786 104.757 290.464L106.133 290.851C105.989 291.318 105.745 291.728 105.403 292.082C105.061 292.433 104.638 292.706 104.135 292.903C103.632 293.097 103.067 293.193 102.439 293.193ZM111.447 293.193C110.674 293.193 109.992 292.998 109.4 292.608C108.809 292.213 108.346 291.658 108.012 290.941C107.678 290.221 107.511 289.37 107.511 288.388C107.511 287.414 107.678 286.569 108.012 285.852C108.346 285.136 108.811 284.583 109.407 284.192C110.002 283.802 110.69 283.607 111.471 283.607C112.075 283.607 112.552 283.707 112.902 283.908C113.256 284.106 113.526 284.331 113.711 284.585C113.9 284.834 114.047 285.039 114.152 285.2H114.272V280.636H115.697V293H114.321V291.575H114.152C114.047 291.744 113.898 291.958 113.705 292.215C113.512 292.469 113.236 292.696 112.878 292.897C112.52 293.095 112.043 293.193 111.447 293.193ZM111.64 291.913C112.212 291.913 112.695 291.764 113.089 291.467C113.483 291.165 113.783 290.748 113.989 290.217C114.194 289.682 114.296 289.064 114.296 288.364C114.296 287.671 114.196 287.066 113.995 286.547C113.793 286.023 113.496 285.617 113.101 285.327C112.707 285.033 112.22 284.886 111.64 284.886C111.036 284.886 110.533 285.041 110.131 285.351C109.733 285.657 109.433 286.074 109.231 286.601C109.034 287.124 108.936 287.712 108.936 288.364C108.936 289.024 109.036 289.623 109.237 290.163C109.443 290.698 109.745 291.125 110.143 291.442C110.545 291.756 111.045 291.913 111.64 291.913ZM126.415 283.727V284.935H121.416V283.727H126.415ZM122.913 293V282.447C122.913 281.916 123.038 281.473 123.288 281.119C123.537 280.765 123.861 280.5 124.259 280.322C124.658 280.145 125.079 280.057 125.521 280.057C125.871 280.057 126.157 280.085 126.378 280.141C126.6 280.198 126.765 280.25 126.873 280.298L126.463 281.53C126.391 281.506 126.29 281.475 126.161 281.439C126.036 281.403 125.871 281.385 125.666 281.385C125.195 281.385 124.855 281.504 124.646 281.741C124.441 281.979 124.338 282.327 124.338 282.786V293H122.913ZM127.911 293V283.727H129.336V293H127.911ZM128.636 282.182C128.358 282.182 128.119 282.087 127.917 281.898C127.72 281.709 127.622 281.482 127.622 281.216C127.622 280.95 127.72 280.723 127.917 280.534C128.119 280.345 128.358 280.25 128.636 280.25C128.914 280.25 129.151 280.345 129.348 280.534C129.549 280.723 129.65 280.95 129.65 281.216C129.65 281.482 129.549 281.709 129.348 281.898C129.151 282.087 128.914 282.182 128.636 282.182ZM132.87 280.636V293H131.446V280.636H132.87ZM139.012 283.727V284.935H134.207V283.727H139.012ZM135.608 281.506H137.032V290.344C137.032 290.746 137.091 291.048 137.207 291.249C137.328 291.446 137.481 291.579 137.666 291.648C137.855 291.712 138.055 291.744 138.264 291.744C138.421 291.744 138.55 291.736 138.65 291.72C138.751 291.7 138.831 291.684 138.892 291.672L139.181 292.952C139.085 292.988 138.95 293.024 138.777 293.06C138.604 293.101 138.385 293.121 138.119 293.121C137.717 293.121 137.322 293.034 136.936 292.861C136.553 292.688 136.235 292.424 135.982 292.07C135.732 291.716 135.608 291.269 135.608 290.73V281.506ZM144.444 293.193C143.55 293.193 142.78 292.996 142.132 292.602C141.488 292.203 140.991 291.648 140.64 290.935C140.294 290.219 140.121 289.386 140.121 288.436C140.121 287.486 140.294 286.649 140.64 285.925C140.991 285.196 141.478 284.629 142.101 284.222C142.729 283.812 143.462 283.607 144.299 283.607C144.782 283.607 145.259 283.687 145.73 283.848C146.2 284.009 146.629 284.271 147.015 284.633C147.402 284.991 147.71 285.466 147.939 286.058C148.169 286.649 148.283 287.378 148.283 288.243V288.847H141.135V287.615H146.834C146.834 287.092 146.73 286.625 146.52 286.214C146.315 285.804 146.021 285.48 145.639 285.243C145.261 285.005 144.814 284.886 144.299 284.886C143.731 284.886 143.24 285.027 142.826 285.309C142.415 285.587 142.099 285.949 141.878 286.396C141.657 286.842 141.546 287.321 141.546 287.832V288.653C141.546 289.354 141.667 289.947 141.908 290.434C142.154 290.917 142.494 291.286 142.928 291.539C143.363 291.789 143.868 291.913 144.444 291.913C144.818 291.913 145.156 291.861 145.458 291.756C145.764 291.648 146.027 291.487 146.249 291.273C146.47 291.056 146.641 290.786 146.762 290.464L148.138 290.851C147.993 291.318 147.75 291.728 147.408 292.082C147.066 292.433 146.643 292.706 146.14 292.903C145.637 293.097 145.072 293.193 144.444 293.193ZM149.95 293V283.727H151.327V285.128H151.423C151.593 284.669 151.898 284.297 152.341 284.011C152.784 283.725 153.283 283.582 153.838 283.582C153.943 283.582 154.074 283.584 154.231 283.588C154.388 283.592 154.506 283.598 154.587 283.607V285.055C154.539 285.043 154.428 285.025 154.255 285.001C154.086 284.973 153.907 284.959 153.718 284.959C153.267 284.959 152.864 285.053 152.51 285.243C152.16 285.428 151.882 285.685 151.677 286.015C151.476 286.341 151.375 286.714 151.375 287.132V293H149.95ZM162.344 285.804L161.064 286.166C160.984 285.953 160.865 285.746 160.708 285.544C160.555 285.339 160.346 285.17 160.08 285.037C159.814 284.904 159.474 284.838 159.06 284.838C158.492 284.838 158.019 284.969 157.641 285.23C157.267 285.488 157.08 285.816 157.08 286.214C157.08 286.569 157.208 286.848 157.466 287.054C157.724 287.259 158.126 287.43 158.673 287.567L160.05 287.905C160.879 288.106 161.497 288.414 161.903 288.828C162.31 289.239 162.513 289.768 162.513 290.416C162.513 290.947 162.36 291.422 162.054 291.841C161.752 292.259 161.33 292.589 160.786 292.831C160.243 293.072 159.611 293.193 158.891 293.193C157.945 293.193 157.162 292.988 156.542 292.577C155.923 292.167 155.53 291.567 155.365 290.778L156.717 290.44C156.846 290.939 157.09 291.314 157.448 291.563C157.81 291.813 158.283 291.938 158.867 291.938C159.531 291.938 160.058 291.797 160.448 291.515C160.843 291.229 161.04 290.887 161.04 290.489C161.04 290.167 160.927 289.897 160.702 289.68C160.476 289.458 160.13 289.293 159.663 289.185L158.118 288.822C157.269 288.621 156.645 288.309 156.247 287.887C155.852 287.46 155.655 286.927 155.655 286.287C155.655 285.764 155.802 285.301 156.096 284.898C156.393 284.496 156.798 284.18 157.309 283.951C157.824 283.721 158.408 283.607 159.06 283.607C159.977 283.607 160.698 283.808 161.221 284.21C161.748 284.613 162.122 285.144 162.344 285.804Z" fill="#2863CA"/>
<path d="M40 296.381H163.358V297.54H40V296.381Z" fill="#2863CA"/>
<rect x="32" y="329" width="329" height="44" rx="22" fill="#07192E"/>
<path d="M154.459 349.159C154.459 350.233 154.661 351.241 155.064 352.182C155.468 353.122 156.028 353.951 156.744 354.667C157.46 355.383 158.289 355.943 159.229 356.347C160.17 356.75 161.178 356.952 162.252 356.952C163.098 356.952 163.906 356.822 164.674 356.562C165.442 356.301 166.145 355.943 166.783 355.487L171.588 360.302C171.705 360.412 171.834 360.495 171.974 360.551C172.114 360.606 172.262 360.634 172.418 360.634C172.639 360.634 172.835 360.583 173.004 360.482C173.173 360.381 173.305 360.243 173.399 360.067C173.494 359.892 173.541 359.696 173.541 359.481C173.541 359.325 173.513 359.179 173.458 359.042C173.403 358.905 173.323 358.785 173.219 358.681L168.443 353.876C168.945 353.225 169.337 352.499 169.62 351.698C169.903 350.897 170.045 350.051 170.045 349.159C170.045 348.085 169.843 347.077 169.439 346.137C169.036 345.196 168.476 344.368 167.76 343.651C167.044 342.935 166.215 342.375 165.274 341.972C164.334 341.568 163.326 341.366 162.252 341.366C161.178 341.366 160.17 341.568 159.229 341.972C158.289 342.375 157.46 342.935 156.744 343.651C156.028 344.368 155.468 345.196 155.064 346.137C154.661 347.077 154.459 348.085 154.459 349.159ZM156.129 349.159C156.129 348.313 156.287 347.52 156.603 346.781C156.918 346.042 157.358 345.391 157.921 344.828C158.484 344.265 159.135 343.826 159.874 343.51C160.613 343.194 161.406 343.036 162.252 343.036C163.098 343.036 163.891 343.194 164.63 343.51C165.369 343.826 166.018 344.265 166.578 344.828C167.138 345.391 167.577 346.042 167.896 346.781C168.215 347.52 168.375 348.313 168.375 349.159C168.375 350.006 168.215 350.798 167.896 351.537C167.577 352.276 167.138 352.925 166.578 353.485C166.018 354.045 165.369 354.485 164.63 354.804C163.891 355.123 163.098 355.282 162.252 355.282C161.406 355.282 160.613 355.123 159.874 354.804C159.135 354.485 158.484 354.045 157.921 353.485C157.358 352.925 156.918 352.276 156.603 351.537C156.287 350.798 156.129 350.006 156.129 349.159Z" fill="white"/>
<path d="M191.013 348.062C190.96 347.566 190.736 347.18 190.342 346.903C189.952 346.627 189.444 346.489 188.819 346.489C188.38 346.489 188.003 346.555 187.689 346.688C187.374 346.82 187.134 347 186.967 347.227C186.8 347.455 186.715 347.714 186.711 348.006C186.711 348.248 186.766 348.458 186.876 348.636C186.99 348.814 187.143 348.966 187.336 349.091C187.53 349.212 187.744 349.314 187.979 349.398C188.213 349.481 188.45 349.551 188.689 349.608L189.78 349.881C190.219 349.983 190.641 350.121 191.047 350.295C191.456 350.47 191.821 350.689 192.143 350.955C192.469 351.22 192.727 351.54 192.916 351.915C193.105 352.29 193.2 352.729 193.2 353.233C193.2 353.915 193.026 354.515 192.677 355.034C192.329 355.549 191.825 355.953 191.166 356.244C190.511 356.532 189.717 356.676 188.785 356.676C187.88 356.676 187.094 356.536 186.427 356.256C185.765 355.975 185.246 355.566 184.871 355.028C184.499 354.491 184.299 353.835 184.268 353.062H186.342C186.372 353.468 186.497 353.805 186.717 354.074C186.937 354.343 187.223 354.544 187.575 354.676C187.931 354.809 188.329 354.875 188.768 354.875C189.227 354.875 189.628 354.807 189.973 354.67C190.321 354.53 190.594 354.337 190.791 354.091C190.988 353.841 191.088 353.549 191.092 353.216C191.088 352.913 190.999 352.663 190.825 352.466C190.651 352.265 190.407 352.098 190.092 351.966C189.782 351.83 189.418 351.708 189.001 351.602L187.677 351.261C186.719 351.015 185.961 350.642 185.405 350.142C184.852 349.638 184.575 348.97 184.575 348.136C184.575 347.451 184.761 346.85 185.132 346.335C185.507 345.82 186.016 345.42 186.66 345.136C187.304 344.848 188.033 344.705 188.848 344.705C189.674 344.705 190.397 344.848 191.018 345.136C191.643 345.42 192.134 345.816 192.49 346.324C192.846 346.828 193.03 347.407 193.041 348.062H191.013ZM198.912 356.67C198.037 356.67 197.281 356.489 196.645 356.125C196.012 355.758 195.526 355.239 195.185 354.568C194.844 353.894 194.673 353.1 194.673 352.188C194.673 351.29 194.844 350.502 195.185 349.824C195.53 349.142 196.011 348.612 196.628 348.233C197.245 347.85 197.971 347.659 198.804 347.659C199.342 347.659 199.85 347.746 200.327 347.92C200.808 348.091 201.232 348.356 201.6 348.716C201.971 349.076 202.262 349.534 202.475 350.091C202.687 350.644 202.793 351.303 202.793 352.068V352.699H195.639V351.312H200.821C200.817 350.919 200.732 350.568 200.566 350.261C200.399 349.951 200.166 349.706 199.867 349.528C199.571 349.35 199.226 349.261 198.833 349.261C198.412 349.261 198.043 349.364 197.725 349.568C197.406 349.769 197.158 350.034 196.98 350.364C196.806 350.689 196.717 351.047 196.713 351.438V352.648C196.713 353.155 196.806 353.591 196.992 353.955C197.177 354.314 197.437 354.591 197.77 354.784C198.103 354.973 198.494 355.068 198.941 355.068C199.24 355.068 199.511 355.027 199.753 354.943C199.995 354.856 200.206 354.729 200.384 354.562C200.562 354.396 200.696 354.189 200.787 353.943L202.708 354.159C202.586 354.667 202.355 355.11 202.014 355.489C201.677 355.864 201.245 356.155 200.719 356.364C200.192 356.568 199.59 356.67 198.912 356.67ZM207.104 356.676C206.551 356.676 206.053 356.578 205.61 356.381C205.17 356.18 204.822 355.884 204.564 355.494C204.311 355.104 204.184 354.623 204.184 354.051C204.184 353.559 204.275 353.152 204.456 352.83C204.638 352.508 204.886 352.25 205.201 352.057C205.515 351.864 205.869 351.718 206.263 351.619C206.661 351.517 207.072 351.443 207.496 351.398C208.008 351.345 208.422 351.297 208.741 351.256C209.059 351.21 209.29 351.142 209.434 351.051C209.581 350.956 209.655 350.811 209.655 350.614V350.58C209.655 350.152 209.528 349.82 209.275 349.585C209.021 349.35 208.655 349.233 208.178 349.233C207.674 349.233 207.275 349.343 206.979 349.562C206.688 349.782 206.491 350.042 206.388 350.341L204.468 350.068C204.619 349.538 204.869 349.095 205.218 348.739C205.566 348.379 205.992 348.11 206.496 347.932C207 347.75 207.557 347.659 208.167 347.659C208.587 347.659 209.006 347.708 209.422 347.807C209.839 347.905 210.22 348.068 210.564 348.295C210.909 348.519 211.186 348.824 211.394 349.21C211.606 349.597 211.712 350.08 211.712 350.659V356.5H209.735V355.301H209.667C209.542 355.544 209.366 355.771 209.138 355.983C208.915 356.191 208.633 356.36 208.292 356.489C207.955 356.614 207.559 356.676 207.104 356.676ZM207.638 355.165C208.051 355.165 208.409 355.083 208.712 354.92C209.015 354.754 209.248 354.534 209.411 354.261C209.578 353.989 209.661 353.691 209.661 353.369V352.341C209.597 352.394 209.487 352.443 209.331 352.489C209.18 352.534 209.01 352.574 208.82 352.608C208.631 352.642 208.443 352.672 208.258 352.699C208.072 352.725 207.911 352.748 207.775 352.767C207.468 352.809 207.193 352.877 206.951 352.972C206.708 353.066 206.517 353.199 206.377 353.369C206.237 353.536 206.167 353.752 206.167 354.017C206.167 354.396 206.305 354.682 206.581 354.875C206.858 355.068 207.21 355.165 207.638 355.165ZM213.84 356.5V347.773H215.835V349.227H215.926C216.085 348.723 216.357 348.335 216.744 348.062C217.134 347.786 217.579 347.648 218.079 347.648C218.193 347.648 218.32 347.653 218.46 347.665C218.604 347.672 218.723 347.686 218.818 347.705V349.597C218.73 349.566 218.592 349.54 218.403 349.517C218.217 349.491 218.037 349.477 217.863 349.477C217.488 349.477 217.151 349.559 216.852 349.722C216.556 349.881 216.323 350.102 216.153 350.386C215.982 350.67 215.897 350.998 215.897 351.369V356.5H213.84ZM223.692 356.67C222.82 356.67 222.072 356.479 221.447 356.097C220.826 355.714 220.347 355.186 220.01 354.511C219.676 353.833 219.51 353.053 219.51 352.17C219.51 351.284 219.68 350.502 220.021 349.824C220.362 349.142 220.843 348.612 221.464 348.233C222.089 347.85 222.828 347.659 223.68 347.659C224.388 347.659 225.015 347.79 225.561 348.051C226.11 348.309 226.548 348.674 226.873 349.148C227.199 349.617 227.385 350.167 227.43 350.795H225.464C225.385 350.375 225.195 350.025 224.896 349.744C224.601 349.46 224.205 349.318 223.709 349.318C223.288 349.318 222.919 349.432 222.601 349.659C222.282 349.883 222.034 350.205 221.856 350.625C221.682 351.045 221.595 351.549 221.595 352.136C221.595 352.731 221.682 353.242 221.856 353.67C222.031 354.095 222.275 354.422 222.589 354.653C222.907 354.881 223.281 354.994 223.709 354.994C224.012 354.994 224.282 354.937 224.521 354.824C224.763 354.706 224.966 354.538 225.129 354.318C225.292 354.098 225.404 353.831 225.464 353.517H227.43C227.381 354.134 227.199 354.682 226.885 355.159C226.57 355.633 226.142 356.004 225.601 356.273C225.059 356.538 224.423 356.67 223.692 356.67ZM231.236 351.386V356.5H229.179V344.864H231.19V349.256H231.293C231.497 348.763 231.814 348.375 232.242 348.091C232.673 347.803 233.223 347.659 233.889 347.659C234.495 347.659 235.024 347.786 235.475 348.04C235.925 348.294 236.274 348.665 236.52 349.153C236.77 349.642 236.895 350.239 236.895 350.943V356.5H234.838V351.261C234.838 350.674 234.687 350.218 234.384 349.892C234.084 349.562 233.664 349.398 233.122 349.398C232.759 349.398 232.433 349.477 232.145 349.636C231.861 349.792 231.637 350.017 231.475 350.312C231.315 350.608 231.236 350.966 231.236 351.386Z" fill="white"/>
<g filter="url(#filter2_d_570_12027)">
<g clip-path="url(#clip1_570_12027)">
<rect x="62.5" y="756" width="268" height="60" rx="30" fill="white"/>
<rect x="64.5" y="758" width="160" height="56" rx="28" fill="#07192E"/>
<path d="M89 784.089C89 785.204 89.2115 786.25 89.6346 787.227C90.0577 788.203 90.6445 789.063 91.3951 789.806C92.1457 790.55 93.014 791.131 94 791.55C94.986 791.969 96.042 792.178 97.1679 792.178C98.0549 792.178 98.9011 792.043 99.7062 791.773C100.511 791.503 101.248 791.131 101.917 790.658L106.953 795.655C107.076 795.77 107.211 795.856 107.357 795.914C107.504 795.971 107.659 796 107.823 796C108.055 796 108.26 795.948 108.437 795.843C108.614 795.738 108.753 795.594 108.852 795.412C108.951 795.23 109 795.027 109 794.804C109 794.642 108.971 794.49 108.913 794.348C108.855 794.206 108.771 794.081 108.662 793.973L103.657 788.985C104.183 788.31 104.594 787.556 104.89 786.725C105.187 785.894 105.336 785.015 105.336 784.089C105.336 782.974 105.124 781.928 104.701 780.952C104.278 779.975 103.691 779.115 102.941 778.372C102.19 777.629 101.322 777.047 100.336 776.628C99.3497 776.209 98.2938 776 97.1679 776C96.042 776 94.986 776.209 94 776.628C93.014 777.047 92.1457 777.629 91.3951 778.372C90.6445 779.115 90.0577 779.975 89.6346 780.952C89.2115 781.928 89 782.974 89 784.089ZM90.7503 784.089C90.7503 783.211 90.9157 782.388 91.2467 781.621C91.5776 780.854 92.0382 780.178 92.6285 779.594C93.2187 779.009 93.9011 778.553 94.6755 778.225C95.45 777.897 96.2808 777.733 97.1679 777.733C98.0549 777.733 98.8857 777.897 99.6602 778.225C100.435 778.553 101.115 779.009 101.702 779.594C102.289 780.178 102.75 780.854 103.084 781.621C103.418 782.388 103.585 783.211 103.585 784.089C103.585 784.968 103.418 785.79 103.084 786.558C102.75 787.325 102.289 787.999 101.702 788.58C101.115 789.161 100.435 789.617 99.6602 789.948C98.8857 790.279 98.0549 790.445 97.1679 790.445C96.2808 790.445 95.45 790.279 94.6755 789.948C93.9011 789.617 93.2187 789.161 92.6285 788.58C92.0382 787.999 91.5776 787.325 91.2467 786.558C90.9157 785.79 90.7503 784.968 90.7503 784.089Z" fill="white"/>
<path d="M120.237 791V781.136H121.618L126.69 788.313H126.793V781.136H128.283V791H126.902L121.837 783.836H121.728V791H120.237ZM133.711 791.144C131.537 791.144 130.225 789.66 130.225 787.309V787.302C130.225 784.984 131.564 783.433 133.636 783.433C135.707 783.433 136.979 784.93 136.979 787.158V787.678H131.715C131.742 789.1 132.521 789.927 133.745 789.927C134.695 789.927 135.263 789.455 135.44 789.072L135.468 789.018L136.896 789.011L136.883 789.072C136.637 790.05 135.611 791.144 133.711 791.144ZM133.643 784.649C132.631 784.649 131.865 785.34 131.735 786.618H135.509C135.393 785.292 134.647 784.649 133.643 784.649ZM140.116 791L138.065 783.576H139.556L140.889 789.305H140.998L142.529 783.576H143.938L145.469 789.305H145.585L146.911 783.576H148.381L146.337 791H144.812L143.274 785.463H143.158L141.627 791H140.116ZM157.233 791.239C155.005 791.239 153.576 790.111 153.439 788.45L153.433 788.361H154.937L154.943 788.437C155.025 789.332 155.976 789.906 157.295 789.906C158.553 789.906 159.448 789.277 159.448 788.361V788.354C159.448 787.596 158.915 787.104 157.609 786.823L156.529 786.591C154.526 786.167 153.665 785.237 153.665 783.781V783.774C153.672 782.072 155.148 780.896 157.24 780.896C159.332 780.896 160.699 782.079 160.809 783.61L160.815 783.706H159.332L159.318 783.617C159.188 782.811 158.416 782.223 157.22 782.229C156.064 782.229 155.21 782.77 155.21 783.699V783.706C155.21 784.438 155.729 784.916 157.008 785.189L158.081 785.429C160.152 785.873 161 786.707 161 788.17V788.177C161 790.063 159.53 791.239 157.233 791.239ZM165.963 791.144C163.789 791.144 162.477 789.66 162.477 787.309V787.302C162.477 784.984 163.816 783.433 165.888 783.433C167.959 783.433 169.23 784.93 169.23 787.158V787.678H163.967C163.994 789.1 164.773 789.927 165.997 789.927C166.947 789.927 167.515 789.455 167.692 789.072L167.72 789.018L169.148 789.011L169.135 789.072C168.889 790.05 167.863 791.144 165.963 791.144ZM165.895 784.649C164.883 784.649 164.117 785.34 163.987 786.618H167.761C167.645 785.292 166.899 784.649 165.895 784.649ZM173.031 791.123C171.616 791.123 170.57 790.262 170.57 788.915V788.901C170.57 787.575 171.568 786.803 173.339 786.693L175.349 786.577V785.921C175.349 785.107 174.836 784.656 173.831 784.656C173.011 784.656 172.471 784.957 172.293 785.483L172.286 785.511H170.857L170.864 785.463C171.042 784.246 172.211 783.433 173.899 783.433C175.766 783.433 176.818 784.362 176.818 785.921V791H175.349V789.947H175.232C174.795 790.699 174.016 791.123 173.031 791.123ZM172.047 788.854C172.047 789.537 172.628 789.94 173.428 789.94C174.535 789.94 175.349 789.216 175.349 788.259V787.623L173.537 787.739C172.512 787.801 172.047 788.17 172.047 788.84V788.854ZM178.91 791V783.576H180.394V784.697H180.503C180.77 783.911 181.46 783.446 182.451 783.446C182.69 783.446 182.95 783.48 183.101 783.515V784.882C182.834 784.827 182.581 784.793 182.301 784.793C181.166 784.793 180.394 785.49 180.394 786.563V791H178.91ZM187.448 791.144C185.281 791.144 183.955 789.667 183.955 787.268V787.254C183.955 784.902 185.274 783.433 187.441 783.433C189.308 783.433 190.422 784.485 190.627 785.928V785.962L189.205 785.969L189.198 785.948C189.034 785.217 188.433 784.67 187.448 784.67C186.211 784.67 185.466 785.654 185.466 787.254V787.268C185.466 788.908 186.225 789.906 187.448 789.906C188.378 789.906 188.952 789.482 189.191 788.683L189.205 788.648H190.627L190.613 788.71C190.347 790.152 189.287 791.144 187.448 791.144ZM192.377 791V780.664H193.86V784.704H193.97C194.332 783.911 195.043 783.433 196.123 783.433C197.784 783.433 198.7 784.424 198.7 786.194V791H197.224V786.543C197.224 785.312 196.711 784.704 195.624 784.704C194.537 784.704 193.86 785.449 193.86 786.646V791H192.377Z" fill="white"/>
<path d="M255.903 791.411C255.201 791.411 254.462 791.402 253.687 791.386C252.912 791.369 252.151 791.347 251.404 791.319C250.663 791.286 249.979 791.25 249.354 791.211C248.734 791.173 248.225 791.131 247.827 791.087C247.268 791.021 246.836 790.835 246.532 790.531C246.227 790.226 246.075 789.809 246.075 789.277V787.816C246.075 787.346 246.108 786.937 246.175 786.588C246.247 786.234 246.36 785.904 246.515 785.6C246.67 785.29 246.875 784.969 247.129 784.637L247.827 783.732C247.932 783.234 248.054 782.742 248.192 782.255C248.336 781.768 248.477 781.331 248.615 780.943C248.759 780.556 248.878 780.26 248.972 780.055C249.194 779.585 249.512 779.211 249.927 778.935C250.342 778.652 250.826 778.478 251.379 778.412C251.568 778.389 251.88 778.37 252.317 778.354C252.755 778.337 253.28 778.323 253.895 778.312C254.514 778.301 255.184 778.295 255.903 778.295C256.617 778.295 257.281 778.301 257.896 778.312C258.515 778.318 259.044 778.329 259.481 778.345C259.924 778.362 260.236 778.384 260.419 778.412C260.972 778.484 261.457 778.658 261.872 778.935C262.287 779.211 262.605 779.585 262.826 780.055C262.92 780.26 263.036 780.556 263.175 780.943C263.319 781.331 263.46 781.768 263.598 782.255C263.742 782.742 263.867 783.234 263.972 783.732L264.669 784.637C264.924 784.969 265.128 785.29 265.283 785.6C265.438 785.904 265.549 786.234 265.615 786.588C265.687 786.937 265.723 787.346 265.723 787.816V789.277C265.723 789.809 265.571 790.226 265.267 790.531C264.962 790.835 264.531 791.021 263.972 791.087C263.579 791.131 263.07 791.173 262.444 791.211C261.819 791.25 261.133 791.286 260.386 791.319C259.644 791.347 258.886 791.369 258.111 791.386C257.337 791.402 256.601 791.411 255.903 791.411ZM249.503 783.035C249.47 783.19 249.484 783.301 249.545 783.367C249.606 783.428 249.716 783.453 249.877 783.442C250.336 783.414 250.84 783.387 251.388 783.359C251.936 783.331 252.575 783.309 253.305 783.292C254.036 783.276 254.902 783.268 255.903 783.268C256.899 783.268 257.763 783.276 258.493 783.292C259.224 783.309 259.863 783.331 260.411 783.359C260.958 783.387 261.462 783.414 261.921 783.442C262.082 783.453 262.193 783.428 262.253 783.367C262.32 783.301 262.334 783.19 262.295 783.035C262.223 782.736 262.137 782.418 262.038 782.081C261.938 781.737 261.833 781.422 261.722 781.134C261.617 780.841 261.517 780.617 261.423 780.462C261.307 780.268 261.18 780.124 261.042 780.03C260.909 779.936 260.732 779.873 260.51 779.839C260.195 779.79 259.669 779.754 258.933 779.731C258.197 779.709 257.187 779.698 255.903 779.698C254.619 779.698 253.607 779.712 252.865 779.74C252.129 779.762 251.606 779.795 251.296 779.839C251.069 779.873 250.887 779.936 250.749 780.03C250.616 780.124 250.491 780.268 250.375 780.462C250.286 780.622 250.187 780.849 250.076 781.143C249.965 781.43 249.858 781.743 249.752 782.081C249.653 782.418 249.57 782.736 249.503 783.035ZM249.91 789.169C250.292 789.169 250.61 789.042 250.865 788.788C251.119 788.528 251.247 788.209 251.247 787.833C251.247 787.451 251.119 787.133 250.865 786.878C250.61 786.624 250.292 786.497 249.91 786.497C249.534 786.497 249.218 786.624 248.964 786.878C248.709 787.133 248.582 787.451 248.582 787.833C248.582 788.209 248.709 788.528 248.964 788.788C249.218 789.042 249.534 789.169 249.91 789.169ZM253.704 788.837H258.095C258.377 788.837 258.607 788.749 258.784 788.572C258.966 788.395 259.058 788.162 259.058 787.875C259.058 787.592 258.966 787.363 258.784 787.186C258.607 787.008 258.377 786.92 258.095 786.92H253.704C253.421 786.92 253.189 787.008 253.006 787.186C252.829 787.363 252.741 787.592 252.741 787.875C252.741 788.162 252.829 788.395 253.006 788.572C253.189 788.749 253.421 788.837 253.704 788.837ZM261.888 789.169C262.264 789.169 262.58 789.042 262.834 788.788C263.089 788.528 263.216 788.209 263.216 787.833C263.216 787.451 263.089 787.133 262.834 786.878C262.58 786.624 262.264 786.497 261.888 786.497C261.506 786.497 261.188 786.624 260.934 786.878C260.679 787.133 260.552 787.451 260.552 787.833C260.552 788.209 260.679 788.528 260.934 788.788C261.188 789.042 261.506 789.169 261.888 789.169ZM247.179 793.693C246.869 793.693 246.606 793.588 246.391 793.378C246.18 793.168 246.075 792.908 246.075 792.598V789.02L249.254 790.531V792.598C249.254 792.908 249.149 793.168 248.939 793.378C248.729 793.588 248.469 793.693 248.159 793.693H247.179ZM263.64 793.693C263.33 793.693 263.07 793.588 262.859 793.378C262.649 793.168 262.544 792.908 262.544 792.598V790.531L265.723 789.02V792.598C265.723 792.908 265.615 793.168 265.399 793.378C265.189 793.588 264.929 793.693 264.619 793.693H263.64ZM242.697 783.11C242.658 783.265 242.669 783.375 242.73 783.442C242.796 783.503 242.91 783.528 243.07 783.517C243.397 783.494 243.743 783.475 244.108 783.458C244.473 783.436 244.874 783.417 245.312 783.4C245.754 783.384 246.25 783.37 246.797 783.359L246.681 783.732L245.984 784.637C245.735 784.969 245.533 785.29 245.378 785.6C245.223 785.91 245.11 786.242 245.038 786.596C244.971 786.945 244.938 787.354 244.938 787.825V791.328C244.141 791.3 243.397 791.267 242.705 791.228C242.013 791.184 241.454 791.137 241.028 791.087C240.469 791.021 240.038 790.838 239.733 790.539C239.435 790.235 239.282 789.817 239.277 789.286L239.269 787.825C239.269 787.354 239.302 786.945 239.368 786.596C239.44 786.242 239.554 785.91 239.708 785.6C239.863 785.29 240.068 784.969 240.323 784.637L241.012 783.732C241.111 783.234 241.23 782.742 241.369 782.255C241.513 781.768 241.654 781.331 241.792 780.943C241.93 780.55 242.049 780.254 242.149 780.055C242.37 779.585 242.688 779.208 243.104 778.926C243.519 778.639 244.003 778.464 244.556 778.403C244.805 778.376 245.298 778.351 246.034 778.329C246.775 778.306 247.727 778.29 248.889 778.279C248.646 778.495 248.452 778.724 248.308 778.968C248.17 779.206 248.051 779.474 247.951 779.773C247.016 779.784 246.269 779.801 245.71 779.823C245.157 779.845 244.747 779.875 244.481 779.914C244.26 779.947 244.08 780.011 243.942 780.105C243.804 780.199 243.679 780.343 243.568 780.537C243.48 780.697 243.38 780.924 243.27 781.217C243.159 781.505 243.051 781.818 242.946 782.155C242.846 782.493 242.763 782.811 242.697 783.11ZM242.398 788.721C242.741 788.721 243.029 788.605 243.261 788.373C243.494 788.135 243.61 787.844 243.61 787.501C243.61 787.152 243.494 786.862 243.261 786.629C243.029 786.397 242.741 786.281 242.398 786.281C242.049 786.281 241.759 786.397 241.526 786.629C241.294 786.862 241.178 787.152 241.178 787.501C241.178 787.844 241.294 788.135 241.526 788.373C241.759 788.605 242.049 788.721 242.398 788.721ZM240.389 793.693C240.074 793.693 239.808 793.588 239.592 793.378C239.382 793.173 239.277 792.916 239.277 792.606V788.779L242.456 790.282V792.598C242.456 792.908 242.351 793.168 242.141 793.378C241.936 793.588 241.676 793.693 241.36 793.693H240.389Z" fill="#7A7A7A"/>
<g clip-path="url(#clip2_570_12027)">
<rect x="254.5" y="768" width="16" height="16" rx="8" fill="#F81212"/>
<path d="M262.49 780V774.194H262.407L260.654 775.435V774.248L262.495 772.954H263.75V780H262.49Z" fill="white"/>
</g>
<rect x="255" y="768.5" width="15" height="15" rx="7.5" stroke="white"/>
<path d="M303.662 794.88C303.341 794.88 303.064 794.789 302.832 794.606C302.605 794.429 302.455 794.186 302.383 793.876L302.018 792.324L301.752 792.232L300.408 793.062C300.137 793.234 299.854 793.3 299.561 793.262C299.268 793.223 299.008 793.09 298.781 792.863L297.627 791.709C297.395 791.483 297.259 791.222 297.22 790.929C297.187 790.636 297.256 790.356 297.428 790.091L298.266 788.746L298.175 788.497L296.623 788.132C296.318 788.06 296.075 787.908 295.892 787.675C295.709 787.443 295.618 787.169 295.618 786.854V785.21C295.618 784.895 295.707 784.621 295.884 784.388C296.066 784.156 296.313 784.004 296.623 783.932L298.158 783.558L298.258 783.292L297.419 781.948C297.248 781.682 297.179 781.405 297.212 781.118C297.251 780.824 297.386 780.562 297.619 780.329L298.772 779.167C298.999 778.946 299.257 778.816 299.544 778.777C299.838 778.738 300.12 778.802 300.391 778.968L301.736 779.798L302.018 779.69L302.383 778.138C302.455 777.833 302.605 777.59 302.832 777.407C303.064 777.225 303.341 777.133 303.662 777.133H305.338C305.659 777.133 305.933 777.225 306.16 777.407C306.393 777.59 306.545 777.833 306.617 778.138L306.974 779.69L307.256 779.798L308.609 778.968C308.875 778.802 309.154 778.738 309.447 778.777C309.741 778.816 309.998 778.946 310.219 779.167L311.381 780.329C311.608 780.562 311.741 780.824 311.78 781.118C311.819 781.405 311.752 781.682 311.581 781.948L310.734 783.292L310.842 783.558L312.377 783.932C312.682 784.004 312.925 784.156 313.108 784.388C313.291 784.621 313.382 784.895 313.382 785.21V786.854C313.382 787.169 313.291 787.443 313.108 787.675C312.925 787.908 312.682 788.06 312.377 788.132L310.825 788.497L310.726 788.746L311.572 790.091C311.744 790.356 311.81 790.636 311.771 790.929C311.733 791.222 311.6 791.483 311.373 791.709L310.211 792.863C309.984 793.09 309.724 793.223 309.431 793.262C309.137 793.3 308.858 793.234 308.592 793.062L307.239 792.232L306.974 792.324L306.617 793.876C306.545 794.186 306.393 794.429 306.16 794.606C305.933 794.789 305.659 794.88 305.338 794.88H303.662ZM303.794 793.585H305.206C305.344 793.585 305.421 793.522 305.438 793.395L305.944 791.336C306.199 791.275 306.44 791.198 306.667 791.104C306.893 791.004 307.095 790.899 307.272 790.788L309.082 791.9C309.187 791.972 309.292 791.958 309.397 791.859L310.369 790.879C310.463 790.796 310.474 790.694 310.402 790.572L309.29 788.779C309.389 788.602 309.486 788.4 309.58 788.173C309.68 787.946 309.763 787.706 309.829 787.451L311.896 786.961C312.023 786.939 312.087 786.859 312.087 786.721V785.334C312.087 785.202 312.023 785.121 311.896 785.094L309.837 784.596C309.771 784.325 309.685 784.073 309.58 783.84C309.475 783.608 309.384 783.414 309.306 783.259L310.41 781.466C310.488 781.345 310.479 781.237 310.385 781.143L309.406 780.18C309.306 780.091 309.198 780.077 309.082 780.138L307.281 781.234C307.098 781.134 306.893 781.037 306.667 780.943C306.445 780.844 306.204 780.761 305.944 780.694L305.438 778.619C305.421 778.492 305.344 778.428 305.206 778.428H303.794C303.656 778.428 303.576 778.492 303.554 778.619L303.064 780.678C302.815 780.744 302.569 780.827 302.325 780.927C302.087 781.026 301.88 781.126 301.703 781.226L299.91 780.138C299.799 780.077 299.694 780.091 299.594 780.18L298.606 781.143C298.518 781.237 298.51 781.345 298.582 781.466L299.686 783.259C299.614 783.414 299.522 783.608 299.412 783.84C299.306 784.073 299.221 784.325 299.154 784.596L297.104 785.094C296.977 785.121 296.913 785.202 296.913 785.334V786.721C296.913 786.859 296.977 786.939 297.104 786.961L299.163 787.451C299.229 787.706 299.312 787.946 299.412 788.173C299.511 788.4 299.608 788.602 299.702 788.779L298.59 790.572C298.523 790.694 298.535 790.796 298.623 790.879L299.603 791.859C299.708 791.958 299.81 791.972 299.91 791.9L301.719 790.788C301.896 790.899 302.098 791.004 302.325 791.104C302.558 791.198 302.801 791.275 303.056 791.336L303.554 793.395C303.576 793.522 303.656 793.585 303.794 793.585ZM304.5 789.178C303.919 789.178 303.388 789.034 302.906 788.746C302.43 788.458 302.049 788.076 301.761 787.601C301.473 787.119 301.329 786.588 301.329 786.007C301.329 785.431 301.473 784.906 301.761 784.43C302.049 783.948 302.43 783.566 302.906 783.284C303.388 782.996 303.919 782.853 304.5 782.853C305.081 782.853 305.61 782.996 306.085 783.284C306.567 783.566 306.949 783.948 307.231 784.43C307.519 784.906 307.663 785.431 307.663 786.007C307.663 786.588 307.519 787.119 307.231 787.601C306.949 788.082 306.567 788.467 306.085 788.754C305.61 789.037 305.081 789.178 304.5 789.178ZM304.5 787.891C304.838 787.891 305.147 787.805 305.43 787.634C305.712 787.462 305.936 787.235 306.102 786.953C306.274 786.665 306.359 786.35 306.359 786.007C306.359 785.664 306.274 785.351 306.102 785.069C305.936 784.787 305.712 784.562 305.43 784.396C305.147 784.225 304.838 784.139 304.5 784.139C304.157 784.139 303.841 784.225 303.554 784.396C303.271 784.562 303.045 784.787 302.873 785.069C302.707 785.351 302.624 785.664 302.624 786.007C302.624 786.355 302.707 786.674 302.873 786.961C303.045 787.244 303.271 787.471 303.554 787.642C303.841 787.808 304.157 787.891 304.5 787.891Z" fill="#7A7A7A"/>
</g>
</g>
<rect x="137" y="837" width="120" height="5" rx="2.5" fill="black"/>
</g>
<defs>
<filter id="filter0_f_570_12027" x="235.773" y="25.1818" width="7.45459" height="4.18176" filterUnits="userSpaceOnUse" color-interpolation-filters="sRGB">
<feFlood flood-opacity="0" result="BackgroundImageFix"/>
<feBlend mode="normal" in="SourceGraphic" in2="BackgroundImageFix" result="shape"/>
<feGaussianBlur stdDeviation="0.5" result="effect1_foregroundBlur_570_12027"/>
</filter>
<filter id="filter1_f_570_12027" x="235.773" y="29.5454" width="7.45459" height="5.27271" filterUnits="userSpaceOnUse" color-interpolation-filters="sRGB">
<feFlood flood-opacity="0" result="BackgroundImageFix"/>
<feBlend mode="normal" in="SourceGraphic" in2="BackgroundImageFix" result="shape"/>
<feGaussianBlur stdDeviation="0.5" result="effect1_foregroundBlur_570_12027"/>
</filter>
<filter id="filter2_d_570_12027" x="56.5" y="753" width="280" height="72" filterUnits="userSpaceOnUse" color-interpolation-filters="sRGB">
<feFlood flood-opacity="0" result="BackgroundImageFix"/>
<feColorMatrix in="SourceAlpha" type="matrix" values="0 0 0 0 0 0 0 0 0 0 0 0 0 0 0 0 0 0 127 0" result="hardAlpha"/>
<feOffset dy="3"/>
<feGaussianBlur stdDeviation="3"/>
<feComposite in2="hardAlpha" operator="out"/>
<feColorMatrix type="matrix" values="0 0 0 0 0 0 0 0 0 0 0 0 0 0 0 0 0 0 0.35 0"/>
<feBlend mode="normal" in2="BackgroundImageFix" result="effect1_dropShadow_570_12027"/>
<feBlend mode="normal" in="SourceGraphic" in2="effect1_dropShadow_570_12027" result="shape"/>
</filter>
<clipPath id="clip0_570_12027">
<rect width="393" height="852" fill="white"/>
</clipPath>
<clipPath id="clip1_570_12027">
<rect x="62.5" y="756" width="268" height="60" rx="30" fill="white"/>
</clipPath>
<clipPath id="clip2_570_12027">
<rect x="254.5" y="768" width="16" height="16" rx="8" fill="white"/>
</clipPath>
</defs>
</svg>
