<svg width="393" height="852" viewBox="0 0 393 852" fill="none" xmlns="http://www.w3.org/2000/svg">
<g clip-path="url(#clip0_570_12204)">
<rect width="393" height="852" fill="white"/>
<path d="M46.7666 23.7231C47.4085 23.7231 48.0173 23.8421 48.5928 24.0801C49.1683 24.3125 49.6774 24.6777 50.1201 25.1758C50.5684 25.6683 50.9198 26.3019 51.1743 27.0767C51.4289 27.8459 51.5562 28.7728 51.5562 29.8574V29.874C51.5562 31.2188 51.3625 32.3698 50.9751 33.3271C50.5877 34.2845 50.0316 35.0205 49.3066 35.5352C48.5872 36.0443 47.7267 36.2988 46.7251 36.2988C45.9891 36.2988 45.325 36.166 44.7329 35.9004C44.1463 35.6292 43.6593 35.2585 43.272 34.7881C42.8901 34.3122 42.6328 33.7699 42.5 33.1611L42.4834 33.0698H44.5835L44.6167 33.1528C44.7218 33.4295 44.8713 33.673 45.0649 33.8833C45.2642 34.0936 45.5021 34.2568 45.7788 34.373C46.061 34.4837 46.3765 34.5391 46.7251 34.5391C47.356 34.5391 47.8706 34.3537 48.269 33.9829C48.673 33.6066 48.9746 33.1058 49.1738 32.4805C49.3786 31.8496 49.4948 31.1523 49.5225 30.3887C49.528 30.3057 49.5308 30.2254 49.5308 30.1479C49.5308 30.0649 49.5308 29.9847 49.5308 29.9072L49.1572 27.9067C49.1572 27.453 49.0521 27.0407 48.8418 26.6699C48.6315 26.2992 48.3465 26.0059 47.9868 25.79C47.6326 25.5742 47.2314 25.4663 46.7832 25.4663C46.3516 25.4663 45.9559 25.5715 45.5962 25.7817C45.2365 25.992 44.9487 26.2798 44.7329 26.645C44.5171 27.0047 44.4092 27.4087 44.4092 27.8569V27.8735C44.4092 28.3384 44.5116 28.7507 44.7163 29.1104C44.9211 29.4645 45.2005 29.744 45.5547 29.9487C45.9089 30.1535 46.3128 30.2559 46.7666 30.2559C47.2204 30.2559 47.6271 30.1562 47.9868 29.957C48.3465 29.7578 48.6315 29.4811 48.8418 29.127C49.0521 28.7728 49.1572 28.3716 49.1572 27.9233V27.9067H49.6553V30.1147H49.3647C49.2209 30.4302 49.0078 30.7235 48.7256 30.9946C48.4434 31.2658 48.0947 31.4844 47.6797 31.6504C47.2702 31.8164 46.7887 31.8994 46.2354 31.8994C45.4717 31.8994 44.7965 31.7279 44.21 31.3848C43.6234 31.0417 43.1613 30.5713 42.8237 29.9736C42.4917 29.376 42.3257 28.7008 42.3257 27.9482V27.9316C42.3257 27.1182 42.5138 26.396 42.8901 25.7651C43.272 25.1287 43.7977 24.6307 44.4673 24.271C45.1424 23.9058 45.9089 23.7231 46.7666 23.7231ZM54.8247 34.3896C54.4484 34.3896 54.133 34.2651 53.8784 34.0161C53.6294 33.7616 53.5049 33.4517 53.5049 33.0864C53.5049 32.7157 53.6294 32.4058 53.8784 32.1567C54.133 31.9022 54.4484 31.7749 54.8247 31.7749C55.2065 31.7749 55.522 31.9022 55.771 32.1567C56.02 32.4058 56.1445 32.7157 56.1445 33.0864C56.1445 33.4517 56.02 33.7616 55.771 34.0161C55.522 34.2651 55.2065 34.3896 54.8247 34.3896ZM54.8247 28.2305C54.4484 28.2305 54.133 28.106 53.8784 27.8569C53.6294 27.6024 53.5049 27.2925 53.5049 26.9272C53.5049 26.5565 53.6294 26.2466 53.8784 25.9976C54.133 25.743 54.4484 25.6157 54.8247 25.6157C55.2065 25.6157 55.522 25.743 55.771 25.9976C56.02 26.2466 56.1445 26.5565 56.1445 26.9272C56.1445 27.2925 56.02 27.6024 55.771 27.8569C55.522 28.106 55.2065 28.2305 54.8247 28.2305ZM63.9038 36V33.7007H58.0435V31.9492C58.3589 31.4124 58.6743 30.8729 58.9897 30.3306C59.3107 29.7882 59.6344 29.2487 59.9609 28.7119C60.293 28.1696 60.6222 27.6356 60.9487 27.1099C61.2808 26.5786 61.61 26.0557 61.9365 25.541C62.2686 25.0208 62.6006 24.5145 62.9326 24.022H65.9458V31.9326H67.5645V33.7007H65.9458V36H63.9038ZM60.0356 31.9824H63.937V25.7319H63.8125C63.569 26.1082 63.3172 26.4956 63.0571 26.894C62.8026 27.2925 62.5452 27.6992 62.2852 28.1143C62.0251 28.5293 61.7677 28.9471 61.5132 29.3677C61.2586 29.7827 61.0068 30.2005 60.7578 30.6211C60.5088 31.0361 60.2681 31.4484 60.0356 31.8579V31.9824ZM72.02 36V26.1304H71.8706L68.8906 28.2305V26.2217L72.02 24.022H74.1533V36H72.02Z" fill="black"/>
<path d="M82.2507 30.5545C82.0199 30.5504 81.8275 30.4996 81.6736 30.4021C81.5237 30.3005 81.4124 30.1724 81.3395 30.0179C81.2666 29.8594 81.2382 29.6928 81.2544 29.518C81.2706 29.3391 81.3314 29.1745 81.4367 29.0241C81.542 28.8696 81.6979 28.7456 81.9044 28.6521L91.6243 24.1584C91.9038 24.0324 92.161 23.9815 92.3959 24.0059C92.6308 24.0263 92.8231 24.1096 92.973 24.2559C93.1228 24.3982 93.2119 24.5852 93.2403 24.8169C93.2727 25.0445 93.2241 25.3006 93.0945 25.5852L88.6294 35.3044C88.5322 35.5239 88.4046 35.6885 88.2467 35.7983C88.0887 35.9121 87.9207 35.9771 87.7425 35.9934C87.5643 36.0137 87.3962 35.9873 87.2382 35.9141C87.0803 35.8409 86.9527 35.7271 86.8555 35.5727C86.7583 35.4223 86.7097 35.2353 86.7097 35.0117L86.6976 30.6643C86.6976 30.5992 86.6652 30.5667 86.6004 30.5667L82.2507 30.5545Z" fill="black"/>
<rect x="135.5" y="12" width="122" height="36" rx="18" fill="black"/>
<circle cx="239.5" cy="30" r="6" fill="#0E101F"/>
<circle cx="239.5" cy="29.9999" r="4.90909" fill="#01031A"/>
<g filter="url(#filter0_f_570_12204)">
<ellipse cx="239.5" cy="27.2726" rx="2.72727" ry="1.09091" fill="white" fill-opacity="0.1"/>
</g>
<g filter="url(#filter1_f_570_12204)">
<ellipse cx="239.5" cy="32.1818" rx="2.72727" ry="1.63636" fill="white" fill-opacity="0.1"/>
</g>
<path d="M284.917 32H286.083C286.728 32 287.25 32.5037 287.25 33.125V35.375C287.25 35.9963 286.728 36.5 286.083 36.5H284.917C284.272 36.5 283.75 35.9963 283.75 35.375V33.125C283.75 32.5037 284.272 32 284.917 32Z" fill="black"/>
<path d="M289.917 30H291.083C291.728 30 292.25 30.5037 292.25 31.125V35.375C292.25 35.9963 291.728 36.5 291.083 36.5H289.917C289.272 36.5 288.75 35.9963 288.75 35.375V31.125C288.75 30.5037 289.272 30 289.917 30Z" fill="black"/>
<path opacity="0.2" d="M294.917 27H296.083C296.728 27 297.25 27.5037 297.25 28.125V35.375C297.25 35.9963 296.728 36.5 296.083 36.5H294.917C294.272 36.5 293.75 35.9963 293.75 35.375V28.125C293.75 27.5037 294.272 27 294.917 27Z" fill="black"/>
<path opacity="0.2" d="M299.917 24H301.083C301.728 24 302.25 24.5037 302.25 25.125V35.375C302.25 35.9963 301.728 36.5 301.083 36.5H299.917C299.272 36.5 298.75 35.9963 298.75 35.375V25.125C298.75 24.5037 299.272 24 299.917 24Z" fill="black"/>
<path d="M315.107 32.6929C312.774 32.6929 311.119 31.0449 311.119 28.6982C311.119 26.3516 312.774 24.7036 315.107 24.7036H321.066C323.393 24.7036 325.054 26.3516 325.054 28.6982C325.054 31.0449 323.393 32.6929 321.066 32.6929H319.128C318.799 32.3501 318.772 31.6052 319.023 31.3284H320.994C322.53 31.3284 323.617 30.2473 323.617 28.6982C323.617 27.1558 322.53 26.0681 320.994 26.0681H315.18C313.644 26.0681 312.556 27.1558 312.556 28.6982C312.556 30.2473 313.644 31.3284 315.18 31.3284H315.529C315.45 31.7371 315.483 32.2314 315.542 32.6929H315.107ZM320.434 35.8438C318.1 35.8438 316.446 34.1958 316.446 31.8491C316.446 29.5024 318.1 27.8545 320.434 27.8545H322.365C322.675 28.1973 322.701 28.9158 322.477 29.219H320.506C318.97 29.219 317.883 30.3 317.883 31.8491C317.883 33.3916 318.97 34.4792 320.506 34.4792H326.32C327.856 34.4792 328.944 33.3916 328.944 31.8491C328.944 30.3 327.856 29.219 326.32 29.219H325.971C326.05 28.8037 326.023 28.3159 325.958 27.8545H326.393C328.726 27.8545 330.381 29.5024 330.381 31.8491C330.381 34.1958 328.726 35.8438 326.393 35.8438H320.434Z" fill="black"/>
<g opacity="0.3">
<path d="M340.416 24.7777C339.75 25.7866 339.75 27.1911 339.75 30C339.75 32.8089 339.75 34.2134 340.416 35.2223C340.704 35.659 341.075 36.034 341.506 36.3259C342.503 37 343.89 37 346.665 37H357.533C360.308 37 361.695 37 362.692 36.3259C363.123 36.034 363.494 35.659 363.782 35.2223C364.448 34.2134 364.448 32.8089 364.448 30C364.448 27.1911 364.448 25.7866 363.782 24.7777C363.494 24.341 363.123 23.966 362.692 23.6741C361.695 23 360.308 23 357.533 23H346.665C343.89 23 342.503 23 341.506 23.6741C341.075 23.966 340.704 24.341 340.416 24.7777Z" fill="black"/>
<path d="M366.75 29.75C366.75 30.6231 366.232 31.4112 365.436 31.75V27.75C366.232 28.0888 366.75 28.8769 366.75 29.75Z" fill="black"/>
</g>
<path d="M339.75 30C339.75 27.1911 339.75 25.7866 340.424 24.7777C340.716 24.341 341.091 23.966 341.528 23.6741C342.537 23 343.941 23 346.75 23H349.629V37H346.75C343.941 37 342.537 37 341.528 36.3259C341.091 36.034 340.716 35.659 340.424 35.2223C339.75 34.2134 339.75 32.8089 339.75 30Z" fill="#F7CE45"/>
<path d="M349.46 34.1719C347.709 34.1719 346.555 33.2319 346.447 31.8462L346.442 31.7764H347.994L348 31.8354C348.069 32.437 348.623 32.8667 349.46 32.8667C350.288 32.8667 350.83 32.4048 350.83 31.7495V31.7388C350.83 30.9976 350.277 30.5894 349.337 30.5894H348.451V29.4346H349.315C350.132 29.4346 350.658 29.0049 350.658 28.3765V28.3657C350.658 27.7212 350.212 27.3237 349.45 27.3237C348.687 27.3237 348.177 27.7373 348.112 28.3818L348.107 28.4302H346.614L346.619 28.3657C346.732 26.98 347.822 26.0776 349.45 26.0776C351.115 26.0776 352.189 26.9155 352.189 28.1509V28.1616C352.189 29.1284 351.48 29.7568 350.572 29.9448V29.9771C351.727 30.0845 352.479 30.7505 352.479 31.8032V31.814C352.479 33.2212 351.271 34.1719 349.46 34.1719ZM353.424 34V32.9097L355.921 30.4443C357.012 29.3862 357.307 28.9941 357.307 28.4517V28.4355C357.307 27.7749 356.856 27.313 356.115 27.313C355.357 27.313 354.836 27.8179 354.836 28.5537V28.5806H353.338L353.333 28.5591C353.333 27.0713 354.493 26.0508 356.19 26.0508C357.785 26.0508 358.902 26.9639 358.902 28.3013V28.3174C358.902 29.1982 358.446 29.9287 357.033 31.2339L355.599 32.5713V32.6948H359.015V34H353.424Z" fill="black"/>
<mask id="path-16-inside-1_570_12204" fill="white">
<path d="M0 60H393V104H0V60Z"/>
</mask>
<path d="M0 60H393V104H0V60Z" fill="white"/>
<path d="M393 104V103.5H0V104V104.5H393V104Z" fill="#D2D2D2" mask="url(#path-16-inside-1_570_12204)"/>
<path d="M19.5645 82.9492C19.571 82.7474 19.61 82.5618 19.6816 82.3926C19.7598 82.2233 19.877 82.0605 20.0332 81.9043L27.5527 74.5508C27.8001 74.3034 28.1029 74.1797 28.4609 74.1797C28.7083 74.1797 28.9297 74.2383 29.125 74.3555C29.3268 74.4727 29.4863 74.6322 29.6035 74.834C29.7272 75.0293 29.7891 75.2474 29.7891 75.4883C29.7891 75.8529 29.6523 76.1719 29.3789 76.4453L22.6895 82.9492L29.3789 89.4531C29.6523 89.7331 29.7891 90.0521 29.7891 90.4102C29.7891 90.6576 29.7272 90.8789 29.6035 91.0742C29.4863 91.2695 29.3268 91.4258 29.125 91.543C28.9297 91.6602 28.7083 91.7188 28.4609 91.7188C28.1029 91.7188 27.8001 91.5951 27.5527 91.3477L20.0332 83.9941C19.8704 83.8379 19.75 83.6751 19.6719 83.5059C19.6003 83.3301 19.5645 83.1445 19.5645 82.9492Z" fill="#222222"/>
<path d="M163.455 89.3516C160.184 89.3516 158.104 87.7402 157.928 85.3086L157.918 85.1719H160.36L160.369 85.2695C160.487 86.4512 161.746 87.2324 163.533 87.2324C165.233 87.2324 166.424 86.3926 166.424 85.1816V85.1719C166.424 84.1562 165.692 83.541 163.875 83.1504L162.362 82.8379C159.481 82.2324 158.231 80.8848 158.231 78.7852V78.7754C158.231 76.2559 160.399 74.5566 163.446 74.5566C166.571 74.5566 168.514 76.2656 168.69 78.5312L168.699 78.6582H166.287L166.268 78.541C166.092 77.4473 165.047 76.666 163.436 76.6758C161.873 76.6758 160.76 77.4082 160.76 78.6094V78.6191C160.76 79.6152 161.473 80.2402 163.231 80.6113L164.744 80.9336C167.713 81.5586 168.953 82.75 168.953 84.8789V84.8887C168.953 87.6328 166.834 89.3516 163.455 89.3516ZM175.694 89.2148C172.52 89.2148 170.596 87.0859 170.596 83.6875V83.6777C170.596 80.3184 172.54 78.1211 175.577 78.1211C178.614 78.1211 180.489 80.25 180.489 83.4727V84.2734H173.028C173.057 86.1875 174.092 87.3008 175.743 87.3008C177.061 87.3008 177.813 86.6367 178.047 86.1484L178.077 86.0801H180.391L180.362 86.168C180.02 87.5449 178.594 89.2148 175.694 89.2148ZM175.606 80.0254C174.249 80.0254 173.233 80.9434 173.047 82.6426H178.116C177.95 80.8945 176.963 80.0254 175.606 80.0254ZM186.712 89.0488C184.26 89.0488 183.255 88.2285 183.255 86.168V80.2109H181.594V78.3262H183.255V75.709H185.725V78.3262H187.981V80.2109H185.725V85.5918C185.725 86.6562 186.145 87.1055 187.161 87.1055C187.503 87.1055 187.688 87.0957 187.981 87.0664V88.9414C187.63 89.0098 187.18 89.0488 186.712 89.0488ZM194.253 89.0488C191.802 89.0488 190.796 88.2285 190.796 86.168V80.2109H189.136V78.3262H190.796V75.709H193.267V78.3262H195.522V80.2109H193.267V85.5918C193.267 86.6562 193.686 87.1055 194.702 87.1055C195.044 87.1055 195.229 87.0957 195.522 87.0664V88.9414C195.171 89.0098 194.722 89.0488 194.253 89.0488ZM198.786 76.5391C197.985 76.5391 197.331 75.9043 197.331 75.1035C197.331 74.3125 197.985 73.668 198.786 73.668C199.577 73.668 200.232 74.3125 200.232 75.1035C200.232 75.9043 199.577 76.5391 198.786 76.5391ZM197.566 89V78.3262H199.997V89H197.566ZM202.577 89V78.3262H205.009V79.957H205.175C205.683 78.8145 206.708 78.1211 208.251 78.1211C210.634 78.1211 211.933 79.5566 211.933 82.0957V89H209.501V82.6621C209.501 81.002 208.827 80.1621 207.353 80.1621C205.908 80.1621 205.009 81.1777 205.009 82.7793V89H202.577ZM218.986 92.75C216.173 92.75 214.484 91.5488 214.24 89.752L214.25 89.7227H216.681L216.691 89.752C216.857 90.4355 217.668 90.9141 219.025 90.9141C220.685 90.9141 221.652 90.1426 221.652 88.7754V86.7344H221.486C220.871 87.877 219.709 88.502 218.234 88.502C215.529 88.502 213.849 86.4121 213.849 83.3848V83.3652C213.849 80.2793 215.529 78.1504 218.283 78.1504C219.757 78.1504 220.91 78.873 221.515 80.084H221.642V78.3262H224.074V88.7363C224.074 91.1973 222.101 92.75 218.986 92.75ZM218.986 86.5684C220.675 86.5684 221.691 85.2695 221.691 83.3848V83.3652C221.691 81.4805 220.666 80.1719 218.986 80.1719C217.296 80.1719 216.339 81.4805 216.339 83.3652V83.3848C216.339 85.2695 217.296 86.5684 218.986 86.5684ZM230.677 89.2148C227.963 89.2148 226.322 87.9648 226.117 86.1582V86.1387H228.529L228.539 86.1582C228.793 86.9004 229.506 87.418 230.717 87.418C231.927 87.418 232.767 86.8711 232.767 86.0703V86.0508C232.767 85.4258 232.299 85.0156 231.127 84.752L229.398 84.3613C227.367 83.9121 226.4 82.9551 226.4 81.3828V81.373C226.4 79.4492 228.158 78.1211 230.677 78.1211C233.275 78.1211 234.828 79.4102 234.984 81.1387V81.1582H232.699L232.689 81.1289C232.513 80.4551 231.81 79.9082 230.668 79.9082C229.584 79.9082 228.802 80.4355 228.802 81.2363V81.2461C228.802 81.8711 229.252 82.252 230.404 82.5156L232.133 82.8965C234.222 83.3652 235.209 84.2539 235.209 85.8066V85.8262C235.209 87.8574 233.304 89.2148 230.677 89.2148Z" fill="#07192E"/>
<g clip-path="url(#clip1_570_12204)">
<rect width="393" height="748" transform="translate(0 104)" fill="#F4F6F9"/>
<g clip-path="url(#clip2_570_12204)">
<mask id="path-20-inside-2_570_12204" fill="white">
<path d="M16 128C16 123.582 19.5817 120 24 120H369C373.418 120 377 123.582 377 128V448C377 452.418 373.418 456 369 456H24C19.5817 456 16 452.418 16 448V128Z"/>
</mask>
<mask id="path-22-inside-3_570_12204" fill="white">
<path d="M16 120H377V168H16V120Z"/>
</mask>
<path d="M16 120H377V168H16V120Z" fill="white"/>
<path d="M377 168V167.5H16V168V168.5H377V168Z" fill="#F4F6F9" mask="url(#path-22-inside-3_570_12204)"/>
<path d="M29.5273 150V138.022H31.0215V148.655H36.7988V150H29.5273ZM41.0559 150.158C39.3542 150.158 38.0676 149.128 38.0676 147.501V147.485C38.0676 145.891 39.2463 144.97 41.3298 144.845L43.8947 144.688V143.874C43.8947 142.77 43.2224 142.172 41.8859 142.172C40.8151 142.172 40.1096 142.571 39.8772 143.268L39.8689 143.293H38.4245L38.4328 143.243C38.6652 141.84 40.0266 140.894 41.9358 140.894C44.1189 140.894 45.3391 142.015 45.3391 143.874V150H43.8947V148.68H43.7619C43.1975 149.635 42.2595 150.158 41.0559 150.158ZM39.5451 147.468C39.5451 148.373 40.3171 148.904 41.3547 148.904C42.8239 148.904 43.8947 147.941 43.8947 146.663V145.85L41.5041 145.999C40.1428 146.082 39.5451 146.563 39.5451 147.452V147.468ZM47.5707 150V141.052H49.0151V142.396H49.1479C49.5961 141.45 50.4345 140.894 51.7543 140.894C53.7631 140.894 54.8837 142.081 54.8837 144.206V150H53.4394V144.555C53.4394 142.944 52.7753 142.172 51.3476 142.172C49.9198 142.172 49.0151 143.135 49.0151 144.704V150H47.5707ZM60.776 153.154C58.6178 153.154 57.2399 152.183 57.0157 150.714L57.0323 150.706H58.5265L58.5348 150.714C58.6925 151.395 59.4894 151.876 60.776 151.876C62.3781 151.876 63.3326 151.121 63.3326 149.801V147.991H63.1998C62.6354 148.979 61.6227 149.535 60.3942 149.535C58.0782 149.535 56.6422 147.742 56.6422 145.235V145.219C56.6422 142.712 58.0865 140.894 60.4274 140.894C61.6891 140.894 62.6686 141.517 63.2164 142.529H63.316V141.052H64.7604V149.875C64.7604 151.876 63.2164 153.154 60.776 153.154ZM60.7096 148.257C62.3698 148.257 63.3658 147.012 63.3658 145.235V145.219C63.3658 143.442 62.3615 142.172 60.7096 142.172C59.0494 142.172 58.1198 143.442 58.1198 145.219V145.235C58.1198 147.012 59.0494 148.257 60.7096 148.257ZM70.0384 150.158C68.0047 150.158 66.9588 148.962 66.9588 146.846V141.052H68.4032V146.497C68.4032 148.107 68.9842 148.879 70.4119 148.879C71.9891 148.879 72.8275 147.917 72.8275 146.348V141.052H74.2718V150H72.8275V148.664H72.6947C72.2547 149.618 71.3499 150.158 70.0384 150.158ZM79.0186 150.158C77.3169 150.158 76.0303 149.128 76.0303 147.501V147.485C76.0303 145.891 77.209 144.97 79.2925 144.845L81.8575 144.688V143.874C81.8575 142.77 81.1851 142.172 79.8487 142.172C78.7779 142.172 78.0723 142.571 77.8399 143.268L77.8316 143.293H76.3872L76.3955 143.243C76.628 141.84 77.9893 140.894 79.8985 140.894C82.0816 140.894 83.3018 142.015 83.3018 143.874V150H81.8575V148.68H81.7246C81.1602 149.635 80.2222 150.158 79.0186 150.158ZM77.5079 147.468C77.5079 148.373 78.2798 148.904 79.3174 148.904C80.7867 148.904 81.8575 147.941 81.8575 146.663V145.85L79.4668 145.999C78.1055 146.082 77.5079 146.563 77.5079 147.452V147.468ZM89.219 153.154C87.0608 153.154 85.6829 152.183 85.4587 150.714L85.4753 150.706H86.9695L86.9778 150.714C87.1355 151.395 87.9324 151.876 89.219 151.876C90.821 151.876 91.7756 151.121 91.7756 149.801V147.991H91.6428C91.0784 148.979 90.0657 149.535 88.8372 149.535C86.5212 149.535 85.0852 147.742 85.0852 145.235V145.219C85.0852 142.712 86.5295 140.894 88.8704 140.894C90.1321 140.894 91.1116 141.517 91.6594 142.529H91.759V141.052H93.2034V149.875C93.2034 151.876 91.6594 153.154 89.219 153.154ZM89.1526 148.257C90.8127 148.257 91.8088 147.012 91.8088 145.235V145.219C91.8088 143.442 90.8044 142.172 89.1526 142.172C87.4924 142.172 86.5627 143.442 86.5627 145.219V145.235C86.5627 147.012 87.4924 148.257 89.1526 148.257ZM99.1372 150.158C96.5805 150.158 95.0366 148.365 95.0366 145.559V145.551C95.0366 142.787 96.6137 140.894 99.0459 140.894C101.478 140.894 102.956 142.704 102.956 145.376V145.941H96.5141C96.5556 147.792 97.5766 148.871 99.1704 148.871C100.382 148.871 101.129 148.298 101.37 147.759L101.403 147.684H102.848L102.831 147.75C102.524 148.962 101.246 150.158 99.1372 150.158ZM99.0376 142.181C97.7094 142.181 96.6967 143.085 96.539 144.787H101.486C101.337 143.019 100.357 142.181 99.0376 142.181Z" fill="#07192E"/>
<path d="M209.802 150.282C207.179 150.282 205.486 148.904 205.311 146.954L205.303 146.862H206.797L206.806 146.954C206.913 148.149 208.159 148.904 209.885 148.904C211.512 148.904 212.699 148.066 212.699 146.846V146.837C212.699 145.841 212.01 145.161 210.367 144.795L209.038 144.505C206.64 143.974 205.602 142.87 205.602 141.135V141.126C205.61 139.143 207.345 137.74 209.819 137.74C212.209 137.74 213.878 139.151 214.002 140.936L214.011 141.052H212.516L212.5 140.944C212.334 139.89 211.338 139.109 209.777 139.118C208.283 139.126 207.129 139.832 207.129 141.085V141.093C207.129 142.048 207.785 142.695 209.412 143.052L210.74 143.351C213.239 143.907 214.226 144.912 214.226 146.638V146.646C214.226 148.888 212.475 150.282 209.802 150.282ZM216.89 153.138C216.699 153.138 216.45 153.121 216.251 153.088V151.901C216.425 151.934 216.649 151.942 216.848 151.942C217.67 151.942 218.168 151.569 218.492 150.54L218.658 150.008L215.346 141.052H216.89L219.347 148.415H219.48L221.928 141.052H223.447L219.953 150.548C219.214 152.557 218.475 153.138 216.89 153.138ZM227.771 150.158C225.779 150.158 224.409 149.195 224.243 147.717H225.72C225.961 148.464 226.675 148.954 227.821 148.954C229.024 148.954 229.879 148.381 229.879 147.568V147.551C229.879 146.945 229.423 146.522 228.319 146.256L226.932 145.924C225.256 145.526 224.5 144.795 224.5 143.509V143.5C224.5 142.015 225.928 140.894 227.829 140.894C229.705 140.894 231.008 141.832 231.207 143.293H229.788C229.597 142.587 228.9 142.098 227.821 142.098C226.758 142.098 225.978 142.646 225.978 143.434V143.451C225.978 144.057 226.426 144.438 227.48 144.696L228.858 145.028C230.543 145.435 231.357 146.165 231.357 147.443V147.46C231.357 149.054 229.804 150.158 227.771 150.158ZM236.286 150.066C234.443 150.066 233.671 149.386 233.671 147.676V142.247H232.26V141.052H233.671V138.736H235.166V141.052H237.125V142.247H235.166V147.311C235.166 148.365 235.531 148.788 236.46 148.788C236.718 148.788 236.859 148.78 237.125 148.755V149.983C236.842 150.033 236.568 150.066 236.286 150.066ZM242.394 150.158C239.838 150.158 238.294 148.365 238.294 145.559V145.551C238.294 142.787 239.871 140.894 242.303 140.894C244.735 140.894 246.213 142.704 246.213 145.376V145.941H239.771C239.813 147.792 240.834 148.871 242.427 148.871C243.639 148.871 244.386 148.298 244.627 147.759L244.66 147.684H246.105L246.088 147.75C245.781 148.962 244.503 150.158 242.394 150.158ZM242.295 142.181C240.967 142.181 239.954 143.085 239.796 144.787H244.743C244.594 143.019 243.614 142.181 242.295 142.181ZM248.046 150V141.052H249.49V142.413H249.623C250.021 141.45 250.868 140.894 252.038 140.894C253.25 140.894 254.097 141.533 254.512 142.463H254.645C255.126 141.517 256.147 140.894 257.384 140.894C259.21 140.894 260.231 141.94 260.231 143.816V150H258.787V144.148C258.787 142.828 258.181 142.172 256.919 142.172C255.674 142.172 254.852 143.11 254.852 144.248V150H253.408V143.924C253.408 142.861 252.678 142.172 251.549 142.172C250.378 142.172 249.49 143.193 249.49 144.455V150H248.046ZM269.825 152.988C268.206 150.838 267.467 148.332 267.467 145.244C267.467 142.164 268.198 139.649 269.825 137.499H271.036C269.833 139.035 268.936 142.363 268.936 145.244C268.936 148.149 269.833 151.453 271.036 152.988H269.825ZM273.069 150V138.022H280.49V139.367H274.563V143.21H280.183V144.538H274.563V148.655H280.49V150H273.069ZM282.605 150V141.052H284.05V142.396H284.182C284.631 141.45 285.469 140.894 286.789 140.894C288.798 140.894 289.918 142.081 289.918 144.206V150H288.474V144.555C288.474 142.944 287.81 142.172 286.382 142.172C284.954 142.172 284.05 143.135 284.05 144.704V150H282.605ZM295.811 153.154C293.652 153.154 292.274 152.183 292.05 150.714L292.067 150.706H293.561L293.569 150.714C293.727 151.395 294.524 151.876 295.811 151.876C297.413 151.876 298.367 151.121 298.367 149.801V147.991H298.234C297.67 148.979 296.657 149.535 295.429 149.535C293.113 149.535 291.677 147.742 291.677 145.235V145.219C291.677 142.712 293.121 140.894 295.462 140.894C296.724 140.894 297.703 141.517 298.251 142.529H298.351V141.052H299.795V149.875C299.795 151.876 298.251 153.154 295.811 153.154ZM295.744 148.257C297.404 148.257 298.4 147.012 298.4 145.235V145.219C298.4 143.442 297.396 142.172 295.744 142.172C294.084 142.172 293.154 143.442 293.154 145.219V145.235C293.154 147.012 294.084 148.257 295.744 148.257ZM302.159 150V137.499H303.604V150H302.159ZM306.732 139.325C306.184 139.325 305.736 138.877 305.736 138.329C305.736 137.781 306.184 137.333 306.732 137.333C307.28 137.333 307.728 137.781 307.728 138.329C307.728 138.877 307.28 139.325 306.732 139.325ZM306.001 150V141.052H307.446V150H306.001ZM312.832 150.158C310.839 150.158 309.47 149.195 309.304 147.717H310.781C311.022 148.464 311.736 148.954 312.881 148.954C314.085 148.954 314.94 148.381 314.94 147.568V147.551C314.94 146.945 314.483 146.522 313.379 146.256L311.993 145.924C310.316 145.526 309.561 144.795 309.561 143.509V143.5C309.561 142.015 310.989 140.894 312.89 140.894C314.766 140.894 316.069 141.832 316.268 143.293H314.849C314.658 142.587 313.961 142.098 312.881 142.098C311.819 142.098 311.039 142.646 311.039 143.434V143.451C311.039 144.057 311.487 144.438 312.541 144.696L313.919 145.028C315.604 145.435 316.418 146.165 316.418 147.443V147.46C316.418 149.054 314.865 150.158 312.832 150.158ZM318.334 150V137.499H319.778V142.396H319.911C320.359 141.45 321.198 140.894 322.517 140.894C324.526 140.894 325.647 142.081 325.647 144.206V150H324.202V144.555C324.202 142.944 323.538 142.172 322.111 142.172C320.683 142.172 319.778 143.135 319.778 144.704V150H318.334ZM328.634 152.988H327.422C328.625 151.453 329.522 148.149 329.522 145.244C329.522 142.363 328.625 139.035 327.422 137.499H328.634C330.261 139.649 330.991 142.164 330.991 145.244C330.991 148.332 330.252 150.838 328.634 152.988Z" fill="#767676"/>
<path d="M351.531 137.5L357.25 143.469C357.375 143.625 357.469 143.812 357.469 144C357.469 144.188 357.375 144.375 357.25 144.5L351.531 150.469C351.25 150.781 350.75 150.781 350.469 150.5C350.156 150.219 350.156 149.75 350.438 149.438L355.688 143.969L350.438 138.531C350.156 138.25 350.156 137.75 350.469 137.469C350.75 137.188 351.25 137.188 351.531 137.5Z" fill="#767676"/>
<mask id="path-27-inside-4_570_12204" fill="white">
<path d="M16 168H377V216H16V168Z"/>
</mask>
<path d="M16 168H377V216H16V168Z" fill="white"/>
<path d="M377 216V215.5H16V216V216.5H377V216Z" fill="#F4F6F9" mask="url(#path-27-inside-4_570_12204)"/>
<path d="M33.4536 198.282C30.8306 198.282 29.1372 196.904 28.9629 194.954L28.9546 194.862H30.4487L30.457 194.954C30.5649 196.149 31.8101 196.904 33.5366 196.904C35.1636 196.904 36.3506 196.066 36.3506 194.846V194.837C36.3506 193.841 35.6616 193.161 34.0181 192.795L32.6899 192.505C30.291 191.974 29.2534 190.87 29.2534 189.135V189.126C29.2617 187.143 30.9966 185.74 33.4702 185.74C35.8608 185.74 37.5293 187.151 37.6538 188.936L37.6621 189.052H36.168L36.1514 188.944C35.9854 187.89 34.9893 187.109 33.4287 187.118C31.9346 187.126 30.7808 187.832 30.7808 189.085V189.093C30.7808 190.048 31.4365 190.695 33.0635 191.052L34.3916 191.351C36.8901 191.907 37.8779 192.912 37.8779 194.638V194.646C37.8779 196.888 36.1265 198.282 33.4536 198.282ZM42.9567 198.066C41.114 198.066 40.342 197.386 40.342 195.676V190.247H38.9309V189.052H40.342V186.736H41.8361V189.052H43.7951V190.247H41.8361V195.311C41.8361 196.365 42.2014 196.788 43.1311 196.788C43.3884 196.788 43.5295 196.78 43.7951 196.755V197.983C43.5129 198.033 43.239 198.066 42.9567 198.066ZM48.0024 198.158C46.3007 198.158 45.0141 197.128 45.0141 195.501V195.485C45.0141 193.891 46.1928 192.97 48.2763 192.845L50.8412 192.688V191.874C50.8412 190.77 50.1689 190.172 48.8324 190.172C47.7616 190.172 47.0561 190.571 46.8236 191.268L46.8153 191.293H45.371L45.3793 191.243C45.6117 189.84 46.9731 188.894 48.8822 188.894C51.0653 188.894 52.2856 190.015 52.2856 191.874V198H50.8412V196.68H50.7084C50.144 197.635 49.206 198.158 48.0024 198.158ZM46.4916 195.468C46.4916 196.373 47.2636 196.904 48.3012 196.904C49.7704 196.904 50.8412 195.941 50.8412 194.663V193.85L48.4506 193.999C47.0893 194.082 46.4916 194.563 46.4916 195.452V195.468ZM54.5172 198V189.052H55.9615V190.38H56.0944C56.4347 189.442 57.2731 188.894 58.485 188.894C58.7589 188.894 59.066 188.927 59.2072 188.952V190.355C58.9083 190.305 58.6344 190.272 58.319 190.272C56.941 190.272 55.9615 191.144 55.9615 192.455V198H54.5172ZM63.929 198.066C62.0863 198.066 61.3143 197.386 61.3143 195.676V190.247H59.9032V189.052H61.3143V186.736H62.8084V189.052H64.7674V190.247H62.8084V195.311C62.8084 196.365 63.1737 196.788 64.1034 196.788C64.3607 196.788 64.5018 196.78 64.7674 196.755V197.983C64.4852 198.033 64.2113 198.066 63.929 198.066ZM67.2813 187.325C66.7334 187.325 66.2852 186.877 66.2852 186.329C66.2852 185.781 66.7334 185.333 67.2813 185.333C67.8291 185.333 68.2774 185.781 68.2774 186.329C68.2774 186.877 67.8291 187.325 67.2813 187.325ZM66.5508 198V189.052H67.9952V198H66.5508ZM70.3098 198V189.052H71.7542V190.396H71.887C72.3352 189.45 73.1736 188.894 74.4934 188.894C76.5022 188.894 77.6228 190.081 77.6228 192.206V198H76.1785V192.555C76.1785 190.944 75.5144 190.172 74.0867 190.172C72.6589 190.172 71.7542 191.135 71.7542 192.704V198H70.3098ZM83.5151 201.154C81.3569 201.154 79.979 200.183 79.7548 198.714L79.7714 198.706H81.2656L81.2739 198.714C81.4316 199.395 82.2285 199.876 83.5151 199.876C85.1171 199.876 86.0717 199.121 86.0717 197.801V195.991H85.9389C85.3745 196.979 84.3618 197.535 83.1333 197.535C80.8173 197.535 79.3813 195.742 79.3813 193.235V193.219C79.3813 190.712 80.8256 188.894 83.1665 188.894C84.4282 188.894 85.4077 189.517 85.9555 190.529H86.0551V189.052H87.4995V197.875C87.4995 199.876 85.9555 201.154 83.5151 201.154ZM83.4487 196.257C85.1088 196.257 86.1049 195.012 86.1049 193.235V193.219C86.1049 191.442 85.1005 190.172 83.4487 190.172C81.7885 190.172 80.8588 191.442 80.8588 193.219V193.235C80.8588 195.012 81.7885 196.257 83.4487 196.257ZM94.2372 198V185.499H95.6815V198H94.2372ZM101.723 198.158C99.1749 198.158 97.5977 196.398 97.5977 193.534V193.518C97.5977 190.646 99.1749 188.894 101.723 188.894C104.272 188.894 105.849 190.646 105.849 193.518V193.534C105.849 196.398 104.272 198.158 101.723 198.158ZM101.723 196.879C103.417 196.879 104.371 195.643 104.371 193.534V193.518C104.371 191.401 103.417 190.172 101.723 190.172C100.03 190.172 99.0753 191.401 99.0753 193.518V193.534C99.0753 195.643 100.03 196.879 101.723 196.879ZM111.343 198.158C108.836 198.158 107.234 196.34 107.234 193.501V193.484C107.234 190.704 108.827 188.894 111.334 188.894C113.509 188.894 114.812 190.147 115.078 191.741L115.086 191.791H113.65L113.642 191.766C113.418 190.886 112.621 190.172 111.334 190.172C109.724 190.172 108.711 191.467 108.711 193.484V193.501C108.711 195.56 109.741 196.879 111.334 196.879C112.538 196.879 113.302 196.348 113.634 195.352L113.65 195.302L115.078 195.294L115.061 195.385C114.696 197.004 113.492 198.158 111.343 198.158ZM119.244 198.158C117.542 198.158 116.255 197.128 116.255 195.501V195.485C116.255 193.891 117.434 192.97 119.518 192.845L122.083 192.688V191.874C122.083 190.77 121.41 190.172 120.074 190.172C119.003 190.172 118.297 190.571 118.065 191.268L118.057 191.293H116.612L116.621 191.243C116.853 189.84 118.214 188.894 120.124 188.894C122.307 188.894 123.527 190.015 123.527 191.874V198H122.083V196.68H121.95C121.385 197.635 120.447 198.158 119.244 198.158ZM117.733 195.468C117.733 196.373 118.505 196.904 119.542 196.904C121.012 196.904 122.083 195.941 122.083 194.663V193.85L119.692 193.999C118.331 194.082 117.733 194.563 117.733 195.452V195.468ZM128.938 198.066C127.095 198.066 126.323 197.386 126.323 195.676V190.247H124.912V189.052H126.323V186.736H127.817V189.052H129.776V190.247H127.817V195.311C127.817 196.365 128.182 196.788 129.112 196.788C129.369 196.788 129.51 196.78 129.776 196.755V197.983C129.494 198.033 129.22 198.066 128.938 198.066ZM132.29 187.325C131.742 187.325 131.294 186.877 131.294 186.329C131.294 185.781 131.742 185.333 132.29 185.333C132.838 185.333 133.286 185.781 133.286 186.329C133.286 186.877 132.838 187.325 132.29 187.325ZM131.559 198V189.052H133.004V198H131.559ZM138.996 198.158C136.447 198.158 134.87 196.398 134.87 193.534V193.518C134.87 190.646 136.447 188.894 138.996 188.894C141.544 188.894 143.121 190.646 143.121 193.518V193.534C143.121 196.398 141.544 198.158 138.996 198.158ZM138.996 196.879C140.689 196.879 141.644 195.643 141.644 193.534V193.518C141.644 191.401 140.689 190.172 138.996 190.172C137.302 190.172 136.348 191.401 136.348 193.518V193.534C136.348 195.643 137.302 196.879 138.996 196.879ZM144.954 198V189.052H146.399V190.396H146.532C146.98 189.45 147.818 188.894 149.138 188.894C151.147 188.894 152.267 190.081 152.267 192.206V198H150.823V192.555C150.823 190.944 150.159 190.172 148.731 190.172C147.304 190.172 146.399 191.135 146.399 192.704V198H144.954Z" fill="#07192E"/>
<path d="M288.586 198V186.022H290.08V191.202H296.655V186.022H298.149V198H296.655V192.546H290.08V198H288.586ZM304.29 198.158C301.742 198.158 300.165 196.398 300.165 193.534V193.518C300.165 190.646 301.742 188.894 304.29 188.894C306.838 188.894 308.416 190.646 308.416 193.518V193.534C308.416 196.398 306.838 198.158 304.29 198.158ZM304.29 196.879C305.983 196.879 306.938 195.643 306.938 193.534V193.518C306.938 191.401 305.983 190.172 304.29 190.172C302.597 190.172 301.642 191.401 301.642 193.518V193.534C301.642 195.643 302.597 196.879 304.29 196.879ZM310.249 198V189.052H311.693V190.413H311.826C312.224 189.45 313.071 188.894 314.242 188.894C315.453 188.894 316.3 189.533 316.715 190.463H316.848C317.329 189.517 318.35 188.894 319.587 188.894C321.413 188.894 322.434 189.94 322.434 191.816V198H320.99V192.148C320.99 190.828 320.384 190.172 319.122 190.172C317.877 190.172 317.055 191.11 317.055 192.248V198H315.611V191.924C315.611 190.861 314.881 190.172 313.752 190.172C312.581 190.172 311.693 191.193 311.693 192.455V198H310.249ZM328.285 198.158C325.729 198.158 324.185 196.365 324.185 193.559V193.551C324.185 190.787 325.762 188.894 328.194 188.894C330.626 188.894 332.104 190.704 332.104 193.376V193.941H325.662C325.704 195.792 326.725 196.871 328.318 196.871C329.53 196.871 330.277 196.298 330.518 195.759L330.551 195.684H331.996L331.979 195.75C331.672 196.962 330.394 198.158 328.285 198.158ZM328.186 190.181C326.857 190.181 325.845 191.085 325.687 192.787H330.634C330.485 191.019 329.505 190.181 328.186 190.181Z" fill="#767676"/>
<path d="M351.531 185.5L357.25 191.469C357.375 191.625 357.469 191.812 357.469 192C357.469 192.188 357.375 192.375 357.25 192.5L351.531 198.469C351.25 198.781 350.75 198.781 350.469 198.5C350.156 198.219 350.156 197.75 350.438 197.438L355.688 191.969L350.438 186.531C350.156 186.25 350.156 185.75 350.469 185.469C350.75 185.188 351.25 185.188 351.531 185.5Z" fill="#767676"/>
<mask id="path-32-inside-5_570_12204" fill="white">
<path d="M16 216H377V264H16V216Z"/>
</mask>
<path d="M16 216H377V264H16V216Z" fill="white"/>
<path d="M377 264V263.5H16V264V264.5H377V264Z" fill="#F4F6F9" mask="url(#path-32-inside-5_570_12204)"/>
<path d="M34.3501 246.282C31.0962 246.282 29.0625 243.875 29.0625 240.023V240.007C29.0625 236.147 31.0879 233.74 34.3418 233.74C36.8652 233.74 38.8325 235.325 39.1895 237.625L39.1812 237.641H37.6787L37.6704 237.625C37.272 236.089 35.9937 235.118 34.3418 235.118C32.0425 235.118 30.5981 237.01 30.5981 240.007V240.023C30.5981 243.02 32.0425 244.904 34.3501 244.904C36.0186 244.904 37.2886 244.049 37.6621 242.671L37.6787 242.655H39.1895V242.671C38.791 244.863 36.8984 246.282 34.3501 246.282ZM44.7829 246.158C42.2346 246.158 40.6574 244.398 40.6574 241.534V241.518C40.6574 238.646 42.2346 236.894 44.7829 236.894C47.3313 236.894 48.9084 238.646 48.9084 241.518V241.534C48.9084 244.398 47.3313 246.158 44.7829 246.158ZM44.7829 244.879C46.4763 244.879 47.4309 243.643 47.4309 241.534V241.518C47.4309 239.401 46.4763 238.172 44.7829 238.172C43.0896 238.172 42.135 239.401 42.135 241.518V241.534C42.135 243.643 43.0896 244.879 44.7829 244.879ZM53.8129 246.158C51.8207 246.158 50.4511 245.195 50.2851 243.717H51.7626C52.0033 244.464 52.7172 244.954 53.8627 244.954C55.0663 244.954 55.9213 244.381 55.9213 243.568V243.551C55.9213 242.945 55.4648 242.522 54.3608 242.256L52.9745 241.924C51.2978 241.526 50.5424 240.795 50.5424 239.509V239.5C50.5424 238.015 51.9701 236.894 53.871 236.894C55.747 236.894 57.0502 237.832 57.2494 239.293H55.83C55.6391 238.587 54.9418 238.098 53.8627 238.098C52.8002 238.098 52.0199 238.646 52.0199 239.434V239.451C52.0199 240.057 52.4682 240.438 53.5224 240.696L54.9003 241.028C56.5854 241.435 57.3988 242.165 57.3988 243.443V243.46C57.3988 245.054 55.8466 246.158 53.8129 246.158ZM62.3282 246.066C60.4855 246.066 59.7135 245.386 59.7135 243.676V238.247H58.3024V237.052H59.7135V234.736H61.2076V237.052H63.1666V238.247H61.2076V243.311C61.2076 244.365 61.5729 244.788 62.5026 244.788C62.7599 244.788 62.901 244.78 63.1666 244.755V245.983C62.8844 246.033 62.6105 246.066 62.3282 246.066ZM72.9507 246.158C70.4439 246.158 68.8418 244.34 68.8418 241.501V241.484C68.8418 238.704 70.4356 236.894 72.9424 236.894C75.1172 236.894 76.4204 238.147 76.6861 239.741L76.6944 239.791H75.2583L75.25 239.766C75.0259 238.886 74.229 238.172 72.9424 238.172C71.3321 238.172 70.3194 239.467 70.3194 241.484V241.501C70.3194 243.56 71.3487 244.879 72.9424 244.879C74.146 244.879 74.9097 244.348 75.2417 243.352L75.2583 243.302L76.6861 243.294L76.6695 243.385C76.3042 245.004 75.1006 246.158 72.9507 246.158ZM82.0471 246.158C79.4905 246.158 77.9465 244.365 77.9465 241.559V241.551C77.9465 238.787 79.5237 236.894 81.9558 236.894C84.3879 236.894 85.8655 238.704 85.8655 241.376V241.941H79.4241C79.4656 243.792 80.4866 244.871 82.0803 244.871C83.2922 244.871 84.0393 244.298 84.28 243.759L84.3132 243.684H85.7576L85.741 243.75C85.4338 244.962 84.1555 246.158 82.0471 246.158ZM81.9475 238.181C80.6194 238.181 79.6067 239.085 79.449 240.787H84.3962C84.2468 239.019 83.2673 238.181 81.9475 238.181ZM87.6987 246V237.052H89.143V238.396H89.2758C89.7241 237.45 90.5625 236.894 91.8823 236.894C93.8911 236.894 95.0117 238.081 95.0117 240.206V246H93.5673V240.555C93.5673 238.944 92.9033 238.172 91.4755 238.172C90.0478 238.172 89.143 239.135 89.143 240.704V246H87.6987ZM100.398 246.066C98.5548 246.066 97.7829 245.386 97.7829 243.676V238.247H96.3717V237.052H97.7829V234.736H99.277V237.052H101.236V238.247H99.277V243.311C99.277 244.365 99.6423 244.788 100.572 244.788C100.829 244.788 100.97 244.78 101.236 244.755V245.983C100.954 246.033 100.68 246.066 100.398 246.066ZM106.506 246.158C103.949 246.158 102.405 244.365 102.405 241.559V241.551C102.405 238.787 103.982 236.894 106.414 236.894C108.847 236.894 110.324 238.704 110.324 241.376V241.941H103.883C103.924 243.792 104.945 244.871 106.539 244.871C107.751 244.871 108.498 244.298 108.739 243.759L108.772 243.684H110.216L110.2 243.75C109.892 244.962 108.614 246.158 106.506 246.158ZM106.406 238.181C105.078 238.181 104.065 239.085 103.908 240.787H108.855C108.705 239.019 107.726 238.181 106.406 238.181ZM112.157 246V237.052H113.602V238.38H113.734C114.075 237.442 114.913 236.894 116.125 236.894C116.399 236.894 116.706 236.927 116.847 236.952V238.355C116.548 238.305 116.274 238.272 115.959 238.272C114.581 238.272 113.602 239.144 113.602 240.455V246H112.157ZM121.129 246.158C119.137 246.158 117.767 245.195 117.601 243.717H119.079C119.32 244.464 120.033 244.954 121.179 244.954C122.383 244.954 123.238 244.381 123.238 243.568V243.551C123.238 242.945 122.781 242.522 121.677 242.256L120.291 241.924C118.614 241.526 117.859 240.795 117.859 239.509V239.5C117.859 238.015 119.286 236.894 121.187 236.894C123.063 236.894 124.366 237.832 124.566 239.293H123.146C122.955 238.587 122.258 238.098 121.179 238.098C120.116 238.098 119.336 238.646 119.336 239.434V239.451C119.336 240.057 119.784 240.438 120.839 240.696L122.217 241.028C123.902 241.435 124.715 242.165 124.715 243.443V243.46C124.715 245.054 123.163 246.158 121.129 246.158Z" fill="#07192E"/>
<path d="M351.531 233.5L357.25 239.469C357.375 239.625 357.469 239.812 357.469 240C357.469 240.188 357.375 240.375 357.25 240.5L351.531 246.469C351.25 246.781 350.75 246.781 350.469 246.5C350.156 246.219 350.156 245.75 350.438 245.438L355.688 239.969L350.438 234.531C350.156 234.25 350.156 233.75 350.469 233.469C350.75 233.188 351.25 233.188 351.531 233.5Z" fill="#767676"/>
<mask id="path-36-inside-6_570_12204" fill="white">
<path d="M16 264H377V312H16V264Z"/>
</mask>
<path d="M16 264H377V312H16V264Z" fill="white"/>
<path d="M377 312V311.5H16V312V312.5H377V312Z" fill="#F4F6F9" mask="url(#path-36-inside-6_570_12204)"/>
<path d="M29.5273 294V282.022H34.043C36.2925 282.022 37.8862 283.574 37.8862 285.849V285.865C37.8862 288.14 36.2925 289.725 34.043 289.725H31.0215V294H29.5273ZM33.6611 283.35H31.0215V288.397H33.6611C35.3711 288.397 36.3589 287.459 36.3589 285.882V285.865C36.3589 284.288 35.3711 283.35 33.6611 283.35ZM41.8693 294.158C40.1677 294.158 38.8811 293.128 38.8811 291.501V291.485C38.8811 289.891 40.0598 288.97 42.1433 288.845L44.7082 288.688V287.874C44.7082 286.77 44.0358 286.172 42.6994 286.172C41.6286 286.172 40.9231 286.571 40.6906 287.268L40.6823 287.293H39.238L39.2463 287.243C39.4787 285.84 40.84 284.894 42.7492 284.894C44.9323 284.894 46.1525 286.015 46.1525 287.874V294H44.7082V292.68H44.5754C44.0109 293.635 43.073 294.158 41.8693 294.158ZM40.3586 291.468C40.3586 292.373 41.1306 292.904 42.1682 292.904C43.6374 292.904 44.7082 291.941 44.7082 290.663V289.85L42.3176 289.999C40.9563 290.082 40.3586 290.563 40.3586 291.452V291.468ZM51.4555 294.158C49.4633 294.158 48.0937 293.195 47.9277 291.717H49.4052C49.6459 292.464 50.3598 292.954 51.5053 292.954C52.7089 292.954 53.5639 292.381 53.5639 291.568V291.551C53.5639 290.945 53.1073 290.522 52.0033 290.256L50.6171 289.924C48.9403 289.526 48.185 288.795 48.185 287.509V287.5C48.185 286.015 49.6127 284.894 51.5136 284.894C53.3896 284.894 54.6928 285.832 54.892 287.293H53.4726C53.2817 286.587 52.5844 286.098 51.5053 286.098C50.4428 286.098 49.6625 286.646 49.6625 287.434V287.451C49.6625 288.057 50.1108 288.438 51.165 288.696L52.5429 289.028C54.2279 289.435 55.0414 290.165 55.0414 291.443V291.46C55.0414 293.054 53.4892 294.158 51.4555 294.158ZM59.9708 294.066C58.1281 294.066 57.3561 293.386 57.3561 291.676V286.247H55.9449V285.052H57.3561V282.736H58.8502V285.052H60.8092V286.247H58.8502V291.311C58.8502 292.365 59.2155 292.788 60.1451 292.788C60.4025 292.788 60.5436 292.78 60.8092 292.755V293.983C60.527 294.033 60.2531 294.066 59.9708 294.066ZM71.3819 294.158C70.1368 294.158 69.1407 293.568 68.5928 292.572H68.46V294H67.0157V281.499H68.46V286.463H68.5928C69.0826 285.508 70.1534 284.894 71.3819 284.894C73.6563 284.894 75.1338 286.712 75.1338 289.518V289.534C75.1338 292.323 73.648 294.158 71.3819 294.158ZM71.0498 292.879C72.6851 292.879 73.6563 291.618 73.6563 289.534V289.518C73.6563 287.434 72.6851 286.172 71.0498 286.172C69.4229 286.172 68.4268 287.451 68.4268 289.518V289.534C68.4268 291.601 69.4229 292.879 71.0498 292.879ZM80.6443 294.158C78.0959 294.158 76.5188 292.398 76.5188 289.534V289.518C76.5188 286.646 78.0959 284.894 80.6443 284.894C83.1926 284.894 84.7698 286.646 84.7698 289.518V289.534C84.7698 292.398 83.1926 294.158 80.6443 294.158ZM80.6443 292.879C82.3376 292.879 83.2922 291.643 83.2922 289.534V289.518C83.2922 287.401 82.3376 286.172 80.6443 286.172C78.9509 286.172 77.9963 287.401 77.9963 289.518V289.534C77.9963 291.643 78.9509 292.879 80.6443 292.879ZM90.2802 294.158C87.7319 294.158 86.1547 292.398 86.1547 289.534V289.518C86.1547 286.646 87.7319 284.894 90.2802 284.894C92.8286 284.894 94.4057 286.646 94.4057 289.518V289.534C94.4057 292.398 92.8286 294.158 90.2802 294.158ZM90.2802 292.879C91.9736 292.879 92.9282 291.643 92.9282 289.534V289.518C92.9282 287.401 91.9736 286.172 90.2802 286.172C88.5869 286.172 87.6323 287.401 87.6323 289.518V289.534C87.6323 291.643 88.5869 292.879 90.2802 292.879ZM96.3219 294V281.499H97.7663V288.961H97.8991L101.767 285.052H103.519L99.6173 288.812L103.776 294H101.958L98.6047 289.792L97.7663 290.605V294H96.3219ZM105.825 283.325C105.277 283.325 104.829 282.877 104.829 282.329C104.829 281.781 105.277 281.333 105.825 281.333C106.373 281.333 106.821 281.781 106.821 282.329C106.821 282.877 106.373 283.325 105.825 283.325ZM105.095 294V285.052H106.539V294H105.095ZM108.854 294V285.052H110.298V286.396H110.431C110.879 285.45 111.717 284.894 113.037 284.894C115.046 284.894 116.167 286.081 116.167 288.206V294H114.722V288.555C114.722 286.944 114.058 286.172 112.63 286.172C111.203 286.172 110.298 287.135 110.298 288.704V294H108.854ZM122.059 297.154C119.901 297.154 118.523 296.183 118.299 294.714L118.315 294.706H119.809L119.818 294.714C119.975 295.395 120.772 295.876 122.059 295.876C123.661 295.876 124.616 295.121 124.616 293.801V291.991H124.483C123.918 292.979 122.906 293.535 121.677 293.535C119.361 293.535 117.925 291.742 117.925 289.235V289.219C117.925 286.712 119.369 284.894 121.71 284.894C122.972 284.894 123.951 285.517 124.499 286.529H124.599V285.052H126.043V293.875C126.043 295.876 124.499 297.154 122.059 297.154ZM121.992 292.257C123.653 292.257 124.649 291.012 124.649 289.235V289.219C124.649 287.442 123.644 286.172 121.992 286.172C120.332 286.172 119.403 287.442 119.403 289.219V289.235C119.403 291.012 120.332 292.257 121.992 292.257ZM131.396 294.158C129.404 294.158 128.034 293.195 127.868 291.717H129.346C129.586 292.464 130.3 292.954 131.446 292.954C132.649 292.954 133.504 292.381 133.504 291.568V291.551C133.504 290.945 133.048 290.522 131.944 290.256L130.558 289.924C128.881 289.526 128.125 288.795 128.125 287.509V287.5C128.125 286.015 129.553 284.894 131.454 284.894C133.33 284.894 134.633 285.832 134.833 287.293H133.413C133.222 286.587 132.525 286.098 131.446 286.098C130.383 286.098 129.603 286.646 129.603 287.434V287.451C129.603 288.057 130.051 288.438 131.105 288.696L132.483 289.028C134.168 289.435 134.982 290.165 134.982 291.443V291.46C134.982 293.054 133.43 294.158 131.396 294.158Z" fill="#07192E"/>
<path d="M351.531 281.5L357.25 287.469C357.375 287.625 357.469 287.812 357.469 288C357.469 288.188 357.375 288.375 357.25 288.5L351.531 294.469C351.25 294.781 350.75 294.781 350.469 294.5C350.156 294.219 350.156 293.75 350.438 293.438L355.688 287.969L350.438 282.531C350.156 282.25 350.156 281.75 350.469 281.469C350.75 281.188 351.25 281.188 351.531 281.5Z" fill="#767676"/>
<mask id="path-40-inside-7_570_12204" fill="white">
<path d="M16 312H377V360H16V312Z"/>
</mask>
<path d="M16 312H377V360H16V312Z" fill="white"/>
<path d="M377 360V359.5H16V360V360.5H377V360Z" fill="#F4F6F9" mask="url(#path-40-inside-7_570_12204)"/>
<path d="M29.5273 342V330.022H31.2622L35.3628 340.016H35.4956L39.5962 330.022H41.3311V342H39.9365V332.853H39.8452L36.0601 342H34.7983L31.0132 332.853H30.9219V342H29.5273ZM44.5588 345.138C44.3679 345.138 44.1189 345.121 43.9196 345.088V343.901C44.094 343.934 44.3181 343.942 44.5173 343.942C45.3391 343.942 45.8371 343.569 46.1608 342.54L46.3269 342.008L43.0149 333.052H44.5588L47.0158 340.415H47.1486L49.5974 333.052H51.1164L47.6218 342.548C46.883 344.557 46.1442 345.138 44.5588 345.138ZM57.7545 331.325C57.2067 331.325 56.7584 330.877 56.7584 330.329C56.7584 329.781 57.2067 329.333 57.7545 329.333C58.3024 329.333 58.7506 329.781 58.7506 330.329C58.7506 330.877 58.3024 331.325 57.7545 331.325ZM57.024 342V333.052H58.4684V342H57.024ZM60.783 342V333.052H62.2274V334.396H62.3602C62.8084 333.45 63.6468 332.894 64.9666 332.894C66.9754 332.894 68.096 334.081 68.096 336.206V342H66.6517V336.555C66.6517 334.944 65.9876 334.172 64.5599 334.172C63.1322 334.172 62.2274 335.135 62.2274 336.704V342H60.783ZM70.9004 342V334.247H69.4146V333.052H70.9004V332.056C70.9004 330.271 71.7969 329.416 73.4986 329.416C73.8472 329.416 74.1626 329.441 74.4615 329.499V330.653C74.2871 330.62 74.0464 330.611 73.7891 330.611C72.7598 330.611 72.3448 331.118 72.3448 332.097V333.052H74.3785V334.247H72.3448V342H70.9004ZM79.3494 342.158C76.801 342.158 75.2239 340.398 75.2239 337.534V337.518C75.2239 334.646 76.801 332.894 79.3494 332.894C81.8977 332.894 83.4749 334.646 83.4749 337.518V337.534C83.4749 340.398 81.8977 342.158 79.3494 342.158ZM79.3494 340.879C81.0427 340.879 81.9973 339.643 81.9973 337.534V337.518C81.9973 335.401 81.0427 334.172 79.3494 334.172C77.656 334.172 76.7014 335.401 76.7014 337.518V337.534C76.7014 339.643 77.656 340.879 79.3494 340.879Z" fill="#07192E"/>
<path d="M351.531 329.5L357.25 335.469C357.375 335.625 357.469 335.812 357.469 336C357.469 336.188 357.375 336.375 357.25 336.5L351.531 342.469C351.25 342.781 350.75 342.781 350.469 342.5C350.156 342.219 350.156 341.75 350.438 341.438L355.688 335.969L350.438 330.531C350.156 330.25 350.156 329.75 350.469 329.469C350.75 329.188 351.25 329.188 351.531 329.5Z" fill="#767676"/>
<mask id="path-44-inside-8_570_12204" fill="white">
<path d="M16 360H377V408H16V360Z"/>
</mask>
<path d="M16 360H377V408H16V360Z" fill="white"/>
<path d="M377 408V407.5H16V408V408.5H377V408Z" fill="#F4F6F9" mask="url(#path-44-inside-8_570_12204)"/>
<path d="M34.3501 390.282C31.0962 390.282 29.0625 387.875 29.0625 384.023V384.007C29.0625 380.147 31.0879 377.74 34.3418 377.74C36.8652 377.74 38.8325 379.325 39.1895 381.625L39.1812 381.641H37.6787L37.6704 381.625C37.272 380.089 35.9937 379.118 34.3418 379.118C32.0425 379.118 30.5981 381.01 30.5981 384.007V384.023C30.5981 387.02 32.0425 388.904 34.3501 388.904C36.0186 388.904 37.2886 388.049 37.6621 386.671L37.6787 386.655H39.1895V386.671C38.791 388.863 36.8984 390.282 34.3501 390.282ZM44.7829 390.158C42.2346 390.158 40.6574 388.398 40.6574 385.534V385.518C40.6574 382.646 42.2346 380.894 44.7829 380.894C47.3313 380.894 48.9084 382.646 48.9084 385.518V385.534C48.9084 388.398 47.3313 390.158 44.7829 390.158ZM44.7829 388.879C46.4763 388.879 47.4309 387.643 47.4309 385.534V385.518C47.4309 383.401 46.4763 382.172 44.7829 382.172C43.0896 382.172 42.135 383.401 42.135 385.518V385.534C42.135 387.643 43.0896 388.879 44.7829 388.879ZM50.7416 390V381.052H52.186V382.413H52.3188C52.7172 381.45 53.5639 380.894 54.7343 380.894C55.9462 380.894 56.7929 381.533 57.2079 382.463H57.3407C57.8222 381.517 58.8432 380.894 60.08 380.894C61.9062 380.894 62.9272 381.94 62.9272 383.816V390H61.4828V384.148C61.4828 382.828 60.8769 382.172 59.6152 382.172C58.37 382.172 57.5483 383.11 57.5483 384.248V390H56.1039V383.924C56.1039 382.861 55.3735 382.172 54.2445 382.172C53.0741 382.172 52.186 383.193 52.186 384.455V390H50.7416ZM65.1256 392.988V381.052H66.5699V382.479H66.7028C67.2506 381.483 68.2467 380.894 69.4918 380.894C71.7579 380.894 73.2438 382.729 73.2438 385.518V385.534C73.2438 388.34 71.7662 390.158 69.4918 390.158C68.2633 390.158 67.1925 389.543 66.7028 388.589H66.5699V392.988H65.1256ZM69.1598 388.879C70.795 388.879 71.7662 387.618 71.7662 385.534V385.518C71.7662 383.434 70.795 382.172 69.1598 382.172C67.5328 382.172 66.5367 383.451 66.5367 385.518V385.534C66.5367 387.601 67.5328 388.879 69.1598 388.879ZM77.5506 390.158C75.849 390.158 74.5623 389.128 74.5623 387.501V387.485C74.5623 385.891 75.741 384.97 77.8245 384.845L80.3895 384.688V383.874C80.3895 382.77 79.7171 382.172 78.3807 382.172C77.3099 382.172 76.6043 382.571 76.3719 383.268L76.3636 383.293H74.9193L74.9276 383.243C75.16 381.84 76.5213 380.894 78.4305 380.894C80.6136 380.894 81.8338 382.015 81.8338 383.874V390H80.3895V388.68H80.2567C79.6922 389.635 78.7542 390.158 77.5506 390.158ZM76.0399 387.468C76.0399 388.373 76.8118 388.904 77.8494 388.904C79.3187 388.904 80.3895 387.941 80.3895 386.663V385.85L77.9989 385.999C76.6375 386.082 76.0399 386.563 76.0399 387.452V387.468ZM84.0655 390V381.052H85.5098V382.396H85.6426C86.0909 381.45 86.9292 380.894 88.2491 380.894C90.2579 380.894 91.3785 382.081 91.3785 384.206V390H89.9341V384.555C89.9341 382.944 89.2701 382.172 87.8423 382.172C86.4146 382.172 85.5098 383.135 85.5098 384.704V390H84.0655ZM94.0168 393.138C93.8259 393.138 93.5769 393.121 93.3777 393.088V391.901C93.552 391.934 93.7761 391.942 93.9753 391.942C94.7971 391.942 95.2952 391.569 95.6189 390.54L95.7849 390.008L92.4729 381.052H94.0168L96.4739 388.415H96.6067L99.0554 381.052H100.574L97.0798 390.548C96.3411 392.557 95.6023 393.138 94.0168 393.138ZM107.213 379.325C106.665 379.325 106.216 378.877 106.216 378.329C106.216 377.781 106.665 377.333 107.213 377.333C107.76 377.333 108.209 377.781 108.209 378.329C108.209 378.877 107.76 379.325 107.213 379.325ZM106.482 390V381.052H107.926V390H106.482ZM110.241 390V381.052H111.685V382.396H111.818C112.266 381.45 113.105 380.894 114.425 380.894C116.433 380.894 117.554 382.081 117.554 384.206V390H116.11V384.555C116.11 382.944 115.446 382.172 114.018 382.172C112.59 382.172 111.685 383.135 111.685 384.704V390H110.241ZM120.358 390V382.247H118.873V381.052H120.358V380.056C120.358 378.271 121.255 377.416 122.957 377.416C123.305 377.416 123.621 377.441 123.92 377.499V378.653C123.745 378.62 123.504 378.611 123.247 378.611C122.218 378.611 121.803 379.118 121.803 380.097V381.052H123.837V382.247H121.803V390H120.358ZM128.807 390.158C126.259 390.158 124.682 388.398 124.682 385.534V385.518C124.682 382.646 126.259 380.894 128.807 380.894C131.356 380.894 132.933 382.646 132.933 385.518V385.534C132.933 388.398 131.356 390.158 128.807 390.158ZM128.807 388.879C130.501 388.879 131.455 387.643 131.455 385.534V385.518C131.455 383.401 130.501 382.172 128.807 382.172C127.114 382.172 126.159 383.401 126.159 385.518V385.534C126.159 387.643 127.114 388.879 128.807 388.879Z" fill="#07192E"/>
<path d="M351.531 377.5L357.25 383.469C357.375 383.625 357.469 383.812 357.469 384C357.469 384.188 357.375 384.375 357.25 384.5L351.531 390.469C351.25 390.781 350.75 390.781 350.469 390.5C350.156 390.219 350.156 389.75 350.438 389.438L355.688 383.969L350.438 378.531C350.156 378.25 350.156 377.75 350.469 377.469C350.75 377.188 351.25 377.188 351.531 377.5Z" fill="#767676"/>
<mask id="path-48-inside-9_570_12204" fill="white">
<path d="M16 408H377V456H16V408Z"/>
</mask>
<path d="M16 408H377V456H16V408Z" fill="white"/>
<path d="M377 456V455.5H16V456V456.5H377V456Z" fill="#F4F6F9" mask="url(#path-48-inside-9_570_12204)"/>
<path d="M34.3501 438.282C31.0962 438.282 29.0625 435.875 29.0625 432.023V432.007C29.0625 428.147 31.0879 425.74 34.3418 425.74C36.8652 425.74 38.8325 427.325 39.1895 429.625L39.1812 429.641H37.6787L37.6704 429.625C37.272 428.089 35.9937 427.118 34.3418 427.118C32.0425 427.118 30.5981 429.01 30.5981 432.007V432.023C30.5981 435.02 32.0425 436.904 34.3501 436.904C36.0186 436.904 37.2886 436.049 37.6621 434.671L37.6787 434.655H39.1895V434.671C38.791 436.863 36.8984 438.282 34.3501 438.282ZM44.1023 438.158C42.0686 438.158 41.0227 436.962 41.0227 434.846V429.052H42.467V434.497C42.467 436.107 43.0481 436.879 44.4758 436.879C46.0529 436.879 46.8913 435.917 46.8913 434.348V429.052H48.3357V438H46.8913V436.664H46.7585C46.3186 437.618 45.4138 438.158 44.1023 438.158ZM53.6967 438.158C51.7045 438.158 50.3349 437.195 50.1689 435.717H51.6464C51.8871 436.464 52.601 436.954 53.7465 436.954C54.9501 436.954 55.8051 436.381 55.8051 435.568V435.551C55.8051 434.945 55.3486 434.522 54.2445 434.256L52.8583 433.924C51.1816 433.526 50.4262 432.795 50.4262 431.509V431.5C50.4262 430.015 51.8539 428.894 53.7548 428.894C55.6308 428.894 56.934 429.832 57.1332 431.293H55.7138C55.5229 430.587 54.8256 430.098 53.7465 430.098C52.684 430.098 51.9037 430.646 51.9037 431.434V431.451C51.9037 432.057 52.352 432.438 53.4062 432.696L54.7841 433.028C56.4692 433.435 57.2826 434.165 57.2826 435.443V435.46C57.2826 437.054 55.7304 438.158 53.6967 438.158ZM62.212 438.066C60.3693 438.066 59.5973 437.386 59.5973 435.676V430.247H58.1862V429.052H59.5973V426.736H61.0914V429.052H63.0504V430.247H61.0914V435.311C61.0914 436.365 61.4567 436.788 62.3864 436.788C62.6437 436.788 62.7848 436.78 63.0504 436.755V437.983C62.7682 438.033 62.4943 438.066 62.212 438.066ZM68.3451 438.158C65.7967 438.158 64.2196 436.398 64.2196 433.534V433.518C64.2196 430.646 65.7967 428.894 68.3451 428.894C70.8934 428.894 72.4705 430.646 72.4705 433.518V433.534C72.4705 436.398 70.8934 438.158 68.3451 438.158ZM68.3451 436.879C70.0384 436.879 70.993 435.643 70.993 433.534V433.518C70.993 431.401 70.0384 430.172 68.3451 430.172C66.6517 430.172 65.6971 431.401 65.6971 433.518V433.534C65.6971 435.643 66.6517 436.879 68.3451 436.879ZM74.3037 438V429.052H75.7481V430.413H75.8809C76.2793 429.45 77.126 428.894 78.2964 428.894C79.5083 428.894 80.355 429.533 80.7701 430.463H80.9029C81.3843 429.517 82.4053 428.894 83.6421 428.894C85.4683 428.894 86.4893 429.94 86.4893 431.816V438H85.045V432.148C85.045 430.828 84.439 430.172 83.1773 430.172C81.9322 430.172 81.1104 431.11 81.1104 432.248V438H79.6661V431.924C79.6661 430.861 78.9356 430.172 77.8067 430.172C76.6363 430.172 75.7481 431.193 75.7481 432.455V438H74.3037ZM92.3401 438.158C89.7834 438.158 88.2395 436.365 88.2395 433.559V433.551C88.2395 430.787 89.8167 428.894 92.2488 428.894C94.6809 428.894 96.1584 430.704 96.1584 433.376V433.941H89.717C89.7585 435.792 90.7795 436.871 92.3733 436.871C93.5852 436.871 94.3323 436.298 94.573 435.759L94.6062 435.684H96.0505L96.0339 435.75C95.7268 436.962 94.4485 438.158 92.3401 438.158ZM92.2405 430.181C90.9124 430.181 89.8997 431.085 89.7419 432.787H94.6892C94.5398 431.019 93.5603 430.181 92.2405 430.181ZM97.9917 438V429.052H99.436V430.38H99.5688C99.9091 429.442 100.748 428.894 101.959 428.894C102.233 428.894 102.54 428.927 102.682 428.952V430.355C102.383 430.305 102.109 430.272 101.793 430.272C100.415 430.272 99.436 431.144 99.436 432.455V438H97.9917ZM111.503 438.158C109.511 438.158 108.141 437.195 107.975 435.717H109.453C109.693 436.464 110.407 436.954 111.553 436.954C112.756 436.954 113.611 436.381 113.611 435.568V435.551C113.611 434.945 113.155 434.522 112.051 434.256L110.664 433.924C108.988 433.526 108.232 432.795 108.232 431.509V431.5C108.232 430.015 109.66 428.894 111.561 428.894C113.437 428.894 114.74 429.832 114.939 431.293H113.52C113.329 430.587 112.632 430.098 111.553 430.098C110.49 430.098 109.71 430.646 109.71 431.434V431.451C109.71 432.057 110.158 432.438 111.212 432.696L112.59 433.028C114.275 433.435 115.089 434.165 115.089 435.443V435.46C115.089 437.054 113.536 438.158 111.503 438.158ZM120.574 438.158C118.018 438.158 116.474 436.365 116.474 433.559V433.551C116.474 430.787 118.051 428.894 120.483 428.894C122.915 428.894 124.393 430.704 124.393 433.376V433.941H117.951C117.993 435.792 119.014 436.871 120.607 436.871C121.819 436.871 122.566 436.298 122.807 435.759L122.84 435.684H124.285L124.268 435.75C123.961 436.962 122.683 438.158 120.574 438.158ZM120.475 430.181C119.147 430.181 118.134 431.085 117.976 432.787H122.923C122.774 431.019 121.795 430.181 120.475 430.181ZM126.226 438V429.052H127.67V430.38H127.803C128.143 429.442 128.982 428.894 130.194 428.894C130.468 428.894 130.775 428.927 130.916 428.952V430.355C130.617 430.305 130.343 430.272 130.028 430.272C128.65 430.272 127.67 431.144 127.67 432.455V438H126.226ZM134.907 438L131.595 429.052H133.123L135.571 436.423H135.704L138.153 429.052H139.68L136.368 438H134.907ZM141.945 427.325C141.397 427.325 140.949 426.877 140.949 426.329C140.949 425.781 141.397 425.333 141.945 425.333C142.493 425.333 142.941 425.781 142.941 426.329C142.941 426.877 142.493 427.325 141.945 427.325ZM141.215 438V429.052H142.659V438H141.215ZM148.634 438.158C146.127 438.158 144.525 436.34 144.525 433.501V433.484C144.525 430.704 146.119 428.894 148.626 428.894C150.801 428.894 152.104 430.147 152.37 431.741L152.378 431.791H150.942L150.934 431.766C150.709 430.886 149.913 430.172 148.626 430.172C147.016 430.172 146.003 431.467 146.003 433.484V433.501C146.003 435.56 147.032 436.879 148.626 436.879C149.83 436.879 150.593 436.348 150.925 435.352L150.942 435.302L152.37 435.294L152.353 435.385C151.988 437.004 150.784 438.158 148.634 438.158ZM157.731 438.158C155.174 438.158 153.63 436.365 153.63 433.559V433.551C153.63 430.787 155.207 428.894 157.639 428.894C160.071 428.894 161.549 430.704 161.549 433.376V433.941H155.108C155.149 435.792 156.17 436.871 157.764 436.871C158.976 436.871 159.723 436.298 159.963 435.759L159.997 435.684H161.441L161.424 435.75C161.117 436.962 159.839 438.158 157.731 438.158ZM157.631 430.181C156.303 430.181 155.29 431.085 155.132 432.787H160.08C159.93 431.019 158.951 430.181 157.631 430.181Z" fill="#07192E"/>
<path d="M351.531 425.5L357.25 431.469C357.375 431.625 357.469 431.812 357.469 432C357.469 432.188 357.375 432.375 357.25 432.5L351.531 438.469C351.25 438.781 350.75 438.781 350.469 438.5C350.156 438.219 350.156 437.75 350.438 437.438L355.688 431.969L350.438 426.531C350.156 426.25 350.156 425.75 350.469 425.469C350.75 425.188 351.25 425.188 351.531 425.5Z" fill="#767676"/>
</g>
<path d="M16 120H377H16ZM377 448C377 452.694 373.194 456.5 368.5 456.5H24.5C19.8056 456.5 16 452.694 16 448C16 452.142 19.5817 455.5 24 455.5H369C373.418 455.5 377 452.142 377 448ZM16 456V120V456ZM377 120V456V120Z" fill="#F4F6F9" mask="url(#path-20-inside-2_570_12204)"/>
<rect x="16" y="496" width="361" height="44" rx="22" fill="#F81212"/>
<g clip-path="url(#clip3_570_12204)">
<path d="M156.559 527.575C156.559 527.79 156.635 527.974 156.788 528.127C156.941 528.28 157.125 528.356 157.34 528.356C157.561 528.356 157.748 528.28 157.901 528.127C158.054 527.974 158.131 527.79 158.131 527.575V509.724C158.131 509.379 158.297 509.206 158.629 509.206H169.371C169.703 509.206 169.869 509.379 169.869 509.724V527.575C169.869 527.79 169.946 527.974 170.099 528.127C170.252 528.28 170.439 528.356 170.66 528.356C170.875 528.356 171.059 528.28 171.212 528.127C171.365 527.974 171.441 527.79 171.441 527.575V509.626C171.441 509.027 171.254 508.545 170.88 508.181C170.506 507.816 170.012 507.634 169.4 507.634H158.6C157.988 507.634 157.494 507.816 157.12 508.181C156.746 508.545 156.559 509.027 156.559 509.626V527.575Z" fill="white"/>
<path d="M159.273 527.8C159.273 527.891 159.308 527.957 159.376 528C159.444 528.042 159.524 528.044 159.615 528.005L162.682 526.647C162.805 526.595 162.893 526.54 162.945 526.481C162.997 526.423 163.023 526.332 163.023 526.208V512.136C163.023 512.012 162.997 511.922 162.945 511.867C162.893 511.812 162.809 511.758 162.691 511.706L159.615 510.339C159.524 510.3 159.444 510.301 159.376 510.344C159.308 510.386 159.273 510.456 159.273 510.554V527.8Z" fill="white"/>
</g>
<path d="M182.589 523.5V511.864H184.697V521.733H189.822V523.5H182.589ZM195.428 523.67C194.575 523.67 193.837 523.483 193.212 523.108C192.587 522.733 192.102 522.208 191.757 521.534C191.416 520.86 191.246 520.072 191.246 519.17C191.246 518.269 191.416 517.479 191.757 516.801C192.102 516.123 192.587 515.597 193.212 515.222C193.837 514.847 194.575 514.659 195.428 514.659C196.28 514.659 197.018 514.847 197.643 515.222C198.268 515.597 198.751 516.123 199.092 516.801C199.437 517.479 199.609 518.269 199.609 519.17C199.609 520.072 199.437 520.86 199.092 521.534C198.751 522.208 198.268 522.733 197.643 523.108C197.018 523.483 196.28 523.67 195.428 523.67ZM195.439 522.023C195.901 522.023 196.287 521.896 196.598 521.642C196.909 521.384 197.14 521.04 197.291 520.608C197.446 520.176 197.524 519.695 197.524 519.165C197.524 518.631 197.446 518.148 197.291 517.716C197.14 517.28 196.909 516.934 196.598 516.676C196.287 516.419 195.901 516.29 195.439 516.29C194.965 516.29 194.571 516.419 194.257 516.676C193.946 516.934 193.714 517.28 193.558 517.716C193.407 518.148 193.331 518.631 193.331 519.165C193.331 519.695 193.407 520.176 193.558 520.608C193.714 521.04 193.946 521.384 194.257 521.642C194.571 521.896 194.965 522.023 195.439 522.023ZM205.211 526.955C204.472 526.955 203.837 526.854 203.307 526.653C202.777 526.456 202.351 526.191 202.029 525.858C201.707 525.525 201.483 525.155 201.358 524.75L203.211 524.301C203.294 524.472 203.415 524.64 203.574 524.807C203.733 524.977 203.947 525.117 204.216 525.227C204.489 525.341 204.832 525.398 205.245 525.398C205.828 525.398 206.311 525.256 206.694 524.972C207.076 524.691 207.267 524.229 207.267 523.585V521.932H207.165C207.059 522.144 206.904 522.362 206.699 522.585C206.498 522.809 206.231 522.996 205.898 523.148C205.569 523.299 205.154 523.375 204.654 523.375C203.983 523.375 203.375 523.218 202.83 522.903C202.288 522.585 201.856 522.112 201.534 521.483C201.216 520.85 201.057 520.059 201.057 519.108C201.057 518.15 201.216 517.341 201.534 516.682C201.856 516.019 202.29 515.517 202.836 515.176C203.381 514.831 203.989 514.659 204.659 514.659C205.171 514.659 205.591 514.746 205.921 514.92C206.254 515.091 206.519 515.297 206.716 515.54C206.913 515.778 207.063 516.004 207.165 516.216H207.279V514.773H209.307V523.642C209.307 524.388 209.129 525.006 208.773 525.494C208.417 525.983 207.93 526.348 207.313 526.591C206.695 526.833 205.995 526.955 205.211 526.955ZM205.228 521.761C205.663 521.761 206.034 521.655 206.341 521.443C206.648 521.231 206.881 520.926 207.04 520.528C207.199 520.131 207.279 519.653 207.279 519.097C207.279 518.547 207.199 518.066 207.04 517.653C206.885 517.241 206.654 516.92 206.347 516.693C206.044 516.462 205.671 516.347 205.228 516.347C204.769 516.347 204.387 516.466 204.08 516.705C203.773 516.943 203.542 517.271 203.387 517.688C203.231 518.1 203.154 518.57 203.154 519.097C203.154 519.631 203.231 520.098 203.387 520.5C203.546 520.898 203.779 521.208 204.086 521.432C204.396 521.652 204.777 521.761 205.228 521.761ZM215.282 523.67C214.43 523.67 213.691 523.483 213.066 523.108C212.441 522.733 211.956 522.208 211.611 521.534C211.271 520.86 211.1 520.072 211.1 519.17C211.1 518.269 211.271 517.479 211.611 516.801C211.956 516.123 212.441 515.597 213.066 515.222C213.691 514.847 214.43 514.659 215.282 514.659C216.134 514.659 216.873 514.847 217.498 515.222C218.123 515.597 218.606 516.123 218.947 516.801C219.291 517.479 219.464 518.269 219.464 519.17C219.464 520.072 219.291 520.86 218.947 521.534C218.606 522.208 218.123 522.733 217.498 523.108C216.873 523.483 216.134 523.67 215.282 523.67ZM215.293 522.023C215.755 522.023 216.142 521.896 216.452 521.642C216.763 521.384 216.994 521.04 217.146 520.608C217.301 520.176 217.379 519.695 217.379 519.165C217.379 518.631 217.301 518.148 217.146 517.716C216.994 517.28 216.763 516.934 216.452 516.676C216.142 516.419 215.755 516.29 215.293 516.29C214.82 516.29 214.426 516.419 214.111 516.676C213.801 516.934 213.568 517.28 213.413 517.716C213.261 518.148 213.185 518.631 213.185 519.165C213.185 519.695 213.261 520.176 213.413 520.608C213.568 521.04 213.801 521.384 214.111 521.642C214.426 521.896 214.82 522.023 215.293 522.023ZM226.832 519.83V514.773H228.889V523.5H226.894V521.949H226.804C226.607 522.437 226.283 522.837 225.832 523.148C225.385 523.458 224.834 523.614 224.179 523.614C223.607 523.614 223.101 523.487 222.662 523.233C222.226 522.975 221.885 522.602 221.639 522.114C221.393 521.621 221.269 521.027 221.269 520.33V514.773H223.326V520.011C223.326 520.564 223.478 521.004 223.781 521.33C224.084 521.655 224.482 521.818 224.974 521.818C225.277 521.818 225.571 521.744 225.855 521.597C226.139 521.449 226.372 521.229 226.554 520.938C226.739 520.642 226.832 520.273 226.832 519.83ZM235.422 514.773V516.364H230.405V514.773H235.422ZM231.643 512.682H233.7V520.875C233.7 521.152 233.742 521.364 233.825 521.511C233.912 521.655 234.026 521.754 234.166 521.807C234.306 521.86 234.462 521.886 234.632 521.886C234.761 521.886 234.878 521.877 234.984 521.858C235.094 521.839 235.177 521.822 235.234 521.807L235.581 523.415C235.471 523.453 235.314 523.494 235.109 523.54C234.909 523.585 234.662 523.612 234.371 523.619C233.856 523.634 233.392 523.557 232.979 523.386C232.566 523.212 232.238 522.943 231.996 522.58C231.757 522.216 231.64 521.761 231.643 521.216V512.682Z" fill="white"/>
<rect width="393" height="114" transform="translate(0 738)" fill="url(#paint0_linear_570_12204)"/>
<g filter="url(#filter2_d_570_12204)">
<g clip-path="url(#clip4_570_12204)">
<rect x="63.6914" y="758" width="265.617" height="60" rx="30" fill="white"/>
<path d="M80.6914 786.493C80.6914 787.372 80.8566 788.197 81.1869 788.967C81.5173 789.737 81.9755 790.415 82.5616 791.001C83.1478 791.587 83.8258 792.045 84.5957 792.376C85.3657 792.706 86.1902 792.871 87.0694 792.871C87.7621 792.871 88.4228 792.765 89.0515 792.551C89.6802 792.338 90.2557 792.045 90.7779 791.672L94.7102 795.613C94.8061 795.703 94.9113 795.771 95.0258 795.816C95.1404 795.862 95.2616 795.884 95.3895 795.884C95.5707 795.884 95.7305 795.843 95.869 795.76C96.0076 795.678 96.1155 795.565 96.1927 795.421C96.27 795.277 96.3086 795.117 96.3086 794.941C96.3086 794.813 96.286 794.693 96.2407 794.582C96.1954 794.47 96.1302 794.371 96.0449 794.286L92.1366 790.354C92.5469 789.821 92.8679 789.227 93.0997 788.571C93.3314 787.916 93.4473 787.223 93.4473 786.493C93.4473 785.614 93.2822 784.789 92.9518 784.02C92.6215 783.25 92.1632 782.572 91.5771 781.985C90.991 781.399 90.313 780.941 89.543 780.611C88.7731 780.28 87.9486 780.115 87.0694 780.115C86.1902 780.115 85.3657 780.28 84.5957 780.611C83.8258 780.941 83.1478 781.399 82.5616 781.985C81.9755 782.572 81.5173 783.25 81.1869 784.02C80.8566 784.789 80.6914 785.614 80.6914 786.493ZM82.0581 786.493C82.0581 785.801 82.1873 785.152 82.4457 784.547C82.7042 783.942 83.0638 783.409 83.5247 782.949C83.9856 782.488 84.5185 782.128 85.1232 781.87C85.728 781.611 86.3767 781.482 87.0694 781.482C87.7621 781.482 88.4108 781.611 89.0155 781.87C89.6203 782.128 90.1518 782.488 90.61 782.949C91.0683 783.409 91.4279 783.942 91.689 784.547C91.9501 785.152 92.0806 785.801 92.0806 786.493C92.0806 787.186 91.9501 787.835 91.689 788.439C91.4279 789.044 91.0683 789.576 90.61 790.034C90.1518 790.492 89.6203 790.852 89.0155 791.113C88.4108 791.374 87.7621 791.504 87.0694 791.504C86.3767 791.504 85.728 791.374 85.1232 791.113C84.5185 790.852 83.9856 790.492 83.5247 790.034C83.0638 789.576 82.7042 789.044 82.4457 788.439C82.1873 787.835 82.0581 787.186 82.0581 786.493Z" fill="#7A7A7A"/>
<path d="M142.712 793.411C142.009 793.411 141.27 793.402 140.496 793.386C139.721 793.369 138.96 793.347 138.213 793.319C137.471 793.286 136.788 793.25 136.163 793.211C135.543 793.173 135.034 793.131 134.635 793.087C134.076 793.021 133.645 792.835 133.34 792.531C133.036 792.226 132.884 791.809 132.884 791.277V789.816C132.884 789.346 132.917 788.937 132.983 788.588C133.055 788.234 133.169 787.904 133.324 787.6C133.479 787.29 133.683 786.969 133.938 786.637L134.635 785.732C134.74 785.234 134.862 784.742 135 784.255C135.144 783.768 135.285 783.331 135.424 782.943C135.568 782.556 135.687 782.26 135.781 782.055C136.002 781.585 136.32 781.211 136.735 780.935C137.15 780.652 137.635 780.478 138.188 780.412C138.376 780.389 138.689 780.37 139.126 780.354C139.563 780.337 140.089 780.323 140.703 780.312C141.323 780.301 141.993 780.295 142.712 780.295C143.426 780.295 144.09 780.301 144.704 780.312C145.324 780.318 145.852 780.329 146.29 780.345C146.732 780.362 147.045 780.384 147.228 780.412C147.781 780.484 148.265 780.658 148.68 780.935C149.095 781.211 149.413 781.585 149.635 782.055C149.729 782.26 149.845 782.556 149.983 782.943C150.127 783.331 150.268 783.768 150.407 784.255C150.551 784.742 150.675 785.234 150.78 785.732L151.478 786.637C151.732 786.969 151.937 787.29 152.092 787.6C152.247 787.904 152.357 788.234 152.424 788.588C152.496 788.937 152.532 789.346 152.532 789.816V791.277C152.532 791.809 152.38 792.226 152.075 792.531C151.771 792.835 151.339 793.021 150.78 793.087C150.387 793.131 149.878 793.173 149.253 793.211C148.628 793.25 147.941 793.286 147.194 793.319C146.453 793.347 145.695 793.369 144.92 793.386C144.145 793.402 143.409 793.411 142.712 793.411ZM136.312 785.035C136.279 785.19 136.293 785.301 136.354 785.367C136.414 785.428 136.525 785.453 136.686 785.442C137.145 785.414 137.648 785.387 138.196 785.359C138.744 785.331 139.383 785.309 140.114 785.292C140.844 785.276 141.71 785.268 142.712 785.268C143.708 785.268 144.571 785.276 145.302 785.292C146.032 785.309 146.671 785.331 147.219 785.359C147.767 785.387 148.271 785.414 148.73 785.442C148.89 785.453 149.001 785.428 149.062 785.367C149.128 785.301 149.142 785.19 149.104 785.035C149.032 784.736 148.946 784.418 148.846 784.081C148.747 783.737 148.641 783.422 148.531 783.134C148.426 782.841 148.326 782.617 148.232 782.462C148.116 782.268 147.988 782.124 147.85 782.03C147.717 781.936 147.54 781.873 147.319 781.839C147.003 781.79 146.478 781.754 145.742 781.731C145.006 781.709 143.996 781.698 142.712 781.698C141.428 781.698 140.415 781.712 139.674 781.74C138.938 781.762 138.415 781.795 138.105 781.839C137.878 781.873 137.695 781.936 137.557 782.03C137.424 782.124 137.3 782.268 137.184 782.462C137.095 782.622 136.995 782.849 136.885 783.143C136.774 783.43 136.666 783.743 136.561 784.081C136.461 784.418 136.378 784.736 136.312 785.035ZM136.719 791.169C137.101 791.169 137.419 791.042 137.673 790.788C137.928 790.528 138.055 790.209 138.055 789.833C138.055 789.451 137.928 789.133 137.673 788.878C137.419 788.624 137.101 788.497 136.719 788.497C136.342 788.497 136.027 788.624 135.772 788.878C135.518 789.133 135.391 789.451 135.391 789.833C135.391 790.209 135.518 790.528 135.772 790.788C136.027 791.042 136.342 791.169 136.719 791.169ZM140.512 790.837H144.903C145.186 790.837 145.415 790.749 145.592 790.572C145.775 790.395 145.866 790.162 145.866 789.875C145.866 789.592 145.775 789.363 145.592 789.186C145.415 789.008 145.186 788.92 144.903 788.92H140.512C140.23 788.92 139.998 789.008 139.815 789.186C139.638 789.363 139.549 789.592 139.549 789.875C139.549 790.162 139.638 790.395 139.815 790.572C139.998 790.749 140.23 790.837 140.512 790.837ZM148.697 791.169C149.073 791.169 149.389 791.042 149.643 790.788C149.898 790.528 150.025 790.209 150.025 789.833C150.025 789.451 149.898 789.133 149.643 788.878C149.389 788.624 149.073 788.497 148.697 788.497C148.315 788.497 147.997 788.624 147.742 788.878C147.488 789.133 147.36 789.451 147.36 789.833C147.36 790.209 147.488 790.528 147.742 790.788C147.997 791.042 148.315 791.169 148.697 791.169ZM133.988 795.693C133.678 795.693 133.415 795.588 133.199 795.378C132.989 795.168 132.884 794.908 132.884 794.598V791.02L136.063 792.531V794.598C136.063 794.908 135.958 795.168 135.748 795.378C135.537 795.588 135.277 795.693 134.967 795.693H133.988ZM150.448 795.693C150.138 795.693 149.878 795.588 149.668 795.378C149.458 795.168 149.353 794.908 149.353 794.598V792.531L152.532 791.02V794.598C152.532 794.908 152.424 795.168 152.208 795.378C151.998 795.588 151.738 795.693 151.428 795.693H150.448ZM129.505 785.11C129.467 785.265 129.478 785.375 129.539 785.442C129.605 785.503 129.718 785.528 129.879 785.517C130.205 785.494 130.551 785.475 130.917 785.458C131.282 785.436 131.683 785.417 132.12 785.4C132.563 785.384 133.058 785.37 133.606 785.359L133.49 785.732L132.792 786.637C132.543 786.969 132.341 787.29 132.187 787.6C132.032 787.91 131.918 788.242 131.846 788.596C131.78 788.945 131.747 789.354 131.747 789.825V793.328C130.95 793.3 130.205 793.267 129.514 793.228C128.822 793.184 128.263 793.137 127.837 793.087C127.278 793.021 126.846 792.838 126.542 792.539C126.243 792.235 126.091 791.817 126.085 791.286L126.077 789.825C126.077 789.354 126.11 788.945 126.177 788.596C126.249 788.242 126.362 787.91 126.517 787.6C126.672 787.29 126.877 786.969 127.131 786.637L127.82 785.732C127.92 785.234 128.039 784.742 128.177 784.255C128.321 783.768 128.462 783.331 128.601 782.943C128.739 782.55 128.858 782.254 128.958 782.055C129.179 781.585 129.497 781.208 129.912 780.926C130.327 780.639 130.811 780.464 131.365 780.403C131.614 780.376 132.106 780.351 132.842 780.329C133.584 780.306 134.536 780.29 135.698 780.279C135.454 780.495 135.261 780.724 135.117 780.968C134.978 781.206 134.859 781.474 134.76 781.773C133.825 781.784 133.077 781.801 132.519 781.823C131.965 781.845 131.556 781.875 131.29 781.914C131.069 781.947 130.889 782.011 130.75 782.105C130.612 782.199 130.488 782.343 130.377 782.537C130.288 782.697 130.189 782.924 130.078 783.217C129.967 783.505 129.86 783.818 129.754 784.155C129.655 784.493 129.572 784.811 129.505 785.11ZM129.207 790.721C129.55 790.721 129.837 790.605 130.07 790.373C130.302 790.135 130.418 789.844 130.418 789.501C130.418 789.152 130.302 788.862 130.07 788.629C129.837 788.397 129.55 788.281 129.207 788.281C128.858 788.281 128.567 788.397 128.335 788.629C128.103 788.862 127.986 789.152 127.986 789.501C127.986 789.844 128.103 790.135 128.335 790.373C128.567 790.605 128.858 790.721 129.207 790.721ZM127.198 795.693C126.882 795.693 126.617 795.588 126.401 795.378C126.191 795.173 126.085 794.916 126.085 794.606V790.779L129.265 792.282V794.598C129.265 794.908 129.16 795.168 128.949 795.378C128.744 795.588 128.484 795.693 128.169 795.693H127.198Z" fill="#7A7A7A"/>
<g clip-path="url(#clip5_570_12204)">
<rect x="141.309" y="770" width="16" height="16" rx="8" fill="#F81212"/>
<path d="M149.299 782V776.194H149.216L147.463 777.435V776.248L149.304 774.954H150.559V782H149.299Z" fill="white"/>
</g>
<rect x="141.809" y="770.5" width="15" height="15" rx="7.5" stroke="white"/>
<rect x="167.309" y="760" width="160" height="56" rx="28" fill="#07192E"/>
<path d="M213.045 796.681C212.613 796.681 212.298 796.424 212.198 796L211.767 794.174C211.443 794.066 211.136 793.942 210.854 793.809L209.26 794.789C208.903 795.013 208.488 794.979 208.189 794.681L207.126 793.618C206.828 793.319 206.778 792.888 207.027 792.531L207.998 790.945C207.865 790.655 207.741 790.356 207.649 790.057L205.807 789.617C205.383 789.526 205.134 789.21 205.134 788.779V787.276C205.134 786.853 205.383 786.538 205.807 786.446L207.633 786.006C207.741 785.666 207.874 785.359 207.981 785.102L207.01 783.491C206.77 783.134 206.803 782.728 207.11 782.429L208.189 781.358C208.496 781.067 208.87 781.026 209.235 781.233L210.845 782.229C211.127 782.08 211.443 781.956 211.767 781.848L212.198 780.013C212.298 779.59 212.613 779.333 213.045 779.333H214.572C215.004 779.333 215.319 779.59 215.411 780.013L215.842 781.864C216.183 781.972 216.49 782.097 216.755 782.238L218.382 781.233C218.748 781.026 219.113 781.076 219.42 781.358L220.507 782.429C220.814 782.728 220.839 783.134 220.607 783.491L219.627 785.102C219.744 785.359 219.876 785.666 219.984 786.006L221.811 786.446C222.234 786.538 222.483 786.853 222.483 787.276V788.779C222.483 789.21 222.234 789.526 221.811 789.617L219.968 790.057C219.876 790.356 219.752 790.655 219.611 790.945L220.59 792.531C220.831 792.888 220.79 793.319 220.491 793.618L219.42 794.681C219.121 794.979 218.714 795.013 218.357 794.789L216.755 793.809C216.481 793.942 216.166 794.066 215.842 794.174L215.411 796C215.319 796.424 215.004 796.681 214.572 796.681H213.045ZM213.809 790.937C215.419 790.937 216.739 789.609 216.739 787.999C216.739 786.396 215.419 785.077 213.809 785.077C212.198 785.077 210.878 786.396 210.878 787.999C210.878 789.609 212.198 790.937 213.809 790.937Z" fill="white"/>
<path d="M234.882 793.239C232.653 793.239 231.225 792.111 231.088 790.45L231.081 790.361H232.585L232.592 790.437C232.674 791.332 233.624 791.906 234.943 791.906C236.201 791.906 237.097 791.277 237.097 790.361V790.354C237.097 789.596 236.563 789.104 235.258 788.823L234.178 788.591C232.175 788.167 231.313 787.237 231.313 785.781V785.774C231.32 784.072 232.797 782.896 234.889 782.896C236.98 782.896 238.348 784.079 238.457 785.61L238.464 785.706H236.98L236.967 785.617C236.837 784.811 236.064 784.223 234.868 784.229C233.713 784.229 232.858 784.77 232.858 785.699V785.706C232.858 786.438 233.378 786.916 234.656 787.189L235.729 787.429C237.801 787.873 238.648 788.707 238.648 790.17V790.177C238.648 792.063 237.179 793.239 234.882 793.239ZM243.611 793.144C241.438 793.144 240.125 791.66 240.125 789.309V789.302C240.125 786.984 241.465 785.433 243.536 785.433C245.607 785.433 246.879 786.93 246.879 789.158V789.678H241.615C241.643 791.1 242.422 791.927 243.646 791.927C244.596 791.927 245.163 791.455 245.341 791.072L245.368 791.018L246.797 791.011L246.783 791.072C246.537 792.05 245.512 793.144 243.611 793.144ZM243.543 786.649C242.531 786.649 241.766 787.34 241.636 788.618H245.409C245.293 787.292 244.548 786.649 243.543 786.649ZM251.445 793.048C249.812 793.048 249.142 792.474 249.142 791.045V786.745H247.979V785.576H249.142V783.703H250.652V785.576H252.245V786.745H250.652V790.689C250.652 791.489 250.953 791.817 251.685 791.817C251.91 791.817 252.04 791.811 252.245 791.79V792.973C252.006 793.014 251.732 793.048 251.445 793.048ZM256.805 793.048C255.171 793.048 254.501 792.474 254.501 791.045V786.745H253.339V785.576H254.501V783.703H256.012V785.576H257.604V786.745H256.012V790.689C256.012 791.489 256.312 791.817 257.044 791.817C257.27 791.817 257.399 791.811 257.604 791.79V792.973C257.365 793.014 257.092 793.048 256.805 793.048ZM260.106 784.25C259.594 784.25 259.177 783.833 259.177 783.327C259.177 782.814 259.594 782.397 260.106 782.397C260.612 782.397 261.036 782.814 261.036 783.327C261.036 783.833 260.612 784.25 260.106 784.25ZM259.361 793V785.576H260.838V793H259.361ZM262.998 793V785.576H264.481V786.704H264.591C264.953 785.911 265.664 785.433 266.744 785.433C268.405 785.433 269.321 786.424 269.321 788.194V793H267.845V788.543C267.845 787.312 267.332 786.704 266.245 786.704C265.158 786.704 264.481 787.449 264.481 788.646V793H262.998ZM274.53 795.618C272.644 795.618 271.481 794.791 271.304 793.554L271.317 793.54H272.814L272.821 793.554C272.944 794.066 273.546 794.429 274.551 794.429C275.774 794.429 276.499 793.854 276.499 792.843V791.38H276.39C275.938 792.187 275.118 792.638 274.1 792.638C272.192 792.638 271.017 791.168 271.017 789.076V789.062C271.017 786.943 272.199 785.446 274.127 785.446C275.166 785.446 275.973 785.959 276.403 786.793H276.492V785.576H277.969V792.85C277.969 794.538 276.636 795.618 274.53 795.618ZM274.51 791.414C275.768 791.414 276.526 790.457 276.526 789.069V789.056C276.526 787.675 275.761 786.704 274.51 786.704C273.245 786.704 272.534 787.675 272.534 789.056V789.069C272.534 790.45 273.245 791.414 274.51 791.414ZM282.802 793.144C281.011 793.144 279.876 792.303 279.732 791.059V791.052H281.216L281.223 791.059C281.407 791.619 281.947 791.995 282.829 791.995C283.745 791.995 284.381 791.578 284.381 790.97V790.956C284.381 790.491 284.032 790.177 283.171 789.979L281.988 789.705C280.587 789.384 279.938 788.748 279.938 787.661V787.654C279.938 786.362 281.141 785.433 282.822 785.433C284.518 785.433 285.604 786.28 285.734 787.49V787.497H284.319V787.483C284.176 786.964 283.649 786.574 282.815 786.574C282.002 786.574 281.414 786.978 281.414 787.572V787.586C281.414 788.051 281.756 788.338 282.59 788.536L283.766 788.803C285.194 789.138 285.878 789.746 285.878 790.819V790.833C285.878 792.207 284.565 793.144 282.802 793.144Z" fill="white"/>
</g>
</g>
<rect x="137" y="839" width="120" height="5" rx="2.5" fill="black"/>
</g>
</g>
<defs>
<filter id="filter0_f_570_12204" x="235.773" y="25.1816" width="7.45459" height="4.18164" filterUnits="userSpaceOnUse" color-interpolation-filters="sRGB">
<feFlood flood-opacity="0" result="BackgroundImageFix"/>
<feBlend mode="normal" in="SourceGraphic" in2="BackgroundImageFix" result="shape"/>
<feGaussianBlur stdDeviation="0.5" result="effect1_foregroundBlur_570_12204"/>
</filter>
<filter id="filter1_f_570_12204" x="235.773" y="29.5454" width="7.45459" height="5.27295" filterUnits="userSpaceOnUse" color-interpolation-filters="sRGB">
<feFlood flood-opacity="0" result="BackgroundImageFix"/>
<feBlend mode="normal" in="SourceGraphic" in2="BackgroundImageFix" result="shape"/>
<feGaussianBlur stdDeviation="0.5" result="effect1_foregroundBlur_570_12204"/>
</filter>
<filter id="filter2_d_570_12204" x="57.6914" y="755" width="277.617" height="72" filterUnits="userSpaceOnUse" color-interpolation-filters="sRGB">
<feFlood flood-opacity="0" result="BackgroundImageFix"/>
<feColorMatrix in="SourceAlpha" type="matrix" values="0 0 0 0 0 0 0 0 0 0 0 0 0 0 0 0 0 0 127 0" result="hardAlpha"/>
<feOffset dy="3"/>
<feGaussianBlur stdDeviation="3"/>
<feComposite in2="hardAlpha" operator="out"/>
<feColorMatrix type="matrix" values="0 0 0 0 0 0 0 0 0 0 0 0 0 0 0 0 0 0 0.35 0"/>
<feBlend mode="normal" in2="BackgroundImageFix" result="effect1_dropShadow_570_12204"/>
<feBlend mode="normal" in="SourceGraphic" in2="effect1_dropShadow_570_12204" result="shape"/>
</filter>
<linearGradient id="paint0_linear_570_12204" x1="196.5" y1="0" x2="196.5" y2="114" gradientUnits="userSpaceOnUse">
<stop stop-color="white" stop-opacity="0"/>
<stop offset="1" stop-color="white"/>
</linearGradient>
<clipPath id="clip0_570_12204">
<rect width="393" height="852" fill="white"/>
</clipPath>
<clipPath id="clip1_570_12204">
<rect width="393" height="748" fill="white" transform="translate(0 104)"/>
</clipPath>
<clipPath id="clip2_570_12204">
<path d="M16 128C16 123.582 19.5817 120 24 120H369C373.418 120 377 123.582 377 128V448C377 452.418 373.418 456 369 456H24C19.5817 456 16 452.418 16 448V128Z" fill="white"/>
</clipPath>
<clipPath id="clip3_570_12204">
<rect width="14.8828" height="20.7324" fill="white" transform="translate(156.559 507.634)"/>
</clipPath>
<clipPath id="clip4_570_12204">
<rect x="63.6914" y="758" width="265.617" height="60" rx="30" fill="white"/>
</clipPath>
<clipPath id="clip5_570_12204">
<rect x="141.309" y="770" width="16" height="16" rx="8" fill="white"/>
</clipPath>
</defs>
</svg>
