<svg width="393" height="852" viewBox="0 0 393 852" fill="none" xmlns="http://www.w3.org/2000/svg">
<g clip-path="url(#clip0_570_12247)">
<rect width="393" height="852" fill="white"/>
<path d="M46.7666 23.7231C47.4085 23.7231 48.0173 23.8421 48.5928 24.0801C49.1683 24.3125 49.6774 24.6777 50.1201 25.1758C50.5684 25.6683 50.9198 26.3019 51.1743 27.0767C51.4289 27.8459 51.5562 28.7728 51.5562 29.8574V29.874C51.5562 31.2188 51.3625 32.3698 50.9751 33.3271C50.5877 34.2845 50.0316 35.0205 49.3066 35.5352C48.5872 36.0443 47.7267 36.2988 46.7251 36.2988C45.9891 36.2988 45.325 36.166 44.7329 35.9004C44.1463 35.6292 43.6593 35.2585 43.272 34.7881C42.8901 34.3122 42.6328 33.7699 42.5 33.1611L42.4834 33.0698H44.5835L44.6167 33.1528C44.7218 33.4295 44.8713 33.673 45.0649 33.8833C45.2642 34.0936 45.5021 34.2568 45.7788 34.373C46.061 34.4837 46.3765 34.5391 46.7251 34.5391C47.356 34.5391 47.8706 34.3537 48.269 33.9829C48.673 33.6066 48.9746 33.1058 49.1738 32.4805C49.3786 31.8496 49.4948 31.1523 49.5225 30.3887C49.528 30.3057 49.5308 30.2254 49.5308 30.1479C49.5308 30.0649 49.5308 29.9847 49.5308 29.9072L49.1572 27.9067C49.1572 27.453 49.0521 27.0407 48.8418 26.6699C48.6315 26.2992 48.3465 26.0059 47.9868 25.79C47.6326 25.5742 47.2314 25.4663 46.7832 25.4663C46.3516 25.4663 45.9559 25.5715 45.5962 25.7817C45.2365 25.992 44.9487 26.2798 44.7329 26.645C44.5171 27.0047 44.4092 27.4087 44.4092 27.8569V27.8735C44.4092 28.3384 44.5116 28.7507 44.7163 29.1104C44.9211 29.4645 45.2005 29.744 45.5547 29.9487C45.9089 30.1535 46.3128 30.2559 46.7666 30.2559C47.2204 30.2559 47.6271 30.1562 47.9868 29.957C48.3465 29.7578 48.6315 29.4811 48.8418 29.127C49.0521 28.7728 49.1572 28.3716 49.1572 27.9233V27.9067H49.6553V30.1147H49.3647C49.2209 30.4302 49.0078 30.7235 48.7256 30.9946C48.4434 31.2658 48.0947 31.4844 47.6797 31.6504C47.2702 31.8164 46.7887 31.8994 46.2354 31.8994C45.4717 31.8994 44.7965 31.7279 44.21 31.3848C43.6234 31.0417 43.1613 30.5713 42.8237 29.9736C42.4917 29.376 42.3257 28.7008 42.3257 27.9482V27.9316C42.3257 27.1182 42.5138 26.396 42.8901 25.7651C43.272 25.1287 43.7977 24.6307 44.4673 24.271C45.1424 23.9058 45.9089 23.7231 46.7666 23.7231ZM54.8247 34.3896C54.4484 34.3896 54.133 34.2651 53.8784 34.0161C53.6294 33.7616 53.5049 33.4517 53.5049 33.0864C53.5049 32.7157 53.6294 32.4058 53.8784 32.1567C54.133 31.9022 54.4484 31.7749 54.8247 31.7749C55.2065 31.7749 55.522 31.9022 55.771 32.1567C56.02 32.4058 56.1445 32.7157 56.1445 33.0864C56.1445 33.4517 56.02 33.7616 55.771 34.0161C55.522 34.2651 55.2065 34.3896 54.8247 34.3896ZM54.8247 28.2305C54.4484 28.2305 54.133 28.106 53.8784 27.8569C53.6294 27.6024 53.5049 27.2925 53.5049 26.9272C53.5049 26.5565 53.6294 26.2466 53.8784 25.9976C54.133 25.743 54.4484 25.6157 54.8247 25.6157C55.2065 25.6157 55.522 25.743 55.771 25.9976C56.02 26.2466 56.1445 26.5565 56.1445 26.9272C56.1445 27.2925 56.02 27.6024 55.771 27.8569C55.522 28.106 55.2065 28.2305 54.8247 28.2305ZM63.9038 36V33.7007H58.0435V31.9492C58.3589 31.4124 58.6743 30.8729 58.9897 30.3306C59.3107 29.7882 59.6344 29.2487 59.9609 28.7119C60.293 28.1696 60.6222 27.6356 60.9487 27.1099C61.2808 26.5786 61.61 26.0557 61.9365 25.541C62.2686 25.0208 62.6006 24.5145 62.9326 24.022H65.9458V31.9326H67.5645V33.7007H65.9458V36H63.9038ZM60.0356 31.9824H63.937V25.7319H63.8125C63.569 26.1082 63.3172 26.4956 63.0571 26.894C62.8026 27.2925 62.5452 27.6992 62.2852 28.1143C62.0251 28.5293 61.7677 28.9471 61.5132 29.3677C61.2586 29.7827 61.0068 30.2005 60.7578 30.6211C60.5088 31.0361 60.2681 31.4484 60.0356 31.8579V31.9824ZM72.02 36V26.1304H71.8706L68.8906 28.2305V26.2217L72.02 24.022H74.1533V36H72.02Z" fill="black"/>
<path d="M82.2507 30.5545C82.0199 30.5504 81.8275 30.4996 81.6736 30.4021C81.5237 30.3005 81.4124 30.1724 81.3395 30.0179C81.2666 29.8594 81.2382 29.6928 81.2544 29.518C81.2706 29.3391 81.3314 29.1745 81.4367 29.0241C81.542 28.8696 81.6979 28.7456 81.9044 28.6521L91.6243 24.1584C91.9038 24.0324 92.161 23.9815 92.3959 24.0059C92.6308 24.0263 92.8231 24.1096 92.973 24.2559C93.1228 24.3982 93.2119 24.5852 93.2403 24.8169C93.2727 25.0445 93.2241 25.3006 93.0945 25.5852L88.6294 35.3044C88.5322 35.5239 88.4046 35.6885 88.2467 35.7983C88.0887 35.9121 87.9207 35.9771 87.7425 35.9934C87.5643 36.0137 87.3962 35.9873 87.2382 35.9141C87.0803 35.8409 86.9527 35.7271 86.8555 35.5727C86.7583 35.4223 86.7097 35.2353 86.7097 35.0117L86.6976 30.6643C86.6976 30.5992 86.6652 30.5667 86.6004 30.5667L82.2507 30.5545Z" fill="black"/>
<rect x="135.5" y="12" width="122" height="36" rx="18" fill="black"/>
<circle cx="239.5" cy="30" r="6" fill="#0E101F"/>
<circle cx="239.5" cy="29.9999" r="4.90909" fill="#01031A"/>
<g filter="url(#filter0_f_570_12247)">
<ellipse cx="239.5" cy="27.2726" rx="2.72727" ry="1.09091" fill="white" fill-opacity="0.1"/>
</g>
<g filter="url(#filter1_f_570_12247)">
<ellipse cx="239.5" cy="32.1818" rx="2.72727" ry="1.63636" fill="white" fill-opacity="0.1"/>
</g>
<path d="M284.917 32H286.083C286.728 32 287.25 32.5037 287.25 33.125V35.375C287.25 35.9963 286.728 36.5 286.083 36.5H284.917C284.272 36.5 283.75 35.9963 283.75 35.375V33.125C283.75 32.5037 284.272 32 284.917 32Z" fill="black"/>
<path d="M289.917 30H291.083C291.728 30 292.25 30.5037 292.25 31.125V35.375C292.25 35.9963 291.728 36.5 291.083 36.5H289.917C289.272 36.5 288.75 35.9963 288.75 35.375V31.125C288.75 30.5037 289.272 30 289.917 30Z" fill="black"/>
<path opacity="0.2" d="M294.917 27H296.083C296.728 27 297.25 27.5037 297.25 28.125V35.375C297.25 35.9963 296.728 36.5 296.083 36.5H294.917C294.272 36.5 293.75 35.9963 293.75 35.375V28.125C293.75 27.5037 294.272 27 294.917 27Z" fill="black"/>
<path opacity="0.2" d="M299.917 24H301.083C301.728 24 302.25 24.5037 302.25 25.125V35.375C302.25 35.9963 301.728 36.5 301.083 36.5H299.917C299.272 36.5 298.75 35.9963 298.75 35.375V25.125C298.75 24.5037 299.272 24 299.917 24Z" fill="black"/>
<path d="M315.107 32.6929C312.774 32.6929 311.119 31.0449 311.119 28.6982C311.119 26.3516 312.774 24.7036 315.107 24.7036H321.066C323.393 24.7036 325.054 26.3516 325.054 28.6982C325.054 31.0449 323.393 32.6929 321.066 32.6929H319.128C318.799 32.3501 318.772 31.6052 319.023 31.3284H320.994C322.53 31.3284 323.617 30.2473 323.617 28.6982C323.617 27.1558 322.53 26.0681 320.994 26.0681H315.18C313.644 26.0681 312.556 27.1558 312.556 28.6982C312.556 30.2473 313.644 31.3284 315.18 31.3284H315.529C315.45 31.7371 315.483 32.2314 315.542 32.6929H315.107ZM320.434 35.8438C318.1 35.8438 316.446 34.1958 316.446 31.8491C316.446 29.5024 318.1 27.8545 320.434 27.8545H322.365C322.675 28.1973 322.701 28.9158 322.477 29.219H320.506C318.97 29.219 317.883 30.3 317.883 31.8491C317.883 33.3916 318.97 34.4792 320.506 34.4792H326.32C327.856 34.4792 328.944 33.3916 328.944 31.8491C328.944 30.3 327.856 29.219 326.32 29.219H325.971C326.05 28.8037 326.023 28.3159 325.958 27.8545H326.393C328.726 27.8545 330.381 29.5024 330.381 31.8491C330.381 34.1958 328.726 35.8438 326.393 35.8438H320.434Z" fill="black"/>
<g opacity="0.3">
<path d="M340.416 24.7777C339.75 25.7866 339.75 27.1911 339.75 30C339.75 32.8089 339.75 34.2134 340.416 35.2223C340.704 35.659 341.075 36.034 341.506 36.3259C342.503 37 343.89 37 346.665 37H357.533C360.308 37 361.695 37 362.692 36.3259C363.123 36.034 363.494 35.659 363.782 35.2223C364.448 34.2134 364.448 32.8089 364.448 30C364.448 27.1911 364.448 25.7866 363.782 24.7777C363.494 24.341 363.123 23.966 362.692 23.6741C361.695 23 360.308 23 357.533 23H346.665C343.89 23 342.503 23 341.506 23.6741C341.075 23.966 340.704 24.341 340.416 24.7777Z" fill="black"/>
<path d="M366.75 29.75C366.75 30.6231 366.232 31.4112 365.436 31.75V27.75C366.232 28.0888 366.75 28.8769 366.75 29.75Z" fill="black"/>
</g>
<path d="M339.75 30C339.75 27.1911 339.75 25.7866 340.424 24.7777C340.716 24.341 341.091 23.966 341.528 23.6741C342.537 23 343.941 23 346.75 23H349.629V37H346.75C343.941 37 342.537 37 341.528 36.3259C341.091 36.034 340.716 35.659 340.424 35.2223C339.75 34.2134 339.75 32.8089 339.75 30Z" fill="#F7CE45"/>
<path d="M349.46 34.1719C347.709 34.1719 346.555 33.2319 346.447 31.8462L346.442 31.7764H347.994L348 31.8354C348.069 32.437 348.623 32.8667 349.46 32.8667C350.288 32.8667 350.83 32.4048 350.83 31.7495V31.7388C350.83 30.9976 350.277 30.5894 349.337 30.5894H348.451V29.4346H349.315C350.132 29.4346 350.658 29.0049 350.658 28.3765V28.3657C350.658 27.7212 350.212 27.3237 349.45 27.3237C348.687 27.3237 348.177 27.7373 348.112 28.3818L348.107 28.4302H346.614L346.619 28.3657C346.732 26.98 347.822 26.0776 349.45 26.0776C351.115 26.0776 352.189 26.9155 352.189 28.1509V28.1616C352.189 29.1284 351.48 29.7568 350.572 29.9448V29.9771C351.727 30.0845 352.479 30.7505 352.479 31.8032V31.814C352.479 33.2212 351.271 34.1719 349.46 34.1719ZM353.424 34V32.9097L355.921 30.4443C357.012 29.3862 357.307 28.9941 357.307 28.4517V28.4355C357.307 27.7749 356.856 27.313 356.115 27.313C355.357 27.313 354.836 27.8179 354.836 28.5537V28.5806H353.338L353.333 28.5591C353.333 27.0713 354.493 26.0508 356.19 26.0508C357.785 26.0508 358.902 26.9639 358.902 28.3013V28.3174C358.902 29.1982 358.446 29.9287 357.033 31.2339L355.599 32.5713V32.6948H359.015V34H353.424Z" fill="black"/>
<mask id="path-16-inside-1_570_12247" fill="white">
<path d="M0 60H393V104H0V60Z"/>
</mask>
<path d="M0 60H393V104H0V60Z" fill="white"/>
<path d="M393 104V103.5H0V104V104.5H393V104Z" fill="#D2D2D2" mask="url(#path-16-inside-1_570_12247)"/>
<path d="M19.5645 82.9492C19.571 82.7474 19.61 82.5618 19.6816 82.3926C19.7598 82.2233 19.877 82.0605 20.0332 81.9043L27.5527 74.5508C27.8001 74.3034 28.1029 74.1797 28.4609 74.1797C28.7083 74.1797 28.9297 74.2383 29.125 74.3555C29.3268 74.4727 29.4863 74.6322 29.6035 74.834C29.7272 75.0293 29.7891 75.2474 29.7891 75.4883C29.7891 75.8529 29.6523 76.1719 29.3789 76.4453L22.6895 82.9492L29.3789 89.4531C29.6523 89.7331 29.7891 90.0521 29.7891 90.4102C29.7891 90.6576 29.7272 90.8789 29.6035 91.0742C29.4863 91.2695 29.3268 91.4258 29.125 91.543C28.9297 91.6602 28.7083 91.7188 28.4609 91.7188C28.1029 91.7188 27.8001 91.5951 27.5527 91.3477L20.0332 83.9941C19.8704 83.8379 19.75 83.6751 19.6719 83.5059C19.6003 83.3301 19.5645 83.1445 19.5645 82.9492Z" fill="#222222"/>
<path d="M124.715 89.3516C121.444 89.3516 119.364 87.7402 119.188 85.3086L119.178 85.1719H121.619L121.629 85.2695C121.746 86.4512 123.006 87.2324 124.793 87.2324C126.493 87.2324 127.684 86.3926 127.684 85.1816V85.1719C127.684 84.1562 126.951 83.541 125.135 83.1504L123.621 82.8379C120.741 82.2324 119.491 80.8848 119.491 78.7852V78.7754C119.491 76.2559 121.659 74.5566 124.705 74.5566C127.83 74.5566 129.774 76.2656 129.95 78.5312L129.959 78.6582H127.547L127.528 78.541C127.352 77.4473 126.307 76.666 124.696 76.6758C123.133 76.6758 122.02 77.4082 122.02 78.6094V78.6191C122.02 79.6152 122.733 80.2402 124.491 80.6113L126.004 80.9336C128.973 81.5586 130.213 82.75 130.213 84.8789V84.8887C130.213 87.6328 128.094 89.3516 124.715 89.3516ZM136.583 89.0488C134.131 89.0488 133.126 88.2285 133.126 86.168V80.2109H131.465V78.3262H133.126V75.709H135.596V78.3262H137.852V80.2109H135.596V85.5918C135.596 86.6562 136.016 87.1055 137.032 87.1055C137.374 87.1055 137.559 87.0957 137.852 87.0664V88.9414C137.501 89.0098 137.051 89.0488 136.583 89.0488ZM142.776 89.1758C140.745 89.1758 139.27 87.9258 139.27 85.9824V85.9629C139.27 84.0586 140.725 82.9453 143.323 82.7891L146.067 82.623V81.7051C146.067 80.6406 145.374 80.0547 144.065 80.0547C142.952 80.0547 142.229 80.4551 141.985 81.1582L141.975 81.1973H139.68L139.69 81.1094C139.925 79.3125 141.643 78.1211 144.182 78.1211C146.927 78.1211 148.469 79.4492 148.469 81.7051V89H146.067V87.5352H145.901C145.315 88.5703 144.182 89.1758 142.776 89.1758ZM141.673 85.8652C141.673 86.7734 142.444 87.3105 143.518 87.3105C144.983 87.3105 146.067 86.3535 146.067 85.084V84.2246L143.665 84.3809C142.307 84.4688 141.673 84.9668 141.673 85.8457V85.8652ZM150.981 89V78.3262H153.413V79.9668H153.579C153.94 78.8242 154.917 78.1504 156.323 78.1504C156.694 78.1504 157.075 78.1992 157.31 78.2676V80.4453C156.919 80.3672 156.519 80.3086 156.099 80.3086C154.478 80.3086 153.413 81.2754 153.413 82.7988V89H150.981ZM163.327 89.0488C160.876 89.0488 159.87 88.2285 159.87 86.168V80.2109H158.21V78.3262H159.87V75.709H162.341V78.3262H164.597V80.2109H162.341V85.5918C162.341 86.6562 162.761 87.1055 163.777 87.1055C164.118 87.1055 164.304 87.0957 164.597 87.0664V88.9414C164.245 89.0098 163.796 89.0488 163.327 89.0488ZM167.861 76.5391C167.06 76.5391 166.406 75.9043 166.406 75.1035C166.406 74.3125 167.06 73.668 167.861 73.668C168.652 73.668 169.306 74.3125 169.306 75.1035C169.306 75.9043 168.652 76.5391 167.861 76.5391ZM166.64 89V78.3262H169.072V89H166.64ZM171.652 89V78.3262H174.084V79.957H174.25C174.757 78.8145 175.783 78.1211 177.326 78.1211C179.709 78.1211 181.007 79.5566 181.007 82.0957V89H178.576V82.6621C178.576 81.002 177.902 80.1621 176.427 80.1621C174.982 80.1621 174.084 81.1777 174.084 82.7793V89H171.652ZM188.06 92.75C185.248 92.75 183.558 91.5488 183.314 89.752L183.324 89.7227H185.756L185.765 89.752C185.931 90.4355 186.742 90.9141 188.099 90.9141C189.76 90.9141 190.726 90.1426 190.726 88.7754V86.7344H190.56C189.945 87.877 188.783 88.502 187.308 88.502C184.603 88.502 182.924 86.4121 182.924 83.3848V83.3652C182.924 80.2793 184.603 78.1504 187.357 78.1504C188.832 78.1504 189.984 78.873 190.59 80.084H190.717V78.3262H193.148V88.7363C193.148 91.1973 191.176 92.75 188.06 92.75ZM188.06 86.5684C189.75 86.5684 190.765 85.2695 190.765 83.3848V83.3652C190.765 81.4805 189.74 80.1719 188.06 80.1719C186.371 80.1719 185.414 81.4805 185.414 83.3652V83.3848C185.414 85.2695 186.371 86.5684 188.06 86.5684ZM200.74 89V74.1953H203.172V89H200.74ZM210.45 89.2148C207.246 89.2148 205.313 87.125 205.313 83.668V83.6484C205.313 80.2207 207.276 78.1211 210.45 78.1211C213.633 78.1211 215.586 80.2109 215.586 83.6484V83.668C215.586 87.125 213.643 89.2148 210.45 89.2148ZM210.45 87.2422C212.139 87.2422 213.096 85.9238 213.096 83.6777V83.6582C213.096 81.4121 212.129 80.084 210.45 80.084C208.76 80.084 207.793 81.4121 207.793 83.6582V83.6777C207.793 85.9238 208.76 87.2422 210.45 87.2422ZM222.2 89.2148C218.987 89.2148 217.092 87.1348 217.092 83.6484V83.6289C217.092 80.1816 218.977 78.1211 222.19 78.1211C224.934 78.1211 226.575 79.6445 226.848 81.8516V81.8906H224.553L224.544 81.8613C224.319 80.8262 223.528 80.084 222.2 80.084C220.54 80.084 219.563 81.3926 219.563 83.6289V83.6484C219.563 85.9141 220.549 87.2422 222.2 87.2422C223.46 87.2422 224.231 86.666 224.534 85.543L224.553 85.5039L226.848 85.4941L226.829 85.5723C226.477 87.7598 224.905 89.2148 222.2 89.2148ZM231.665 89.1758C229.634 89.1758 228.159 87.9258 228.159 85.9824V85.9629C228.159 84.0586 229.614 82.9453 232.212 82.7891L234.956 82.623V81.7051C234.956 80.6406 234.263 80.0547 232.954 80.0547C231.841 80.0547 231.118 80.4551 230.874 81.1582L230.864 81.1973H228.569L228.579 81.1094C228.813 79.3125 230.532 78.1211 233.071 78.1211C235.815 78.1211 237.358 79.4492 237.358 81.7051V89H234.956V87.5352H234.79C234.204 88.5703 233.071 89.1758 231.665 89.1758ZM230.561 85.8652C230.561 86.7734 231.333 87.3105 232.407 87.3105C233.872 87.3105 234.956 86.3535 234.956 85.084V84.2246L232.554 84.3809C231.196 84.4688 230.561 84.9668 230.561 85.8457V85.8652ZM244.069 89.0488C241.618 89.0488 240.612 88.2285 240.612 86.168V80.2109H238.952V78.3262H240.612V75.709H243.083V78.3262H245.339V80.2109H243.083V85.5918C243.083 86.6562 243.503 87.1055 244.519 87.1055C244.86 87.1055 245.046 87.0957 245.339 87.0664V88.9414C244.987 89.0098 244.538 89.0488 244.069 89.0488ZM248.603 76.5391C247.802 76.5391 247.148 75.9043 247.148 75.1035C247.148 74.3125 247.802 73.668 248.603 73.668C249.394 73.668 250.048 74.3125 250.048 75.1035C250.048 75.9043 249.394 76.5391 248.603 76.5391ZM247.382 89V78.3262H249.814V89H247.382ZM257.003 89.2148C253.8 89.2148 251.867 87.125 251.867 83.668V83.6484C251.867 80.2207 253.83 78.1211 257.003 78.1211C260.187 78.1211 262.14 80.2109 262.14 83.6484V83.668C262.14 87.125 260.197 89.2148 257.003 89.2148ZM257.003 87.2422C258.693 87.2422 259.65 85.9238 259.65 83.6777V83.6582C259.65 81.4121 258.683 80.084 257.003 80.084C255.314 80.084 254.347 81.4121 254.347 83.6582V83.6777C254.347 85.9238 255.314 87.2422 257.003 87.2422ZM264.173 89V78.3262H266.605V79.957H266.771C267.279 78.8145 268.304 78.1211 269.847 78.1211C272.23 78.1211 273.529 79.5566 273.529 82.0957V89H271.097V82.6621C271.097 81.002 270.423 80.1621 268.949 80.1621C267.504 80.1621 266.605 81.1777 266.605 82.7793V89H264.173Z" fill="#07192E"/>
<g clip-path="url(#clip1_570_12247)">
<rect width="393" height="748" transform="translate(0 104)" fill="#F4F6F9"/>
<g clip-path="url(#clip2_570_12247)">
<mask id="path-20-inside-2_570_12247" fill="white">
<path d="M16 128C16 123.582 19.5817 120 24 120H369C373.418 120 377 123.582 377 128V256C377 260.418 373.418 264 369 264H24C19.5817 264 16 260.418 16 256V128Z"/>
</mask>
<mask id="path-22-inside-3_570_12247" fill="white">
<path d="M16 120H377V168H16V120Z"/>
</mask>
<path d="M16 120H377V168H16V120Z" fill="white"/>
<path d="M377 168V167.5H16V168V168.5H377V168Z" fill="#F4F6F9" mask="url(#path-22-inside-3_570_12247)"/>
<path d="M29.5273 150V138.022H31.0215V143.202H37.5957V138.022H39.0898V150H37.5957V144.546H31.0215V150H29.5273ZM45.2312 150.158C42.6828 150.158 41.1057 148.398 41.1057 145.534V145.518C41.1057 142.646 42.6828 140.894 45.2312 140.894C47.7795 140.894 49.3566 142.646 49.3566 145.518V145.534C49.3566 148.398 47.7795 150.158 45.2312 150.158ZM45.2312 148.879C46.9245 148.879 47.8791 147.643 47.8791 145.534V145.518C47.8791 143.401 46.9245 142.172 45.2312 142.172C43.5378 142.172 42.5832 143.401 42.5832 145.518V145.534C42.5832 147.643 43.5378 148.879 45.2312 148.879ZM51.1899 150V141.052H52.6342V142.413H52.767C53.1654 141.45 54.0121 140.894 55.1825 140.894C56.3944 140.894 57.2411 141.533 57.6562 142.463H57.789C58.2704 141.517 59.2914 140.894 60.5282 140.894C62.3544 140.894 63.3754 141.94 63.3754 143.816V150H61.9311V144.148C61.9311 142.828 61.3251 142.172 60.0634 142.172C58.8183 142.172 57.9965 143.11 57.9965 144.248V150H56.5522V143.924C56.5522 142.861 55.8217 142.172 54.6928 142.172C53.5224 142.172 52.6342 143.193 52.6342 144.455V150H51.1899ZM69.2262 150.158C66.6696 150.158 65.1256 148.365 65.1256 145.559V145.551C65.1256 142.787 66.7028 140.894 69.1349 140.894C71.567 140.894 73.0446 142.704 73.0446 145.376V145.941H66.6031C66.6447 147.792 67.6656 148.871 69.2594 148.871C70.4713 148.871 71.2184 148.298 71.4591 147.759L71.4923 147.684H72.9366L72.92 147.75C72.6129 148.962 71.3346 150.158 69.2262 150.158ZM69.1266 142.181C67.7985 142.181 66.7858 143.085 66.6281 144.787H71.5753C71.4259 143.019 70.4464 142.181 69.1266 142.181Z" fill="#07192E"/>
<path d="M353.694 151.469C353.252 151.469 352.875 151.278 352.565 150.896L348.266 145.601C348.144 145.457 348.055 145.316 348 145.177C347.95 145.039 347.925 144.895 347.925 144.746C347.925 144.414 348.036 144.14 348.257 143.924C348.479 143.708 348.758 143.6 349.096 143.6C349.478 143.6 349.799 143.763 350.059 144.09L353.661 148.655L360.692 137.516C360.836 137.294 360.985 137.139 361.14 137.051C361.295 136.957 361.489 136.91 361.721 136.91C362.059 136.91 362.335 137.015 362.551 137.225C362.767 137.435 362.875 137.704 362.875 138.03C362.875 138.163 362.853 138.296 362.809 138.429C362.764 138.562 362.695 138.7 362.601 138.844L354.832 150.863C354.566 151.267 354.187 151.469 353.694 151.469Z" fill="#07192E"/>
<mask id="path-26-inside-4_570_12247" fill="white">
<path d="M16 168H377V216H16V168Z"/>
</mask>
<path d="M16 168H377V216H16V168Z" fill="white"/>
<path d="M377 216V215.5H16V216V216.5H377V216Z" fill="#F4F6F9" mask="url(#path-26-inside-4_570_12247)"/>
<path d="M34.5576 198.282C31.1211 198.282 29.0625 195.842 29.0625 192.015V191.999C29.0625 188.155 31.1709 185.74 34.5576 185.74C37.9609 185.74 40.0527 188.164 40.0527 191.999V192.015C40.0527 195.833 37.9775 198.282 34.5576 198.282ZM34.5576 196.904C37.0146 196.904 38.5254 194.979 38.5254 192.015V191.999C38.5254 189.01 37.0063 187.118 34.5576 187.118C32.1172 187.118 30.5898 189.01 30.5898 191.999V192.015C30.5898 194.979 32.0674 196.904 34.5576 196.904ZM42.6496 198V190.247H41.1638V189.052H42.6496V188.056C42.6496 186.271 43.5461 185.416 45.2478 185.416C45.5964 185.416 45.9118 185.441 46.2107 185.499V186.653C46.0363 186.62 45.7956 186.611 45.5383 186.611C44.509 186.611 44.094 187.118 44.094 188.097V189.052H46.1276V190.247H44.094V198H42.6496ZM48.4008 198V190.247H46.915V189.052H48.4008V188.056C48.4008 186.271 49.2973 185.416 50.9989 185.416C51.3476 185.416 51.663 185.441 51.9618 185.499V186.653C51.7875 186.62 51.5468 186.611 51.2895 186.611C50.2602 186.611 49.8451 187.118 49.8451 188.097V189.052H51.8788V190.247H49.8451V198H48.4008ZM54.318 187.325C53.7701 187.325 53.3219 186.877 53.3219 186.329C53.3219 185.781 53.7701 185.333 54.318 185.333C54.8658 185.333 55.3141 185.781 55.3141 186.329C55.3141 186.877 54.8658 187.325 54.318 187.325ZM53.5875 198V189.052H55.0319V198H53.5875ZM61.0072 198.158C58.5003 198.158 56.8983 196.34 56.8983 193.501V193.484C56.8983 190.704 58.492 188.894 60.9989 188.894C63.1737 188.894 64.4769 190.147 64.7425 191.741L64.7508 191.791H63.3148L63.3065 191.766C63.0824 190.886 62.2855 190.172 60.9989 190.172C59.3885 190.172 58.3758 191.467 58.3758 193.484V193.501C58.3758 195.56 59.4051 196.879 60.9989 196.879C62.2025 196.879 62.9661 196.348 63.2982 195.352L63.3148 195.302L64.7425 195.294L64.7259 195.385C64.3607 197.004 63.1571 198.158 61.0072 198.158ZM70.1036 198.158C67.5469 198.158 66.003 196.365 66.003 193.559V193.551C66.003 190.787 67.5801 188.894 70.0122 188.894C72.4444 188.894 73.9219 190.704 73.9219 193.376V193.941H67.4805C67.522 195.792 68.543 196.871 70.1368 196.871C71.3487 196.871 72.0957 196.298 72.3365 195.759L72.3697 195.684H73.814L73.7974 195.75C73.4903 196.962 72.212 198.158 70.1036 198.158ZM70.0039 190.181C68.6758 190.181 67.6631 191.085 67.5054 192.787H72.4527C72.3033 191.019 71.3238 190.181 70.0039 190.181Z" fill="#07192E"/>
<mask id="path-29-inside-5_570_12247" fill="white">
<path d="M16 216H377V264H16V216Z"/>
</mask>
<path d="M16 216H377V264H16V216Z" fill="white"/>
<path d="M377 264V263.5H16V264V264.5H377V264Z" fill="#F4F6F9" mask="url(#path-29-inside-5_570_12247)"/>
<path d="M31.9678 232.329C31.478 232.329 31.0713 231.922 31.0713 231.424C31.0713 230.934 31.478 230.527 31.9678 230.527C32.4575 230.527 32.8643 230.934 32.8643 231.424C32.8643 231.922 32.4575 232.329 31.9678 232.329ZM35.4873 232.329C34.9976 232.329 34.5908 231.922 34.5908 231.424C34.5908 230.934 34.9976 230.527 35.4873 230.527C35.9771 230.527 36.3838 230.934 36.3838 231.424C36.3838 231.922 35.9771 232.329 35.4873 232.329ZM28.5728 246L32.9888 234.022H34.4663L38.8823 246H37.3135L36.1099 242.572H31.3452L30.1416 246H28.5728ZM33.6611 235.956L31.7852 241.302H35.6699L33.7939 235.956H33.6611ZM40.3918 246V237.052H41.8361V238.38H41.969C42.3093 237.442 43.1477 236.894 44.3596 236.894C44.6335 236.894 44.9406 236.927 45.0817 236.952V238.355C44.7829 238.305 44.509 238.272 44.1936 238.272C42.8156 238.272 41.8361 239.144 41.8361 240.455V246H40.3918ZM49.8617 246.158C47.3051 246.158 45.7611 244.365 45.7611 241.559V241.551C45.7611 238.787 47.3383 236.894 49.7704 236.894C52.2026 236.894 53.6801 238.704 53.6801 241.376V241.941H47.2387C47.2802 243.792 48.3012 244.871 49.8949 244.871C51.1069 244.871 51.8539 244.298 52.0946 243.759L52.1278 243.684H53.5722L53.5556 243.75C53.2485 244.962 51.9701 246.158 49.8617 246.158ZM49.7621 238.181C48.434 238.181 47.4213 239.085 47.2636 240.787H52.2109C52.0614 239.019 51.0819 238.181 49.7621 238.181ZM55.5133 246V237.052H56.9576V238.396H57.0905C57.5387 237.45 58.3771 236.894 59.6969 236.894C61.7057 236.894 62.8263 238.081 62.8263 240.206V246H61.382V240.555C61.382 238.944 60.7179 238.172 59.2902 238.172C57.8624 238.172 56.9576 239.135 56.9576 240.704V246H55.5133ZM65.033 248.988V237.052H66.4774V238.479H66.6102C67.158 237.483 68.1541 236.894 69.3993 236.894C71.6654 236.894 73.1512 238.729 73.1512 241.518V241.534C73.1512 244.34 71.6737 246.158 69.3993 246.158C68.1707 246.158 67.0999 245.543 66.6102 244.589H66.4774V248.988H65.033ZM69.0672 244.879C70.7025 244.879 71.6737 243.618 71.6737 241.534V241.518C71.6737 239.434 70.7025 238.172 69.0672 238.172C67.4403 238.172 66.4442 239.451 66.4442 241.518V241.534C66.4442 243.601 67.4403 244.879 69.0672 244.879ZM75.001 246V237.052H76.4454V238.38H76.5782C76.9185 237.442 77.7569 236.894 78.9688 236.894C79.2427 236.894 79.5498 236.927 79.691 236.952V238.355C79.3921 238.305 79.1182 238.272 78.8028 238.272C77.4248 238.272 76.4454 239.144 76.4454 240.455V246H75.001ZM81.8313 235.325C81.2834 235.325 80.8352 234.877 80.8352 234.329C80.8352 233.781 81.2834 233.333 81.8313 233.333C82.3792 233.333 82.8274 233.781 82.8274 234.329C82.8274 234.877 82.3792 235.325 81.8313 235.325ZM81.1008 246V237.052H82.5452V246H81.1008ZM87.9311 246.158C85.9389 246.158 84.5693 245.195 84.4033 243.717H85.8808C86.1215 244.464 86.8354 244.954 87.9809 244.954C89.1845 244.954 90.0395 244.381 90.0395 243.568V243.551C90.0395 242.945 89.583 242.522 88.479 242.256L87.0927 241.924C85.416 241.526 84.6606 240.795 84.6606 239.509V239.5C84.6606 238.015 86.0883 236.894 87.9892 236.894C89.8652 236.894 91.1684 237.832 91.3676 239.293H89.9482C89.7573 238.587 89.06 238.098 87.9809 238.098C86.9184 238.098 86.1381 238.646 86.1381 239.434V239.451C86.1381 240.057 86.5864 240.438 87.6406 240.696L89.0185 241.028C90.7036 241.435 91.517 242.165 91.517 243.443V243.46C91.517 245.054 89.9648 246.158 87.9311 246.158ZM97.0358 249.154C94.8776 249.154 93.4997 248.183 93.2756 246.714L93.2922 246.706H94.7863L94.7946 246.714C94.9523 247.395 95.7492 247.876 97.0358 247.876C98.6379 247.876 99.5924 247.121 99.5924 245.801V243.991H99.4596C98.8952 244.979 97.8825 245.535 96.654 245.535C94.3381 245.535 92.902 243.742 92.902 241.235V241.219C92.902 238.712 94.3464 236.894 96.6872 236.894C97.9489 236.894 98.9284 237.517 99.4762 238.529H99.5758V237.052H101.02V245.875C101.02 247.876 99.4762 249.154 97.0358 249.154ZM96.9694 244.257C98.6296 244.257 99.6256 243.012 99.6256 241.235V241.219C99.6256 239.442 98.6213 238.172 96.9694 238.172C95.3092 238.172 94.3796 239.442 94.3796 241.219V241.235C94.3796 243.012 95.3092 244.257 96.9694 244.257ZM105.759 246.158C104.057 246.158 102.77 245.128 102.77 243.501V243.485C102.77 241.891 103.949 240.97 106.033 240.845L108.598 240.688V239.874C108.598 238.77 107.925 238.172 106.589 238.172C105.518 238.172 104.812 238.571 104.58 239.268L104.572 239.293H103.127L103.136 239.243C103.368 237.84 104.729 236.894 106.639 236.894C108.822 236.894 110.042 238.015 110.042 239.874V246H108.598V244.68H108.465C107.9 245.635 106.962 246.158 105.759 246.158ZM104.248 243.468C104.248 244.373 105.02 244.904 106.057 244.904C107.527 244.904 108.598 243.941 108.598 242.663V241.85L106.207 241.999C104.846 242.082 104.248 242.563 104.248 243.452V243.468ZM115.453 246.066C113.61 246.066 112.838 245.386 112.838 243.676V238.247H111.427V237.052H112.838V234.736H114.332V237.052H116.291V238.247H114.332V243.311C114.332 244.365 114.697 244.788 115.627 244.788C115.884 244.788 116.025 244.78 116.291 244.755V245.983C116.009 246.033 115.735 246.066 115.453 246.066ZM120.498 246.158C118.797 246.158 117.51 245.128 117.51 243.501V243.485C117.51 241.891 118.689 240.97 120.772 240.845L123.337 240.688V239.874C123.337 238.77 122.665 238.172 121.328 238.172C120.258 238.172 119.552 238.571 119.32 239.268L119.311 239.293H117.867L117.875 239.243C118.108 237.84 119.469 236.894 121.378 236.894C123.561 236.894 124.782 238.015 124.782 239.874V246H123.337V244.68H123.204C122.64 245.635 121.702 246.158 120.498 246.158ZM118.988 243.468C118.988 244.373 119.76 244.904 120.797 244.904C122.266 244.904 123.337 243.941 123.337 242.663V241.85L120.947 241.999C119.585 242.082 118.988 242.563 118.988 243.452V243.468ZM127.013 246V237.052H128.458V238.396H128.59C129.039 237.45 129.877 236.894 131.197 236.894C133.206 236.894 134.326 238.081 134.326 240.206V246H132.882V240.555C132.882 238.944 132.218 238.172 130.79 238.172C129.362 238.172 128.458 239.135 128.458 240.704V246H127.013ZM140.898 246V244.971L144.949 240.588C146.476 238.936 146.924 238.313 146.924 237.268V237.251C146.924 235.989 146.069 235.043 144.658 235.043C143.222 235.043 142.267 235.981 142.267 237.392L142.259 237.409L140.831 237.4L140.815 237.392C140.823 235.267 142.467 233.74 144.758 233.74C146.85 233.74 148.452 235.159 148.452 237.093V237.11C148.452 238.479 147.862 239.476 145.696 241.708L142.973 244.522V244.655H148.651V246H140.898ZM150.75 246V244.971L154.8 240.588C156.328 238.936 156.776 238.313 156.776 237.268V237.251C156.776 235.989 155.921 235.043 154.51 235.043C153.074 235.043 152.119 235.981 152.119 237.392L152.111 237.409L150.683 237.4L150.667 237.392C150.675 235.267 152.318 233.74 154.609 233.74C156.701 233.74 158.303 235.159 158.303 237.093V237.11C158.303 238.479 157.714 239.476 155.547 241.708L152.825 244.522V244.655H158.503V246H150.75Z" fill="#07192E"/>
</g>
<path d="M16 120H377H16ZM377 256C377 260.694 373.194 264.5 368.5 264.5H24.5C19.8056 264.5 16 260.694 16 256C16 260.142 19.5817 263.5 24 263.5H369C373.418 263.5 377 260.142 377 256ZM16 264V120V264ZM377 120V264V120Z" fill="#F4F6F9" mask="url(#path-20-inside-2_570_12247)"/>
<rect x="16" y="754" width="361" height="44" rx="22" fill="#07192E"/>
<mask id="mask0_570_12247" style="mask-type:luminance" maskUnits="userSpaceOnUse" x="146" y="765" width="22" height="22">
<path d="M157 786C162.753 786 167.417 781.523 167.417 776C167.417 770.477 162.753 766 157 766C151.247 766 146.583 770.477 146.583 776C146.583 781.523 151.247 786 157 786Z" fill="white" stroke="white" stroke-linejoin="round"/>
<path d="M157 772V780M152.833 776H161.167" stroke="black" stroke-linecap="round" stroke-linejoin="round"/>
</mask>
<g mask="url(#mask0_570_12247)">
<path d="M144.499 764H169.499V788H144.499V764Z" fill="white"/>
</g>
<path d="M182.142 781.5H179.892L183.989 769.864H186.591L190.693 781.5H188.443L185.335 772.25H185.244L182.142 781.5ZM182.216 776.938H188.352V778.631H182.216V776.938ZM195.168 781.653C194.482 781.653 193.869 781.477 193.327 781.125C192.785 780.773 192.357 780.261 192.043 779.591C191.729 778.92 191.571 778.106 191.571 777.148C191.571 776.178 191.73 775.36 192.049 774.693C192.371 774.023 192.804 773.517 193.35 773.176C193.895 772.831 194.503 772.659 195.174 772.659C195.685 772.659 196.105 772.746 196.435 772.92C196.765 773.091 197.026 773.297 197.219 773.54C197.412 773.778 197.562 774.004 197.668 774.216H197.753V769.864H199.816V781.5H197.793V780.125H197.668C197.562 780.337 197.408 780.562 197.208 780.801C197.007 781.036 196.742 781.237 196.412 781.403C196.083 781.57 195.668 781.653 195.168 781.653ZM195.742 779.966C196.177 779.966 196.549 779.848 196.855 779.614C197.162 779.375 197.395 779.044 197.554 778.619C197.713 778.195 197.793 777.701 197.793 777.136C197.793 776.572 197.713 776.081 197.554 775.665C197.399 775.248 197.168 774.924 196.861 774.693C196.558 774.462 196.185 774.347 195.742 774.347C195.283 774.347 194.901 774.466 194.594 774.705C194.287 774.943 194.056 775.273 193.901 775.693C193.746 776.114 193.668 776.595 193.668 777.136C193.668 777.682 193.746 778.169 193.901 778.597C194.06 779.021 194.293 779.356 194.6 779.602C194.91 779.845 195.291 779.966 195.742 779.966ZM205.306 781.653C204.62 781.653 204.007 781.477 203.465 781.125C202.924 780.773 202.495 780.261 202.181 779.591C201.867 778.92 201.709 778.106 201.709 777.148C201.709 776.178 201.869 775.36 202.187 774.693C202.509 774.023 202.942 773.517 203.488 773.176C204.033 772.831 204.641 772.659 205.312 772.659C205.823 772.659 206.244 772.746 206.573 772.92C206.903 773.091 207.164 773.297 207.357 773.54C207.55 773.778 207.7 774.004 207.806 774.216H207.891V769.864H209.954V781.5H207.931V780.125H207.806C207.7 780.337 207.547 780.562 207.346 780.801C207.145 781.036 206.88 781.237 206.55 781.403C206.221 781.57 205.806 781.653 205.306 781.653ZM205.88 779.966C206.316 779.966 206.687 779.848 206.994 779.614C207.3 779.375 207.533 779.044 207.692 778.619C207.852 778.195 207.931 777.701 207.931 777.136C207.931 776.572 207.852 776.081 207.692 775.665C207.537 775.248 207.306 774.924 206.999 774.693C206.696 774.462 206.323 774.347 205.88 774.347C205.422 774.347 205.039 774.466 204.732 774.705C204.425 774.943 204.194 775.273 204.039 775.693C203.884 776.114 203.806 776.595 203.806 777.136C203.806 777.682 203.884 778.169 204.039 778.597C204.198 779.021 204.431 779.356 204.738 779.602C205.049 779.845 205.429 779.966 205.88 779.966ZM218.291 776.386V781.5H216.234V772.773H218.2V774.256H218.303C218.503 773.767 218.823 773.379 219.263 773.091C219.706 772.803 220.253 772.659 220.905 772.659C221.507 772.659 222.032 772.788 222.479 773.045C222.929 773.303 223.278 773.676 223.524 774.165C223.774 774.653 223.897 775.246 223.893 775.943V781.5H221.837V776.261C221.837 775.678 221.685 775.222 221.382 774.892C221.083 774.562 220.668 774.398 220.138 774.398C219.778 774.398 219.458 774.477 219.178 774.636C218.901 774.792 218.683 775.017 218.524 775.312C218.369 775.608 218.291 775.966 218.291 776.386ZM229.908 781.67C229.033 781.67 228.277 781.489 227.641 781.125C227.008 780.758 226.522 780.239 226.181 779.568C225.84 778.894 225.669 778.1 225.669 777.188C225.669 776.29 225.84 775.502 226.181 774.824C226.525 774.142 227.006 773.612 227.624 773.233C228.241 772.85 228.967 772.659 229.8 772.659C230.338 772.659 230.845 772.746 231.323 772.92C231.804 773.091 232.228 773.356 232.595 773.716C232.967 774.076 233.258 774.534 233.47 775.091C233.683 775.644 233.789 776.303 233.789 777.068V777.699H226.635V776.312H231.817C231.813 775.919 231.728 775.568 231.561 775.261C231.395 774.951 231.162 774.706 230.862 774.528C230.567 774.35 230.222 774.261 229.828 774.261C229.408 774.261 229.039 774.364 228.72 774.568C228.402 774.769 228.154 775.034 227.976 775.364C227.802 775.689 227.713 776.047 227.709 776.438V777.648C227.709 778.155 227.802 778.591 227.987 778.955C228.173 779.314 228.433 779.591 228.766 779.784C229.099 779.973 229.489 780.068 229.936 780.068C230.236 780.068 230.506 780.027 230.749 779.943C230.991 779.856 231.202 779.729 231.38 779.562C231.558 779.396 231.692 779.189 231.783 778.943L233.703 779.159C233.582 779.667 233.351 780.11 233.01 780.489C232.673 780.864 232.241 781.155 231.715 781.364C231.188 781.568 230.586 781.67 229.908 781.67ZM237.343 781.5L234.877 772.773H236.974L238.508 778.909H238.587L240.155 772.773H242.229L243.798 778.875H243.883L245.394 772.773H247.496L245.025 781.5H242.883L241.246 775.602H241.127L239.491 781.5H237.343Z" fill="white"/>
<rect width="393" height="54" transform="translate(0 798)" fill="url(#paint0_linear_570_12247)"/>
</g>
</g>
<defs>
<filter id="filter0_f_570_12247" x="235.773" y="25.1816" width="7.45459" height="4.18164" filterUnits="userSpaceOnUse" color-interpolation-filters="sRGB">
<feFlood flood-opacity="0" result="BackgroundImageFix"/>
<feBlend mode="normal" in="SourceGraphic" in2="BackgroundImageFix" result="shape"/>
<feGaussianBlur stdDeviation="0.5" result="effect1_foregroundBlur_570_12247"/>
</filter>
<filter id="filter1_f_570_12247" x="235.773" y="29.5454" width="7.45459" height="5.27295" filterUnits="userSpaceOnUse" color-interpolation-filters="sRGB">
<feFlood flood-opacity="0" result="BackgroundImageFix"/>
<feBlend mode="normal" in="SourceGraphic" in2="BackgroundImageFix" result="shape"/>
<feGaussianBlur stdDeviation="0.5" result="effect1_foregroundBlur_570_12247"/>
</filter>
<linearGradient id="paint0_linear_570_12247" x1="196.5" y1="0" x2="196.5" y2="54" gradientUnits="userSpaceOnUse">
<stop stop-color="white" stop-opacity="0"/>
<stop offset="1" stop-color="white"/>
</linearGradient>
<clipPath id="clip0_570_12247">
<rect width="393" height="852" fill="white"/>
</clipPath>
<clipPath id="clip1_570_12247">
<rect width="393" height="748" fill="white" transform="translate(0 104)"/>
</clipPath>
<clipPath id="clip2_570_12247">
<path d="M16 128C16 123.582 19.5817 120 24 120H369C373.418 120 377 123.582 377 128V256C377 260.418 373.418 264 369 264H24C19.5817 264 16 260.418 16 256V128Z" fill="white"/>
</clipPath>
</defs>
</svg>
