<svg width="393" height="852" viewBox="0 0 393 852" fill="none" xmlns="http://www.w3.org/2000/svg">
<g clip-path="url(#clip0_609_1701)">
<rect width="393" height="852" fill="white"/>
<path d="M46.7666 23.7231C47.4085 23.7231 48.0173 23.8421 48.5928 24.0801C49.1683 24.3125 49.6774 24.6777 50.1201 25.1758C50.5684 25.6683 50.9198 26.3019 51.1743 27.0767C51.4289 27.8459 51.5562 28.7728 51.5562 29.8574V29.874C51.5562 31.2188 51.3625 32.3698 50.9751 33.3271C50.5877 34.2845 50.0316 35.0205 49.3066 35.5352C48.5872 36.0443 47.7267 36.2988 46.7251 36.2988C45.9891 36.2988 45.325 36.166 44.7329 35.9004C44.1463 35.6292 43.6593 35.2585 43.272 34.7881C42.8901 34.3122 42.6328 33.7699 42.5 33.1611L42.4834 33.0698H44.5835L44.6167 33.1528C44.7218 33.4295 44.8713 33.673 45.0649 33.8833C45.2642 34.0936 45.5021 34.2568 45.7788 34.373C46.061 34.4837 46.3765 34.5391 46.7251 34.5391C47.356 34.5391 47.8706 34.3537 48.269 33.9829C48.673 33.6066 48.9746 33.1058 49.1738 32.4805C49.3786 31.8496 49.4948 31.1523 49.5225 30.3887C49.528 30.3057 49.5308 30.2254 49.5308 30.1479C49.5308 30.0649 49.5308 29.9847 49.5308 29.9072L49.1572 27.9067C49.1572 27.453 49.0521 27.0407 48.8418 26.6699C48.6315 26.2992 48.3465 26.0059 47.9868 25.79C47.6326 25.5742 47.2314 25.4663 46.7832 25.4663C46.3516 25.4663 45.9559 25.5715 45.5962 25.7817C45.2365 25.992 44.9487 26.2798 44.7329 26.645C44.5171 27.0047 44.4092 27.4087 44.4092 27.8569V27.8735C44.4092 28.3384 44.5116 28.7507 44.7163 29.1104C44.9211 29.4645 45.2005 29.744 45.5547 29.9487C45.9089 30.1535 46.3128 30.2559 46.7666 30.2559C47.2204 30.2559 47.6271 30.1562 47.9868 29.957C48.3465 29.7578 48.6315 29.4811 48.8418 29.127C49.0521 28.7728 49.1572 28.3716 49.1572 27.9233V27.9067H49.6553V30.1147H49.3647C49.2209 30.4302 49.0078 30.7235 48.7256 30.9946C48.4434 31.2658 48.0947 31.4844 47.6797 31.6504C47.2702 31.8164 46.7887 31.8994 46.2354 31.8994C45.4717 31.8994 44.7965 31.7279 44.21 31.3848C43.6234 31.0417 43.1613 30.5713 42.8237 29.9736C42.4917 29.376 42.3257 28.7008 42.3257 27.9482V27.9316C42.3257 27.1182 42.5138 26.396 42.8901 25.7651C43.272 25.1287 43.7977 24.6307 44.4673 24.271C45.1424 23.9058 45.9089 23.7231 46.7666 23.7231ZM54.8247 34.3896C54.4484 34.3896 54.133 34.2651 53.8784 34.0161C53.6294 33.7616 53.5049 33.4517 53.5049 33.0864C53.5049 32.7157 53.6294 32.4058 53.8784 32.1567C54.133 31.9022 54.4484 31.7749 54.8247 31.7749C55.2065 31.7749 55.522 31.9022 55.771 32.1567C56.02 32.4058 56.1445 32.7157 56.1445 33.0864C56.1445 33.4517 56.02 33.7616 55.771 34.0161C55.522 34.2651 55.2065 34.3896 54.8247 34.3896ZM54.8247 28.2305C54.4484 28.2305 54.133 28.106 53.8784 27.8569C53.6294 27.6024 53.5049 27.2925 53.5049 26.9272C53.5049 26.5565 53.6294 26.2466 53.8784 25.9976C54.133 25.743 54.4484 25.6157 54.8247 25.6157C55.2065 25.6157 55.522 25.743 55.771 25.9976C56.02 26.2466 56.1445 26.5565 56.1445 26.9272C56.1445 27.2925 56.02 27.6024 55.771 27.8569C55.522 28.106 55.2065 28.2305 54.8247 28.2305ZM63.9038 36V33.7007H58.0435V31.9492C58.3589 31.4124 58.6743 30.8729 58.9897 30.3306C59.3107 29.7882 59.6344 29.2487 59.9609 28.7119C60.293 28.1696 60.6222 27.6356 60.9487 27.1099C61.2808 26.5786 61.61 26.0557 61.9365 25.541C62.2686 25.0208 62.6006 24.5145 62.9326 24.022H65.9458V31.9326H67.5645V33.7007H65.9458V36H63.9038ZM60.0356 31.9824H63.937V25.7319H63.8125C63.569 26.1082 63.3172 26.4956 63.0571 26.894C62.8026 27.2925 62.5452 27.6992 62.2852 28.1143C62.0251 28.5293 61.7677 28.9471 61.5132 29.3677C61.2586 29.7827 61.0068 30.2005 60.7578 30.6211C60.5088 31.0361 60.2681 31.4484 60.0356 31.8579V31.9824ZM72.02 36V26.1304H71.8706L68.8906 28.2305V26.2217L72.02 24.022H74.1533V36H72.02Z" fill="black"/>
<path d="M82.2507 30.5545C82.0199 30.5504 81.8275 30.4996 81.6736 30.4021C81.5237 30.3005 81.4124 30.1724 81.3395 30.0179C81.2666 29.8594 81.2382 29.6928 81.2544 29.518C81.2706 29.3391 81.3314 29.1745 81.4367 29.0241C81.542 28.8696 81.6979 28.7456 81.9044 28.6521L91.6243 24.1584C91.9038 24.0324 92.161 23.9815 92.3959 24.0059C92.6308 24.0263 92.8231 24.1096 92.973 24.2559C93.1228 24.3982 93.2119 24.5852 93.2403 24.8169C93.2727 25.0445 93.2241 25.3006 93.0945 25.5852L88.6294 35.3044C88.5322 35.5239 88.4046 35.6885 88.2467 35.7983C88.0887 35.9121 87.9207 35.9771 87.7425 35.9934C87.5643 36.0137 87.3962 35.9873 87.2382 35.9141C87.0803 35.8409 86.9527 35.7271 86.8555 35.5727C86.7583 35.4223 86.7097 35.2353 86.7097 35.0117L86.6976 30.6643C86.6976 30.5992 86.6652 30.5667 86.6004 30.5667L82.2507 30.5545Z" fill="black"/>
<rect x="135.5" y="12" width="122" height="36" rx="18" fill="black"/>
<circle cx="239.5" cy="30" r="6" fill="#0E101F"/>
<circle cx="239.5" cy="29.9999" r="4.90909" fill="#01031A"/>
<g filter="url(#filter0_f_609_1701)">
<ellipse cx="239.5" cy="27.2726" rx="2.72727" ry="1.09091" fill="white" fill-opacity="0.1"/>
</g>
<g filter="url(#filter1_f_609_1701)">
<ellipse cx="239.5" cy="32.1818" rx="2.72727" ry="1.63636" fill="white" fill-opacity="0.1"/>
</g>
<path d="M284.917 32H286.083C286.728 32 287.25 32.5037 287.25 33.125V35.375C287.25 35.9963 286.728 36.5 286.083 36.5H284.917C284.272 36.5 283.75 35.9963 283.75 35.375V33.125C283.75 32.5037 284.272 32 284.917 32Z" fill="black"/>
<path d="M289.917 30H291.083C291.728 30 292.25 30.5037 292.25 31.125V35.375C292.25 35.9963 291.728 36.5 291.083 36.5H289.917C289.272 36.5 288.75 35.9963 288.75 35.375V31.125C288.75 30.5037 289.272 30 289.917 30Z" fill="black"/>
<path opacity="0.2" d="M294.917 27H296.083C296.728 27 297.25 27.5037 297.25 28.125V35.375C297.25 35.9963 296.728 36.5 296.083 36.5H294.917C294.272 36.5 293.75 35.9963 293.75 35.375V28.125C293.75 27.5037 294.272 27 294.917 27Z" fill="black"/>
<path opacity="0.2" d="M299.917 24H301.083C301.728 24 302.25 24.5037 302.25 25.125V35.375C302.25 35.9963 301.728 36.5 301.083 36.5H299.917C299.272 36.5 298.75 35.9963 298.75 35.375V25.125C298.75 24.5037 299.272 24 299.917 24Z" fill="black"/>
<path d="M315.107 32.6929C312.774 32.6929 311.119 31.0449 311.119 28.6982C311.119 26.3516 312.774 24.7036 315.107 24.7036H321.066C323.393 24.7036 325.054 26.3516 325.054 28.6982C325.054 31.0449 323.393 32.6929 321.066 32.6929H319.128C318.799 32.3501 318.772 31.6052 319.023 31.3284H320.994C322.53 31.3284 323.617 30.2473 323.617 28.6982C323.617 27.1558 322.53 26.0681 320.994 26.0681H315.18C313.644 26.0681 312.556 27.1558 312.556 28.6982C312.556 30.2473 313.644 31.3284 315.18 31.3284H315.529C315.45 31.7371 315.483 32.2314 315.542 32.6929H315.107ZM320.434 35.8438C318.1 35.8438 316.446 34.1958 316.446 31.8491C316.446 29.5024 318.1 27.8545 320.434 27.8545H322.365C322.675 28.1973 322.701 28.9158 322.477 29.219H320.506C318.97 29.219 317.883 30.3 317.883 31.8491C317.883 33.3916 318.97 34.4792 320.506 34.4792H326.32C327.856 34.4792 328.944 33.3916 328.944 31.8491C328.944 30.3 327.856 29.219 326.32 29.219H325.971C326.05 28.8037 326.023 28.3159 325.958 27.8545H326.393C328.726 27.8545 330.381 29.5024 330.381 31.8491C330.381 34.1958 328.726 35.8438 326.393 35.8438H320.434Z" fill="black"/>
<g opacity="0.3">
<path d="M340.416 24.7777C339.75 25.7866 339.75 27.1911 339.75 30C339.75 32.8089 339.75 34.2134 340.416 35.2223C340.704 35.659 341.075 36.034 341.506 36.3259C342.503 37 343.89 37 346.665 37H357.533C360.308 37 361.695 37 362.692 36.3259C363.123 36.034 363.494 35.659 363.782 35.2223C364.448 34.2134 364.448 32.8089 364.448 30C364.448 27.1911 364.448 25.7866 363.782 24.7777C363.494 24.341 363.123 23.966 362.692 23.6741C361.695 23 360.308 23 357.533 23H346.665C343.89 23 342.503 23 341.506 23.6741C341.075 23.966 340.704 24.341 340.416 24.7777Z" fill="black"/>
<path d="M366.75 29.75C366.75 30.6231 366.232 31.4112 365.436 31.75V27.75C366.232 28.0888 366.75 28.8769 366.75 29.75Z" fill="black"/>
</g>
<path d="M339.75 30C339.75 27.1911 339.75 25.7866 340.424 24.7777C340.716 24.341 341.091 23.966 341.528 23.6741C342.537 23 343.941 23 346.75 23H349.629V37H346.75C343.941 37 342.537 37 341.528 36.3259C341.091 36.034 340.716 35.659 340.424 35.2223C339.75 34.2134 339.75 32.8089 339.75 30Z" fill="#F7CE45"/>
<path d="M349.46 34.1719C347.709 34.1719 346.555 33.2319 346.447 31.8462L346.442 31.7764H347.994L348 31.8354C348.069 32.437 348.623 32.8667 349.46 32.8667C350.288 32.8667 350.83 32.4048 350.83 31.7495V31.7388C350.83 30.9976 350.277 30.5894 349.337 30.5894H348.451V29.4346H349.315C350.132 29.4346 350.658 29.0049 350.658 28.3765V28.3657C350.658 27.7212 350.212 27.3237 349.45 27.3237C348.687 27.3237 348.177 27.7373 348.112 28.3818L348.107 28.4302H346.614L346.619 28.3657C346.732 26.98 347.822 26.0776 349.45 26.0776C351.115 26.0776 352.189 26.9155 352.189 28.1509V28.1616C352.189 29.1284 351.48 29.7568 350.572 29.9448V29.9771C351.727 30.0845 352.479 30.7505 352.479 31.8032V31.814C352.479 33.2212 351.271 34.1719 349.46 34.1719ZM353.424 34V32.9097L355.921 30.4443C357.012 29.3862 357.307 28.9941 357.307 28.4517V28.4355C357.307 27.7749 356.856 27.313 356.115 27.313C355.357 27.313 354.836 27.8179 354.836 28.5537V28.5806H353.338L353.333 28.5591C353.333 27.0713 354.493 26.0508 356.19 26.0508C357.785 26.0508 358.902 26.9639 358.902 28.3013V28.3174C358.902 29.1982 358.446 29.9287 357.033 31.2339L355.599 32.5713V32.6948H359.015V34H353.424Z" fill="black"/>
<mask id="path-16-inside-1_609_1701" fill="white">
<path d="M0 60H393V104H0V60Z"/>
</mask>
<path d="M0 60H393V104H0V60Z" fill="white"/>
<path d="M393 104V103.5H0V104V104.5H393V104Z" fill="#D2D2D2" mask="url(#path-16-inside-1_609_1701)"/>
<path d="M19.5645 82.9492C19.571 82.7474 19.61 82.5618 19.6816 82.3926C19.7598 82.2233 19.877 82.0605 20.0332 81.9043L27.5527 74.5508C27.8001 74.3034 28.1029 74.1797 28.4609 74.1797C28.7083 74.1797 28.9297 74.2383 29.125 74.3555C29.3268 74.4727 29.4863 74.6322 29.6035 74.834C29.7272 75.0293 29.7891 75.2474 29.7891 75.4883C29.7891 75.8529 29.6523 76.1719 29.3789 76.4453L22.6895 82.9492L29.3789 89.4531C29.6523 89.7331 29.7891 90.0521 29.7891 90.4102C29.7891 90.6576 29.7272 90.8789 29.6035 91.0742C29.4863 91.2695 29.3268 91.4258 29.125 91.543C28.9297 91.6602 28.7083 91.7188 28.4609 91.7188C28.1029 91.7188 27.8001 91.5951 27.5527 91.3477L20.0332 83.9941C19.8704 83.8379 19.75 83.6751 19.6719 83.5059C19.6003 83.3301 19.5645 83.1445 19.5645 82.9492Z" fill="#222222"/>
<path d="M136.879 89V74.9082H139.066L145.99 84.6152H146.146V74.9082H148.568V89H146.39L139.467 79.293H139.31V89H136.879ZM155.963 89.2148C152.789 89.2148 150.865 87.0859 150.865 83.6875V83.6777C150.865 80.3184 152.809 78.1211 155.846 78.1211C158.883 78.1211 160.758 80.25 160.758 83.4727V84.2734H153.297C153.326 86.1875 154.361 87.3008 156.012 87.3008C157.33 87.3008 158.082 86.6367 158.316 86.1484L158.346 86.0801H160.66L160.631 86.168C160.289 87.5449 158.863 89.2148 155.963 89.2148ZM155.875 80.0254C154.518 80.0254 153.502 80.9434 153.316 82.6426H158.385C158.219 80.8945 157.232 80.0254 155.875 80.0254ZM164.676 89L161.785 78.3262H164.227L166.004 86.3438H166.17L168.221 78.3262H170.535L172.606 86.3438H172.772L174.539 78.3262H176.951L174.061 89H171.512L169.432 81.2656H169.266L167.196 89H164.676ZM183.684 89V74.1953H186.116V89H183.684ZM193.393 89.2148C190.19 89.2148 188.257 87.125 188.257 83.668V83.6484C188.257 80.2207 190.22 78.1211 193.393 78.1211C196.577 78.1211 198.53 80.2109 198.53 83.6484V83.668C198.53 87.125 196.587 89.2148 193.393 89.2148ZM193.393 87.2422C195.083 87.2422 196.04 85.9238 196.04 83.6777V83.6582C196.04 81.4121 195.073 80.084 193.393 80.084C191.704 80.084 190.737 81.4121 190.737 83.6582V83.6777C190.737 85.9238 191.704 87.2422 193.393 87.2422ZM205.144 89.2148C201.931 89.2148 200.036 87.1348 200.036 83.6484V83.6289C200.036 80.1816 201.921 78.1211 205.134 78.1211C207.878 78.1211 209.519 79.6445 209.792 81.8516V81.8906H207.497L207.487 81.8613C207.263 80.8262 206.472 80.084 205.144 80.084C203.484 80.084 202.507 81.3926 202.507 83.6289V83.6484C202.507 85.9141 203.493 87.2422 205.144 87.2422C206.403 87.2422 207.175 86.666 207.478 85.543L207.497 85.5039L209.792 85.4941L209.773 85.5723C209.421 87.7598 207.849 89.2148 205.144 89.2148ZM214.609 89.1758C212.577 89.1758 211.103 87.9258 211.103 85.9824V85.9629C211.103 84.0586 212.558 82.9453 215.156 82.7891L217.9 82.623V81.7051C217.9 80.6406 217.206 80.0547 215.898 80.0547C214.784 80.0547 214.062 80.4551 213.818 81.1582L213.808 81.1973H211.513L211.523 81.1094C211.757 79.3125 213.476 78.1211 216.015 78.1211C218.759 78.1211 220.302 79.4492 220.302 81.7051V89H217.9V87.5352H217.734C217.148 88.5703 216.015 89.1758 214.609 89.1758ZM213.505 85.8652C213.505 86.7734 214.277 87.3105 215.351 87.3105C216.816 87.3105 217.9 86.3535 217.9 85.084V84.2246L215.497 84.3809C214.14 84.4688 213.505 84.9668 213.505 85.8457V85.8652ZM227.013 89.0488C224.562 89.0488 223.556 88.2285 223.556 86.168V80.2109H221.896V78.3262H223.556V75.709H226.027V78.3262H228.283V80.2109H226.027V85.5918C226.027 86.6562 226.447 87.1055 227.462 87.1055C227.804 87.1055 227.99 87.0957 228.283 87.0664V88.9414C227.931 89.0098 227.482 89.0488 227.013 89.0488ZM231.547 76.5391C230.746 76.5391 230.092 75.9043 230.092 75.1035C230.092 74.3125 230.746 73.668 231.547 73.668C232.338 73.668 232.992 74.3125 232.992 75.1035C232.992 75.9043 232.338 76.5391 231.547 76.5391ZM230.326 89V78.3262H232.758V89H230.326ZM239.947 89.2148C236.744 89.2148 234.81 87.125 234.81 83.668V83.6484C234.81 80.2207 236.773 78.1211 239.947 78.1211C243.131 78.1211 245.084 80.2109 245.084 83.6484V83.668C245.084 87.125 243.141 89.2148 239.947 89.2148ZM239.947 87.2422C241.637 87.2422 242.594 85.9238 242.594 83.6777V83.6582C242.594 81.4121 241.627 80.084 239.947 80.084C238.258 80.084 237.291 81.4121 237.291 83.6582V83.6777C237.291 85.9238 238.258 87.2422 239.947 87.2422ZM247.117 89V78.3262H249.549V79.957H249.715C250.223 78.8145 251.248 78.1211 252.791 78.1211C255.174 78.1211 256.473 79.5566 256.473 82.0957V89H254.041V82.6621C254.041 81.002 253.367 80.1621 251.893 80.1621C250.447 80.1621 249.549 81.1777 249.549 82.7793V89H247.117Z" fill="#07192E"/>
<path d="M341.955 88L346.205 76.022H347.981V78.2466H347.342L344.196 88H341.955ZM344.096 84.9038L344.652 83.252H350.147L350.704 84.9038H344.096ZM350.629 88L347.483 78.2466V76.022H348.612L352.87 88H350.629ZM357.485 88.1494C356.733 88.1494 356.077 87.9613 355.518 87.585C354.959 87.2031 354.528 86.6608 354.223 85.958C353.919 85.2552 353.767 84.4279 353.767 83.4761V83.4595C353.767 82.4966 353.916 81.6665 354.215 80.9692C354.519 80.2664 354.948 79.7269 355.501 79.3506C356.06 78.9688 356.722 78.7778 357.485 78.7778C357.9 78.7778 358.288 78.8442 358.647 78.9771C359.007 79.1043 359.323 79.2869 359.594 79.5249C359.87 79.7629 360.086 80.0451 360.241 80.3716H360.391V75.416H362.449V88H360.391V86.5806H360.241C360.075 86.9071 359.857 87.1893 359.585 87.4272C359.32 87.6597 359.01 87.8395 358.656 87.9668C358.302 88.0885 357.911 88.1494 357.485 88.1494ZM358.133 86.4062C358.603 86.4062 359.007 86.29 359.345 86.0576C359.688 85.8197 359.951 85.4821 360.133 85.0449C360.321 84.6022 360.416 84.0793 360.416 83.4761V83.4595C360.416 82.8507 360.321 82.3278 360.133 81.8906C359.951 81.4535 359.688 81.1159 359.345 80.8779C359.007 80.64 358.603 80.521 358.133 80.521C357.668 80.521 357.264 80.64 356.921 80.8779C356.583 81.1104 356.323 81.4479 356.141 81.8906C355.958 82.3278 355.867 82.8507 355.867 83.4595V83.4761C355.867 84.0848 355.958 84.6077 356.141 85.0449C356.323 85.4821 356.583 85.8197 356.921 86.0576C357.258 86.29 357.662 86.4062 358.133 86.4062ZM368.326 88.1494C367.574 88.1494 366.918 87.9613 366.359 87.585C365.8 87.2031 365.368 86.6608 365.064 85.958C364.76 85.2552 364.607 84.4279 364.607 83.4761V83.4595C364.607 82.4966 364.757 81.6665 365.056 80.9692C365.36 80.2664 365.789 79.7269 366.342 79.3506C366.901 78.9688 367.562 78.7778 368.326 78.7778C368.741 78.7778 369.129 78.8442 369.488 78.9771C369.848 79.1043 370.163 79.2869 370.435 79.5249C370.711 79.7629 370.927 80.0451 371.082 80.3716H371.231V75.416H373.29V88H371.231V86.5806H371.082C370.916 86.9071 370.697 87.1893 370.426 87.4272C370.161 87.6597 369.851 87.8395 369.497 87.9668C369.142 88.0885 368.752 88.1494 368.326 88.1494ZM368.974 86.4062C369.444 86.4062 369.848 86.29 370.186 86.0576C370.529 85.8197 370.792 85.4821 370.974 85.0449C371.162 84.6022 371.256 84.0793 371.256 83.4761V83.4595C371.256 82.8507 371.162 82.3278 370.974 81.8906C370.792 81.4535 370.529 81.1159 370.186 80.8779C369.848 80.64 369.444 80.521 368.974 80.521C368.509 80.521 368.105 80.64 367.762 80.8779C367.424 81.1104 367.164 81.4479 366.981 81.8906C366.799 82.3278 366.708 82.8507 366.708 83.4595V83.4761C366.708 84.0848 366.799 84.6077 366.981 85.0449C367.164 85.4821 367.424 85.8197 367.762 86.0576C368.099 86.29 368.503 86.4062 368.974 86.4062Z" fill="#D2D2D2"/>
<g clip-path="url(#clip1_609_1701)">
<rect width="393" height="748" transform="translate(0 104)" fill="#F4F6F9"/>
<g clip-path="url(#clip2_609_1701)">
<mask id="path-21-inside-2_609_1701" fill="white">
<path d="M16 128C16 123.582 19.5817 120 24 120H369C373.418 120 377 123.582 377 128V208C377 212.418 373.418 216 369 216H24C19.5817 216 16 212.418 16 208V128Z"/>
</mask>
<mask id="path-23-inside-3_609_1701" fill="white">
<path d="M16 120H377V168H16V120Z"/>
</mask>
<path d="M16 120H377V168H16V120Z" fill="white"/>
<path d="M377 168V167.5H16V168V168.5H377V168Z" fill="#F4F6F9" mask="url(#path-23-inside-3_609_1701)"/>
<path d="M29.5273 150V138.022H30.98L37.4795 147.344H37.6123V138.022H39.0898V150H37.6372L31.1377 140.711H31.0049V150H29.5273ZM44.0109 150.158C42.3093 150.158 41.0227 149.128 41.0227 147.501V147.485C41.0227 145.891 42.2014 144.97 44.2849 144.845L46.8498 144.688V143.874C46.8498 142.77 46.1774 142.172 44.841 142.172C43.7702 142.172 43.0647 142.571 42.8322 143.268L42.8239 143.293H41.3796L41.3879 143.243C41.6203 141.84 42.9816 140.894 44.8908 140.894C47.0739 140.894 48.2941 142.015 48.2941 143.874V150H46.8498V148.68H46.717C46.1525 149.635 45.2146 150.158 44.0109 150.158ZM42.5002 147.468C42.5002 148.373 43.2722 148.904 44.3098 148.904C45.779 148.904 46.8498 147.941 46.8498 146.663V145.85L44.4592 145.999C43.0979 146.082 42.5002 146.563 42.5002 147.452V147.468ZM50.5258 150V141.052H51.9701V142.413H52.1029C52.5014 141.45 53.3481 140.894 54.5185 140.894C55.7304 140.894 56.5771 141.533 56.9921 142.463H57.1249C57.6064 141.517 58.6274 140.894 59.8642 140.894C61.6903 140.894 62.7113 141.94 62.7113 143.816V150H61.267V144.148C61.267 142.828 60.6611 142.172 59.3993 142.172C58.1542 142.172 57.3324 143.11 57.3324 144.248V150H55.8881V143.924C55.8881 142.861 55.1576 142.172 54.0287 142.172C52.8583 142.172 51.9701 143.193 51.9701 144.455V150H50.5258ZM68.5621 150.158C66.0055 150.158 64.4615 148.365 64.4615 145.559V145.551C64.4615 142.787 66.0387 140.894 68.4708 140.894C70.903 140.894 72.3805 142.704 72.3805 145.376V145.941H65.9391C65.9806 147.792 67.0016 148.871 68.5953 148.871C69.8073 148.871 70.5543 148.298 70.795 147.759L70.8282 147.684H72.2726L72.256 147.75C71.9489 148.962 70.6705 150.158 68.5621 150.158ZM68.4625 142.181C67.1344 142.181 66.1217 143.085 65.964 144.787H70.9113C70.7618 143.019 69.7823 142.181 68.4625 142.181Z" fill="#07192E"/>
<path d="M142.989 150L138.573 138.022H140.142L143.661 148.066H143.794L147.313 138.022H148.882L144.466 150H142.989ZM151.997 150.158C151.432 150.158 150.923 150.05 150.469 149.834C150.021 149.618 149.664 149.311 149.399 148.913C149.139 148.514 149.008 148.044 149.008 147.501V147.485C149.008 146.954 149.136 146.5 149.39 146.124C149.645 145.742 150.016 145.443 150.503 145.227C150.99 145.011 151.579 144.884 152.271 144.845L155.558 144.646V145.8L152.445 145.999C151.764 146.038 151.266 146.179 150.951 146.422C150.641 146.666 150.486 147.009 150.486 147.452V147.468C150.486 147.922 150.658 148.276 151.001 148.531C151.344 148.78 151.775 148.904 152.296 148.904C152.788 148.904 153.225 148.807 153.607 148.614C153.989 148.415 154.288 148.146 154.504 147.809C154.725 147.471 154.836 147.089 154.836 146.663V143.874C154.836 143.321 154.667 142.9 154.329 142.612C153.997 142.319 153.496 142.172 152.827 142.172C152.29 142.172 151.85 142.269 151.507 142.463C151.164 142.651 150.934 142.919 150.818 143.268L150.81 143.293H149.365L149.374 143.243C149.451 142.773 149.645 142.363 149.955 142.015C150.27 141.66 150.677 141.387 151.175 141.193C151.673 140.994 152.24 140.894 152.877 140.894C153.607 140.894 154.224 141.013 154.728 141.251C155.237 141.489 155.621 141.832 155.882 142.28C156.147 142.723 156.28 143.254 156.28 143.874V150H154.836V148.68H154.703C154.515 148.996 154.285 149.264 154.014 149.485C153.748 149.707 153.447 149.875 153.109 149.992C152.771 150.102 152.401 150.158 151.997 150.158ZM158.573 150V137.499H160.017V150H158.573ZM165.356 150.158C164.681 150.158 164.114 150.03 163.654 149.776C163.195 149.516 162.849 149.139 162.617 148.647C162.39 148.149 162.276 147.549 162.276 146.846V141.052H163.721V146.497C163.721 147.299 163.876 147.897 164.186 148.29C164.501 148.683 165.016 148.879 165.73 148.879C166.122 148.879 166.468 148.821 166.767 148.705C167.071 148.589 167.326 148.423 167.531 148.207C167.736 147.986 167.888 147.72 167.987 147.41C168.092 147.095 168.145 146.741 168.145 146.348V141.052H169.589V150H168.145V148.664H168.012C167.868 148.979 167.672 149.25 167.423 149.477C167.174 149.698 166.875 149.867 166.526 149.983C166.183 150.1 165.793 150.158 165.356 150.158ZM175.509 150.158C174.657 150.158 173.924 149.97 173.31 149.593C172.701 149.217 172.231 148.686 171.899 148C171.572 147.308 171.409 146.494 171.409 145.559V145.551C171.409 144.627 171.572 143.816 171.899 143.119C172.231 142.421 172.698 141.876 173.301 141.483C173.905 141.09 174.61 140.894 175.418 140.894C176.232 140.894 176.929 141.082 177.51 141.458C178.097 141.835 178.545 142.361 178.855 143.036C179.17 143.705 179.328 144.486 179.328 145.376V145.941H172.156V144.787H178.589L177.875 145.841V145.269C177.875 144.566 177.77 143.987 177.56 143.534C177.349 143.08 177.059 142.742 176.688 142.521C176.317 142.294 175.891 142.181 175.41 142.181C174.928 142.181 174.497 142.3 174.115 142.538C173.739 142.77 173.44 143.116 173.218 143.575C172.997 144.035 172.886 144.599 172.886 145.269V145.841C172.886 146.478 172.994 147.023 173.21 147.477C173.426 147.925 173.733 148.271 174.132 148.514C174.53 148.752 175 148.871 175.543 148.871C175.947 148.871 176.298 148.816 176.597 148.705C176.896 148.594 177.142 148.453 177.336 148.282C177.529 148.11 177.665 147.936 177.742 147.759L177.776 147.684H179.22L179.203 147.75C179.126 148.055 178.988 148.351 178.788 148.639C178.595 148.921 178.343 149.178 178.033 149.411C177.723 149.638 177.355 149.82 176.929 149.958C176.508 150.091 176.035 150.158 175.509 150.158Z" fill="black"/>
<rect x="181" y="133.5" width="2" height="21" rx="1" fill="#007AFF"/>
<path d="M354.953 152.474C353.785 152.474 352.689 152.252 351.666 151.81C350.642 151.372 349.743 150.766 348.968 149.992C348.193 149.211 347.584 148.312 347.142 147.294C346.704 146.27 346.486 145.174 346.486 144.007C346.486 142.839 346.704 141.743 347.142 140.72C347.584 139.696 348.193 138.797 348.968 138.022C349.743 137.247 350.642 136.641 351.666 136.204C352.689 135.761 353.785 135.54 354.953 135.54C356.12 135.54 357.216 135.761 358.24 136.204C359.264 136.641 360.163 137.247 360.938 138.022C361.712 138.797 362.318 139.696 362.755 140.72C363.198 141.743 363.419 142.839 363.419 144.007C363.419 145.174 363.198 146.27 362.755 147.294C362.318 148.312 361.712 149.211 360.938 149.992C360.163 150.766 359.264 151.372 358.24 151.81C357.216 152.252 356.12 152.474 354.953 152.474ZM352.164 147.493C352.363 147.493 352.532 147.427 352.67 147.294L354.961 144.986L357.26 147.294C357.388 147.427 357.551 147.493 357.75 147.493C357.944 147.493 358.107 147.427 358.24 147.294C358.373 147.156 358.439 146.992 358.439 146.804C358.439 146.599 358.373 146.436 358.24 146.314L355.932 144.015L358.248 141.708C358.381 141.569 358.447 141.406 358.447 141.218C358.447 141.03 358.381 140.869 358.248 140.736C358.115 140.604 357.955 140.537 357.767 140.537C357.584 140.537 357.426 140.604 357.293 140.736L354.961 143.052L352.645 140.745C352.507 140.617 352.346 140.554 352.164 140.554C351.975 140.554 351.815 140.62 351.682 140.753C351.549 140.88 351.483 141.041 351.483 141.234C351.483 141.417 351.549 141.577 351.682 141.716L353.99 144.015L351.682 146.323C351.549 146.456 351.483 146.616 351.483 146.804C351.483 146.992 351.549 147.156 351.682 147.294C351.815 147.427 351.975 147.493 352.164 147.493Z" fill="#3C3C43" fill-opacity="0.6"/>
<mask id="path-29-inside-4_609_1701" fill="white">
<path d="M16 168H377V216H16V168Z"/>
</mask>
<path d="M16 168H377V216H16V168Z" fill="white"/>
<path d="M377 216V215.5H16V216V216.5H377V216Z" fill="#F4F6F9" mask="url(#path-29-inside-4_609_1701)"/>
<path d="M28.5728 198L32.9888 186.022H34.4663L38.8823 198H37.3135L36.1099 194.572H31.3452L30.1416 198H28.5728ZM33.6611 187.956L31.7852 193.302H35.6699L33.7939 187.956H33.6611ZM43.1975 198.158C40.9314 198.158 39.4455 196.323 39.4455 193.534V193.518C39.4455 190.712 40.9231 188.894 43.1975 188.894C44.426 188.894 45.4968 189.508 45.9865 190.463H46.1193V185.499H47.5637V198H46.1193V196.572H45.9865C45.4387 197.568 44.4426 198.158 43.1975 198.158ZM43.5295 196.879C45.1565 196.879 46.1525 195.601 46.1525 193.534V193.518C46.1525 191.451 45.1565 190.172 43.5295 190.172C41.8942 190.172 40.9231 191.434 40.9231 193.518V193.534C40.9231 195.618 41.8942 196.879 43.5295 196.879ZM53.2319 198.158C50.9657 198.158 49.4799 196.323 49.4799 193.534V193.518C49.4799 190.712 50.9574 188.894 53.2319 188.894C54.4604 188.894 55.5312 189.508 56.0209 190.463H56.1537V185.499H57.5981V198H56.1537V196.572H56.0209C55.4731 197.568 54.477 198.158 53.2319 198.158ZM53.5639 196.879C55.1908 196.879 56.1869 195.601 56.1869 193.534V193.518C56.1869 191.451 55.1908 190.172 53.5639 190.172C51.9286 190.172 50.9574 191.434 50.9574 193.518V193.534C50.9574 195.618 51.9286 196.879 53.5639 196.879ZM59.9625 198V189.052H61.4069V190.38H61.5397C61.88 189.442 62.7184 188.894 63.9303 188.894C64.2042 188.894 64.5114 188.927 64.6525 188.952V190.355C64.3536 190.305 64.0797 190.272 63.7643 190.272C62.3864 190.272 61.4069 191.144 61.4069 192.455V198H59.9625ZM69.4325 198.158C66.8758 198.158 65.3319 196.365 65.3319 193.559V193.551C65.3319 190.787 66.909 188.894 69.3411 188.894C71.7733 188.894 73.2508 190.704 73.2508 193.376V193.941H66.8094C66.8509 195.792 67.8719 196.871 69.4657 196.871C70.6776 196.871 71.4246 196.298 71.6654 195.759L71.6986 195.684H73.1429L73.1263 195.75C72.8192 196.962 71.5409 198.158 69.4325 198.158ZM69.3328 190.181C68.0047 190.181 66.992 191.085 66.8343 192.787H71.7816C71.6322 191.019 70.6527 190.181 69.3328 190.181ZM78.1553 198.158C76.1631 198.158 74.7935 197.195 74.6275 195.717H76.105C76.3457 196.464 77.0596 196.954 78.2051 196.954C79.4087 196.954 80.2637 196.381 80.2637 195.568V195.551C80.2637 194.945 79.8072 194.522 78.7032 194.256L77.3169 193.924C75.6402 193.526 74.8848 192.795 74.8848 191.509V191.5C74.8848 190.015 76.3125 188.894 78.2134 188.894C80.0894 188.894 81.3926 189.832 81.5918 191.293H80.1724C79.9815 190.587 79.2842 190.098 78.2051 190.098C77.1426 190.098 76.3623 190.646 76.3623 191.434V191.451C76.3623 192.057 76.8106 192.438 77.8648 192.696L79.2427 193.028C80.9278 193.435 81.7412 194.165 81.7412 195.443V195.46C81.7412 197.054 80.189 198.158 78.1553 198.158ZM86.4797 198.158C84.4875 198.158 83.1179 197.195 82.9519 195.717H84.4294C84.6702 196.464 85.384 196.954 86.5295 196.954C87.7332 196.954 88.5881 196.381 88.5881 195.568V195.551C88.5881 194.945 88.1316 194.522 87.0276 194.256L85.6414 193.924C83.9646 193.526 83.2092 192.795 83.2092 191.509V191.5C83.2092 190.015 84.637 188.894 86.5378 188.894C88.4138 188.894 89.717 189.832 89.9163 191.293H88.4968C88.3059 190.587 87.6086 190.098 86.5295 190.098C85.467 190.098 84.6868 190.646 84.6868 191.434V191.451C84.6868 192.057 85.135 192.438 86.1892 192.696L87.5671 193.028C89.2522 193.435 90.0657 194.165 90.0657 195.443V195.46C90.0657 197.054 88.5134 198.158 86.4797 198.158Z" fill="#07192E"/>
<path d="M144.35 198.282C143.265 198.282 142.327 198.028 141.536 197.519C140.745 197.009 140.133 196.287 139.702 195.352C139.276 194.417 139.062 193.307 139.062 192.023V192.007C139.062 190.717 139.276 189.605 139.702 188.67C140.133 187.735 140.742 187.013 141.528 186.503C142.319 185.994 143.257 185.74 144.342 185.74C145.183 185.74 145.947 185.906 146.633 186.238C147.325 186.564 147.895 187.021 148.343 187.607C148.791 188.188 149.073 188.861 149.189 189.625L149.181 189.641H147.679L147.67 189.625C147.538 189.11 147.313 188.667 146.998 188.296C146.683 187.92 146.298 187.63 145.844 187.425C145.396 187.22 144.895 187.118 144.342 187.118C143.578 187.118 142.914 187.317 142.35 187.715C141.791 188.114 141.359 188.678 141.055 189.409C140.75 190.139 140.598 191.005 140.598 192.007V192.023C140.598 193.02 140.75 193.883 141.055 194.613C141.359 195.344 141.791 195.908 142.35 196.307C142.914 196.705 143.581 196.904 144.35 196.904C144.909 196.904 145.415 196.816 145.869 196.639C146.323 196.456 146.705 196.199 147.015 195.867C147.325 195.529 147.54 195.131 147.662 194.671L147.679 194.655H149.189V194.671C149.057 195.402 148.769 196.038 148.326 196.581C147.883 197.117 147.322 197.535 146.641 197.834C145.966 198.133 145.202 198.282 144.35 198.282ZM151.167 198V185.499H152.611V190.396H152.744C152.971 189.921 153.297 189.553 153.723 189.292C154.149 189.027 154.692 188.894 155.35 188.894C156.02 188.894 156.587 189.024 157.052 189.284C157.517 189.539 157.871 189.912 158.114 190.405C158.358 190.897 158.48 191.498 158.48 192.206V198H157.035V192.555C157.035 191.747 156.864 191.149 156.521 190.762C156.183 190.369 155.657 190.172 154.944 190.172C154.468 190.172 154.055 190.275 153.707 190.479C153.358 190.684 153.087 190.975 152.893 191.351C152.705 191.727 152.611 192.178 152.611 192.704V198H151.167ZM164.342 198.158C163.495 198.158 162.762 197.972 162.142 197.602C161.528 197.225 161.052 196.691 160.714 196C160.382 195.308 160.216 194.486 160.216 193.534V193.518C160.216 192.56 160.382 191.736 160.714 191.044C161.052 190.352 161.528 189.821 162.142 189.45C162.762 189.079 163.495 188.894 164.342 188.894C165.194 188.894 165.927 189.079 166.541 189.45C167.156 189.821 167.629 190.352 167.961 191.044C168.298 191.736 168.467 192.56 168.467 193.518V193.534C168.467 194.486 168.298 195.308 167.961 196C167.629 196.691 167.156 197.225 166.541 197.602C165.927 197.972 165.194 198.158 164.342 198.158ZM164.342 196.879C164.906 196.879 165.385 196.747 165.778 196.481C166.171 196.215 166.469 195.833 166.674 195.335C166.884 194.837 166.99 194.237 166.99 193.534V193.518C166.99 192.809 166.884 192.206 166.674 191.708C166.469 191.21 166.171 190.831 165.778 190.571C165.385 190.305 164.906 190.172 164.342 190.172C163.777 190.172 163.299 190.305 162.906 190.571C162.513 190.831 162.211 191.21 162.001 191.708C161.796 192.206 161.694 192.809 161.694 193.518V193.534C161.694 194.237 161.796 194.837 162.001 195.335C162.211 195.833 162.513 196.215 162.906 196.481C163.299 196.747 163.777 196.879 164.342 196.879ZM173.956 198.158C173.109 198.158 172.376 197.972 171.756 197.602C171.142 197.225 170.666 196.691 170.328 196C169.996 195.308 169.83 194.486 169.83 193.534V193.518C169.83 192.56 169.996 191.736 170.328 191.044C170.666 190.352 171.142 189.821 171.756 189.45C172.376 189.079 173.109 188.894 173.956 188.894C174.808 188.894 175.541 189.079 176.155 189.45C176.77 189.821 177.243 190.352 177.575 191.044C177.912 191.736 178.081 192.56 178.081 193.518V193.534C178.081 194.486 177.912 195.308 177.575 196C177.243 196.691 176.77 197.225 176.155 197.602C175.541 197.972 174.808 198.158 173.956 198.158ZM173.956 196.879C174.52 196.879 174.999 196.747 175.392 196.481C175.785 196.215 176.083 195.833 176.288 195.335C176.498 194.837 176.604 194.237 176.604 193.534V193.518C176.604 192.809 176.498 192.206 176.288 191.708C176.083 191.21 175.785 190.831 175.392 190.571C174.999 190.305 174.52 190.172 173.956 190.172C173.391 190.172 172.912 190.305 172.52 190.571C172.127 190.831 171.825 191.21 171.615 191.708C171.41 192.206 171.308 192.809 171.308 193.518V193.534C171.308 194.237 171.41 194.837 171.615 195.335C171.825 195.833 172.127 196.215 172.52 196.481C172.912 196.747 173.391 196.879 173.956 196.879ZM182.964 198.158C182.3 198.158 181.713 198.058 181.204 197.859C180.695 197.654 180.285 197.369 179.975 197.004C179.671 196.639 179.491 196.21 179.436 195.717H180.913C181.035 196.088 181.273 196.387 181.627 196.614C181.981 196.841 182.443 196.954 183.013 196.954C183.417 196.954 183.772 196.896 184.076 196.78C184.386 196.658 184.629 196.495 184.806 196.29C184.983 196.08 185.072 195.839 185.072 195.568V195.551C185.072 195.247 184.95 194.99 184.707 194.779C184.463 194.563 184.065 194.389 183.511 194.256L182.125 193.924C181.566 193.792 181.107 193.62 180.747 193.41C180.388 193.194 180.122 192.931 179.95 192.621C179.779 192.306 179.693 191.935 179.693 191.509V191.5C179.693 191.002 179.837 190.557 180.125 190.164C180.418 189.771 180.816 189.461 181.32 189.234C181.824 189.007 182.391 188.894 183.022 188.894C183.647 188.894 184.2 188.994 184.682 189.193C185.169 189.387 185.559 189.663 185.852 190.023C186.151 190.383 186.334 190.806 186.4 191.293H184.981C184.887 190.939 184.671 190.651 184.333 190.43C183.996 190.208 183.556 190.098 183.013 190.098C182.659 190.098 182.344 190.156 182.067 190.272C181.79 190.383 181.572 190.538 181.411 190.737C181.251 190.936 181.171 191.168 181.171 191.434V191.451C181.171 191.65 181.223 191.827 181.328 191.982C181.433 192.137 181.597 192.272 181.818 192.389C182.039 192.505 182.324 192.607 182.673 192.696L184.051 193.028C184.892 193.233 185.517 193.526 185.927 193.908C186.342 194.29 186.55 194.801 186.55 195.443V195.46C186.55 195.991 186.392 196.462 186.076 196.871C185.761 197.275 185.332 197.59 184.79 197.817C184.253 198.044 183.644 198.158 182.964 198.158ZM192.013 198.158C191.161 198.158 190.428 197.97 189.813 197.593C189.205 197.217 188.734 196.686 188.402 196C188.076 195.308 187.912 194.494 187.912 193.559V193.551C187.912 192.627 188.076 191.816 188.402 191.119C188.734 190.421 189.202 189.876 189.805 189.483C190.408 189.09 191.114 188.894 191.922 188.894C192.735 188.894 193.433 189.082 194.014 189.458C194.6 189.835 195.048 190.361 195.358 191.036C195.674 191.705 195.831 192.486 195.831 193.376V193.941H188.66V192.787H195.093L194.379 193.841V193.269C194.379 192.566 194.274 191.987 194.063 191.534C193.853 191.08 193.563 190.742 193.192 190.521C192.821 190.294 192.395 190.181 191.913 190.181C191.432 190.181 191 190.3 190.619 190.538C190.242 190.77 189.943 191.116 189.722 191.575C189.501 192.035 189.39 192.599 189.39 193.269V193.841C189.39 194.478 189.498 195.023 189.714 195.477C189.93 195.925 190.237 196.271 190.635 196.514C191.034 196.752 191.504 196.871 192.046 196.871C192.45 196.871 192.802 196.816 193.1 196.705C193.399 196.594 193.646 196.453 193.839 196.282C194.033 196.11 194.169 195.936 194.246 195.759L194.279 195.684H195.724L195.707 195.75C195.629 196.055 195.491 196.351 195.292 196.639C195.098 196.921 194.846 197.178 194.537 197.411C194.227 197.638 193.859 197.82 193.433 197.958C193.012 198.091 192.539 198.158 192.013 198.158ZM202.077 198V185.499H203.521V198H202.077ZM209.541 198.158C208.694 198.158 207.961 197.972 207.341 197.602C206.727 197.225 206.251 196.691 205.914 196C205.581 195.308 205.415 194.486 205.415 193.534V193.518C205.415 192.56 205.581 191.736 205.914 191.044C206.251 190.352 206.727 189.821 207.341 189.45C207.961 189.079 208.694 188.894 209.541 188.894C210.393 188.894 211.126 189.079 211.741 189.45C212.355 189.821 212.828 190.352 213.16 191.044C213.498 191.736 213.666 192.56 213.666 193.518V193.534C213.666 194.486 213.498 195.308 213.16 196C212.828 196.691 212.355 197.225 211.741 197.602C211.126 197.972 210.393 198.158 209.541 198.158ZM209.541 196.879C210.105 196.879 210.584 196.747 210.977 196.481C211.37 196.215 211.669 195.833 211.873 195.335C212.084 194.837 212.189 194.237 212.189 193.534V193.518C212.189 192.809 212.084 192.206 211.873 191.708C211.669 191.21 211.37 190.831 210.977 190.571C210.584 190.305 210.105 190.172 209.541 190.172C208.977 190.172 208.498 190.305 208.105 190.571C207.712 190.831 207.41 191.21 207.2 191.708C206.995 192.206 206.893 192.809 206.893 193.518V193.534C206.893 194.237 206.995 194.837 207.2 195.335C207.41 195.833 207.712 196.215 208.105 196.481C208.498 196.747 208.977 196.879 209.541 196.879ZM219.138 198.158C218.303 198.158 217.578 197.967 216.963 197.585C216.349 197.203 215.873 196.664 215.536 195.966C215.198 195.269 215.029 194.447 215.029 193.501V193.484C215.029 192.555 215.195 191.747 215.527 191.061C215.865 190.374 216.341 189.843 216.955 189.467C217.569 189.085 218.294 188.894 219.13 188.894C219.855 188.894 220.48 189.021 221.006 189.276C221.532 189.53 221.952 189.874 222.268 190.305C222.583 190.731 222.785 191.21 222.874 191.741L222.882 191.791H221.446L221.438 191.766C221.327 191.323 221.075 190.947 220.682 190.637C220.289 190.327 219.772 190.172 219.13 190.172C218.593 190.172 218.128 190.308 217.735 190.579C217.343 190.85 217.038 191.235 216.822 191.733C216.612 192.225 216.507 192.809 216.507 193.484V193.501C216.507 194.187 216.615 194.785 216.831 195.294C217.047 195.798 217.351 196.188 217.744 196.464C218.137 196.741 218.599 196.879 219.13 196.879C219.733 196.879 220.226 196.749 220.608 196.489C220.989 196.229 221.263 195.85 221.429 195.352L221.446 195.302L222.874 195.294L222.857 195.385C222.735 195.922 222.519 196.401 222.21 196.821C221.9 197.236 221.49 197.563 220.981 197.801C220.472 198.039 219.858 198.158 219.138 198.158ZM227.017 198.158C226.453 198.158 225.944 198.05 225.49 197.834C225.042 197.618 224.685 197.311 224.419 196.913C224.159 196.514 224.029 196.044 224.029 195.501V195.485C224.029 194.954 224.156 194.5 224.411 194.124C224.665 193.742 225.036 193.443 225.523 193.227C226.01 193.011 226.6 192.884 227.291 192.845L230.578 192.646V193.8L227.466 193.999C226.785 194.038 226.287 194.179 225.971 194.422C225.662 194.666 225.507 195.009 225.507 195.452V195.468C225.507 195.922 225.678 196.276 226.021 196.531C226.364 196.78 226.796 196.904 227.316 196.904C227.809 196.904 228.246 196.807 228.628 196.614C229.01 196.415 229.308 196.146 229.524 195.809C229.746 195.471 229.856 195.089 229.856 194.663V191.874C229.856 191.321 229.687 190.9 229.35 190.612C229.018 190.319 228.517 190.172 227.847 190.172C227.311 190.172 226.871 190.269 226.528 190.463C226.185 190.651 225.955 190.919 225.839 191.268L225.83 191.293H224.386L224.394 191.243C224.472 190.773 224.665 190.363 224.975 190.015C225.291 189.66 225.698 189.387 226.196 189.193C226.694 188.994 227.261 188.894 227.897 188.894C228.628 188.894 229.245 189.013 229.748 189.251C230.257 189.489 230.642 189.832 230.902 190.28C231.168 190.723 231.301 191.254 231.301 191.874V198H229.856V196.68H229.723C229.535 196.996 229.306 197.264 229.034 197.485C228.769 197.707 228.467 197.875 228.13 197.992C227.792 198.102 227.421 198.158 227.017 198.158ZM236.689 198.066C235.771 198.066 235.104 197.881 234.689 197.51C234.279 197.139 234.075 196.528 234.075 195.676V190.247H232.664V189.052H234.075V186.736H235.569V189.052H237.528V190.247H235.569V195.311C235.569 195.836 235.668 196.215 235.868 196.448C236.067 196.675 236.399 196.788 236.864 196.788C236.991 196.788 237.099 196.785 237.187 196.78C237.282 196.774 237.395 196.766 237.528 196.755V197.983C237.389 198.006 237.251 198.025 237.113 198.042C236.974 198.058 236.833 198.066 236.689 198.066ZM239.289 198V189.052H240.734V198H239.289ZM240.02 187.325C239.749 187.325 239.513 187.228 239.314 187.035C239.12 186.835 239.024 186.6 239.024 186.329C239.024 186.052 239.12 185.817 239.314 185.624C239.513 185.43 239.749 185.333 240.02 185.333C240.296 185.333 240.532 185.43 240.725 185.624C240.919 185.817 241.016 186.052 241.016 186.329C241.016 186.6 240.919 186.835 240.725 187.035C240.532 187.228 240.296 187.325 240.02 187.325ZM246.703 198.158C245.857 198.158 245.124 197.972 244.504 197.602C243.889 197.225 243.414 196.691 243.076 196C242.744 195.308 242.578 194.486 242.578 193.534V193.518C242.578 192.56 242.744 191.736 243.076 191.044C243.414 190.352 243.889 189.821 244.504 189.45C245.124 189.079 245.857 188.894 246.703 188.894C247.556 188.894 248.289 189.079 248.903 189.45C249.517 189.821 249.991 190.352 250.323 191.044C250.66 191.736 250.829 192.56 250.829 193.518V193.534C250.829 194.486 250.66 195.308 250.323 196C249.991 196.691 249.517 197.225 248.903 197.602C248.289 197.972 247.556 198.158 246.703 198.158ZM246.703 196.879C247.268 196.879 247.747 196.747 248.139 196.481C248.532 196.215 248.831 195.833 249.036 195.335C249.246 194.837 249.351 194.237 249.351 193.534V193.518C249.351 192.809 249.246 192.206 249.036 191.708C248.831 191.21 248.532 190.831 248.139 190.571C247.747 190.305 247.268 190.172 246.703 190.172C246.139 190.172 245.66 190.305 245.267 190.571C244.875 190.831 244.573 191.21 244.363 191.708C244.158 192.206 244.056 192.809 244.056 193.518V193.534C244.056 194.237 244.158 194.837 244.363 195.335C244.573 195.833 244.875 196.215 245.267 196.481C245.66 196.747 246.139 196.879 246.703 196.879ZM252.64 198V189.052H254.084V190.396H254.217C254.444 189.921 254.771 189.553 255.197 189.292C255.623 189.027 256.165 188.894 256.824 188.894C257.831 188.894 258.603 189.182 259.14 189.757C259.682 190.327 259.953 191.144 259.953 192.206V198H258.509V192.555C258.509 191.747 258.337 191.149 257.994 190.762C257.657 190.369 257.131 190.172 256.417 190.172C255.941 190.172 255.529 190.275 255.18 190.479C254.832 190.684 254.56 190.975 254.367 191.351C254.179 191.727 254.084 192.178 254.084 192.704V198H252.64Z" fill="black"/>
<path d="M279.833 182.833V184.55C283.308 184.934 286.066 187.692 286.449 191.167H288.166V192.833H286.449C286.066 196.308 283.308 199.066 279.833 199.45V201.167H278.166V199.45C274.691 199.066 271.933 196.308 271.55 192.833H269.833V191.167H271.55C271.934 187.692 274.692 184.934 278.166 184.55V182.833H279.833ZM279 186.167C275.775 186.167 273.166 188.775 273.166 192C273.166 195.225 275.775 197.833 279 197.833C282.225 197.833 284.833 195.225 284.833 192C284.833 188.776 282.225 186.167 279 186.167Z" fill="#007AFF"/>
</g>
<path d="M16 120H377H16ZM377 208C377 212.694 373.194 216.5 368.5 216.5H24.5C19.8056 216.5 16 212.694 16 208C16 212.142 19.5817 215.5 24 215.5H369C373.418 215.5 377 212.142 377 208ZM16 216V120V216ZM377 120V216V120Z" fill="#F4F6F9" mask="url(#path-21-inside-2_609_1701)"/>
<rect width="393" height="54" transform="translate(0 798)" fill="url(#paint0_linear_609_1701)"/>
</g>
</g>
<defs>
<filter id="filter0_f_609_1701" x="235.773" y="25.1816" width="7.45459" height="4.18164" filterUnits="userSpaceOnUse" color-interpolation-filters="sRGB">
<feFlood flood-opacity="0" result="BackgroundImageFix"/>
<feBlend mode="normal" in="SourceGraphic" in2="BackgroundImageFix" result="shape"/>
<feGaussianBlur stdDeviation="0.5" result="effect1_foregroundBlur_609_1701"/>
</filter>
<filter id="filter1_f_609_1701" x="235.773" y="29.5454" width="7.45459" height="5.27295" filterUnits="userSpaceOnUse" color-interpolation-filters="sRGB">
<feFlood flood-opacity="0" result="BackgroundImageFix"/>
<feBlend mode="normal" in="SourceGraphic" in2="BackgroundImageFix" result="shape"/>
<feGaussianBlur stdDeviation="0.5" result="effect1_foregroundBlur_609_1701"/>
</filter>
<linearGradient id="paint0_linear_609_1701" x1="196.5" y1="0" x2="196.5" y2="54" gradientUnits="userSpaceOnUse">
<stop stop-color="white" stop-opacity="0"/>
<stop offset="1" stop-color="white"/>
</linearGradient>
<clipPath id="clip0_609_1701">
<rect width="393" height="852" fill="white"/>
</clipPath>
<clipPath id="clip1_609_1701">
<rect width="393" height="748" fill="white" transform="translate(0 104)"/>
</clipPath>
<clipPath id="clip2_609_1701">
<path d="M16 128C16 123.582 19.5817 120 24 120H369C373.418 120 377 123.582 377 128V208C377 212.418 373.418 216 369 216H24C19.5817 216 16 212.418 16 208V128Z" fill="white"/>
</clipPath>
</defs>
</svg>
