<svg width="393" height="852" viewBox="0 0 393 852" fill="none" xmlns="http://www.w3.org/2000/svg">
<g clip-path="url(#clip0_1_638)">
<rect width="393" height="852" fill="white"/>
<path d="M46.7666 23.7231C47.4085 23.7231 48.0173 23.8421 48.5928 24.0801C49.1683 24.3125 49.6774 24.6777 50.1201 25.1758C50.5684 25.6683 50.9198 26.3019 51.1743 27.0767C51.4289 27.8459 51.5562 28.7728 51.5562 29.8574V29.874C51.5562 31.2188 51.3625 32.3698 50.9751 33.3271C50.5877 34.2845 50.0316 35.0205 49.3066 35.5352C48.5872 36.0443 47.7267 36.2988 46.7251 36.2988C45.9891 36.2988 45.325 36.166 44.7329 35.9004C44.1463 35.6292 43.6593 35.2585 43.272 34.7881C42.8901 34.3122 42.6328 33.7699 42.5 33.1611L42.4834 33.0698H44.5835L44.6167 33.1528C44.7218 33.4295 44.8713 33.673 45.0649 33.8833C45.2642 34.0936 45.5021 34.2568 45.7788 34.373C46.061 34.4837 46.3765 34.5391 46.7251 34.5391C47.356 34.5391 47.8706 34.3537 48.269 33.9829C48.673 33.6066 48.9746 33.1058 49.1738 32.4805C49.3786 31.8496 49.4948 31.1523 49.5225 30.3887C49.528 30.3057 49.5308 30.2254 49.5308 30.1479C49.5308 30.0649 49.5308 29.9847 49.5308 29.9072L49.1572 27.9067C49.1572 27.453 49.0521 27.0407 48.8418 26.6699C48.6315 26.2992 48.3465 26.0059 47.9868 25.79C47.6326 25.5742 47.2314 25.4663 46.7832 25.4663C46.3516 25.4663 45.9559 25.5715 45.5962 25.7817C45.2365 25.992 44.9487 26.2798 44.7329 26.645C44.5171 27.0047 44.4092 27.4087 44.4092 27.8569V27.8735C44.4092 28.3384 44.5116 28.7507 44.7163 29.1104C44.9211 29.4645 45.2005 29.744 45.5547 29.9487C45.9089 30.1535 46.3128 30.2559 46.7666 30.2559C47.2204 30.2559 47.6271 30.1562 47.9868 29.957C48.3465 29.7578 48.6315 29.4811 48.8418 29.127C49.0521 28.7728 49.1572 28.3716 49.1572 27.9233V27.9067H49.6553V30.1147H49.3647C49.2209 30.4302 49.0078 30.7235 48.7256 30.9946C48.4434 31.2658 48.0947 31.4844 47.6797 31.6504C47.2702 31.8164 46.7887 31.8994 46.2354 31.8994C45.4717 31.8994 44.7965 31.7279 44.21 31.3848C43.6234 31.0417 43.1613 30.5713 42.8237 29.9736C42.4917 29.376 42.3257 28.7008 42.3257 27.9482V27.9316C42.3257 27.1182 42.5138 26.396 42.8901 25.7651C43.272 25.1287 43.7977 24.6307 44.4673 24.271C45.1424 23.9058 45.9089 23.7231 46.7666 23.7231ZM54.8247 34.3896C54.4484 34.3896 54.133 34.2651 53.8784 34.0161C53.6294 33.7616 53.5049 33.4517 53.5049 33.0864C53.5049 32.7157 53.6294 32.4058 53.8784 32.1567C54.133 31.9022 54.4484 31.7749 54.8247 31.7749C55.2065 31.7749 55.522 31.9022 55.771 32.1567C56.02 32.4058 56.1445 32.7157 56.1445 33.0864C56.1445 33.4517 56.02 33.7616 55.771 34.0161C55.522 34.2651 55.2065 34.3896 54.8247 34.3896ZM54.8247 28.2305C54.4484 28.2305 54.133 28.106 53.8784 27.8569C53.6294 27.6024 53.5049 27.2925 53.5049 26.9272C53.5049 26.5565 53.6294 26.2466 53.8784 25.9976C54.133 25.743 54.4484 25.6157 54.8247 25.6157C55.2065 25.6157 55.522 25.743 55.771 25.9976C56.02 26.2466 56.1445 26.5565 56.1445 26.9272C56.1445 27.2925 56.02 27.6024 55.771 27.8569C55.522 28.106 55.2065 28.2305 54.8247 28.2305ZM63.9038 36V33.7007H58.0435V31.9492C58.3589 31.4124 58.6743 30.8729 58.9897 30.3306C59.3107 29.7882 59.6344 29.2487 59.9609 28.7119C60.293 28.1696 60.6222 27.6356 60.9487 27.1099C61.2808 26.5786 61.61 26.0557 61.9365 25.541C62.2686 25.0208 62.6006 24.5145 62.9326 24.022H65.9458V31.9326H67.5645V33.7007H65.9458V36H63.9038ZM60.0356 31.9824H63.937V25.7319H63.8125C63.569 26.1082 63.3172 26.4956 63.0571 26.894C62.8026 27.2925 62.5452 27.6992 62.2852 28.1143C62.0251 28.5293 61.7677 28.9471 61.5132 29.3677C61.2586 29.7827 61.0068 30.2005 60.7578 30.6211C60.5088 31.0361 60.2681 31.4484 60.0356 31.8579V31.9824ZM72.02 36V26.1304H71.8706L68.8906 28.2305V26.2217L72.02 24.022H74.1533V36H72.02Z" fill="black"/>
<path d="M82.2507 30.5545C82.0199 30.5504 81.8275 30.4996 81.6736 30.4021C81.5237 30.3005 81.4124 30.1724 81.3395 30.0179C81.2666 29.8594 81.2382 29.6928 81.2544 29.518C81.2706 29.3391 81.3314 29.1745 81.4367 29.0241C81.542 28.8696 81.6979 28.7456 81.9044 28.6521L91.6243 24.1584C91.9038 24.0324 92.161 23.9815 92.3959 24.0059C92.6308 24.0263 92.8231 24.1096 92.973 24.2559C93.1228 24.3982 93.2119 24.5852 93.2403 24.8169C93.2727 25.0445 93.2241 25.3006 93.0945 25.5852L88.6294 35.3044C88.5322 35.5239 88.4046 35.6885 88.2467 35.7983C88.0887 35.9121 87.9207 35.9771 87.7425 35.9934C87.5643 36.0137 87.3962 35.9873 87.2382 35.9141C87.0803 35.8409 86.9527 35.7271 86.8555 35.5727C86.7583 35.4223 86.7097 35.2353 86.7097 35.0117L86.6976 30.6643C86.6976 30.5992 86.6652 30.5667 86.6004 30.5667L82.2507 30.5545Z" fill="black"/>
<rect x="135.5" y="12" width="122" height="36" rx="18" fill="black"/>
<circle cx="239.5" cy="30" r="6" fill="#0E101F"/>
<circle cx="239.5" cy="30" r="4.90909" fill="#01031A"/>
<g filter="url(#filter0_f_1_638)">
<ellipse cx="239.5" cy="27.2727" rx="2.72727" ry="1.09091" fill="white" fill-opacity="0.1"/>
</g>
<g filter="url(#filter1_f_1_638)">
<ellipse cx="239.5" cy="32.1818" rx="2.72727" ry="1.63636" fill="white" fill-opacity="0.1"/>
</g>
<path d="M284.917 32H286.083C286.728 32 287.25 32.5037 287.25 33.125V35.375C287.25 35.9963 286.728 36.5 286.083 36.5H284.917C284.272 36.5 283.75 35.9963 283.75 35.375V33.125C283.75 32.5037 284.272 32 284.917 32Z" fill="black"/>
<path d="M289.917 30H291.083C291.728 30 292.25 30.5037 292.25 31.125V35.375C292.25 35.9963 291.728 36.5 291.083 36.5H289.917C289.272 36.5 288.75 35.9963 288.75 35.375V31.125C288.75 30.5037 289.272 30 289.917 30Z" fill="black"/>
<path opacity="0.2" d="M294.917 27H296.083C296.728 27 297.25 27.5037 297.25 28.125V35.375C297.25 35.9963 296.728 36.5 296.083 36.5H294.917C294.272 36.5 293.75 35.9963 293.75 35.375V28.125C293.75 27.5037 294.272 27 294.917 27Z" fill="black"/>
<path opacity="0.2" d="M299.917 24H301.083C301.728 24 302.25 24.5037 302.25 25.125V35.375C302.25 35.9963 301.728 36.5 301.083 36.5H299.917C299.272 36.5 298.75 35.9963 298.75 35.375V25.125C298.75 24.5037 299.272 24 299.917 24Z" fill="black"/>
<path d="M315.107 32.6929C312.774 32.6929 311.119 31.0449 311.119 28.6982C311.119 26.3516 312.774 24.7036 315.107 24.7036H321.066C323.393 24.7036 325.054 26.3516 325.054 28.6982C325.054 31.0449 323.393 32.6929 321.066 32.6929H319.128C318.799 32.3501 318.772 31.6052 319.023 31.3284H320.994C322.53 31.3284 323.617 30.2473 323.617 28.6982C323.617 27.1558 322.53 26.0681 320.994 26.0681H315.18C313.644 26.0681 312.556 27.1558 312.556 28.6982C312.556 30.2473 313.644 31.3284 315.18 31.3284H315.529C315.45 31.7371 315.483 32.2314 315.542 32.6929H315.107ZM320.434 35.8438C318.1 35.8438 316.446 34.1958 316.446 31.8491C316.446 29.5024 318.1 27.8545 320.434 27.8545H322.365C322.675 28.1973 322.701 28.9158 322.477 29.219H320.506C318.97 29.219 317.883 30.3 317.883 31.8491C317.883 33.3916 318.97 34.4792 320.506 34.4792H326.32C327.856 34.4792 328.944 33.3916 328.944 31.8491C328.944 30.3 327.856 29.219 326.32 29.219H325.971C326.05 28.8037 326.023 28.3159 325.958 27.8545H326.393C328.726 27.8545 330.381 29.5024 330.381 31.8491C330.381 34.1958 328.726 35.8438 326.393 35.8438H320.434Z" fill="black"/>
<g opacity="0.3">
<path d="M340.416 24.7777C339.75 25.7866 339.75 27.1911 339.75 30C339.75 32.8089 339.75 34.2134 340.416 35.2223C340.704 35.659 341.075 36.034 341.506 36.3259C342.503 37 343.89 37 346.665 37H357.533C360.308 37 361.695 37 362.692 36.3259C363.123 36.034 363.494 35.659 363.782 35.2223C364.448 34.2134 364.448 32.8089 364.448 30C364.448 27.1911 364.448 25.7866 363.782 24.7777C363.494 24.341 363.123 23.966 362.692 23.6741C361.695 23 360.308 23 357.533 23H346.665C343.89 23 342.503 23 341.506 23.6741C341.075 23.966 340.704 24.341 340.416 24.7777Z" fill="black"/>
<path d="M366.75 29.75C366.75 30.6231 366.232 31.4112 365.436 31.75V27.75C366.232 28.0888 366.75 28.8769 366.75 29.75Z" fill="black"/>
</g>
<path d="M339.75 30C339.75 27.1911 339.75 25.7866 340.424 24.7777C340.716 24.341 341.091 23.966 341.528 23.6741C342.537 23 343.941 23 346.75 23H349.629V37H346.75C343.941 37 342.537 37 341.528 36.3259C341.091 36.034 340.716 35.659 340.424 35.2223C339.75 34.2134 339.75 32.8089 339.75 30Z" fill="#F7CE45"/>
<path d="M349.46 34.1719C347.709 34.1719 346.555 33.2319 346.447 31.8462L346.442 31.7764H347.994L348 31.8354C348.069 32.437 348.623 32.8667 349.46 32.8667C350.288 32.8667 350.83 32.4048 350.83 31.7495V31.7388C350.83 30.9976 350.277 30.5894 349.337 30.5894H348.451V29.4346H349.315C350.132 29.4346 350.658 29.0049 350.658 28.3765V28.3657C350.658 27.7212 350.212 27.3237 349.45 27.3237C348.687 27.3237 348.177 27.7373 348.112 28.3818L348.107 28.4302H346.614L346.619 28.3657C346.732 26.98 347.822 26.0776 349.45 26.0776C351.115 26.0776 352.189 26.9155 352.189 28.1509V28.1616C352.189 29.1284 351.48 29.7568 350.572 29.9448V29.9771C351.727 30.0845 352.479 30.7505 352.479 31.8032V31.814C352.479 33.2212 351.271 34.1719 349.46 34.1719ZM353.424 34V32.9097L355.921 30.4443C357.012 29.3862 357.307 28.9941 357.307 28.4517V28.4355C357.307 27.7749 356.856 27.313 356.115 27.313C355.357 27.313 354.836 27.8179 354.836 28.5537V28.5806H353.338L353.333 28.5591C353.333 27.0713 354.493 26.0508 356.19 26.0508C357.785 26.0508 358.902 26.9639 358.902 28.3013V28.3174C358.902 29.1982 358.446 29.9287 357.033 31.2339L355.599 32.5713V32.6948H359.015V34H353.424Z" fill="black"/>
<mask id="path-16-inside-1_1_638" fill="white">
<path d="M0 60H393V104H0V60Z"/>
</mask>
<path d="M0 60H393V104H0V60Z" fill="white"/>
<path d="M393 104V103.5H0V104V104.5H393V104Z" fill="#D2D2D2" mask="url(#path-16-inside-1_1_638)"/>
<path d="M29.912 88.1499C30.0706 88.3085 30.2724 88.395 30.5104 88.395C30.9862 88.395 31.3683 88.0201 31.3683 87.5443C31.3683 87.3063 31.2674 87.09 31.1016 86.9242L26.0548 81.9928L31.1016 77.0758C31.2674 76.91 31.3683 76.6865 31.3683 76.4557C31.3683 75.9799 30.9862 75.605 30.5104 75.605C30.2724 75.605 30.0706 75.6915 29.912 75.8501L24.3028 81.3295C24.1009 81.5169 24.0072 81.7477 24 82C24 82.2523 24.1009 82.4686 24.3028 82.6633L29.912 88.1499Z" fill="#1D1D1B"/>
<path d="M117.805 89V74.4545H126.825V76.3438H120V80.7756H126.179V82.6577H120V89H117.805ZM133.148 89.2202C132.125 89.2202 131.232 88.9858 130.47 88.517C129.708 88.0483 129.116 87.3925 128.695 86.5497C128.273 85.7069 128.062 84.7221 128.062 83.5952C128.062 82.4635 128.273 81.474 128.695 80.6264C129.116 79.7789 129.708 79.1207 130.47 78.652C131.232 78.1832 132.125 77.9489 133.148 77.9489C134.17 77.9489 135.063 78.1832 135.825 78.652C136.588 79.1207 137.179 79.7789 137.601 80.6264C138.022 81.474 138.233 82.4635 138.233 83.5952C138.233 84.7221 138.022 85.7069 137.601 86.5497C137.179 87.3925 136.588 88.0483 135.825 88.517C135.063 88.9858 134.17 89.2202 133.148 89.2202ZM133.155 87.4375C133.818 87.4375 134.367 87.2623 134.803 86.9119C135.238 86.5616 135.56 86.0952 135.768 85.5128C135.982 84.9304 136.088 84.2888 136.088 83.5881C136.088 82.892 135.982 82.2528 135.768 81.6705C135.56 81.0833 135.238 80.6122 134.803 80.2571C134.367 79.902 133.818 79.7244 133.155 79.7244C132.487 79.7244 131.933 79.902 131.493 80.2571C131.057 80.6122 130.733 81.0833 130.52 81.6705C130.312 82.2528 130.207 82.892 130.207 83.5881C130.207 84.2888 130.312 84.9304 130.52 85.5128C130.733 86.0952 131.057 86.5616 131.493 86.9119C131.933 87.2623 132.487 87.4375 133.155 87.4375ZM140.603 89V78.0909H142.656V79.8239H142.77C142.968 79.2367 143.319 78.7751 143.821 78.4389C144.327 78.098 144.9 77.9276 145.539 77.9276C145.672 77.9276 145.828 77.9323 146.008 77.9418C146.193 77.9512 146.337 77.9631 146.441 77.9773V80.0085C146.356 79.9848 146.205 79.9588 145.987 79.9304C145.769 79.8973 145.551 79.8807 145.333 79.8807C144.832 79.8807 144.384 79.9872 143.991 80.2003C143.603 80.4086 143.295 80.6998 143.068 81.0739C142.841 81.4432 142.727 81.8646 142.727 82.3381V89H140.603ZM152.462 93.3182C151.596 93.3182 150.85 93.2045 150.225 92.9773C149.605 92.75 149.098 92.4493 148.705 92.0753C148.312 91.7012 148.019 91.2917 147.825 90.8466L149.65 90.0938C149.778 90.3021 149.948 90.5223 150.161 90.7543C150.379 90.991 150.673 91.1922 151.042 91.358C151.416 91.5237 151.897 91.6065 152.484 91.6065C153.289 91.6065 153.954 91.41 154.479 91.017C155.005 90.6288 155.268 90.0085 155.268 89.1562V87.0114H155.133C155.005 87.2434 154.82 87.5014 154.579 87.7855C154.342 88.0696 154.015 88.3158 153.599 88.5241C153.182 88.7325 152.64 88.8366 151.972 88.8366C151.111 88.8366 150.334 88.6354 149.643 88.233C148.956 87.8258 148.412 87.2268 148.009 86.4361C147.612 85.6406 147.413 84.6629 147.413 83.5028C147.413 82.3428 147.609 81.3485 148.002 80.5199C148.4 79.6913 148.944 79.0568 149.636 78.6165C150.327 78.1714 151.111 77.9489 151.987 77.9489C152.664 77.9489 153.21 78.0625 153.627 78.2898C154.044 78.5123 154.368 78.7727 154.6 79.071C154.837 79.3693 155.019 79.6321 155.147 79.8594H155.303V78.0909H157.384V89.2415C157.384 90.179 157.166 90.9484 156.731 91.5497C156.295 92.151 155.706 92.5961 154.962 92.8849C154.224 93.1738 153.39 93.3182 152.462 93.3182ZM152.441 87.0753C153.052 87.0753 153.568 86.9332 153.989 86.6491C154.415 86.3603 154.737 85.9484 154.955 85.4134C155.178 84.8736 155.289 84.2273 155.289 83.4744C155.289 82.7405 155.18 82.0942 154.962 81.5355C154.745 80.9768 154.425 80.5412 154.004 80.2287C153.582 79.9115 153.061 79.7528 152.441 79.7528C151.802 79.7528 151.269 79.9186 150.843 80.25C150.417 80.5767 150.095 81.0218 149.877 81.5852C149.664 82.1487 149.558 82.7784 149.558 83.4744C149.558 84.1894 149.666 84.8168 149.884 85.3565C150.102 85.8963 150.424 86.3177 150.85 86.6207C151.281 86.9238 151.811 87.0753 152.441 87.0753ZM164.827 89.2202C163.805 89.2202 162.912 88.9858 162.15 88.517C161.388 88.0483 160.796 87.3925 160.374 86.5497C159.953 85.7069 159.742 84.7221 159.742 83.5952C159.742 82.4635 159.953 81.474 160.374 80.6264C160.796 79.7789 161.388 79.1207 162.15 78.652C162.912 78.1832 163.805 77.9489 164.827 77.9489C165.85 77.9489 166.743 78.1832 167.505 78.652C168.267 79.1207 168.859 79.7789 169.281 80.6264C169.702 81.474 169.913 82.4635 169.913 83.5952C169.913 84.7221 169.702 85.7069 169.281 86.5497C168.859 87.3925 168.267 88.0483 167.505 88.517C166.743 88.9858 165.85 89.2202 164.827 89.2202ZM164.835 87.4375C165.497 87.4375 166.047 87.2623 166.482 86.9119C166.918 86.5616 167.24 86.0952 167.448 85.5128C167.661 84.9304 167.768 84.2888 167.768 83.5881C167.768 82.892 167.661 82.2528 167.448 81.6705C167.24 81.0833 166.918 80.6122 166.482 80.2571C166.047 79.902 165.497 79.7244 164.835 79.7244C164.167 79.7244 163.613 79.902 163.173 80.2571C162.737 80.6122 162.413 81.0833 162.2 81.6705C161.991 82.2528 161.887 82.892 161.887 83.5881C161.887 84.2888 161.991 84.9304 162.2 85.5128C162.413 86.0952 162.737 86.5616 163.173 86.9119C163.613 87.2623 164.167 87.4375 164.835 87.4375ZM177.375 78.0909V79.7955H171.417V78.0909H177.375ZM173.015 75.4773H175.138V85.7969C175.138 86.2088 175.2 86.5189 175.323 86.7273C175.446 86.9309 175.605 87.0705 175.799 87.1463C175.998 87.2173 176.213 87.2528 176.445 87.2528C176.615 87.2528 176.765 87.241 176.892 87.2173C177.02 87.1937 177.12 87.1747 177.191 87.1605L177.574 88.9148C177.451 88.9621 177.276 89.0095 177.049 89.0568C176.821 89.1089 176.537 89.1373 176.196 89.142C175.638 89.1515 175.117 89.0521 174.634 88.8438C174.151 88.6354 173.76 88.3134 173.462 87.8778C173.164 87.4422 173.015 86.8954 173.015 86.2372V75.4773ZM185.017 93.0909V78.0909H187.091V79.8594H187.269C187.392 79.6321 187.569 79.3693 187.801 79.071C188.033 78.7727 188.355 78.5123 188.767 78.2898C189.179 78.0625 189.724 77.9489 190.401 77.9489C191.282 77.9489 192.068 78.1714 192.759 78.6165C193.45 79.0616 193.992 79.7031 194.385 80.5412C194.783 81.3793 194.982 82.3878 194.982 83.5668C194.982 84.7457 194.785 85.7566 194.392 86.5994C193.999 87.4375 193.46 88.0838 192.773 88.5384C192.087 88.9882 191.303 89.2131 190.422 89.2131C189.759 89.2131 189.217 89.1018 188.796 88.8793C188.379 88.6567 188.052 88.3963 187.816 88.098C187.579 87.7997 187.397 87.5346 187.269 87.3026H187.141V93.0909H185.017ZM187.098 83.5455C187.098 84.3125 187.21 84.9848 187.432 85.5625C187.655 86.1402 187.977 86.5923 188.398 86.919C188.819 87.241 189.336 87.402 189.946 87.402C190.581 87.402 191.111 87.2339 191.537 86.8977C191.963 86.5568 192.285 86.0952 192.503 85.5128C192.726 84.9304 192.837 84.2746 192.837 83.5455C192.837 82.8258 192.728 82.1795 192.51 81.6065C192.297 81.0336 191.975 80.5814 191.544 80.25C191.118 79.9186 190.586 79.7528 189.946 79.7528C189.331 79.7528 188.81 79.9115 188.384 80.2287C187.962 80.5459 187.643 80.9886 187.425 81.5568C187.207 82.125 187.098 82.7879 187.098 83.5455ZM200.536 89.2415C199.845 89.2415 199.22 89.1136 198.661 88.858C198.102 88.5975 197.659 88.2211 197.333 87.7287C197.011 87.2363 196.85 86.6326 196.85 85.9176C196.85 85.3021 196.968 84.7955 197.205 84.3977C197.442 84 197.761 83.6851 198.164 83.4531C198.566 83.2211 199.016 83.0459 199.513 82.9276C200.01 82.8092 200.517 82.7192 201.033 82.6577C201.686 82.5819 202.217 82.5204 202.624 82.473C203.031 82.4209 203.327 82.3381 203.512 82.2244C203.696 82.1108 203.789 81.9261 203.789 81.6705V81.6207C203.789 81.0005 203.614 80.5199 203.263 80.179C202.917 79.8381 202.401 79.6676 201.715 79.6676C201 79.6676 200.436 79.8262 200.025 80.1435C199.617 80.456 199.336 80.804 199.179 81.1875L197.184 80.733C197.42 80.0701 197.766 79.535 198.221 79.1278C198.68 78.7159 199.208 78.4176 199.804 78.233C200.401 78.0436 201.028 77.9489 201.686 77.9489C202.122 77.9489 202.584 78.0009 203.071 78.1051C203.564 78.2045 204.023 78.3892 204.449 78.6591C204.88 78.929 205.233 79.3149 205.507 79.8168C205.782 80.3139 205.919 80.9602 205.919 81.7557V89H203.846V87.5085H203.76C203.623 87.7831 203.417 88.053 203.142 88.3182C202.868 88.5833 202.515 88.8035 202.084 88.9787C201.653 89.1539 201.137 89.2415 200.536 89.2415ZM200.998 87.5369C201.585 87.5369 202.087 87.4209 202.503 87.1889C202.925 86.9569 203.244 86.6539 203.462 86.2798C203.685 85.901 203.796 85.4962 203.796 85.0653V83.6591C203.72 83.7348 203.573 83.8059 203.355 83.8722C203.142 83.9337 202.899 83.9882 202.624 84.0355C202.349 84.0781 202.082 84.1184 201.821 84.1562C201.561 84.1894 201.343 84.2178 201.168 84.2415C200.756 84.2936 200.38 84.3812 200.039 84.5043C199.703 84.6274 199.433 84.8049 199.229 85.0369C199.03 85.2642 198.931 85.5672 198.931 85.946C198.931 86.4716 199.125 86.8693 199.513 87.1392C199.901 87.4044 200.396 87.5369 200.998 87.5369ZM216.923 80.7543L214.998 81.0952C214.917 80.849 214.79 80.6146 214.614 80.392C214.444 80.1695 214.212 79.9872 213.918 79.8452C213.625 79.7031 213.258 79.6321 212.817 79.6321C212.216 79.6321 211.714 79.767 211.312 80.0369C210.909 80.3021 210.708 80.6454 210.708 81.0668C210.708 81.4313 210.843 81.7249 211.113 81.9474C211.383 82.17 211.818 82.3523 212.42 82.4943L214.153 82.892C215.156 83.1241 215.905 83.4815 216.397 83.9645C216.889 84.4474 217.136 85.0748 217.136 85.8466C217.136 86.5 216.946 87.0824 216.567 87.5938C216.193 88.1004 215.67 88.4981 214.998 88.7869C214.33 89.0758 213.556 89.2202 212.675 89.2202C211.454 89.2202 210.457 88.9598 209.685 88.4389C208.914 87.9134 208.44 87.1676 208.265 86.2017L210.317 85.8892C210.445 86.4242 210.708 86.8291 211.106 87.1037C211.504 87.3736 212.022 87.5085 212.661 87.5085C213.357 87.5085 213.914 87.3641 214.33 87.0753C214.747 86.7817 214.955 86.4242 214.955 86.0028C214.955 85.6619 214.827 85.3755 214.572 85.1435C214.321 84.9115 213.935 84.7363 213.414 84.6179L211.567 84.2131C210.549 83.9811 209.797 83.6117 209.309 83.1051C208.826 82.5985 208.585 81.9569 208.585 81.1804C208.585 80.5365 208.764 79.973 209.124 79.4901C209.484 79.0071 209.981 78.6307 210.616 78.3608C211.25 78.0862 211.977 77.9489 212.796 77.9489C213.975 77.9489 214.903 78.2045 215.58 78.7159C216.257 79.2225 216.705 79.902 216.923 80.7543ZM227.645 80.7543L225.721 81.0952C225.64 80.849 225.512 80.6146 225.337 80.392C225.167 80.1695 224.935 79.9872 224.641 79.8452C224.347 79.7031 223.98 79.6321 223.54 79.6321C222.939 79.6321 222.437 79.767 222.034 80.0369C221.632 80.3021 221.431 80.6454 221.431 81.0668C221.431 81.4313 221.566 81.7249 221.836 81.9474C222.105 82.17 222.541 82.3523 223.142 82.4943L224.875 82.892C225.879 83.1241 226.627 83.4815 227.12 83.9645C227.612 84.4474 227.858 85.0748 227.858 85.8466C227.858 86.5 227.669 87.0824 227.29 87.5938C226.916 88.1004 226.393 88.4981 225.721 88.7869C225.053 89.0758 224.279 89.2202 223.398 89.2202C222.176 89.2202 221.18 88.9598 220.408 88.4389C219.636 87.9134 219.163 87.1676 218.988 86.2017L221.04 85.8892C221.168 86.4242 221.431 86.8291 221.828 87.1037C222.226 87.3736 222.745 87.5085 223.384 87.5085C224.08 87.5085 224.636 87.3641 225.053 87.0753C225.47 86.7817 225.678 86.4242 225.678 86.0028C225.678 85.6619 225.55 85.3755 225.294 85.1435C225.043 84.9115 224.658 84.7363 224.137 84.6179L222.29 84.2131C221.272 83.9811 220.519 83.6117 220.032 83.1051C219.549 82.5985 219.307 81.9569 219.307 81.1804C219.307 80.5365 219.487 79.973 219.847 79.4901C220.207 79.0071 220.704 78.6307 221.338 78.3608C221.973 78.0862 222.7 77.9489 223.519 77.9489C224.698 77.9489 225.626 78.2045 226.303 78.7159C226.98 79.2225 227.427 79.902 227.645 80.7543ZM232.558 89L229.348 78.0909H231.543L233.68 86.1023H233.787L235.932 78.0909H238.126L240.257 86.0668H240.364L242.487 78.0909H244.682L241.479 89H239.312L237.097 81.1236H236.933L234.717 89H232.558ZM250.96 89.2202C249.938 89.2202 249.045 88.9858 248.283 88.517C247.52 88.0483 246.929 87.3925 246.507 86.5497C246.086 85.7069 245.875 84.7221 245.875 83.5952C245.875 82.4635 246.086 81.474 246.507 80.6264C246.929 79.7789 247.52 79.1207 248.283 78.652C249.045 78.1832 249.938 77.9489 250.96 77.9489C251.983 77.9489 252.875 78.1832 253.638 78.652C254.4 79.1207 254.992 79.7789 255.413 80.6264C255.835 81.474 256.045 82.4635 256.045 83.5952C256.045 84.7221 255.835 85.7069 255.413 86.5497C254.992 87.3925 254.4 88.0483 253.638 88.517C252.875 88.9858 251.983 89.2202 250.96 89.2202ZM250.967 87.4375C251.63 87.4375 252.179 87.2623 252.615 86.9119C253.051 86.5616 253.373 86.0952 253.581 85.5128C253.794 84.9304 253.901 84.2888 253.901 83.5881C253.901 82.892 253.794 82.2528 253.581 81.6705C253.373 81.0833 253.051 80.6122 252.615 80.2571C252.179 79.902 251.63 79.7244 250.967 79.7244C250.3 79.7244 249.746 79.902 249.305 80.2571C248.87 80.6122 248.545 81.0833 248.332 81.6705C248.124 82.2528 248.02 82.892 248.02 83.5881C248.02 84.2888 248.124 84.9304 248.332 85.5128C248.545 86.0952 248.87 86.5616 249.305 86.9119C249.746 87.2623 250.3 87.4375 250.967 87.4375ZM258.416 89V78.0909H260.468V79.8239H260.582C260.781 79.2367 261.131 78.7751 261.633 78.4389C262.14 78.098 262.713 77.9276 263.352 77.9276C263.484 77.9276 263.641 77.9323 263.821 77.9418C264.005 77.9512 264.15 77.9631 264.254 77.9773V80.0085C264.169 79.9848 264.017 79.9588 263.799 79.9304C263.582 79.8973 263.364 79.8807 263.146 79.8807C262.644 79.8807 262.197 79.9872 261.804 80.2003C261.415 80.4086 261.108 80.6998 260.88 81.0739C260.653 81.4432 260.539 81.8646 260.539 82.3381V89H258.416ZM269.785 89.2131C268.904 89.2131 268.118 88.9882 267.427 88.5384C266.74 88.0838 266.201 87.4375 265.808 86.5994C265.419 85.7566 265.225 84.7457 265.225 83.5668C265.225 82.3878 265.422 81.3793 265.815 80.5412C266.212 79.7031 266.757 79.0616 267.448 78.6165C268.139 78.1714 268.923 77.9489 269.799 77.9489C270.476 77.9489 271.021 78.0625 271.433 78.2898C271.849 78.5123 272.171 78.7727 272.398 79.071C272.63 79.3693 272.81 79.6321 272.938 79.8594H273.066V74.4545H275.19V89H273.116V87.3026H272.938C272.81 87.5346 272.626 87.7997 272.384 88.098C272.147 88.3963 271.821 88.6567 271.404 88.8793C270.987 89.1018 270.448 89.2131 269.785 89.2131ZM270.254 87.402C270.864 87.402 271.38 87.241 271.802 86.919C272.228 86.5923 272.55 86.1402 272.768 85.5625C272.99 84.9848 273.102 84.3125 273.102 83.5455C273.102 82.7879 272.993 82.125 272.775 81.5568C272.557 80.9886 272.237 80.5459 271.816 80.2287C271.395 79.9115 270.874 79.7528 270.254 79.7528C269.614 79.7528 269.082 79.9186 268.656 80.25C268.229 80.5814 267.907 81.0336 267.69 81.6065C267.477 82.1795 267.37 82.8258 267.37 83.5455C267.37 84.2746 267.479 84.9304 267.697 85.5128C267.915 86.0952 268.237 86.5568 268.663 86.8977C269.094 87.2339 269.624 87.402 270.254 87.402Z" fill="black"/>
<path d="M17.2784 413.5V401.864H24.5739V403.375H19.0341V406.92H24.1932V408.426H19.0341V411.989H24.642V413.5H17.2784ZM26.2827 413.5V404.773H27.9134V406.193H28.0213C28.2031 405.712 28.5005 405.337 28.9134 405.068C29.3262 404.795 29.8205 404.659 30.3963 404.659C30.9796 404.659 31.4683 404.795 31.8622 405.068C32.2599 405.341 32.5535 405.716 32.7429 406.193H32.8338C33.0421 405.727 33.3736 405.356 33.8281 405.08C34.2827 404.799 34.8243 404.659 35.4531 404.659C36.2448 404.659 36.8906 404.907 37.3906 405.403C37.8944 405.9 38.1463 406.648 38.1463 407.648V413.5H36.4474V407.807C36.4474 407.216 36.2865 406.788 35.9645 406.523C35.6425 406.258 35.258 406.125 34.8111 406.125C34.258 406.125 33.8281 406.295 33.5213 406.636C33.2145 406.973 33.0611 407.407 33.0611 407.938V413.5H31.3679V407.699C31.3679 407.225 31.2202 406.845 30.9247 406.557C30.6293 406.269 30.2448 406.125 29.7713 406.125C29.4493 406.125 29.152 406.21 28.8793 406.381C28.6103 406.547 28.3925 406.78 28.2259 407.08C28.063 407.379 27.9815 407.725 27.9815 408.119V413.5H26.2827ZM42.4631 413.693C41.91 413.693 41.41 413.591 40.9631 413.386C40.5161 413.178 40.1619 412.877 39.9006 412.483C39.643 412.089 39.5142 411.606 39.5142 411.034C39.5142 410.542 39.6089 410.136 39.7983 409.818C39.9877 409.5 40.2434 409.248 40.5653 409.062C40.8873 408.877 41.2472 408.737 41.6449 408.642C42.0426 408.547 42.4479 408.475 42.8608 408.426C43.3835 408.366 43.8078 408.316 44.1335 408.278C44.4593 408.237 44.696 408.17 44.8438 408.08C44.9915 407.989 45.0653 407.841 45.0653 407.636V407.597C45.0653 407.1 44.9252 406.716 44.6449 406.443C44.3684 406.17 43.9555 406.034 43.4062 406.034C42.8343 406.034 42.3835 406.161 42.054 406.415C41.7282 406.665 41.5028 406.943 41.3778 407.25L39.7812 406.886C39.9706 406.356 40.2472 405.928 40.6108 405.602C40.9782 405.273 41.4006 405.034 41.8778 404.886C42.3551 404.735 42.857 404.659 43.3835 404.659C43.732 404.659 44.1013 404.701 44.4915 404.784C44.8854 404.864 45.2528 405.011 45.5938 405.227C45.9384 405.443 46.2206 405.752 46.4403 406.153C46.66 406.551 46.7699 407.068 46.7699 407.705V413.5H45.1108V412.307H45.0426C44.9328 412.527 44.768 412.742 44.5483 412.955C44.3286 413.167 44.0464 413.343 43.7017 413.483C43.357 413.623 42.9441 413.693 42.4631 413.693ZM42.8324 412.33C43.3021 412.33 43.7036 412.237 44.0369 412.051C44.3741 411.866 44.6297 411.623 44.804 411.324C44.982 411.021 45.071 410.697 45.071 410.352V409.227C45.0104 409.288 44.893 409.345 44.7188 409.398C44.5483 409.447 44.3532 409.491 44.1335 409.528C43.9138 409.562 43.6998 409.595 43.4915 409.625C43.2831 409.652 43.1089 409.674 42.9688 409.693C42.6392 409.735 42.3381 409.805 42.0653 409.903C41.7964 410.002 41.5805 410.144 41.4176 410.33C41.2585 410.511 41.179 410.754 41.179 411.057C41.179 411.477 41.3343 411.795 41.6449 412.011C41.9555 412.223 42.3513 412.33 42.8324 412.33ZM48.5327 413.5V404.773H50.2315V413.5H48.5327ZM49.3906 403.426C49.0952 403.426 48.8414 403.328 48.6293 403.131C48.4209 402.93 48.3168 402.691 48.3168 402.415C48.3168 402.134 48.4209 401.896 48.6293 401.699C48.8414 401.498 49.0952 401.398 49.3906 401.398C49.6861 401.398 49.938 401.498 50.1463 401.699C50.3584 401.896 50.4645 402.134 50.4645 402.415C50.4645 402.691 50.3584 402.93 50.1463 403.131C49.938 403.328 49.6861 403.426 49.3906 403.426ZM53.7159 401.864V413.5H52.017V401.864H53.7159Z" fill="#1D1D1B"/>
<rect x="16.25" y="422.75" width="360.5" height="39.5" rx="5.75" fill="white"/>
<rect x="16.25" y="422.75" width="360.5" height="39.5" rx="5.75" stroke="#A1A1A5" stroke-width="0.5"/>
<path d="M25.2273 439.773H26.5682V449.136C26.5682 449.674 26.4754 450.14 26.2898 450.534C26.108 450.928 25.8314 451.233 25.4602 451.449C25.0928 451.665 24.6288 451.773 24.0682 451.773C24.0227 451.773 23.9773 451.773 23.9318 451.773C23.8864 451.773 23.8409 451.773 23.7955 451.773V450.523C23.8409 450.523 23.8826 450.523 23.9205 450.523C23.9583 450.523 24 450.523 24.0455 450.523C24.4545 450.523 24.7538 450.402 24.9432 450.159C25.1326 449.92 25.2273 449.58 25.2273 449.136V439.773ZM25.8864 438.318C25.625 438.318 25.3996 438.229 25.2102 438.051C25.0246 437.873 24.9318 437.659 24.9318 437.409C24.9318 437.159 25.0246 436.945 25.2102 436.767C25.3996 436.589 25.625 436.5 25.8864 436.5C26.1477 436.5 26.3712 436.589 26.5568 436.767C26.7462 436.945 26.8409 437.159 26.8409 437.409C26.8409 437.659 26.7462 437.873 26.5568 438.051C26.3712 438.229 26.1477 438.318 25.8864 438.318ZM32.0696 448.682C31.2817 448.682 30.5904 448.494 29.9957 448.119C29.4048 447.744 28.9427 447.22 28.6094 446.545C28.2798 445.871 28.1151 445.083 28.1151 444.182C28.1151 443.273 28.2798 442.479 28.6094 441.801C28.9427 441.123 29.4048 440.597 29.9957 440.222C30.5904 439.847 31.2817 439.659 32.0696 439.659C32.8575 439.659 33.5469 439.847 34.1378 440.222C34.7325 440.597 35.1946 441.123 35.5241 441.801C35.8575 442.479 36.0241 443.273 36.0241 444.182C36.0241 445.083 35.8575 445.871 35.5241 446.545C35.1946 447.22 34.7325 447.744 34.1378 448.119C33.5469 448.494 32.8575 448.682 32.0696 448.682ZM32.0696 447.477C32.6681 447.477 33.1605 447.324 33.5469 447.017C33.9332 446.71 34.2192 446.307 34.4048 445.807C34.5904 445.307 34.6832 444.765 34.6832 444.182C34.6832 443.598 34.5904 443.055 34.4048 442.551C34.2192 442.047 33.9332 441.64 33.5469 441.33C33.1605 441.019 32.6681 440.864 32.0696 440.864C31.4711 440.864 30.9787 441.019 30.5923 441.33C30.206 441.64 29.92 442.047 29.7344 442.551C29.5488 443.055 29.456 443.598 29.456 444.182C29.456 444.765 29.5488 445.307 29.7344 445.807C29.92 446.307 30.206 446.71 30.5923 447.017C30.9787 447.324 31.4711 447.477 32.0696 447.477ZM38.9119 443.25V448.5H37.571V436.864H38.9119V441.136H39.0256C39.2301 440.686 39.5369 440.328 39.946 440.062C40.3589 439.794 40.9081 439.659 41.5938 439.659C42.1884 439.659 42.7093 439.778 43.1562 440.017C43.6032 440.252 43.9498 440.614 44.196 441.102C44.446 441.587 44.571 442.205 44.571 442.955V448.5H43.2301V443.045C43.2301 442.352 43.0502 441.816 42.6903 441.438C42.3343 441.055 41.84 440.864 41.2074 440.864C40.768 440.864 40.3741 440.956 40.0256 441.142C39.6809 441.328 39.4081 441.598 39.2074 441.955C39.0104 442.311 38.9119 442.742 38.9119 443.25ZM47.8651 443.25V448.5H46.5241V439.773H47.8196V441.136H47.9332C48.1378 440.693 48.4484 440.337 48.8651 440.068C49.2817 439.795 49.8196 439.659 50.4787 439.659C51.0696 439.659 51.5866 439.78 52.0298 440.023C52.473 440.261 52.8177 440.625 53.0639 441.114C53.3101 441.598 53.4332 442.212 53.4332 442.955V448.5H52.0923V443.045C52.0923 442.36 51.9143 441.826 51.5582 441.443C51.2022 441.057 50.7135 440.864 50.0923 440.864C49.6643 440.864 49.2817 440.956 48.9446 441.142C48.6113 441.328 48.348 441.598 48.1548 441.955C47.9616 442.311 47.8651 442.742 47.8651 443.25ZM58.679 448.682C57.9517 448.682 57.3097 448.498 56.7528 448.131C56.196 447.759 55.7604 447.237 55.446 446.562C55.1316 445.884 54.9744 445.083 54.9744 444.159C54.9744 443.242 55.1316 442.447 55.446 441.773C55.7604 441.098 56.1979 440.578 56.7585 440.21C57.3191 439.843 57.9669 439.659 58.7017 439.659C59.2699 439.659 59.7188 439.754 60.0483 439.943C60.3816 440.129 60.6354 440.341 60.8097 440.58C60.9877 440.814 61.1259 441.008 61.2244 441.159H61.3381V436.864H62.679V448.5H61.3835V447.159H61.2244C61.1259 447.318 60.9858 447.519 60.804 447.761C60.6222 448 60.3627 448.214 60.0256 448.403C59.6884 448.589 59.2396 448.682 58.679 448.682ZM58.8608 447.477C59.3987 447.477 59.8532 447.337 60.2244 447.057C60.5956 446.773 60.8778 446.381 61.071 445.881C61.2642 445.377 61.3608 444.795 61.3608 444.136C61.3608 443.485 61.2661 442.915 61.0767 442.426C60.8873 441.934 60.607 441.551 60.2358 441.278C59.8646 441.002 59.4063 440.864 58.8608 440.864C58.2926 440.864 57.8191 441.009 57.4403 441.301C57.0653 441.589 56.7831 441.981 56.5938 442.477C56.4081 442.97 56.3153 443.523 56.3153 444.136C56.3153 444.758 56.41 445.322 56.5994 445.83C56.7926 446.333 57.0767 446.735 57.4517 447.034C57.8305 447.33 58.3002 447.477 58.8608 447.477ZM68.3665 448.682C67.5786 448.682 66.8873 448.494 66.2926 448.119C65.7017 447.744 65.2396 447.22 64.9062 446.545C64.5767 445.871 64.4119 445.083 64.4119 444.182C64.4119 443.273 64.5767 442.479 64.9062 441.801C65.2396 441.123 65.7017 440.597 66.2926 440.222C66.8873 439.847 67.5786 439.659 68.3665 439.659C69.1544 439.659 69.8438 439.847 70.4347 440.222C71.0294 440.597 71.4915 441.123 71.821 441.801C72.1544 442.479 72.321 443.273 72.321 444.182C72.321 445.083 72.1544 445.871 71.821 446.545C71.4915 447.22 71.0294 447.744 70.4347 448.119C69.8438 448.494 69.1544 448.682 68.3665 448.682ZM68.3665 447.477C68.965 447.477 69.4574 447.324 69.8438 447.017C70.2301 446.71 70.5161 446.307 70.7017 445.807C70.8873 445.307 70.9801 444.765 70.9801 444.182C70.9801 443.598 70.8873 443.055 70.7017 442.551C70.5161 442.047 70.2301 441.64 69.8438 441.33C69.4574 441.019 68.965 440.864 68.3665 440.864C67.768 440.864 67.2756 441.019 66.8892 441.33C66.5028 441.64 66.2169 442.047 66.0312 442.551C65.8456 443.055 65.7528 443.598 65.7528 444.182C65.7528 444.765 65.8456 445.307 66.0312 445.807C66.2169 446.307 66.5028 446.71 66.8892 447.017C67.2756 447.324 67.768 447.477 68.3665 447.477ZM77.527 448.682C76.6861 448.682 75.9607 448.496 75.3509 448.125C74.7448 447.75 74.277 447.227 73.9474 446.557C73.6217 445.883 73.4588 445.098 73.4588 444.205C73.4588 443.311 73.6217 442.523 73.9474 441.841C74.277 441.155 74.7353 440.621 75.3224 440.239C75.9134 439.852 76.6027 439.659 77.3906 439.659C77.8452 439.659 78.294 439.735 78.7372 439.886C79.1804 440.038 79.5838 440.284 79.9474 440.625C80.3111 440.962 80.6009 441.409 80.8168 441.966C81.0327 442.523 81.1406 443.208 81.1406 444.023V444.591H74.4134V443.432H79.777C79.777 442.939 79.6785 442.5 79.4815 442.114C79.2884 441.727 79.0118 441.422 78.652 441.199C78.2959 440.975 77.8755 440.864 77.3906 440.864C76.8565 440.864 76.3944 440.996 76.0043 441.261C75.6179 441.523 75.3205 441.864 75.1122 442.284C74.9039 442.705 74.7997 443.155 74.7997 443.636V444.409C74.7997 445.068 74.9134 445.627 75.1406 446.085C75.3717 446.54 75.6918 446.886 76.1009 447.125C76.5099 447.36 76.9853 447.477 77.527 447.477C77.8793 447.477 78.1974 447.428 78.4815 447.33C78.7694 447.227 79.0175 447.076 79.2259 446.875C79.4342 446.67 79.5952 446.417 79.7088 446.114L81.0043 446.477C80.8679 446.917 80.6387 447.303 80.3168 447.636C79.9948 447.966 79.5971 448.223 79.1236 448.409C78.6501 448.591 78.1179 448.682 77.527 448.682ZM89.3849 451.568C88.2259 451.568 87.2012 451.409 86.3111 451.091C85.4209 450.777 84.6728 450.313 84.0668 449.699C83.4607 449.085 83.0024 448.333 82.6918 447.443C82.3812 446.553 82.2259 445.534 82.2259 444.386C82.2259 443.277 82.383 442.284 82.6974 441.409C83.0156 440.534 83.4759 439.792 84.0781 439.182C84.6842 438.568 85.419 438.1 86.2827 437.778C87.1501 437.456 88.1312 437.295 89.2259 437.295C90.2902 437.295 91.2221 437.47 92.0213 437.818C92.8243 438.163 93.4948 438.631 94.0327 439.222C94.5743 439.809 94.9796 440.47 95.2486 441.205C95.5213 441.939 95.6577 442.697 95.6577 443.477C95.6577 444.027 95.6312 444.583 95.5781 445.148C95.5251 445.712 95.4134 446.231 95.2429 446.705C95.0724 447.174 94.8092 447.553 94.4531 447.841C94.1009 448.129 93.6236 448.273 93.0213 448.273C92.7562 448.273 92.4645 448.231 92.1463 448.148C91.8281 448.064 91.5459 447.926 91.2997 447.733C91.0535 447.54 90.9077 447.28 90.8622 446.955H90.794C90.7031 447.174 90.563 447.383 90.3736 447.58C90.188 447.777 89.9437 447.934 89.6406 448.051C89.3414 448.169 88.9759 448.22 88.544 448.205C88.0516 448.186 87.6179 448.076 87.2429 447.875C86.8679 447.67 86.5535 447.394 86.2997 447.045C86.0497 446.693 85.8603 446.286 85.7315 445.824C85.6065 445.358 85.544 444.856 85.544 444.318C85.544 443.807 85.6198 443.339 85.7713 442.915C85.9228 442.491 86.133 442.119 86.402 441.801C86.6747 441.483 86.9929 441.229 87.3565 441.04C87.724 440.847 88.1198 440.727 88.544 440.682C88.9228 440.644 89.2675 440.661 89.5781 440.733C89.8887 440.801 90.1444 440.905 90.3452 441.045C90.5459 441.182 90.6728 441.333 90.7259 441.5H90.794V440.864H91.9986V446C91.9986 446.318 92.0876 446.598 92.2656 446.841C92.4437 447.083 92.7031 447.205 93.044 447.205C93.4304 447.205 93.7259 447.072 93.9304 446.807C94.1387 446.542 94.2808 446.133 94.3565 445.58C94.4361 445.027 94.4759 444.318 94.4759 443.455C94.4759 442.947 94.4058 442.447 94.2656 441.955C94.1293 441.458 93.9209 440.994 93.6406 440.562C93.3641 440.131 93.0137 439.75 92.5895 439.42C92.1652 439.091 91.6671 438.833 91.0952 438.648C90.527 438.458 89.8812 438.364 89.1577 438.364C88.2675 438.364 87.4702 438.502 86.7656 438.778C86.0649 439.051 85.4683 439.451 84.9759 439.977C84.4872 440.5 84.1141 441.136 83.8565 441.886C83.6027 442.633 83.4759 443.481 83.4759 444.432C83.4759 445.398 83.6027 446.256 83.8565 447.006C84.1141 447.756 84.4929 448.388 84.9929 448.903C85.4967 449.419 86.1198 449.809 86.8622 450.074C87.6046 450.343 88.4607 450.477 89.4304 450.477C89.8471 450.477 90.258 450.438 90.6634 450.358C91.0687 450.278 91.4266 450.191 91.7372 450.097C92.0478 450.002 92.2713 449.932 92.4077 449.886L92.7259 450.932C92.491 451.03 92.1842 451.129 91.8054 451.227C91.4304 451.326 91.0289 451.407 90.6009 451.472C90.1766 451.536 89.7713 451.568 89.3849 451.568ZM88.7259 447.045C89.2334 447.045 89.6444 446.943 89.9588 446.739C90.2732 446.534 90.5024 446.225 90.6463 445.812C90.7902 445.4 90.8622 444.879 90.8622 444.25C90.8622 443.614 90.7827 443.117 90.6236 442.761C90.4645 442.405 90.2296 442.155 89.919 442.011C89.6084 441.867 89.2259 441.795 88.7713 441.795C88.3395 441.795 87.9702 441.909 87.6634 442.136C87.3603 442.36 87.1274 442.659 86.9645 443.034C86.8054 443.405 86.7259 443.811 86.7259 444.25C86.7259 444.735 86.7902 445.191 86.919 445.619C87.0478 446.044 87.258 446.388 87.5497 446.653C87.8414 446.915 88.2334 447.045 88.7259 447.045ZM100.824 448.682C99.983 448.682 99.2576 448.496 98.6477 448.125C98.0417 447.75 97.5739 447.227 97.2443 446.557C96.9186 445.883 96.7557 445.098 96.7557 444.205C96.7557 443.311 96.9186 442.523 97.2443 441.841C97.5739 441.155 98.0322 440.621 98.6193 440.239C99.2102 439.852 99.8996 439.659 100.688 439.659C101.142 439.659 101.591 439.735 102.034 439.886C102.477 440.038 102.881 440.284 103.244 440.625C103.608 440.962 103.898 441.409 104.114 441.966C104.33 442.523 104.438 443.208 104.438 444.023V444.591H97.7102V443.432H103.074C103.074 442.939 102.975 442.5 102.778 442.114C102.585 441.727 102.309 441.422 101.949 441.199C101.593 440.975 101.172 440.864 100.688 440.864C100.153 440.864 99.6913 440.996 99.3011 441.261C98.9148 441.523 98.6174 441.864 98.4091 442.284C98.2008 442.705 98.0966 443.155 98.0966 443.636V444.409C98.0966 445.068 98.2102 445.627 98.4375 446.085C98.6686 446.54 98.9886 446.886 99.3977 447.125C99.8068 447.36 100.282 447.477 100.824 447.477C101.176 447.477 101.494 447.428 101.778 447.33C102.066 447.227 102.314 447.076 102.523 446.875C102.731 446.67 102.892 446.417 103.006 446.114L104.301 446.477C104.165 446.917 103.936 447.303 103.614 447.636C103.292 447.966 102.894 448.223 102.42 448.409C101.947 448.591 101.415 448.682 100.824 448.682ZM106.743 439.773L108.834 443.341L110.925 439.773H112.47L109.652 444.136L112.47 448.5H110.925L108.834 445.114L106.743 448.5H105.197L107.97 444.136L105.197 439.773H106.743ZM116.452 448.705C115.899 448.705 115.397 448.6 114.946 448.392C114.495 448.18 114.137 447.875 113.872 447.477C113.607 447.076 113.474 446.591 113.474 446.023C113.474 445.523 113.573 445.117 113.77 444.807C113.967 444.492 114.23 444.246 114.56 444.068C114.889 443.89 115.253 443.758 115.651 443.67C116.052 443.58 116.455 443.508 116.861 443.455C117.391 443.386 117.821 443.335 118.151 443.301C118.484 443.263 118.726 443.201 118.878 443.114C119.033 443.027 119.111 442.875 119.111 442.659V442.614C119.111 442.053 118.957 441.617 118.651 441.307C118.348 440.996 117.887 440.841 117.27 440.841C116.63 440.841 116.128 440.981 115.764 441.261C115.401 441.542 115.145 441.841 114.997 442.159L113.724 441.705C113.952 441.174 114.255 440.761 114.634 440.466C115.016 440.167 115.433 439.958 115.884 439.841C116.338 439.72 116.785 439.659 117.224 439.659C117.505 439.659 117.827 439.693 118.19 439.761C118.558 439.826 118.912 439.96 119.253 440.165C119.598 440.369 119.884 440.678 120.111 441.091C120.338 441.504 120.452 442.057 120.452 442.75V448.5H119.111V447.318H119.043C118.952 447.508 118.8 447.71 118.588 447.926C118.376 448.142 118.094 448.326 117.741 448.477C117.389 448.629 116.959 448.705 116.452 448.705ZM116.656 447.5C117.187 447.5 117.634 447.396 117.997 447.188C118.365 446.979 118.641 446.71 118.827 446.381C119.016 446.051 119.111 445.705 119.111 445.341V444.114C119.054 444.182 118.929 444.244 118.736 444.301C118.546 444.354 118.327 444.402 118.077 444.443C117.83 444.481 117.59 444.515 117.355 444.545C117.124 444.572 116.937 444.595 116.793 444.614C116.444 444.659 116.118 444.733 115.815 444.835C115.516 444.934 115.274 445.083 115.088 445.284C114.906 445.481 114.815 445.75 114.815 446.091C114.815 446.557 114.988 446.909 115.332 447.148C115.681 447.383 116.122 447.5 116.656 447.5ZM122.399 448.5V439.773H123.695V441.136H123.808C123.99 440.67 124.284 440.309 124.689 440.051C125.094 439.79 125.581 439.659 126.149 439.659C126.725 439.659 127.204 439.79 127.587 440.051C127.973 440.309 128.274 440.67 128.49 441.136H128.581C128.804 440.686 129.14 440.328 129.587 440.062C130.034 439.794 130.57 439.659 131.195 439.659C131.975 439.659 132.613 439.903 133.109 440.392C133.606 440.877 133.854 441.633 133.854 442.659V448.5H132.513V442.659C132.513 442.015 132.337 441.555 131.984 441.278C131.632 441.002 131.217 440.864 130.74 440.864C130.126 440.864 129.651 441.049 129.314 441.42C128.977 441.788 128.808 442.254 128.808 442.818V448.5H127.445V442.523C127.445 442.027 127.284 441.627 126.962 441.324C126.64 441.017 126.225 440.864 125.717 440.864C125.369 440.864 125.043 440.956 124.74 441.142C124.441 441.328 124.198 441.585 124.013 441.915C123.831 442.241 123.74 442.617 123.74 443.045V448.5H122.399ZM137.146 436.864V448.5H135.805V436.864H137.146ZM142.761 448.682C141.92 448.682 141.195 448.496 140.585 448.125C139.979 447.75 139.511 447.227 139.182 446.557C138.856 445.883 138.693 445.098 138.693 444.205C138.693 443.311 138.856 442.523 139.182 441.841C139.511 441.155 139.97 440.621 140.557 440.239C141.148 439.852 141.837 439.659 142.625 439.659C143.08 439.659 143.528 439.735 143.972 439.886C144.415 440.038 144.818 440.284 145.182 440.625C145.545 440.962 145.835 441.409 146.051 441.966C146.267 442.523 146.375 443.208 146.375 444.023V444.591H139.648V443.432H145.011C145.011 442.939 144.913 442.5 144.716 442.114C144.523 441.727 144.246 441.422 143.886 441.199C143.53 440.975 143.11 440.864 142.625 440.864C142.091 440.864 141.629 440.996 141.239 441.261C140.852 441.523 140.555 441.864 140.347 442.284C140.138 442.705 140.034 443.155 140.034 443.636V444.409C140.034 445.068 140.148 445.627 140.375 446.085C140.606 446.54 140.926 446.886 141.335 447.125C141.744 447.36 142.22 447.477 142.761 447.477C143.114 447.477 143.432 447.428 143.716 447.33C144.004 447.227 144.252 447.076 144.46 446.875C144.669 446.67 144.83 446.417 144.943 446.114L146.239 446.477C146.102 446.917 145.873 447.303 145.551 447.636C145.229 447.966 144.831 448.223 144.358 448.409C143.884 448.591 143.352 448.682 142.761 448.682ZM148.892 448.591C148.612 448.591 148.371 448.491 148.17 448.29C147.97 448.089 147.869 447.848 147.869 447.568C147.869 447.288 147.97 447.047 148.17 446.847C148.371 446.646 148.612 446.545 148.892 446.545C149.172 446.545 149.413 446.646 149.614 446.847C149.814 447.047 149.915 447.288 149.915 447.568C149.915 447.754 149.867 447.924 149.773 448.08C149.682 448.235 149.559 448.36 149.403 448.455C149.252 448.545 149.081 448.591 148.892 448.591ZM155.366 448.682C154.548 448.682 153.844 448.489 153.253 448.102C152.662 447.716 152.207 447.184 151.889 446.506C151.571 445.828 151.412 445.053 151.412 444.182C151.412 443.295 151.575 442.513 151.901 441.835C152.23 441.153 152.688 440.621 153.276 440.239C153.866 439.852 154.556 439.659 155.344 439.659C155.957 439.659 156.51 439.773 157.003 440C157.495 440.227 157.899 440.545 158.213 440.955C158.527 441.364 158.723 441.841 158.798 442.386H157.457C157.355 441.989 157.128 441.636 156.776 441.33C156.427 441.019 155.957 440.864 155.366 440.864C154.844 440.864 154.385 441 153.991 441.273C153.601 441.542 153.296 441.922 153.077 442.415C152.861 442.903 152.753 443.477 152.753 444.136C152.753 444.811 152.859 445.398 153.071 445.898C153.287 446.398 153.59 446.786 153.98 447.062C154.374 447.339 154.836 447.477 155.366 447.477C155.715 447.477 156.031 447.417 156.315 447.295C156.599 447.174 156.84 447 157.037 446.773C157.234 446.545 157.374 446.273 157.457 445.955H158.798C158.723 446.47 158.535 446.934 158.236 447.347C157.94 447.756 157.548 448.081 157.06 448.324C156.575 448.562 156.01 448.682 155.366 448.682ZM163.804 448.682C163.016 448.682 162.325 448.494 161.73 448.119C161.139 447.744 160.677 447.22 160.344 446.545C160.014 445.871 159.849 445.083 159.849 444.182C159.849 443.273 160.014 442.479 160.344 441.801C160.677 441.123 161.139 440.597 161.73 440.222C162.325 439.847 163.016 439.659 163.804 439.659C164.592 439.659 165.281 439.847 165.872 440.222C166.467 440.597 166.929 441.123 167.259 441.801C167.592 442.479 167.759 443.273 167.759 444.182C167.759 445.083 167.592 445.871 167.259 446.545C166.929 447.22 166.467 447.744 165.872 448.119C165.281 448.494 164.592 448.682 163.804 448.682ZM163.804 447.477C164.402 447.477 164.895 447.324 165.281 447.017C165.668 446.71 165.954 446.307 166.139 445.807C166.325 445.307 166.418 444.765 166.418 444.182C166.418 443.598 166.325 443.055 166.139 442.551C165.954 442.047 165.668 441.64 165.281 441.33C164.895 441.019 164.402 440.864 163.804 440.864C163.205 440.864 162.713 441.019 162.327 441.33C161.94 441.64 161.654 442.047 161.469 442.551C161.283 443.055 161.19 443.598 161.19 444.182C161.19 444.765 161.283 445.307 161.469 445.807C161.654 446.307 161.94 446.71 162.327 447.017C162.713 447.324 163.205 447.477 163.804 447.477ZM169.305 448.5V439.773H170.601V441.136H170.714C170.896 440.67 171.19 440.309 171.595 440.051C172 439.79 172.487 439.659 173.055 439.659C173.631 439.659 174.11 439.79 174.493 440.051C174.879 440.309 175.18 440.67 175.396 441.136H175.487C175.711 440.686 176.046 440.328 176.493 440.062C176.94 439.794 177.476 439.659 178.101 439.659C178.881 439.659 179.519 439.903 180.016 440.392C180.512 440.877 180.76 441.633 180.76 442.659V448.5H179.419V442.659C179.419 442.015 179.243 441.555 178.891 441.278C178.538 441.002 178.124 440.864 177.646 440.864C177.033 440.864 176.557 441.049 176.22 441.42C175.883 441.788 175.714 442.254 175.714 442.818V448.5H174.351V442.523C174.351 442.027 174.19 441.627 173.868 441.324C173.546 441.017 173.131 440.864 172.624 440.864C172.275 440.864 171.949 440.956 171.646 441.142C171.347 441.328 171.105 441.585 170.919 441.915C170.737 442.241 170.646 442.617 170.646 443.045V448.5H169.305Z" fill="#1D1D1B"/>
<rect x="16" y="482.5" width="361" height="44" rx="22" fill="#1D1D1B"/>
<path d="M127.148 510V498.364H131.511C132.405 498.364 133.155 498.519 133.761 498.83C134.371 499.14 134.831 499.576 135.142 500.136C135.456 500.693 135.614 501.343 135.614 502.085C135.614 502.831 135.455 503.479 135.136 504.028C134.822 504.574 134.358 504.996 133.744 505.295C133.131 505.591 132.377 505.739 131.483 505.739H128.375V503.989H131.199C131.722 503.989 132.15 503.917 132.483 503.773C132.816 503.625 133.063 503.411 133.222 503.131C133.384 502.847 133.466 502.498 133.466 502.085C133.466 501.672 133.384 501.32 133.222 501.028C133.059 500.733 132.811 500.509 132.477 500.358C132.144 500.203 131.714 500.125 131.188 500.125H129.256V510H127.148ZM133.159 504.727L136.04 510H133.688L130.858 504.727H133.159ZM141.262 510.17C140.387 510.17 139.631 509.989 138.995 509.625C138.362 509.258 137.875 508.739 137.534 508.068C137.194 507.394 137.023 506.6 137.023 505.688C137.023 504.79 137.194 504.002 137.534 503.324C137.879 502.642 138.36 502.112 138.978 501.733C139.595 501.35 140.32 501.159 141.154 501.159C141.692 501.159 142.199 501.246 142.676 501.42C143.158 501.591 143.582 501.856 143.949 502.216C144.32 502.576 144.612 503.034 144.824 503.591C145.036 504.144 145.142 504.803 145.142 505.568V506.199H137.989V504.812H143.171C143.167 504.419 143.082 504.068 142.915 503.761C142.748 503.451 142.515 503.206 142.216 503.028C141.921 502.85 141.576 502.761 141.182 502.761C140.762 502.761 140.392 502.864 140.074 503.068C139.756 503.269 139.508 503.534 139.33 503.864C139.156 504.189 139.067 504.547 139.063 504.938V506.148C139.063 506.655 139.156 507.091 139.341 507.455C139.527 507.814 139.786 508.091 140.12 508.284C140.453 508.473 140.843 508.568 141.29 508.568C141.589 508.568 141.86 508.527 142.103 508.443C142.345 508.356 142.555 508.229 142.733 508.062C142.911 507.896 143.046 507.689 143.137 507.443L145.057 507.659C144.936 508.167 144.705 508.61 144.364 508.989C144.027 509.364 143.595 509.655 143.069 509.864C142.542 510.068 141.94 510.17 141.262 510.17ZM153.84 503.58L151.965 503.784C151.912 503.595 151.819 503.417 151.687 503.25C151.558 503.083 151.384 502.949 151.164 502.847C150.944 502.744 150.675 502.693 150.357 502.693C149.929 502.693 149.569 502.786 149.278 502.972C148.99 503.157 148.848 503.398 148.852 503.693C148.848 503.947 148.941 504.153 149.13 504.312C149.323 504.472 149.641 504.602 150.084 504.705L151.573 505.023C152.399 505.201 153.013 505.483 153.414 505.869C153.819 506.256 154.024 506.761 154.028 507.386C154.024 507.936 153.863 508.42 153.545 508.841C153.23 509.258 152.793 509.583 152.232 509.818C151.672 510.053 151.028 510.17 150.3 510.17C149.232 510.17 148.372 509.947 147.721 509.5C147.069 509.049 146.681 508.422 146.556 507.619L148.562 507.426C148.653 507.82 148.846 508.117 149.141 508.318C149.437 508.519 149.821 508.619 150.295 508.619C150.783 508.619 151.175 508.519 151.471 508.318C151.77 508.117 151.92 507.869 151.92 507.574C151.92 507.324 151.823 507.117 151.63 506.955C151.441 506.792 151.145 506.667 150.744 506.58L149.255 506.267C148.418 506.093 147.799 505.799 147.397 505.386C146.995 504.97 146.797 504.443 146.8 503.807C146.797 503.269 146.942 502.803 147.238 502.409C147.537 502.011 147.952 501.705 148.482 501.489C149.016 501.269 149.632 501.159 150.329 501.159C151.352 501.159 152.156 501.377 152.744 501.812C153.334 502.248 153.7 502.837 153.84 503.58ZM160.142 501.273V502.864H155.125V501.273H160.142ZM156.363 499.182H158.42V507.375C158.42 507.652 158.462 507.864 158.545 508.011C158.632 508.155 158.746 508.254 158.886 508.307C159.026 508.36 159.181 508.386 159.352 508.386C159.481 508.386 159.598 508.377 159.704 508.358C159.814 508.339 159.897 508.322 159.954 508.307L160.301 509.915C160.191 509.953 160.034 509.994 159.829 510.04C159.628 510.085 159.382 510.112 159.091 510.119C158.575 510.134 158.111 510.057 157.698 509.886C157.286 509.712 156.958 509.443 156.716 509.08C156.477 508.716 156.359 508.261 156.363 507.716V499.182ZM165.635 510.17C164.783 510.17 164.044 509.983 163.419 509.608C162.794 509.233 162.309 508.708 161.964 508.034C161.624 507.36 161.453 506.572 161.453 505.67C161.453 504.769 161.624 503.979 161.964 503.301C162.309 502.623 162.794 502.097 163.419 501.722C164.044 501.347 164.783 501.159 165.635 501.159C166.487 501.159 167.226 501.347 167.851 501.722C168.476 502.097 168.959 502.623 169.3 503.301C169.644 503.979 169.817 504.769 169.817 505.67C169.817 506.572 169.644 507.36 169.3 508.034C168.959 508.708 168.476 509.233 167.851 509.608C167.226 509.983 166.487 510.17 165.635 510.17ZM165.646 508.523C166.108 508.523 166.495 508.396 166.805 508.142C167.116 507.884 167.347 507.54 167.499 507.108C167.654 506.676 167.731 506.195 167.731 505.665C167.731 505.131 167.654 504.648 167.499 504.216C167.347 503.78 167.116 503.434 166.805 503.176C166.495 502.919 166.108 502.79 165.646 502.79C165.173 502.79 164.779 502.919 164.464 503.176C164.154 503.434 163.921 503.78 163.766 504.216C163.614 504.648 163.538 505.131 163.538 505.665C163.538 506.195 163.614 506.676 163.766 507.108C163.921 507.54 164.154 507.884 164.464 508.142C164.779 508.396 165.173 508.523 165.646 508.523ZM171.622 510V501.273H173.617V502.727H173.708C173.867 502.223 174.139 501.835 174.526 501.562C174.916 501.286 175.361 501.148 175.861 501.148C175.975 501.148 176.102 501.153 176.242 501.165C176.386 501.172 176.505 501.186 176.6 501.205V503.097C176.513 503.066 176.374 503.04 176.185 503.017C175.999 502.991 175.819 502.977 175.645 502.977C175.27 502.977 174.933 503.059 174.634 503.222C174.338 503.381 174.105 503.602 173.935 503.886C173.764 504.17 173.679 504.498 173.679 504.869V510H171.622ZM181.53 510.17C180.655 510.17 179.9 509.989 179.263 509.625C178.631 509.258 178.144 508.739 177.803 508.068C177.462 507.394 177.292 506.6 177.292 505.688C177.292 504.79 177.462 504.002 177.803 503.324C178.148 502.642 178.629 502.112 179.246 501.733C179.864 501.35 180.589 501.159 181.423 501.159C181.96 501.159 182.468 501.246 182.945 501.42C183.426 501.591 183.851 501.856 184.218 502.216C184.589 502.576 184.881 503.034 185.093 503.591C185.305 504.144 185.411 504.803 185.411 505.568V506.199H178.258V504.812H183.44C183.436 504.419 183.351 504.068 183.184 503.761C183.017 503.451 182.784 503.206 182.485 503.028C182.19 502.85 181.845 502.761 181.451 502.761C181.03 502.761 180.661 502.864 180.343 503.068C180.025 503.269 179.777 503.534 179.599 503.864C179.424 504.189 179.335 504.547 179.332 504.938V506.148C179.332 506.655 179.424 507.091 179.61 507.455C179.796 507.814 180.055 508.091 180.388 508.284C180.722 508.473 181.112 508.568 181.559 508.568C181.858 508.568 182.129 508.527 182.371 508.443C182.614 508.356 182.824 508.229 183.002 508.062C183.18 507.896 183.315 507.689 183.405 507.443L185.326 507.659C185.205 508.167 184.974 508.61 184.633 508.989C184.296 509.364 183.864 509.655 183.337 509.864C182.811 510.068 182.208 510.17 181.53 510.17ZM191.24 513.273V501.273H193.263V502.716H193.382C193.488 502.504 193.638 502.278 193.831 502.04C194.024 501.797 194.285 501.591 194.615 501.42C194.944 501.246 195.365 501.159 195.876 501.159C196.551 501.159 197.159 501.331 197.7 501.676C198.246 502.017 198.677 502.523 198.996 503.193C199.318 503.86 199.479 504.678 199.479 505.648C199.479 506.606 199.321 507.42 199.007 508.091C198.693 508.761 198.265 509.273 197.723 509.625C197.181 509.977 196.568 510.153 195.882 510.153C195.382 510.153 194.967 510.07 194.638 509.903C194.308 509.737 194.043 509.536 193.842 509.301C193.645 509.062 193.492 508.837 193.382 508.625H193.297V513.273H191.24ZM193.257 505.636C193.257 506.201 193.337 506.695 193.496 507.119C193.659 507.544 193.891 507.875 194.194 508.114C194.501 508.348 194.873 508.466 195.308 508.466C195.763 508.466 196.143 508.345 196.45 508.102C196.757 507.856 196.988 507.521 197.143 507.097C197.302 506.669 197.382 506.182 197.382 505.636C197.382 505.095 197.304 504.614 197.149 504.193C196.994 503.773 196.763 503.443 196.456 503.205C196.149 502.966 195.766 502.847 195.308 502.847C194.869 502.847 194.496 502.962 194.189 503.193C193.882 503.424 193.649 503.748 193.49 504.165C193.335 504.581 193.257 505.072 193.257 505.636ZM203.811 510.176C203.258 510.176 202.76 510.078 202.317 509.881C201.878 509.68 201.529 509.384 201.272 508.994C201.018 508.604 200.891 508.123 200.891 507.551C200.891 507.059 200.982 506.652 201.164 506.33C201.345 506.008 201.594 505.75 201.908 505.557C202.222 505.364 202.576 505.218 202.97 505.119C203.368 505.017 203.779 504.943 204.203 504.898C204.715 504.845 205.129 504.797 205.448 504.756C205.766 504.71 205.997 504.642 206.141 504.551C206.289 504.456 206.362 504.311 206.362 504.114V504.08C206.362 503.652 206.236 503.32 205.982 503.085C205.728 502.85 205.362 502.733 204.885 502.733C204.381 502.733 203.982 502.843 203.686 503.062C203.395 503.282 203.198 503.542 203.095 503.841L201.175 503.568C201.326 503.038 201.576 502.595 201.925 502.239C202.273 501.879 202.7 501.61 203.203 501.432C203.707 501.25 204.264 501.159 204.874 501.159C205.294 501.159 205.713 501.208 206.129 501.307C206.546 501.405 206.927 501.568 207.272 501.795C207.616 502.019 207.893 502.324 208.101 502.71C208.313 503.097 208.419 503.58 208.419 504.159V510H206.442V508.801H206.374C206.249 509.044 206.073 509.271 205.845 509.483C205.622 509.691 205.34 509.86 204.999 509.989C204.662 510.114 204.266 510.176 203.811 510.176ZM204.345 508.665C204.758 508.665 205.116 508.583 205.419 508.42C205.722 508.254 205.955 508.034 206.118 507.761C206.285 507.489 206.368 507.191 206.368 506.869V505.841C206.304 505.894 206.194 505.943 206.039 505.989C205.887 506.034 205.717 506.074 205.527 506.108C205.338 506.142 205.15 506.172 204.965 506.199C204.779 506.225 204.618 506.248 204.482 506.267C204.175 506.309 203.9 506.377 203.658 506.472C203.415 506.566 203.224 506.699 203.084 506.869C202.944 507.036 202.874 507.252 202.874 507.517C202.874 507.896 203.012 508.182 203.289 508.375C203.565 508.568 203.917 508.665 204.345 508.665ZM217.445 503.58L215.57 503.784C215.517 503.595 215.424 503.417 215.292 503.25C215.163 503.083 214.989 502.949 214.769 502.847C214.549 502.744 214.28 502.693 213.962 502.693C213.534 502.693 213.174 502.786 212.883 502.972C212.595 503.157 212.453 503.398 212.457 503.693C212.453 503.947 212.546 504.153 212.735 504.312C212.928 504.472 213.246 504.602 213.689 504.705L215.178 505.023C216.004 505.201 216.618 505.483 217.019 505.869C217.424 506.256 217.629 506.761 217.633 507.386C217.629 507.936 217.468 508.42 217.15 508.841C216.835 509.258 216.398 509.583 215.837 509.818C215.277 510.053 214.633 510.17 213.905 510.17C212.837 510.17 211.977 509.947 211.326 509.5C210.674 509.049 210.286 508.422 210.161 507.619L212.167 507.426C212.258 507.82 212.451 508.117 212.746 508.318C213.042 508.519 213.426 508.619 213.9 508.619C214.388 508.619 214.78 508.519 215.076 508.318C215.375 508.117 215.525 507.869 215.525 507.574C215.525 507.324 215.428 507.117 215.235 506.955C215.046 506.792 214.75 506.667 214.349 506.58L212.86 506.267C212.023 506.093 211.404 505.799 211.002 505.386C210.6 504.97 210.402 504.443 210.405 503.807C210.402 503.269 210.547 502.803 210.843 502.409C211.142 502.011 211.557 501.705 212.087 501.489C212.621 501.269 213.237 501.159 213.934 501.159C214.957 501.159 215.761 501.377 216.349 501.812C216.939 502.248 217.305 502.837 217.445 503.58ZM226.286 503.58L224.411 503.784C224.358 503.595 224.266 503.417 224.133 503.25C224.004 503.083 223.83 502.949 223.61 502.847C223.391 502.744 223.122 502.693 222.803 502.693C222.375 502.693 222.016 502.786 221.724 502.972C221.436 503.157 221.294 503.398 221.298 503.693C221.294 503.947 221.387 504.153 221.576 504.312C221.769 504.472 222.088 504.602 222.531 504.705L224.019 505.023C224.845 505.201 225.459 505.483 225.86 505.869C226.266 506.256 226.47 506.761 226.474 507.386C226.47 507.936 226.309 508.42 225.991 508.841C225.677 509.258 225.239 509.583 224.678 509.818C224.118 510.053 223.474 510.17 222.747 510.17C221.678 510.17 220.819 509.947 220.167 509.5C219.516 509.049 219.127 508.422 219.002 507.619L221.008 507.426C221.099 507.82 221.292 508.117 221.588 508.318C221.883 508.519 222.267 508.619 222.741 508.619C223.23 508.619 223.622 508.519 223.917 508.318C224.216 508.117 224.366 507.869 224.366 507.574C224.366 507.324 224.269 507.117 224.076 506.955C223.887 506.792 223.591 506.667 223.19 506.58L221.701 506.267C220.864 506.093 220.245 505.799 219.843 505.386C219.442 504.97 219.243 504.443 219.247 503.807C219.243 503.269 219.389 502.803 219.684 502.409C219.983 502.011 220.398 501.705 220.928 501.489C221.463 501.269 222.078 501.159 222.775 501.159C223.798 501.159 224.603 501.377 225.19 501.812C225.781 502.248 226.146 502.837 226.286 503.58ZM230.031 510L227.565 501.273H229.662L231.196 507.409H231.275L232.844 501.273H234.917L236.486 507.375H236.571L238.082 501.273H240.184L237.713 510H235.571L233.934 504.102H233.815L232.179 510H230.031ZM245.237 510.17C244.385 510.17 243.646 509.983 243.021 509.608C242.396 509.233 241.912 508.708 241.567 508.034C241.226 507.36 241.056 506.572 241.056 505.67C241.056 504.769 241.226 503.979 241.567 503.301C241.912 502.623 242.396 502.097 243.021 501.722C243.646 501.347 244.385 501.159 245.237 501.159C246.09 501.159 246.828 501.347 247.453 501.722C248.078 502.097 248.561 502.623 248.902 503.301C249.247 503.979 249.419 504.769 249.419 505.67C249.419 506.572 249.247 507.36 248.902 508.034C248.561 508.708 248.078 509.233 247.453 509.608C246.828 509.983 246.09 510.17 245.237 510.17ZM245.249 508.523C245.711 508.523 246.097 508.396 246.408 508.142C246.718 507.884 246.95 507.54 247.101 507.108C247.256 506.676 247.334 506.195 247.334 505.665C247.334 505.131 247.256 504.648 247.101 504.216C246.95 503.78 246.718 503.434 246.408 503.176C246.097 502.919 245.711 502.79 245.249 502.79C244.775 502.79 244.381 502.919 244.067 503.176C243.756 503.434 243.523 503.78 243.368 504.216C243.217 504.648 243.141 505.131 243.141 505.665C243.141 506.195 243.217 506.676 243.368 507.108C243.523 507.54 243.756 507.884 244.067 508.142C244.381 508.396 244.775 508.523 245.249 508.523ZM251.225 510V501.273H253.219V502.727H253.31C253.469 502.223 253.742 501.835 254.128 501.562C254.519 501.286 254.964 501.148 255.464 501.148C255.577 501.148 255.704 501.153 255.844 501.165C255.988 501.172 256.108 501.186 256.202 501.205V503.097C256.115 503.066 255.977 503.04 255.787 503.017C255.602 502.991 255.422 502.977 255.248 502.977C254.873 502.977 254.536 503.059 254.236 503.222C253.941 503.381 253.708 503.602 253.537 503.886C253.367 504.17 253.282 504.498 253.282 504.869V510H251.225ZM260.508 510.153C259.822 510.153 259.209 509.977 258.667 509.625C258.125 509.273 257.697 508.761 257.383 508.091C257.069 507.42 256.911 506.606 256.911 505.648C256.911 504.678 257.07 503.86 257.389 503.193C257.711 502.523 258.144 502.017 258.69 501.676C259.235 501.331 259.843 501.159 260.514 501.159C261.025 501.159 261.445 501.246 261.775 501.42C262.105 501.591 262.366 501.797 262.559 502.04C262.752 502.278 262.902 502.504 263.008 502.716H263.093V498.364H265.156V510H263.133V508.625H263.008C262.902 508.837 262.748 509.062 262.548 509.301C262.347 509.536 262.082 509.737 261.752 509.903C261.423 510.07 261.008 510.153 260.508 510.153ZM261.082 508.466C261.517 508.466 261.889 508.348 262.195 508.114C262.502 507.875 262.735 507.544 262.894 507.119C263.053 506.695 263.133 506.201 263.133 505.636C263.133 505.072 263.053 504.581 262.894 504.165C262.739 503.748 262.508 503.424 262.201 503.193C261.898 502.962 261.525 502.847 261.082 502.847C260.623 502.847 260.241 502.966 259.934 503.205C259.627 503.443 259.396 503.773 259.241 504.193C259.086 504.614 259.008 505.095 259.008 505.636C259.008 506.182 259.086 506.669 259.241 507.097C259.4 507.521 259.633 507.856 259.94 508.102C260.25 508.345 260.631 508.466 261.082 508.466Z" fill="white"/>
<rect x="137" y="839" width="120" height="5" rx="2.5" fill="black"/>
</g>
<defs>
<filter id="filter0_f_1_638" x="235.773" y="25.1818" width="7.45459" height="4.18182" filterUnits="userSpaceOnUse" color-interpolation-filters="sRGB">
<feFlood flood-opacity="0" result="BackgroundImageFix"/>
<feBlend mode="normal" in="SourceGraphic" in2="BackgroundImageFix" result="shape"/>
<feGaussianBlur stdDeviation="0.5" result="effect1_foregroundBlur_1_638"/>
</filter>
<filter id="filter1_f_1_638" x="235.773" y="29.5455" width="7.45459" height="5.27273" filterUnits="userSpaceOnUse" color-interpolation-filters="sRGB">
<feFlood flood-opacity="0" result="BackgroundImageFix"/>
<feBlend mode="normal" in="SourceGraphic" in2="BackgroundImageFix" result="shape"/>
<feGaussianBlur stdDeviation="0.5" result="effect1_foregroundBlur_1_638"/>
</filter>
<clipPath id="clip0_1_638">
<rect width="393" height="852" fill="white"/>
</clipPath>
</defs>
</svg>
