<svg width="393" height="852" viewBox="0 0 393 852" fill="none" xmlns="http://www.w3.org/2000/svg">
<g clip-path="url(#clip0_1_368)">
<rect width="393" height="852" fill="white"/>
<path d="M46.7666 23.7231C47.4085 23.7231 48.0173 23.8421 48.5928 24.0801C49.1683 24.3125 49.6774 24.6777 50.1201 25.1758C50.5684 25.6683 50.9198 26.3019 51.1743 27.0767C51.4289 27.8459 51.5562 28.7728 51.5562 29.8574V29.874C51.5562 31.2188 51.3625 32.3698 50.9751 33.3271C50.5877 34.2845 50.0316 35.0205 49.3066 35.5352C48.5872 36.0443 47.7267 36.2988 46.7251 36.2988C45.9891 36.2988 45.325 36.166 44.7329 35.9004C44.1463 35.6292 43.6593 35.2585 43.272 34.7881C42.8901 34.3122 42.6328 33.7699 42.5 33.1611L42.4834 33.0698H44.5835L44.6167 33.1528C44.7218 33.4295 44.8713 33.673 45.0649 33.8833C45.2642 34.0936 45.5021 34.2568 45.7788 34.373C46.061 34.4837 46.3765 34.5391 46.7251 34.5391C47.356 34.5391 47.8706 34.3537 48.269 33.9829C48.673 33.6066 48.9746 33.1058 49.1738 32.4805C49.3786 31.8496 49.4948 31.1523 49.5225 30.3887C49.528 30.3057 49.5308 30.2254 49.5308 30.1479C49.5308 30.0649 49.5308 29.9847 49.5308 29.9072L49.1572 27.9067C49.1572 27.453 49.0521 27.0407 48.8418 26.6699C48.6315 26.2992 48.3465 26.0059 47.9868 25.79C47.6326 25.5742 47.2314 25.4663 46.7832 25.4663C46.3516 25.4663 45.9559 25.5715 45.5962 25.7817C45.2365 25.992 44.9487 26.2798 44.7329 26.645C44.5171 27.0047 44.4092 27.4087 44.4092 27.8569V27.8735C44.4092 28.3384 44.5116 28.7507 44.7163 29.1104C44.9211 29.4645 45.2005 29.744 45.5547 29.9487C45.9089 30.1535 46.3128 30.2559 46.7666 30.2559C47.2204 30.2559 47.6271 30.1562 47.9868 29.957C48.3465 29.7578 48.6315 29.4811 48.8418 29.127C49.0521 28.7728 49.1572 28.3716 49.1572 27.9233V27.9067H49.6553V30.1147H49.3647C49.2209 30.4302 49.0078 30.7235 48.7256 30.9946C48.4434 31.2658 48.0947 31.4844 47.6797 31.6504C47.2702 31.8164 46.7887 31.8994 46.2354 31.8994C45.4717 31.8994 44.7965 31.7279 44.21 31.3848C43.6234 31.0417 43.1613 30.5713 42.8237 29.9736C42.4917 29.376 42.3257 28.7008 42.3257 27.9482V27.9316C42.3257 27.1182 42.5138 26.396 42.8901 25.7651C43.272 25.1287 43.7977 24.6307 44.4673 24.271C45.1424 23.9058 45.9089 23.7231 46.7666 23.7231ZM54.8247 34.3896C54.4484 34.3896 54.133 34.2651 53.8784 34.0161C53.6294 33.7616 53.5049 33.4517 53.5049 33.0864C53.5049 32.7157 53.6294 32.4058 53.8784 32.1567C54.133 31.9022 54.4484 31.7749 54.8247 31.7749C55.2065 31.7749 55.522 31.9022 55.771 32.1567C56.02 32.4058 56.1445 32.7157 56.1445 33.0864C56.1445 33.4517 56.02 33.7616 55.771 34.0161C55.522 34.2651 55.2065 34.3896 54.8247 34.3896ZM54.8247 28.2305C54.4484 28.2305 54.133 28.106 53.8784 27.8569C53.6294 27.6024 53.5049 27.2925 53.5049 26.9272C53.5049 26.5565 53.6294 26.2466 53.8784 25.9976C54.133 25.743 54.4484 25.6157 54.8247 25.6157C55.2065 25.6157 55.522 25.743 55.771 25.9976C56.02 26.2466 56.1445 26.5565 56.1445 26.9272C56.1445 27.2925 56.02 27.6024 55.771 27.8569C55.522 28.106 55.2065 28.2305 54.8247 28.2305ZM63.9038 36V33.7007H58.0435V31.9492C58.3589 31.4124 58.6743 30.8729 58.9897 30.3306C59.3107 29.7882 59.6344 29.2487 59.9609 28.7119C60.293 28.1696 60.6222 27.6356 60.9487 27.1099C61.2808 26.5786 61.61 26.0557 61.9365 25.541C62.2686 25.0208 62.6006 24.5145 62.9326 24.022H65.9458V31.9326H67.5645V33.7007H65.9458V36H63.9038ZM60.0356 31.9824H63.937V25.7319H63.8125C63.569 26.1082 63.3172 26.4956 63.0571 26.894C62.8026 27.2925 62.5452 27.6992 62.2852 28.1143C62.0251 28.5293 61.7677 28.9471 61.5132 29.3677C61.2586 29.7827 61.0068 30.2005 60.7578 30.6211C60.5088 31.0361 60.2681 31.4484 60.0356 31.8579V31.9824ZM72.02 36V26.1304H71.8706L68.8906 28.2305V26.2217L72.02 24.022H74.1533V36H72.02Z" fill="black"/>
<path d="M82.2507 30.5545C82.0199 30.5504 81.8275 30.4996 81.6736 30.4021C81.5237 30.3005 81.4124 30.1724 81.3395 30.0179C81.2666 29.8594 81.2382 29.6928 81.2544 29.518C81.2706 29.3391 81.3314 29.1745 81.4367 29.0241C81.542 28.8696 81.6979 28.7456 81.9044 28.6521L91.6243 24.1584C91.9038 24.0324 92.161 23.9815 92.3959 24.0059C92.6308 24.0263 92.8231 24.1096 92.973 24.2559C93.1228 24.3982 93.2119 24.5852 93.2403 24.8169C93.2727 25.0445 93.2241 25.3006 93.0945 25.5852L88.6294 35.3044C88.5322 35.5239 88.4046 35.6885 88.2467 35.7983C88.0887 35.9121 87.9207 35.9771 87.7425 35.9934C87.5643 36.0137 87.3962 35.9873 87.2382 35.9141C87.0803 35.8409 86.9527 35.7271 86.8555 35.5727C86.7583 35.4223 86.7097 35.2353 86.7097 35.0117L86.6976 30.6643C86.6976 30.5992 86.6652 30.5667 86.6004 30.5667L82.2507 30.5545Z" fill="black"/>
<rect x="135.5" y="12" width="122" height="36" rx="18" fill="black"/>
<circle cx="239.5" cy="30" r="6" fill="#0E101F"/>
<circle cx="239.5" cy="30" r="4.90909" fill="#01031A"/>
<g filter="url(#filter0_f_1_368)">
<ellipse cx="239.5" cy="27.2727" rx="2.72727" ry="1.09091" fill="white" fill-opacity="0.1"/>
</g>
<g filter="url(#filter1_f_1_368)">
<ellipse cx="239.5" cy="32.1818" rx="2.72727" ry="1.63636" fill="white" fill-opacity="0.1"/>
</g>
<path d="M284.917 32H286.083C286.728 32 287.25 32.5037 287.25 33.125V35.375C287.25 35.9963 286.728 36.5 286.083 36.5H284.917C284.272 36.5 283.75 35.9963 283.75 35.375V33.125C283.75 32.5037 284.272 32 284.917 32Z" fill="black"/>
<path d="M289.917 30H291.083C291.728 30 292.25 30.5037 292.25 31.125V35.375C292.25 35.9963 291.728 36.5 291.083 36.5H289.917C289.272 36.5 288.75 35.9963 288.75 35.375V31.125C288.75 30.5037 289.272 30 289.917 30Z" fill="black"/>
<path opacity="0.2" d="M294.917 27H296.083C296.728 27 297.25 27.5037 297.25 28.125V35.375C297.25 35.9963 296.728 36.5 296.083 36.5H294.917C294.272 36.5 293.75 35.9963 293.75 35.375V28.125C293.75 27.5037 294.272 27 294.917 27Z" fill="black"/>
<path opacity="0.2" d="M299.917 24H301.083C301.728 24 302.25 24.5037 302.25 25.125V35.375C302.25 35.9963 301.728 36.5 301.083 36.5H299.917C299.272 36.5 298.75 35.9963 298.75 35.375V25.125C298.75 24.5037 299.272 24 299.917 24Z" fill="black"/>
<path d="M315.107 32.6929C312.774 32.6929 311.119 31.0449 311.119 28.6982C311.119 26.3516 312.774 24.7036 315.107 24.7036H321.066C323.393 24.7036 325.054 26.3516 325.054 28.6982C325.054 31.0449 323.393 32.6929 321.066 32.6929H319.128C318.799 32.3501 318.772 31.6052 319.023 31.3284H320.994C322.53 31.3284 323.617 30.2473 323.617 28.6982C323.617 27.1558 322.53 26.0681 320.994 26.0681H315.18C313.644 26.0681 312.556 27.1558 312.556 28.6982C312.556 30.2473 313.644 31.3284 315.18 31.3284H315.529C315.45 31.7371 315.483 32.2314 315.542 32.6929H315.107ZM320.434 35.8438C318.1 35.8438 316.446 34.1958 316.446 31.8491C316.446 29.5024 318.1 27.8545 320.434 27.8545H322.365C322.675 28.1973 322.701 28.9158 322.477 29.219H320.506C318.97 29.219 317.883 30.3 317.883 31.8491C317.883 33.3916 318.97 34.4792 320.506 34.4792H326.32C327.856 34.4792 328.944 33.3916 328.944 31.8491C328.944 30.3 327.856 29.219 326.32 29.219H325.971C326.05 28.8037 326.023 28.3159 325.958 27.8545H326.393C328.726 27.8545 330.381 29.5024 330.381 31.8491C330.381 34.1958 328.726 35.8438 326.393 35.8438H320.434Z" fill="black"/>
<g opacity="0.3">
<path d="M340.416 24.7777C339.75 25.7866 339.75 27.1911 339.75 30C339.75 32.8089 339.75 34.2134 340.416 35.2223C340.704 35.659 341.075 36.034 341.506 36.3259C342.503 37 343.89 37 346.665 37H357.533C360.308 37 361.695 37 362.692 36.3259C363.123 36.034 363.494 35.659 363.782 35.2223C364.448 34.2134 364.448 32.8089 364.448 30C364.448 27.1911 364.448 25.7866 363.782 24.7777C363.494 24.341 363.123 23.966 362.692 23.6741C361.695 23 360.308 23 357.533 23H346.665C343.89 23 342.503 23 341.506 23.6741C341.075 23.966 340.704 24.341 340.416 24.7777Z" fill="black"/>
<path d="M366.75 29.75C366.75 30.6231 366.232 31.4112 365.436 31.75V27.75C366.232 28.0888 366.75 28.8769 366.75 29.75Z" fill="black"/>
</g>
<path d="M339.75 30C339.75 27.1911 339.75 25.7866 340.424 24.7777C340.716 24.341 341.091 23.966 341.528 23.6741C342.537 23 343.941 23 346.75 23H349.629V37H346.75C343.941 37 342.537 37 341.528 36.3259C341.091 36.034 340.716 35.659 340.424 35.2223C339.75 34.2134 339.75 32.8089 339.75 30Z" fill="#F7CE45"/>
<path d="M349.46 34.1719C347.709 34.1719 346.555 33.2319 346.447 31.8462L346.442 31.7764H347.994L348 31.8354C348.069 32.437 348.623 32.8667 349.46 32.8667C350.288 32.8667 350.83 32.4048 350.83 31.7495V31.7388C350.83 30.9976 350.277 30.5894 349.337 30.5894H348.451V29.4346H349.315C350.132 29.4346 350.658 29.0049 350.658 28.3765V28.3657C350.658 27.7212 350.212 27.3237 349.45 27.3237C348.687 27.3237 348.177 27.7373 348.112 28.3818L348.107 28.4302H346.614L346.619 28.3657C346.732 26.98 347.822 26.0776 349.45 26.0776C351.115 26.0776 352.189 26.9155 352.189 28.1509V28.1616C352.189 29.1284 351.48 29.7568 350.572 29.9448V29.9771C351.727 30.0845 352.479 30.7505 352.479 31.8032V31.814C352.479 33.2212 351.271 34.1719 349.46 34.1719ZM353.424 34V32.9097L355.921 30.4443C357.012 29.3862 357.307 28.9941 357.307 28.4517V28.4355C357.307 27.7749 356.856 27.313 356.115 27.313C355.357 27.313 354.836 27.8179 354.836 28.5537V28.5806H353.338L353.333 28.5591C353.333 27.0713 354.493 26.0508 356.19 26.0508C357.785 26.0508 358.902 26.9639 358.902 28.3013V28.3174C358.902 29.1982 358.446 29.9287 357.033 31.2339L355.599 32.5713V32.6948H359.015V34H353.424Z" fill="black"/>
<g clip-path="url(#clip1_1_368)">
<path d="M86.1407 298.741C80.9419 303.075 75.8196 307.346 70.5698 311.732C71.4235 305.447 72.2518 299.34 73.0928 293.119C66.0591 295.159 59.1147 297.16 52.183 299.174C53.3807 297.925 54.5658 296.676 55.7762 295.439C59.4205 291.678 63.0647 287.93 66.6962 284.169C66.9638 283.889 67.2314 283.596 67.2314 283.596C67.2314 283.596 66.8619 283.43 66.4924 283.251C60.1213 280.255 53.7375 277.272 47.3665 274.276C47.1371 274.174 46.9205 274.047 46.5 273.843C54.5785 272.415 62.4659 271.013 70.4934 269.598C65.4475 263.81 60.4908 258.111 55.394 252.272C63.3705 253.573 71.156 254.848 79.1198 256.148L63.2049 230.561C70.4552 235.164 77.7181 239.766 85.0958 244.445C85.7966 239.205 86.4847 234.042 87.1983 228.675C90.3965 233.188 93.4929 237.56 96.6529 242.01C101.367 234.947 106.031 227.973 110.707 221C110.644 222.262 110.58 223.537 110.504 224.812C110.287 228.279 110.07 231.76 109.854 235.227C109.739 237.063 109.65 238.912 109.497 240.748C109.484 240.952 109.459 241.258 109.459 241.258C109.459 241.258 109.752 241.194 109.968 241.156C116.492 239.868 123.004 238.58 129.528 237.305C129.884 237.229 130.241 237.165 130.751 237.076C127.323 243.387 123.946 249.595 120.519 255.867H150.425C150.055 256.033 149.673 256.186 149.456 256.263C138.817 260.38 128.177 264.498 117.524 268.603C117.27 268.705 116.875 268.858 116.875 268.858C116.875 268.858 117.104 269.177 117.27 269.419C120.353 273.843 123.411 278.292 126.469 282.729C126.635 282.971 126.915 283.366 127.068 283.608C126.788 283.608 126.648 283.608 126.508 283.596C122.366 283.328 118.238 283.06 114.11 282.792C112.453 282.69 110.797 282.601 109.153 282.474C108.847 282.448 108.388 282.41 108.388 282.41C108.388 282.41 108.516 282.856 108.605 283.162C111.204 292.303 113.778 301.456 116.339 310.597C116.39 310.788 116.454 311.031 116.543 311.4C115.486 310.368 114.313 309.233 113.281 308.226C109.064 304.108 104.833 299.99 100.628 295.847C100.437 295.656 100.144 295.375 100.144 295.375C100.144 295.375 99.9531 295.72 99.8257 295.962C96.9587 301.138 94.079 306.314 91.1993 311.477C91.0464 311.757 90.8807 312.038 90.6386 312.471C89.1223 307.843 87.657 303.356 86.1534 298.741H86.1407Z" fill="#1D1D1B"/>
<path d="M120.06 269.317C119.78 269.432 119.41 269.572 119.41 269.572C119.41 269.572 119.64 269.916 119.793 270.133C122.876 274.557 125.934 279.006 128.992 283.443C129.158 283.685 129.438 284.106 129.591 284.335C129.311 284.322 129.171 284.31 129.031 284.297C124.889 284.029 120.761 283.761 116.633 283.494C114.976 283.392 113.32 283.302 111.676 283.175C111.37 283.149 110.911 283.111 110.911 283.111C110.911 283.111 111.039 283.557 111.115 283.863C113.715 293.004 116.288 302.158 118.85 311.298C118.901 311.49 118.977 311.796 119.054 312.101C117.996 311.069 116.824 309.947 115.792 308.927C111.574 304.809 107.344 300.691 103.139 296.548C102.948 296.357 102.654 296.077 102.654 296.077C102.654 296.077 102.463 296.408 102.336 296.663C99.4689 301.839 96.5892 307.015 93.7095 312.178C93.5566 312.458 93.3909 312.739 93.1488 313.172C91.6325 308.545 90.1672 304.057 88.6636 299.442C83.4648 303.777 78.3425 308.047 73.0928 312.433C73.9465 306.148 74.7747 300.041 75.6157 293.82C68.5821 295.86 61.6376 297.861 54.7059 299.876C55.9037 298.626 57.1014 297.377 58.2992 296.14C61.9434 292.379 65.5877 288.631 69.2192 284.87C69.4995 284.59 69.7671 284.31 69.7671 284.31C69.7671 284.31 69.3848 284.131 69.0153 283.953C62.6442 280.957 56.2604 277.973 49.8894 274.978C49.66 274.876 49.4434 274.748 49.0229 274.544C57.1014 273.116 64.9888 271.714 73.0163 270.299C67.9704 264.511 63.0138 258.812 57.9169 252.973C65.8935 254.274 73.6789 255.549 81.6427 256.849L65.7278 231.263C72.9781 235.865 80.2411 240.467 87.6188 245.146C88.3196 239.906 89.0076 234.743 89.7212 229.376C92.9195 233.889 96.0158 238.262 99.1758 242.711C103.89 235.674 108.554 228.7 113.218 221.714C113.154 222.976 113.09 224.251 113.014 225.526C112.797 228.993 112.581 232.474 112.364 235.941C112.249 237.777 112.16 239.626 112.007 241.462C111.994 241.678 111.969 241.971 111.969 241.971C111.969 241.971 112.262 241.908 112.479 241.869C119.003 240.582 125.514 239.294 132.038 238.019C132.395 237.943 132.751 237.879 133.261 237.79C129.833 244.1 126.457 250.309 123.029 256.581H152.96" fill="#FFED00"/>
<path d="M132.127 295.312L132.28 289.842H123.501L120.761 295.312H111.892L130.916 261.668H140.154L141.148 295.312H132.14H132.127ZM132.522 282.168L132.79 271.625L127.438 282.168H132.535H132.522Z" fill="white"/>
<path d="M139.887 261.923L140.868 295.057H132.382L132.535 289.587H123.335L120.595 295.057H112.313L131.044 261.923H139.887ZM127.017 282.423H132.777L133.07 270.516L127.017 282.423ZM140.384 261.413H130.751L130.611 261.668L111.88 294.802L111.446 295.567H120.914L121.054 295.286L123.653 290.097H132.012L131.872 295.044V295.567C131.859 295.567 132.382 295.567 132.382 295.567H141.39V295.044C141.378 295.044 140.397 261.91 140.397 261.91V261.413H140.384ZM127.846 281.913L132.509 272.747L132.28 281.913H127.846Z" fill="#1D1D1B"/>
<path d="M142.792 295.324L151.737 261.898V261.668H151.992H172.366L170.315 269.304H158.427L157.012 274.582H167.168L165.244 281.785H155.075L151.457 295.324H142.792Z" fill="white"/>
<path d="M172.035 261.923L170.124 269.049H158.223L156.668 274.837H166.836L165.04 281.53H154.872L151.24 295.069H143.098L151.966 261.936H172.01M172.698 261.413H151.482V261.859L142.626 294.929L142.461 295.567H151.661L151.762 295.184L155.292 282.028H165.46L165.562 281.645L167.359 274.952L167.524 274.315H157.356L158.63 269.547H170.532L170.634 269.164L172.545 262.038L172.711 261.4L172.698 261.413Z" fill="#1D1D1B"/>
<path d="M167.18 295.312L176.189 261.668H198.437L196.398 269.253H182.802L181.528 274.009H194.143L192.193 281.275H179.579L177.973 287.305H191.964L189.81 295.312H167.18Z" fill="white"/>
<path d="M198.106 261.923L196.207 268.998H182.611L181.197 274.264H193.811L192.002 281.02H179.387L177.642 287.548H191.633L189.619 295.057H167.512L176.38 261.923H198.106ZM198.768 261.413H175.998L175.896 261.796L167.028 294.929L166.862 295.567H190.027L190.129 295.184L192.142 287.675L192.308 287.038H178.317L179.795 281.53H192.41L192.512 281.148L194.321 274.391L194.487 273.754H181.872L183.006 269.508H196.602L196.704 269.126L198.602 262.05L198.768 261.413Z" fill="#1D1D1B"/>
<path d="M200.081 295.312L206.757 270.363H198.488L200.82 261.668H225.985L223.653 270.363H215.397L208.707 295.312H200.081Z" fill="white"/>
<path d="M225.654 261.923L223.462 270.108H215.193L208.516 295.057H200.412L207.089 270.108H198.819L201.011 261.923H225.641M226.317 261.413H200.628L200.527 261.796L198.335 269.98L198.169 270.618H206.439L199.928 294.929L199.762 295.567H208.924L209.025 295.184L215.613 270.605H223.883L223.985 270.222L226.176 262.038L226.342 261.4L226.317 261.413Z" fill="#1D1D1B"/>
<path d="M236.982 295.312L235.325 284.972C235.083 283.404 234.803 282.78 234.599 282.537C234.204 282.079 233.681 281.862 233.019 281.862H232.496L228.89 295.312H220.226L229.234 261.668H242.932C245.455 261.668 247.354 261.948 248.564 262.509C249.813 263.083 250.654 264.154 251.1 265.684C251.533 267.188 251.457 269.037 250.883 271.191C250.386 273.053 249.622 274.684 248.641 276.036C247.647 277.387 246.475 278.496 245.137 279.338C244.423 279.784 243.544 280.179 242.499 280.498C243.085 280.829 243.518 281.148 243.786 281.492C244.028 281.785 244.321 282.385 244.652 283.302C244.996 284.22 245.188 284.909 245.251 285.419L246.64 295.312H236.969H236.982ZM237.389 275.092C237.632 275.092 238.205 275.016 239.594 274.646C240.116 274.519 240.613 274.2 241.059 273.69C241.518 273.167 241.849 272.555 242.028 271.867C242.295 270.873 242.257 270.12 241.913 269.61C241.582 269.113 240.715 268.858 239.326 268.858H235.962L234.293 275.08H237.377L237.389 275.092Z" fill="white"/>
<path d="M242.932 261.923C245.442 261.923 247.277 262.191 248.462 262.739C249.635 263.287 250.437 264.294 250.858 265.76C251.278 267.226 251.202 269.024 250.641 271.127C250.144 272.963 249.418 274.557 248.437 275.883C247.456 277.221 246.322 278.292 245.009 279.121C244.181 279.644 243.111 280.09 241.811 280.434C242.665 280.842 243.264 281.25 243.595 281.658C243.824 281.926 244.092 282.512 244.423 283.404C244.754 284.297 244.945 284.985 245.009 285.457L246.36 295.057H237.198L235.58 284.934C235.376 283.621 235.121 282.767 234.79 282.384C234.344 281.875 233.745 281.62 233.006 281.62H232.293L228.687 295.069H220.544L229.413 261.936H242.919M233.975 275.347H237.389C237.759 275.347 238.511 275.194 239.658 274.901C240.231 274.761 240.766 274.417 241.25 273.856C241.734 273.295 242.079 272.657 242.27 271.931C242.55 270.86 242.512 270.044 242.129 269.47C241.747 268.896 240.817 268.616 239.339 268.616H235.784L233.975 275.347ZM242.932 261.413H229.031L228.929 261.796L220.06 294.929L219.895 295.567H229.082L229.183 295.184L232.688 282.117H233.019C233.605 282.117 234.064 282.308 234.408 282.703C234.561 282.882 234.841 283.43 235.07 284.998L236.689 295.133L236.752 295.567H246.933L246.857 294.98L245.506 285.38C245.442 284.858 245.239 284.144 244.895 283.213C244.538 282.244 244.245 281.645 243.977 281.326C243.76 281.071 243.48 280.816 243.098 280.561C243.939 280.268 244.665 279.924 245.277 279.542C246.627 278.687 247.838 277.553 248.845 276.163C249.851 274.786 250.628 273.129 251.125 271.242C251.712 269.049 251.788 267.15 251.342 265.607C250.883 264.001 249.979 262.866 248.666 262.267C247.405 261.694 245.532 261.413 242.932 261.413ZM236.166 269.126H239.339C240.6 269.126 241.441 269.355 241.709 269.763C242.002 270.21 242.028 270.898 241.785 271.816C241.607 272.466 241.301 273.04 240.868 273.537C240.448 274.009 240.002 274.302 239.543 274.417C238.179 274.774 237.632 274.85 237.402 274.85H234.65L236.179 269.139L236.166 269.126Z" fill="#1D1D1B"/>
<path d="M266.123 295.312L266.276 289.842H257.496L254.757 295.312H245.888L264.912 261.668H274.15L275.144 295.312H266.136H266.123ZM266.531 282.168L266.798 271.625L261.446 282.168H266.543H266.531Z" fill="white"/>
<path d="M273.896 261.923L274.877 295.057H266.39L266.543 289.587H257.344L254.604 295.057H246.334L265.065 261.923H273.908M261.013 282.423H266.773L267.066 270.516L261.013 282.423ZM274.392 261.413H264.759L264.619 261.668L245.888 294.802L245.455 295.567H254.923L255.063 295.286L257.662 290.097H266.021L265.881 295.044V295.567C265.868 295.567 266.39 295.567 266.39 295.567H275.399V295.044C275.386 295.044 274.405 261.91 274.405 261.91V261.413H274.392ZM261.854 281.913L266.518 272.747L266.288 281.913H261.854Z" fill="#1D1D1B"/>
<path d="M289.326 295.885C286.434 295.885 284.178 295.337 282.611 294.266C281.031 293.183 279.923 291.27 279.311 288.593C278.699 285.929 278.954 282.486 280.05 278.356C281.528 272.849 283.847 268.565 286.969 265.595C290.103 262.611 293.85 261.107 298.118 261.107C302.387 261.107 303.941 261.987 305.432 263.733C306.91 265.454 307.637 268.132 307.624 271.676V271.867L299.418 274.009V273.677C299.443 272.696 299.38 271.982 299.24 271.548C299.01 270.822 298.641 270.248 298.144 269.865C297.647 269.483 297.022 269.292 296.271 269.292C294.525 269.292 292.919 270.197 291.492 271.994C290.409 273.346 289.466 275.513 288.676 278.42C287.708 282.028 287.479 284.514 287.976 285.814C288.46 287.076 289.415 287.688 290.906 287.688C292.397 287.688 293.62 287.191 294.678 286.12C295.735 285.049 296.729 283.455 297.634 281.403L297.736 281.173L304.591 284.08L304.477 284.322C303.317 286.847 301.979 288.988 300.488 290.684C298.997 292.392 297.341 293.693 295.57 294.559C293.786 295.426 291.683 295.873 289.301 295.873L289.326 295.885Z" fill="white"/>
<path d="M298.131 261.362C301.431 261.362 303.801 262.203 305.241 263.899C306.681 265.582 307.395 268.183 307.369 271.676L299.673 273.69C299.698 272.683 299.635 271.943 299.482 271.472C299.24 270.694 298.845 270.082 298.297 269.661C297.749 269.241 297.073 269.024 296.271 269.024C294.436 269.024 292.779 269.955 291.301 271.829C290.193 273.218 289.237 275.386 288.447 278.356C287.466 282.028 287.224 284.539 287.746 285.903C288.269 287.267 289.326 287.943 290.919 287.943C292.512 287.943 293.786 287.395 294.882 286.298C295.978 285.202 296.971 283.596 297.889 281.505L304.26 284.22C303.113 286.732 301.801 288.835 300.323 290.531C298.845 292.214 297.226 293.489 295.481 294.355C293.735 295.21 291.683 295.643 289.326 295.643C286.969 295.643 284.28 295.12 282.764 294.075C281.235 293.03 280.165 291.181 279.566 288.555C278.954 285.916 279.209 282.55 280.305 278.432C281.77 272.951 284.051 268.743 287.147 265.799C290.244 262.854 293.901 261.388 298.131 261.388M298.131 260.852C293.799 260.852 289.976 262.382 286.803 265.403C283.656 268.399 281.299 272.734 279.821 278.279C278.699 282.448 278.457 285.941 279.069 288.644C279.706 291.398 280.853 293.361 282.471 294.47C284.076 295.567 286.383 296.127 289.326 296.127C292.27 296.127 293.888 295.681 295.697 294.789C297.507 293.909 299.189 292.583 300.705 290.85C302.208 289.128 303.559 286.974 304.731 284.424L304.948 283.953L304.464 283.749L298.093 281.033L297.634 280.842L297.43 281.301C296.538 283.328 295.557 284.883 294.525 285.941C293.518 286.961 292.372 287.446 290.932 287.446C289.492 287.446 288.676 286.897 288.23 285.725C287.759 284.475 287.988 282.04 288.944 278.483C289.721 275.602 290.651 273.473 291.709 272.147C293.098 270.388 294.601 269.534 296.283 269.534C297.965 269.534 297.545 269.7 298.004 270.057C298.462 270.414 298.794 270.936 299.01 271.612C299.099 271.905 299.201 272.479 299.176 273.664V274.34C299.163 274.34 299.813 274.174 299.813 274.174L307.509 272.16L307.891 272.058V271.663C307.904 268.055 307.152 265.327 305.636 263.555C304.107 261.757 301.584 260.839 298.131 260.839V260.852Z" fill="#1D1D1B"/>
<path d="M322.927 295.312L321.092 281.964L315.83 287.114L313.625 295.312H304.999L314.008 261.668H322.634L319.461 273.537L330.687 261.668H342.206L328.941 274.519L333.452 295.312H322.927Z" fill="white"/>
<path d="M314.199 261.923H322.303L318.952 274.442L330.789 261.923H341.569L328.648 274.429L333.121 295.057H323.144L321.258 281.428L315.588 286.974L313.422 295.057H305.318L314.186 261.923M313.816 261.413L313.715 261.796L304.846 294.929L304.68 295.567H313.842L313.944 295.184L316.072 287.229L320.927 282.486L322.672 295.108L322.736 295.554H333.796L333.656 294.942L329.234 274.595L341.951 262.28L342.856 261.4H330.598L330.445 261.566L319.984 272.619L322.812 262.038L322.978 261.4H322.316H314.212H313.816V261.413Z" fill="#1D1D1B"/>
<path d="M346.245 305.319H75.0296V320.745H346.245V305.319Z" fill="white"/>
<path d="M345.99 305.574V320.49H75.2844V305.574H345.99ZM346.5 305.064H74.7747V321H346.5V305.064Z" fill="#1D1D1B"/>
<path d="M126.826 251.992L126.852 251.711V251.584C126.864 251.584 126.864 251.571 126.864 251.571C126.915 251.38 126.928 251.189 126.915 250.997V250.972V250.946C127.03 249.939 127.005 248.919 126.979 248.065C126.903 245.873 126.699 244.228 126.317 242.762C125.769 240.658 124.902 238.67 123.781 237.012L123.513 236.617H346.232V252.005H126.826V251.992Z" fill="white"/>
<path d="M345.99 236.872V251.75H127.107C127.107 251.711 127.107 251.673 127.119 251.635C127.17 251.418 127.196 251.201 127.17 250.985C127.272 250.041 127.272 249.072 127.234 248.065C127.17 246.268 127.005 244.432 126.559 242.711C126.023 240.633 125.157 238.619 123.985 236.885H345.978M346.5 236.362H123.042L123.577 237.152C124.673 238.784 125.539 240.748 126.074 242.826C126.444 244.279 126.648 245.898 126.737 248.078C126.762 248.932 126.788 249.939 126.673 250.921V250.972V251.023C126.686 251.189 126.673 251.342 126.635 251.507V251.546V251.584C126.635 251.597 126.635 251.609 126.635 251.635C126.635 251.66 126.635 251.673 126.635 251.699L126.571 252.26H346.526V236.362H346.5Z" fill="#1D1D1B"/>
<path d="M338.141 238.657C339.122 238.657 340.065 238.899 340.957 239.396C341.862 239.893 342.563 240.595 343.085 241.512C343.595 242.43 343.862 243.387 343.862 244.394C343.862 245.401 343.608 246.344 343.111 247.249C342.601 248.155 341.9 248.856 340.995 249.366C340.091 249.876 339.148 250.118 338.141 250.118C337.135 250.118 336.192 249.863 335.287 249.366C334.382 248.868 333.681 248.155 333.172 247.249C332.662 246.344 332.42 245.401 332.42 244.394C332.42 243.387 332.675 242.43 333.197 241.512C333.72 240.595 334.42 239.893 335.325 239.396C336.23 238.899 337.16 238.657 338.141 238.657ZM338.141 239.779C337.351 239.779 336.599 239.97 335.873 240.365C335.147 240.76 334.586 241.321 334.166 242.061C333.745 242.8 333.541 243.565 333.541 244.381C333.541 245.197 333.745 245.949 334.153 246.676C334.561 247.402 335.121 247.976 335.848 248.384C336.574 248.792 337.338 248.996 338.128 248.996C338.918 248.996 339.696 248.792 340.422 248.384C341.148 247.976 341.709 247.402 342.117 246.676C342.524 245.949 342.728 245.184 342.728 244.381C342.728 243.578 342.524 242.8 342.104 242.061C341.683 241.321 341.123 240.76 340.397 240.365C339.67 239.97 338.918 239.779 338.128 239.779H338.141ZM335.555 247.441V241.372H336.791C337.95 241.372 338.587 241.372 338.727 241.385C339.135 241.423 339.454 241.5 339.683 241.627C339.912 241.755 340.103 241.946 340.244 242.214C340.384 242.481 340.473 242.762 340.473 243.081C340.473 243.399 340.333 243.896 340.04 244.202C339.747 244.508 339.352 244.712 338.829 244.776C339.008 244.853 339.161 244.916 339.25 245.006C339.352 245.082 339.492 245.248 339.658 245.477C339.708 245.541 339.849 245.783 340.103 246.217L340.817 247.441H339.301L338.791 246.459C338.447 245.796 338.167 245.375 337.937 245.21C337.708 245.044 337.428 244.955 337.084 244.955H336.765V247.453H335.529L335.555 247.441ZM336.791 243.986H337.287C338.001 243.986 338.447 243.96 338.613 243.909C338.791 243.858 338.918 243.756 339.02 243.616C339.122 243.476 339.173 243.323 339.173 243.144C339.173 242.966 339.122 242.826 339.033 242.698C338.944 242.571 338.791 242.469 338.625 242.418C338.447 242.367 338.001 242.328 337.3 242.328H336.803V243.986H336.791Z" fill="#1D1D1B"/>
<path d="M91.9638 295.618C84.3186 295.618 79.4511 293.667 77.5015 289.817C75.5647 286.005 75.1825 281.11 76.3547 275.271L76.393 275.08L90.2819 273.97L90.2309 274.289C89.7849 276.992 89.8104 279.057 90.2819 280.459C91.0464 282.69 92.6519 283.787 95.1876 283.787C97.7232 283.787 98.7171 283.2 100.042 282.066C101.38 280.918 102.259 279.567 102.654 278.05C103.037 276.635 102.884 275.347 102.234 274.238C101.571 273.116 99.5454 272.033 96.2197 271.013C90.6132 269.241 86.8542 266.857 85.0321 263.912C83.1845 260.954 82.866 257.142 84.0765 252.591C84.8665 249.608 86.3063 246.765 88.3451 244.113C90.3838 241.461 92.9832 239.345 96.0668 237.828C99.1504 236.311 103.075 235.546 107.739 235.546C112.402 235.546 117.563 236.961 119.856 239.74C122.15 242.52 122.8 246.994 121.768 253.012L121.729 253.203L107.981 254.223L108.019 253.917C108.35 251.393 108.146 249.557 107.394 248.435C106.655 247.339 105.356 246.778 103.508 246.778C101.661 246.778 100.692 247.198 99.711 248.04C98.7171 248.881 98.0418 249.914 97.7232 251.112C97.4939 251.966 97.5958 252.706 98.0291 253.381C98.4495 254.095 99.762 254.758 101.941 255.396C107.522 257.079 111.434 258.8 113.6 260.533C115.779 262.28 117.155 264.473 117.677 267.073C118.187 269.649 118.021 272.555 117.18 275.717C116.199 279.427 114.466 282.894 112.045 286.031C109.624 289.167 106.732 291.576 103.444 293.195C100.157 294.814 96.2961 295.643 91.9638 295.643V295.618Z" fill="white"/>
<path d="M107.726 235.788C113.422 235.788 117.397 237.152 119.652 239.893C121.908 242.634 122.532 246.982 121.513 252.961L108.274 253.942C108.618 251.354 108.401 249.468 107.611 248.282C106.821 247.109 105.458 246.51 103.508 246.51C101.559 246.51 100.59 246.943 99.5454 247.823C98.5005 248.703 97.8124 249.774 97.4811 251.023C97.239 251.941 97.3537 252.77 97.8252 253.496C98.2712 254.261 99.6218 254.962 101.877 255.625C107.445 257.295 111.306 259.004 113.447 260.712C115.588 262.433 116.926 264.562 117.423 267.099C117.932 269.636 117.767 272.479 116.926 275.628C115.944 279.325 114.25 282.729 111.841 285.839C109.433 288.963 106.592 291.321 103.33 292.928C100.068 294.534 96.2834 295.35 91.9638 295.35C84.395 295.35 79.6422 293.463 77.7309 289.689C75.8196 285.916 75.4373 281.122 76.6096 275.309L89.9888 274.251C89.5428 277.005 89.5556 279.095 90.0525 280.536C90.8425 282.869 92.5627 284.029 95.2003 284.029C97.8379 284.029 98.8318 283.43 100.221 282.244C101.597 281.046 102.502 279.669 102.922 278.101C103.317 276.609 103.164 275.271 102.463 274.098C101.762 272.925 99.711 271.803 96.3089 270.758C90.7406 268.998 87.0581 266.665 85.2615 263.759C83.4394 260.852 83.1335 257.142 84.3313 252.642C85.1213 249.684 86.5229 246.88 88.5489 244.253C90.5749 241.627 93.1233 239.549 96.1814 238.045C99.2396 236.541 103.1 235.788 107.739 235.788M107.726 235.278C103.024 235.278 99.0612 236.056 95.9521 237.586C92.8303 239.116 90.2054 241.258 88.1412 243.935C86.077 246.612 84.6371 249.493 83.8344 252.502C82.5984 257.13 82.9424 261.005 84.8282 264.027C85.7584 265.544 87.1983 266.92 89.0968 268.119C90.9699 269.304 93.34 270.35 96.156 271.242C100.233 272.492 101.597 273.626 102.03 274.353C102.667 275.424 102.795 276.597 102.425 277.973C102.03 279.44 101.176 280.74 99.8894 281.862C98.5897 282.984 97.0607 283.532 95.2003 283.532C93.34 283.532 91.263 282.499 90.5367 280.383C90.078 279.032 90.0652 277.005 90.4985 274.34L90.6004 273.703L89.9506 273.754L76.5714 274.812L76.1891 274.837L76.1126 275.22C74.9276 281.122 75.3226 286.069 77.2849 289.932C78.2915 291.92 80.0627 293.438 82.5474 294.419C84.9684 295.388 88.1412 295.873 91.9766 295.873C95.8119 295.873 100.246 295.044 103.572 293.399C106.898 291.755 109.815 289.32 112.262 286.158C114.708 282.996 116.441 279.503 117.435 275.755C118.289 272.555 118.455 269.61 117.932 266.997C117.397 264.345 115.995 262.101 113.766 260.317C111.574 258.57 107.624 256.824 102.017 255.141C99.3797 254.376 98.5133 253.687 98.2584 253.254V253.241C97.8634 252.629 97.7742 251.954 97.9781 251.176C98.2839 250.029 98.921 249.034 99.8767 248.231C100.832 247.428 102.017 247.033 103.508 247.033C104.999 247.033 106.49 247.543 107.191 248.575C107.904 249.646 108.108 251.431 107.777 253.879L107.688 254.503L108.312 254.452L121.551 253.471L121.946 253.445L122.01 253.05C122.532 250.029 122.634 247.364 122.315 245.146C121.997 242.889 121.232 241.003 120.047 239.575C118.862 238.134 117.219 237.05 115.142 236.337C113.116 235.635 110.618 235.278 107.726 235.278Z" fill="#1D1D1B"/>
</g>
<path d="M17.2784 359V347.364H24.5739V348.875H19.0341V352.42H24.1932V353.926H19.0341V357.489H24.642V359H17.2784ZM26.2827 359V350.273H27.9134V351.693H28.0213C28.2031 351.212 28.5005 350.837 28.9134 350.568C29.3262 350.295 29.8205 350.159 30.3963 350.159C30.9796 350.159 31.4683 350.295 31.8622 350.568C32.2599 350.841 32.5535 351.216 32.7429 351.693H32.8338C33.0421 351.227 33.3736 350.856 33.8281 350.58C34.2827 350.299 34.8243 350.159 35.4531 350.159C36.2448 350.159 36.8906 350.407 37.3906 350.903C37.8944 351.4 38.1463 352.148 38.1463 353.148V359H36.4474V353.307C36.4474 352.716 36.2865 352.288 35.9645 352.023C35.6425 351.758 35.258 351.625 34.8111 351.625C34.258 351.625 33.8281 351.795 33.5213 352.136C33.2145 352.473 33.0611 352.907 33.0611 353.438V359H31.3679V353.199C31.3679 352.725 31.2202 352.345 30.9247 352.057C30.6293 351.769 30.2448 351.625 29.7713 351.625C29.4493 351.625 29.152 351.71 28.8793 351.881C28.6103 352.047 28.3925 352.28 28.2259 352.58C28.063 352.879 27.9815 353.225 27.9815 353.619V359H26.2827ZM42.4631 359.193C41.91 359.193 41.41 359.091 40.9631 358.886C40.5161 358.678 40.1619 358.377 39.9006 357.983C39.643 357.589 39.5142 357.106 39.5142 356.534C39.5142 356.042 39.6089 355.636 39.7983 355.318C39.9877 355 40.2434 354.748 40.5653 354.562C40.8873 354.377 41.2472 354.237 41.6449 354.142C42.0426 354.047 42.4479 353.975 42.8608 353.926C43.3835 353.866 43.8078 353.816 44.1335 353.778C44.4593 353.737 44.696 353.67 44.8438 353.58C44.9915 353.489 45.0653 353.341 45.0653 353.136V353.097C45.0653 352.6 44.9252 352.216 44.6449 351.943C44.3684 351.67 43.9555 351.534 43.4062 351.534C42.8343 351.534 42.3835 351.661 42.054 351.915C41.7282 352.165 41.5028 352.443 41.3778 352.75L39.7812 352.386C39.9706 351.856 40.2472 351.428 40.6108 351.102C40.9782 350.773 41.4006 350.534 41.8778 350.386C42.3551 350.235 42.857 350.159 43.3835 350.159C43.732 350.159 44.1013 350.201 44.4915 350.284C44.8854 350.364 45.2528 350.511 45.5938 350.727C45.9384 350.943 46.2206 351.252 46.4403 351.653C46.66 352.051 46.7699 352.568 46.7699 353.205V359H45.1108V357.807H45.0426C44.9328 358.027 44.768 358.242 44.5483 358.455C44.3286 358.667 44.0464 358.843 43.7017 358.983C43.357 359.123 42.9441 359.193 42.4631 359.193ZM42.8324 357.83C43.3021 357.83 43.7036 357.737 44.0369 357.551C44.3741 357.366 44.6297 357.123 44.804 356.824C44.982 356.521 45.071 356.197 45.071 355.852V354.727C45.0104 354.788 44.893 354.845 44.7188 354.898C44.5483 354.947 44.3532 354.991 44.1335 355.028C43.9138 355.062 43.6998 355.095 43.4915 355.125C43.2831 355.152 43.1089 355.174 42.9688 355.193C42.6392 355.235 42.3381 355.305 42.0653 355.403C41.7964 355.502 41.5805 355.644 41.4176 355.83C41.2585 356.011 41.179 356.254 41.179 356.557C41.179 356.977 41.3343 357.295 41.6449 357.511C41.9555 357.723 42.3513 357.83 42.8324 357.83ZM48.5327 359V350.273H50.2315V359H48.5327ZM49.3906 348.926C49.0952 348.926 48.8414 348.828 48.6293 348.631C48.4209 348.43 48.3168 348.191 48.3168 347.915C48.3168 347.634 48.4209 347.396 48.6293 347.199C48.8414 346.998 49.0952 346.898 49.3906 346.898C49.6861 346.898 49.938 346.998 50.1463 347.199C50.3584 347.396 50.4645 347.634 50.4645 347.915C50.4645 348.191 50.3584 348.43 50.1463 348.631C49.938 348.828 49.6861 348.926 49.3906 348.926ZM53.7159 347.364V359H52.017V347.364H53.7159Z" fill="#1D1D1B"/>
<rect x="16.25" y="368.25" width="360.5" height="39.5" rx="5.75" fill="white"/>
<rect x="16.25" y="368.25" width="360.5" height="39.5" rx="5.75" stroke="#A1A1A5" stroke-width="0.5"/>
<path d="M25.2273 385.273H26.5682V394.636C26.5682 395.174 26.4754 395.64 26.2898 396.034C26.108 396.428 25.8314 396.733 25.4602 396.949C25.0928 397.165 24.6288 397.273 24.0682 397.273C24.0227 397.273 23.9773 397.273 23.9318 397.273C23.8864 397.273 23.8409 397.273 23.7955 397.273V396.023C23.8409 396.023 23.8826 396.023 23.9205 396.023C23.9583 396.023 24 396.023 24.0455 396.023C24.4545 396.023 24.7538 395.902 24.9432 395.659C25.1326 395.42 25.2273 395.08 25.2273 394.636V385.273ZM25.8864 383.818C25.625 383.818 25.3996 383.729 25.2102 383.551C25.0246 383.373 24.9318 383.159 24.9318 382.909C24.9318 382.659 25.0246 382.445 25.2102 382.267C25.3996 382.089 25.625 382 25.8864 382C26.1477 382 26.3712 382.089 26.5568 382.267C26.7462 382.445 26.8409 382.659 26.8409 382.909C26.8409 383.159 26.7462 383.373 26.5568 383.551C26.3712 383.729 26.1477 383.818 25.8864 383.818ZM32.0696 394.182C31.2817 394.182 30.5904 393.994 29.9957 393.619C29.4048 393.244 28.9427 392.72 28.6094 392.045C28.2798 391.371 28.1151 390.583 28.1151 389.682C28.1151 388.773 28.2798 387.979 28.6094 387.301C28.9427 386.623 29.4048 386.097 29.9957 385.722C30.5904 385.347 31.2817 385.159 32.0696 385.159C32.8575 385.159 33.5469 385.347 34.1378 385.722C34.7325 386.097 35.1946 386.623 35.5241 387.301C35.8575 387.979 36.0241 388.773 36.0241 389.682C36.0241 390.583 35.8575 391.371 35.5241 392.045C35.1946 392.72 34.7325 393.244 34.1378 393.619C33.5469 393.994 32.8575 394.182 32.0696 394.182ZM32.0696 392.977C32.6681 392.977 33.1605 392.824 33.5469 392.517C33.9332 392.21 34.2192 391.807 34.4048 391.307C34.5904 390.807 34.6832 390.265 34.6832 389.682C34.6832 389.098 34.5904 388.555 34.4048 388.051C34.2192 387.547 33.9332 387.14 33.5469 386.83C33.1605 386.519 32.6681 386.364 32.0696 386.364C31.4711 386.364 30.9787 386.519 30.5923 386.83C30.206 387.14 29.92 387.547 29.7344 388.051C29.5488 388.555 29.456 389.098 29.456 389.682C29.456 390.265 29.5488 390.807 29.7344 391.307C29.92 391.807 30.206 392.21 30.5923 392.517C30.9787 392.824 31.4711 392.977 32.0696 392.977ZM38.9119 388.75V394H37.571V382.364H38.9119V386.636H39.0256C39.2301 386.186 39.5369 385.828 39.946 385.562C40.3589 385.294 40.9081 385.159 41.5938 385.159C42.1884 385.159 42.7093 385.278 43.1562 385.517C43.6032 385.752 43.9498 386.114 44.196 386.602C44.446 387.087 44.571 387.705 44.571 388.455V394H43.2301V388.545C43.2301 387.852 43.0502 387.316 42.6903 386.938C42.3343 386.555 41.84 386.364 41.2074 386.364C40.768 386.364 40.3741 386.456 40.0256 386.642C39.6809 386.828 39.4081 387.098 39.2074 387.455C39.0104 387.811 38.9119 388.242 38.9119 388.75ZM47.8651 388.75V394H46.5241V385.273H47.8196V386.636H47.9332C48.1378 386.193 48.4484 385.837 48.8651 385.568C49.2817 385.295 49.8196 385.159 50.4787 385.159C51.0696 385.159 51.5866 385.28 52.0298 385.523C52.473 385.761 52.8177 386.125 53.0639 386.614C53.3101 387.098 53.4332 387.712 53.4332 388.455V394H52.0923V388.545C52.0923 387.86 51.9143 387.326 51.5582 386.943C51.2022 386.557 50.7135 386.364 50.0923 386.364C49.6643 386.364 49.2817 386.456 48.9446 386.642C48.6113 386.828 48.348 387.098 48.1548 387.455C47.9616 387.811 47.8651 388.242 47.8651 388.75ZM58.679 394.182C57.9517 394.182 57.3097 393.998 56.7528 393.631C56.196 393.259 55.7604 392.737 55.446 392.062C55.1316 391.384 54.9744 390.583 54.9744 389.659C54.9744 388.742 55.1316 387.947 55.446 387.273C55.7604 386.598 56.1979 386.078 56.7585 385.71C57.3191 385.343 57.9669 385.159 58.7017 385.159C59.2699 385.159 59.7188 385.254 60.0483 385.443C60.3816 385.629 60.6354 385.841 60.8097 386.08C60.9877 386.314 61.1259 386.508 61.2244 386.659H61.3381V382.364H62.679V394H61.3835V392.659H61.2244C61.1259 392.818 60.9858 393.019 60.804 393.261C60.6222 393.5 60.3627 393.714 60.0256 393.903C59.6884 394.089 59.2396 394.182 58.679 394.182ZM58.8608 392.977C59.3987 392.977 59.8532 392.837 60.2244 392.557C60.5956 392.273 60.8778 391.881 61.071 391.381C61.2642 390.877 61.3608 390.295 61.3608 389.636C61.3608 388.985 61.2661 388.415 61.0767 387.926C60.8873 387.434 60.607 387.051 60.2358 386.778C59.8646 386.502 59.4063 386.364 58.8608 386.364C58.2926 386.364 57.8191 386.509 57.4403 386.801C57.0653 387.089 56.7831 387.481 56.5938 387.977C56.4081 388.47 56.3153 389.023 56.3153 389.636C56.3153 390.258 56.41 390.822 56.5994 391.33C56.7926 391.833 57.0767 392.235 57.4517 392.534C57.8305 392.83 58.3002 392.977 58.8608 392.977ZM68.3665 394.182C67.5786 394.182 66.8873 393.994 66.2926 393.619C65.7017 393.244 65.2396 392.72 64.9062 392.045C64.5767 391.371 64.4119 390.583 64.4119 389.682C64.4119 388.773 64.5767 387.979 64.9062 387.301C65.2396 386.623 65.7017 386.097 66.2926 385.722C66.8873 385.347 67.5786 385.159 68.3665 385.159C69.1544 385.159 69.8438 385.347 70.4347 385.722C71.0294 386.097 71.4915 386.623 71.821 387.301C72.1544 387.979 72.321 388.773 72.321 389.682C72.321 390.583 72.1544 391.371 71.821 392.045C71.4915 392.72 71.0294 393.244 70.4347 393.619C69.8438 393.994 69.1544 394.182 68.3665 394.182ZM68.3665 392.977C68.965 392.977 69.4574 392.824 69.8438 392.517C70.2301 392.21 70.5161 391.807 70.7017 391.307C70.8873 390.807 70.9801 390.265 70.9801 389.682C70.9801 389.098 70.8873 388.555 70.7017 388.051C70.5161 387.547 70.2301 387.14 69.8438 386.83C69.4574 386.519 68.965 386.364 68.3665 386.364C67.768 386.364 67.2756 386.519 66.8892 386.83C66.5028 387.14 66.2169 387.547 66.0312 388.051C65.8456 388.555 65.7528 389.098 65.7528 389.682C65.7528 390.265 65.8456 390.807 66.0312 391.307C66.2169 391.807 66.5028 392.21 66.8892 392.517C67.2756 392.824 67.768 392.977 68.3665 392.977ZM77.527 394.182C76.6861 394.182 75.9607 393.996 75.3509 393.625C74.7448 393.25 74.277 392.727 73.9474 392.057C73.6217 391.383 73.4588 390.598 73.4588 389.705C73.4588 388.811 73.6217 388.023 73.9474 387.341C74.277 386.655 74.7353 386.121 75.3224 385.739C75.9134 385.352 76.6027 385.159 77.3906 385.159C77.8452 385.159 78.294 385.235 78.7372 385.386C79.1804 385.538 79.5838 385.784 79.9474 386.125C80.3111 386.462 80.6009 386.909 80.8168 387.466C81.0327 388.023 81.1406 388.708 81.1406 389.523V390.091H74.4134V388.932H79.777C79.777 388.439 79.6785 388 79.4815 387.614C79.2884 387.227 79.0118 386.922 78.652 386.699C78.2959 386.475 77.8755 386.364 77.3906 386.364C76.8565 386.364 76.3944 386.496 76.0043 386.761C75.6179 387.023 75.3205 387.364 75.1122 387.784C74.9039 388.205 74.7997 388.655 74.7997 389.136V389.909C74.7997 390.568 74.9134 391.127 75.1406 391.585C75.3717 392.04 75.6918 392.386 76.1009 392.625C76.5099 392.86 76.9853 392.977 77.527 392.977C77.8793 392.977 78.1974 392.928 78.4815 392.83C78.7694 392.727 79.0175 392.576 79.2259 392.375C79.4342 392.17 79.5952 391.917 79.7088 391.614L81.0043 391.977C80.8679 392.417 80.6387 392.803 80.3168 393.136C79.9948 393.466 79.5971 393.723 79.1236 393.909C78.6501 394.091 78.1179 394.182 77.527 394.182ZM89.3849 397.068C88.2259 397.068 87.2012 396.909 86.3111 396.591C85.4209 396.277 84.6728 395.813 84.0668 395.199C83.4607 394.585 83.0024 393.833 82.6918 392.943C82.3812 392.053 82.2259 391.034 82.2259 389.886C82.2259 388.777 82.383 387.784 82.6974 386.909C83.0156 386.034 83.4759 385.292 84.0781 384.682C84.6842 384.068 85.419 383.6 86.2827 383.278C87.1501 382.956 88.1312 382.795 89.2259 382.795C90.2902 382.795 91.2221 382.97 92.0213 383.318C92.8243 383.663 93.4948 384.131 94.0327 384.722C94.5743 385.309 94.9796 385.97 95.2486 386.705C95.5213 387.439 95.6577 388.197 95.6577 388.977C95.6577 389.527 95.6312 390.083 95.5781 390.648C95.5251 391.212 95.4134 391.731 95.2429 392.205C95.0724 392.674 94.8092 393.053 94.4531 393.341C94.1009 393.629 93.6236 393.773 93.0213 393.773C92.7562 393.773 92.4645 393.731 92.1463 393.648C91.8281 393.564 91.5459 393.426 91.2997 393.233C91.0535 393.04 90.9077 392.78 90.8622 392.455H90.794C90.7031 392.674 90.563 392.883 90.3736 393.08C90.188 393.277 89.9437 393.434 89.6406 393.551C89.3414 393.669 88.9759 393.72 88.544 393.705C88.0516 393.686 87.6179 393.576 87.2429 393.375C86.8679 393.17 86.5535 392.894 86.2997 392.545C86.0497 392.193 85.8603 391.786 85.7315 391.324C85.6065 390.858 85.544 390.356 85.544 389.818C85.544 389.307 85.6198 388.839 85.7713 388.415C85.9228 387.991 86.133 387.619 86.402 387.301C86.6747 386.983 86.9929 386.729 87.3565 386.54C87.724 386.347 88.1198 386.227 88.544 386.182C88.9228 386.144 89.2675 386.161 89.5781 386.233C89.8887 386.301 90.1444 386.405 90.3452 386.545C90.5459 386.682 90.6728 386.833 90.7259 387H90.794V386.364H91.9986V391.5C91.9986 391.818 92.0876 392.098 92.2656 392.341C92.4437 392.583 92.7031 392.705 93.044 392.705C93.4304 392.705 93.7259 392.572 93.9304 392.307C94.1387 392.042 94.2808 391.633 94.3565 391.08C94.4361 390.527 94.4759 389.818 94.4759 388.955C94.4759 388.447 94.4058 387.947 94.2656 387.455C94.1293 386.958 93.9209 386.494 93.6406 386.062C93.3641 385.631 93.0137 385.25 92.5895 384.92C92.1652 384.591 91.6671 384.333 91.0952 384.148C90.527 383.958 89.8812 383.864 89.1577 383.864C88.2675 383.864 87.4702 384.002 86.7656 384.278C86.0649 384.551 85.4683 384.951 84.9759 385.477C84.4872 386 84.1141 386.636 83.8565 387.386C83.6027 388.133 83.4759 388.981 83.4759 389.932C83.4759 390.898 83.6027 391.756 83.8565 392.506C84.1141 393.256 84.4929 393.888 84.9929 394.403C85.4967 394.919 86.1198 395.309 86.8622 395.574C87.6046 395.843 88.4607 395.977 89.4304 395.977C89.8471 395.977 90.258 395.938 90.6634 395.858C91.0687 395.778 91.4266 395.691 91.7372 395.597C92.0478 395.502 92.2713 395.432 92.4077 395.386L92.7259 396.432C92.491 396.53 92.1842 396.629 91.8054 396.727C91.4304 396.826 91.0289 396.907 90.6009 396.972C90.1766 397.036 89.7713 397.068 89.3849 397.068ZM88.7259 392.545C89.2334 392.545 89.6444 392.443 89.9588 392.239C90.2732 392.034 90.5024 391.725 90.6463 391.312C90.7902 390.9 90.8622 390.379 90.8622 389.75C90.8622 389.114 90.7827 388.617 90.6236 388.261C90.4645 387.905 90.2296 387.655 89.919 387.511C89.6084 387.367 89.2259 387.295 88.7713 387.295C88.3395 387.295 87.9702 387.409 87.6634 387.636C87.3603 387.86 87.1274 388.159 86.9645 388.534C86.8054 388.905 86.7259 389.311 86.7259 389.75C86.7259 390.235 86.7902 390.691 86.919 391.119C87.0478 391.544 87.258 391.888 87.5497 392.153C87.8414 392.415 88.2334 392.545 88.7259 392.545ZM100.824 394.182C99.983 394.182 99.2576 393.996 98.6477 393.625C98.0417 393.25 97.5739 392.727 97.2443 392.057C96.9186 391.383 96.7557 390.598 96.7557 389.705C96.7557 388.811 96.9186 388.023 97.2443 387.341C97.5739 386.655 98.0322 386.121 98.6193 385.739C99.2102 385.352 99.8996 385.159 100.688 385.159C101.142 385.159 101.591 385.235 102.034 385.386C102.477 385.538 102.881 385.784 103.244 386.125C103.608 386.462 103.898 386.909 104.114 387.466C104.33 388.023 104.438 388.708 104.438 389.523V390.091H97.7102V388.932H103.074C103.074 388.439 102.975 388 102.778 387.614C102.585 387.227 102.309 386.922 101.949 386.699C101.593 386.475 101.172 386.364 100.688 386.364C100.153 386.364 99.6913 386.496 99.3011 386.761C98.9148 387.023 98.6174 387.364 98.4091 387.784C98.2008 388.205 98.0966 388.655 98.0966 389.136V389.909C98.0966 390.568 98.2102 391.127 98.4375 391.585C98.6686 392.04 98.9886 392.386 99.3977 392.625C99.8068 392.86 100.282 392.977 100.824 392.977C101.176 392.977 101.494 392.928 101.778 392.83C102.066 392.727 102.314 392.576 102.523 392.375C102.731 392.17 102.892 391.917 103.006 391.614L104.301 391.977C104.165 392.417 103.936 392.803 103.614 393.136C103.292 393.466 102.894 393.723 102.42 393.909C101.947 394.091 101.415 394.182 100.824 394.182ZM106.743 385.273L108.834 388.841L110.925 385.273H112.47L109.652 389.636L112.47 394H110.925L108.834 390.614L106.743 394H105.197L107.97 389.636L105.197 385.273H106.743ZM116.452 394.205C115.899 394.205 115.397 394.1 114.946 393.892C114.495 393.68 114.137 393.375 113.872 392.977C113.607 392.576 113.474 392.091 113.474 391.523C113.474 391.023 113.573 390.617 113.77 390.307C113.967 389.992 114.23 389.746 114.56 389.568C114.889 389.39 115.253 389.258 115.651 389.17C116.052 389.08 116.455 389.008 116.861 388.955C117.391 388.886 117.821 388.835 118.151 388.801C118.484 388.763 118.726 388.701 118.878 388.614C119.033 388.527 119.111 388.375 119.111 388.159V388.114C119.111 387.553 118.957 387.117 118.651 386.807C118.348 386.496 117.887 386.341 117.27 386.341C116.63 386.341 116.128 386.481 115.764 386.761C115.401 387.042 115.145 387.341 114.997 387.659L113.724 387.205C113.952 386.674 114.255 386.261 114.634 385.966C115.016 385.667 115.433 385.458 115.884 385.341C116.338 385.22 116.785 385.159 117.224 385.159C117.505 385.159 117.827 385.193 118.19 385.261C118.558 385.326 118.912 385.46 119.253 385.665C119.598 385.869 119.884 386.178 120.111 386.591C120.338 387.004 120.452 387.557 120.452 388.25V394H119.111V392.818H119.043C118.952 393.008 118.8 393.21 118.588 393.426C118.376 393.642 118.094 393.826 117.741 393.977C117.389 394.129 116.959 394.205 116.452 394.205ZM116.656 393C117.187 393 117.634 392.896 117.997 392.688C118.365 392.479 118.641 392.21 118.827 391.881C119.016 391.551 119.111 391.205 119.111 390.841V389.614C119.054 389.682 118.929 389.744 118.736 389.801C118.546 389.854 118.327 389.902 118.077 389.943C117.83 389.981 117.59 390.015 117.355 390.045C117.124 390.072 116.937 390.095 116.793 390.114C116.444 390.159 116.118 390.233 115.815 390.335C115.516 390.434 115.274 390.583 115.088 390.784C114.906 390.981 114.815 391.25 114.815 391.591C114.815 392.057 114.988 392.409 115.332 392.648C115.681 392.883 116.122 393 116.656 393ZM122.399 394V385.273H123.695V386.636H123.808C123.99 386.17 124.284 385.809 124.689 385.551C125.094 385.29 125.581 385.159 126.149 385.159C126.725 385.159 127.204 385.29 127.587 385.551C127.973 385.809 128.274 386.17 128.49 386.636H128.581C128.804 386.186 129.14 385.828 129.587 385.562C130.034 385.294 130.57 385.159 131.195 385.159C131.975 385.159 132.613 385.403 133.109 385.892C133.606 386.377 133.854 387.133 133.854 388.159V394H132.513V388.159C132.513 387.515 132.337 387.055 131.984 386.778C131.632 386.502 131.217 386.364 130.74 386.364C130.126 386.364 129.651 386.549 129.314 386.92C128.977 387.288 128.808 387.754 128.808 388.318V394H127.445V388.023C127.445 387.527 127.284 387.127 126.962 386.824C126.64 386.517 126.225 386.364 125.717 386.364C125.369 386.364 125.043 386.456 124.74 386.642C124.441 386.828 124.198 387.085 124.013 387.415C123.831 387.741 123.74 388.117 123.74 388.545V394H122.399ZM137.146 382.364V394H135.805V382.364H137.146ZM142.761 394.182C141.92 394.182 141.195 393.996 140.585 393.625C139.979 393.25 139.511 392.727 139.182 392.057C138.856 391.383 138.693 390.598 138.693 389.705C138.693 388.811 138.856 388.023 139.182 387.341C139.511 386.655 139.97 386.121 140.557 385.739C141.148 385.352 141.837 385.159 142.625 385.159C143.08 385.159 143.528 385.235 143.972 385.386C144.415 385.538 144.818 385.784 145.182 386.125C145.545 386.462 145.835 386.909 146.051 387.466C146.267 388.023 146.375 388.708 146.375 389.523V390.091H139.648V388.932H145.011C145.011 388.439 144.913 388 144.716 387.614C144.523 387.227 144.246 386.922 143.886 386.699C143.53 386.475 143.11 386.364 142.625 386.364C142.091 386.364 141.629 386.496 141.239 386.761C140.852 387.023 140.555 387.364 140.347 387.784C140.138 388.205 140.034 388.655 140.034 389.136V389.909C140.034 390.568 140.148 391.127 140.375 391.585C140.606 392.04 140.926 392.386 141.335 392.625C141.744 392.86 142.22 392.977 142.761 392.977C143.114 392.977 143.432 392.928 143.716 392.83C144.004 392.727 144.252 392.576 144.46 392.375C144.669 392.17 144.83 391.917 144.943 391.614L146.239 391.977C146.102 392.417 145.873 392.803 145.551 393.136C145.229 393.466 144.831 393.723 144.358 393.909C143.884 394.091 143.352 394.182 142.761 394.182ZM148.892 394.091C148.612 394.091 148.371 393.991 148.17 393.79C147.97 393.589 147.869 393.348 147.869 393.068C147.869 392.788 147.97 392.547 148.17 392.347C148.371 392.146 148.612 392.045 148.892 392.045C149.172 392.045 149.413 392.146 149.614 392.347C149.814 392.547 149.915 392.788 149.915 393.068C149.915 393.254 149.867 393.424 149.773 393.58C149.682 393.735 149.559 393.86 149.403 393.955C149.252 394.045 149.081 394.091 148.892 394.091ZM155.366 394.182C154.548 394.182 153.844 393.989 153.253 393.602C152.662 393.216 152.207 392.684 151.889 392.006C151.571 391.328 151.412 390.553 151.412 389.682C151.412 388.795 151.575 388.013 151.901 387.335C152.23 386.653 152.688 386.121 153.276 385.739C153.866 385.352 154.556 385.159 155.344 385.159C155.957 385.159 156.51 385.273 157.003 385.5C157.495 385.727 157.899 386.045 158.213 386.455C158.527 386.864 158.723 387.341 158.798 387.886H157.457C157.355 387.489 157.128 387.136 156.776 386.83C156.427 386.519 155.957 386.364 155.366 386.364C154.844 386.364 154.385 386.5 153.991 386.773C153.601 387.042 153.296 387.422 153.077 387.915C152.861 388.403 152.753 388.977 152.753 389.636C152.753 390.311 152.859 390.898 153.071 391.398C153.287 391.898 153.59 392.286 153.98 392.562C154.374 392.839 154.836 392.977 155.366 392.977C155.715 392.977 156.031 392.917 156.315 392.795C156.599 392.674 156.84 392.5 157.037 392.273C157.234 392.045 157.374 391.773 157.457 391.455H158.798C158.723 391.97 158.535 392.434 158.236 392.847C157.94 393.256 157.548 393.581 157.06 393.824C156.575 394.062 156.01 394.182 155.366 394.182ZM163.804 394.182C163.016 394.182 162.325 393.994 161.73 393.619C161.139 393.244 160.677 392.72 160.344 392.045C160.014 391.371 159.849 390.583 159.849 389.682C159.849 388.773 160.014 387.979 160.344 387.301C160.677 386.623 161.139 386.097 161.73 385.722C162.325 385.347 163.016 385.159 163.804 385.159C164.592 385.159 165.281 385.347 165.872 385.722C166.467 386.097 166.929 386.623 167.259 387.301C167.592 387.979 167.759 388.773 167.759 389.682C167.759 390.583 167.592 391.371 167.259 392.045C166.929 392.72 166.467 393.244 165.872 393.619C165.281 393.994 164.592 394.182 163.804 394.182ZM163.804 392.977C164.402 392.977 164.895 392.824 165.281 392.517C165.668 392.21 165.954 391.807 166.139 391.307C166.325 390.807 166.418 390.265 166.418 389.682C166.418 389.098 166.325 388.555 166.139 388.051C165.954 387.547 165.668 387.14 165.281 386.83C164.895 386.519 164.402 386.364 163.804 386.364C163.205 386.364 162.713 386.519 162.327 386.83C161.94 387.14 161.654 387.547 161.469 388.051C161.283 388.555 161.19 389.098 161.19 389.682C161.19 390.265 161.283 390.807 161.469 391.307C161.654 391.807 161.94 392.21 162.327 392.517C162.713 392.824 163.205 392.977 163.804 392.977ZM169.305 394V385.273H170.601V386.636H170.714C170.896 386.17 171.19 385.809 171.595 385.551C172 385.29 172.487 385.159 173.055 385.159C173.631 385.159 174.11 385.29 174.493 385.551C174.879 385.809 175.18 386.17 175.396 386.636H175.487C175.711 386.186 176.046 385.828 176.493 385.562C176.94 385.294 177.476 385.159 178.101 385.159C178.881 385.159 179.519 385.403 180.016 385.892C180.512 386.377 180.76 387.133 180.76 388.159V394H179.419V388.159C179.419 387.515 179.243 387.055 178.891 386.778C178.538 386.502 178.124 386.364 177.646 386.364C177.033 386.364 176.557 386.549 176.22 386.92C175.883 387.288 175.714 387.754 175.714 388.318V394H174.351V388.023C174.351 387.527 174.19 387.127 173.868 386.824C173.546 386.517 173.131 386.364 172.624 386.364C172.275 386.364 171.949 386.456 171.646 386.642C171.347 386.828 171.105 387.085 170.919 387.415C170.737 387.741 170.646 388.117 170.646 388.545V394H169.305Z" fill="#1D1D1B"/>
<path d="M17.2784 446V434.364H21.4261C22.3314 434.364 23.0814 434.528 23.6761 434.858C24.2708 435.187 24.7159 435.638 25.0114 436.21C25.3068 436.778 25.4545 437.419 25.4545 438.131C25.4545 438.847 25.3049 439.491 25.0057 440.062C24.7102 440.631 24.2633 441.081 23.6648 441.415C23.0701 441.744 22.322 441.909 21.4205 441.909H18.5682V440.42H21.2614C21.8333 440.42 22.2973 440.322 22.6534 440.125C23.0095 439.924 23.2708 439.652 23.4375 439.307C23.6042 438.962 23.6875 438.57 23.6875 438.131C23.6875 437.691 23.6042 437.301 23.4375 436.96C23.2708 436.619 23.0076 436.352 22.6477 436.159C22.2917 435.966 21.822 435.869 21.2386 435.869H19.0341V446H17.2784ZM29.3381 446.193C28.785 446.193 28.285 446.091 27.8381 445.886C27.3911 445.678 27.0369 445.377 26.7756 444.983C26.518 444.589 26.3892 444.106 26.3892 443.534C26.3892 443.042 26.4839 442.636 26.6733 442.318C26.8627 442 27.1184 441.748 27.4403 441.562C27.7623 441.377 28.1222 441.237 28.5199 441.142C28.9176 441.047 29.3229 440.975 29.7358 440.926C30.2585 440.866 30.6828 440.816 31.0085 440.778C31.3343 440.737 31.571 440.67 31.7188 440.58C31.8665 440.489 31.9403 440.341 31.9403 440.136V440.097C31.9403 439.6 31.8002 439.216 31.5199 438.943C31.2434 438.67 30.8305 438.534 30.2812 438.534C29.7093 438.534 29.2585 438.661 28.929 438.915C28.6032 439.165 28.3778 439.443 28.2528 439.75L26.6562 439.386C26.8456 438.856 27.1222 438.428 27.4858 438.102C27.8532 437.773 28.2756 437.534 28.7528 437.386C29.2301 437.235 29.732 437.159 30.2585 437.159C30.607 437.159 30.9763 437.201 31.3665 437.284C31.7604 437.364 32.1278 437.511 32.4688 437.727C32.8134 437.943 33.0956 438.252 33.3153 438.653C33.535 439.051 33.6449 439.568 33.6449 440.205V446H31.9858V444.807H31.9176C31.8078 445.027 31.643 445.242 31.4233 445.455C31.2036 445.667 30.9214 445.843 30.5767 445.983C30.232 446.123 29.8191 446.193 29.3381 446.193ZM29.7074 444.83C30.1771 444.83 30.5786 444.737 30.9119 444.551C31.2491 444.366 31.5047 444.123 31.679 443.824C31.857 443.521 31.946 443.197 31.946 442.852V441.727C31.8854 441.788 31.768 441.845 31.5938 441.898C31.4233 441.947 31.2282 441.991 31.0085 442.028C30.7888 442.062 30.5748 442.095 30.3665 442.125C30.1581 442.152 29.9839 442.174 29.8438 442.193C29.5142 442.235 29.2131 442.305 28.9403 442.403C28.6714 442.502 28.4555 442.644 28.2926 442.83C28.1335 443.011 28.054 443.254 28.054 443.557C28.054 443.977 28.2093 444.295 28.5199 444.511C28.8305 444.723 29.2263 444.83 29.7074 444.83ZM41.9474 439.403L40.4077 439.676C40.3433 439.479 40.241 439.292 40.1009 439.114C39.9645 438.936 39.7789 438.79 39.544 438.676C39.3092 438.562 39.0156 438.506 38.6634 438.506C38.1823 438.506 37.7808 438.614 37.4588 438.83C37.1368 439.042 36.9759 439.316 36.9759 439.653C36.9759 439.945 37.0838 440.18 37.2997 440.358C37.5156 440.536 37.8641 440.682 38.3452 440.795L39.7315 441.114C40.5346 441.299 41.133 441.585 41.527 441.972C41.9209 442.358 42.1179 442.86 42.1179 443.477C42.1179 444 41.9664 444.466 41.6634 444.875C41.3641 445.28 40.9455 445.598 40.4077 445.83C39.8736 446.061 39.2543 446.176 38.5497 446.176C37.5724 446.176 36.7751 445.968 36.1577 445.551C35.5402 445.131 35.1615 444.534 35.0213 443.761L36.6634 443.511C36.7656 443.939 36.9759 444.263 37.294 444.483C37.6122 444.699 38.027 444.807 38.5384 444.807C39.0952 444.807 39.5402 444.691 39.8736 444.46C40.2069 444.225 40.3736 443.939 40.3736 443.602C40.3736 443.33 40.2713 443.1 40.0668 442.915C39.866 442.729 39.5573 442.589 39.1406 442.494L37.6634 442.17C36.849 441.985 36.2467 441.689 35.8565 441.284C35.4702 440.879 35.277 440.366 35.277 439.744C35.277 439.229 35.4209 438.778 35.7088 438.392C35.9967 438.006 36.3944 437.705 36.902 437.489C37.4096 437.269 37.991 437.159 38.6463 437.159C39.5895 437.159 40.3319 437.364 40.8736 437.773C41.4152 438.178 41.7732 438.722 41.9474 439.403ZM50.0256 439.403L48.4858 439.676C48.4214 439.479 48.3191 439.292 48.179 439.114C48.0426 438.936 47.857 438.79 47.6222 438.676C47.3873 438.562 47.0938 438.506 46.7415 438.506C46.2604 438.506 45.8589 438.614 45.5369 438.83C45.215 439.042 45.054 439.316 45.054 439.653C45.054 439.945 45.1619 440.18 45.3778 440.358C45.5938 440.536 45.9422 440.682 46.4233 440.795L47.8097 441.114C48.6127 441.299 49.2112 441.585 49.6051 441.972C49.9991 442.358 50.196 442.86 50.196 443.477C50.196 444 50.0445 444.466 49.7415 444.875C49.4422 445.28 49.0237 445.598 48.4858 445.83C47.9517 446.061 47.3324 446.176 46.6278 446.176C45.6506 446.176 44.8532 445.968 44.2358 445.551C43.6184 445.131 43.2396 444.534 43.0994 443.761L44.7415 443.511C44.8438 443.939 45.054 444.263 45.3722 444.483C45.6903 444.699 46.1051 444.807 46.6165 444.807C47.1733 444.807 47.6184 444.691 47.9517 444.46C48.285 444.225 48.4517 443.939 48.4517 443.602C48.4517 443.33 48.3494 443.1 48.1449 442.915C47.9441 442.729 47.6354 442.589 47.2188 442.494L45.7415 442.17C44.9271 441.985 44.3248 441.689 43.9347 441.284C43.5483 440.879 43.3551 440.366 43.3551 439.744C43.3551 439.229 43.4991 438.778 43.7869 438.392C44.0748 438.006 44.4725 437.705 44.9801 437.489C45.4877 437.269 46.0691 437.159 46.7244 437.159C47.6676 437.159 48.41 437.364 48.9517 437.773C49.4934 438.178 49.8513 438.722 50.0256 439.403ZM53.456 446L50.8878 437.273H52.6435L54.3537 443.682H54.4389L56.1548 437.273H57.9105L59.6151 443.653H59.7003L61.3991 437.273H63.1548L60.5923 446H58.8594L57.0866 439.699H56.956L55.1832 446H53.456ZM67.6776 446.176C66.8594 446.176 66.1454 445.989 65.5355 445.614C64.9257 445.239 64.4522 444.714 64.1151 444.04C63.7779 443.366 63.6094 442.578 63.6094 441.676C63.6094 440.771 63.7779 439.979 64.1151 439.301C64.4522 438.623 64.9257 438.097 65.5355 437.722C66.1454 437.347 66.8594 437.159 67.6776 437.159C68.4957 437.159 69.2098 437.347 69.8196 437.722C70.4295 438.097 70.9029 438.623 71.2401 439.301C71.5772 439.979 71.7457 440.771 71.7457 441.676C71.7457 442.578 71.5772 443.366 71.2401 444.04C70.9029 444.714 70.4295 445.239 69.8196 445.614C69.2098 445.989 68.4957 446.176 67.6776 446.176ZM67.6832 444.75C68.2135 444.75 68.6529 444.61 69.0014 444.33C69.3499 444.049 69.6075 443.676 69.7741 443.21C69.9446 442.744 70.0298 442.231 70.0298 441.67C70.0298 441.114 69.9446 440.602 69.7741 440.136C69.6075 439.667 69.3499 439.29 69.0014 439.006C68.6529 438.722 68.2135 438.58 67.6832 438.58C67.1491 438.58 66.706 438.722 66.3537 439.006C66.0052 439.29 65.7457 439.667 65.5753 440.136C65.4086 440.602 65.3253 441.114 65.3253 441.67C65.3253 442.231 65.4086 442.744 65.5753 443.21C65.7457 443.676 66.0052 444.049 66.3537 444.33C66.706 444.61 67.1491 444.75 67.6832 444.75ZM73.142 446V437.273H74.7841V438.659H74.875C75.0341 438.189 75.3144 437.82 75.7159 437.551C76.1212 437.278 76.5795 437.142 77.0909 437.142C77.197 437.142 77.322 437.146 77.4659 437.153C77.6136 437.161 77.7292 437.17 77.8125 437.182V438.807C77.7443 438.788 77.6231 438.767 77.4489 438.744C77.2746 438.718 77.1004 438.705 76.9261 438.705C76.5246 438.705 76.1667 438.79 75.8523 438.96C75.5417 439.127 75.2955 439.36 75.1136 439.659C74.9318 439.955 74.8409 440.292 74.8409 440.67V446H73.142ZM81.7372 446.17C81.0327 446.17 80.4039 445.991 79.8509 445.631C79.3016 445.267 78.8698 444.75 78.5554 444.08C78.2448 443.405 78.0895 442.597 78.0895 441.653C78.0895 440.71 78.2467 439.903 78.5611 439.233C78.8793 438.562 79.3149 438.049 79.8679 437.693C80.4209 437.337 81.0478 437.159 81.7486 437.159C82.2902 437.159 82.7259 437.25 83.0554 437.432C83.3887 437.61 83.6463 437.818 83.8281 438.057C84.0137 438.295 84.1577 438.506 84.2599 438.688H84.3622V434.364H86.0611V446H84.402V444.642H84.2599C84.1577 444.828 84.0099 445.04 83.8168 445.278C83.6274 445.517 83.366 445.725 83.0327 445.903C82.6993 446.081 82.2675 446.17 81.7372 446.17ZM82.1122 444.722C82.6009 444.722 83.0137 444.593 83.3509 444.335C83.6918 444.074 83.9493 443.712 84.1236 443.25C84.3016 442.788 84.3906 442.25 84.3906 441.636C84.3906 441.03 84.3035 440.5 84.1293 440.045C83.955 439.591 83.6993 439.237 83.3622 438.983C83.0251 438.729 82.6084 438.602 82.1122 438.602C81.6009 438.602 81.1747 438.735 80.8338 439C80.4929 439.265 80.2353 439.627 80.0611 440.085C79.8906 440.544 79.8054 441.061 79.8054 441.636C79.8054 442.22 79.8925 442.744 80.0668 443.21C80.241 443.676 80.4986 444.045 80.8395 444.318C81.1842 444.587 81.6084 444.722 82.1122 444.722Z" fill="#1D1D1B"/>
<rect x="16.25" y="455.25" width="360.5" height="39.5" rx="5.75" fill="white"/>
<rect x="16.25" y="455.25" width="360.5" height="39.5" rx="5.75" stroke="#A1A1A5" stroke-width="0.5"/>
<path d="M28.5 478.864C28.0417 478.864 27.6231 478.752 27.2443 478.528C26.8655 478.301 26.5625 477.998 26.3352 477.619C26.1117 477.241 26 476.822 26 476.364C26 475.902 26.1117 475.483 26.3352 475.108C26.5625 474.729 26.8655 474.428 27.2443 474.205C27.6231 473.977 28.0417 473.864 28.5 473.864C28.9621 473.864 29.3807 473.977 29.7557 474.205C30.1345 474.428 30.4356 474.729 30.6591 475.108C30.8864 475.483 31 475.902 31 476.364C31 476.822 30.8864 477.241 30.6591 477.619C30.4356 477.998 30.1345 478.301 29.7557 478.528C29.3807 478.752 28.9621 478.864 28.5 478.864ZM37 478.864C36.5417 478.864 36.1231 478.752 35.7443 478.528C35.3655 478.301 35.0625 477.998 34.8352 477.619C34.6117 477.241 34.5 476.822 34.5 476.364C34.5 475.902 34.6117 475.483 34.8352 475.108C35.0625 474.729 35.3655 474.428 35.7443 474.205C36.1231 473.977 36.5417 473.864 37 473.864C37.4621 473.864 37.8807 473.977 38.2557 474.205C38.6345 474.428 38.9356 474.729 39.1591 475.108C39.3864 475.483 39.5 475.902 39.5 476.364C39.5 476.822 39.3864 477.241 39.1591 477.619C38.9356 477.998 38.6345 478.301 38.2557 478.528C37.8807 478.752 37.4621 478.864 37 478.864ZM45.5 478.864C45.0417 478.864 44.6231 478.752 44.2443 478.528C43.8655 478.301 43.5625 477.998 43.3352 477.619C43.1117 477.241 43 476.822 43 476.364C43 475.902 43.1117 475.483 43.3352 475.108C43.5625 474.729 43.8655 474.428 44.2443 474.205C44.6231 473.977 45.0417 473.864 45.5 473.864C45.9621 473.864 46.3807 473.977 46.7557 474.205C47.1345 474.428 47.4356 474.729 47.6591 475.108C47.8864 475.483 48 475.902 48 476.364C48 476.822 47.8864 477.241 47.6591 477.619C47.4356 477.998 47.1345 478.301 46.7557 478.528C46.3807 478.752 45.9621 478.864 45.5 478.864ZM54 478.864C53.5417 478.864 53.1231 478.752 52.7443 478.528C52.3655 478.301 52.0625 477.998 51.8352 477.619C51.6117 477.241 51.5 476.822 51.5 476.364C51.5 475.902 51.6117 475.483 51.8352 475.108C52.0625 474.729 52.3655 474.428 52.7443 474.205C53.1231 473.977 53.5417 473.864 54 473.864C54.4621 473.864 54.8807 473.977 55.2557 474.205C55.6345 474.428 55.9356 474.729 56.1591 475.108C56.3864 475.483 56.5 475.902 56.5 476.364C56.5 476.822 56.3864 477.241 56.1591 477.619C55.9356 477.998 55.6345 478.301 55.2557 478.528C54.8807 478.752 54.4621 478.864 54 478.864ZM62.5 478.864C62.0417 478.864 61.6231 478.752 61.2443 478.528C60.8655 478.301 60.5625 477.998 60.3352 477.619C60.1117 477.241 60 476.822 60 476.364C60 475.902 60.1117 475.483 60.3352 475.108C60.5625 474.729 60.8655 474.428 61.2443 474.205C61.6231 473.977 62.0417 473.864 62.5 473.864C62.9621 473.864 63.3807 473.977 63.7557 474.205C64.1345 474.428 64.4356 474.729 64.6591 475.108C64.8864 475.483 65 475.902 65 476.364C65 476.822 64.8864 477.241 64.6591 477.619C64.4356 477.998 64.1345 478.301 63.7557 478.528C63.3807 478.752 62.9621 478.864 62.5 478.864ZM71 478.864C70.5417 478.864 70.1231 478.752 69.7443 478.528C69.3655 478.301 69.0625 477.998 68.8352 477.619C68.6117 477.241 68.5 476.822 68.5 476.364C68.5 475.902 68.6117 475.483 68.8352 475.108C69.0625 474.729 69.3655 474.428 69.7443 474.205C70.1231 473.977 70.5417 473.864 71 473.864C71.4621 473.864 71.8807 473.977 72.2557 474.205C72.6345 474.428 72.9356 474.729 73.1591 475.108C73.3864 475.483 73.5 475.902 73.5 476.364C73.5 476.822 73.3864 477.241 73.1591 477.619C72.9356 477.998 72.6345 478.301 72.2557 478.528C71.8807 478.752 71.4621 478.864 71 478.864ZM79.5 478.864C79.0417 478.864 78.6231 478.752 78.2443 478.528C77.8655 478.301 77.5625 477.998 77.3352 477.619C77.1117 477.241 77 476.822 77 476.364C77 475.902 77.1117 475.483 77.3352 475.108C77.5625 474.729 77.8655 474.428 78.2443 474.205C78.6231 473.977 79.0417 473.864 79.5 473.864C79.9621 473.864 80.3807 473.977 80.7557 474.205C81.1345 474.428 81.4356 474.729 81.6591 475.108C81.8864 475.483 82 475.902 82 476.364C82 476.822 81.8864 477.241 81.6591 477.619C81.4356 477.998 81.1345 478.301 80.7557 478.528C80.3807 478.752 79.9621 478.864 79.5 478.864Z" fill="#1D1D1B"/>
<rect x="16" y="515" width="361" height="44" rx="22" fill="#1D1D1B"/>
<path d="M174.148 542.5V530.864H176.256V540.733H181.381V542.5H174.148ZM186.986 542.67C186.134 542.67 185.395 542.483 184.77 542.108C184.145 541.733 183.66 541.208 183.316 540.534C182.975 539.86 182.804 539.072 182.804 538.17C182.804 537.269 182.975 536.479 183.316 535.801C183.66 535.123 184.145 534.597 184.77 534.222C185.395 533.847 186.134 533.659 186.986 533.659C187.838 533.659 188.577 533.847 189.202 534.222C189.827 534.597 190.31 535.123 190.651 535.801C190.996 536.479 191.168 537.269 191.168 538.17C191.168 539.072 190.996 539.86 190.651 540.534C190.31 541.208 189.827 541.733 189.202 542.108C188.577 542.483 187.838 542.67 186.986 542.67ZM186.998 541.023C187.46 541.023 187.846 540.896 188.157 540.642C188.467 540.384 188.698 540.04 188.85 539.608C189.005 539.176 189.083 538.695 189.083 538.165C189.083 537.631 189.005 537.148 188.85 536.716C188.698 536.28 188.467 535.934 188.157 535.676C187.846 535.419 187.46 535.29 186.998 535.29C186.524 535.29 186.13 535.419 185.816 535.676C185.505 535.934 185.272 536.28 185.117 536.716C184.965 537.148 184.89 537.631 184.89 538.165C184.89 538.695 184.965 539.176 185.117 539.608C185.272 540.04 185.505 540.384 185.816 540.642C186.13 540.896 186.524 541.023 186.998 541.023ZM196.769 545.955C196.031 545.955 195.396 545.854 194.866 545.653C194.335 545.456 193.909 545.191 193.587 544.858C193.265 544.525 193.042 544.155 192.917 543.75L194.769 543.301C194.852 543.472 194.974 543.64 195.133 543.807C195.292 543.977 195.506 544.117 195.775 544.227C196.048 544.341 196.39 544.398 196.803 544.398C197.387 544.398 197.87 544.256 198.252 543.972C198.635 543.691 198.826 543.229 198.826 542.585V540.932H198.724C198.618 541.144 198.462 541.362 198.258 541.585C198.057 541.809 197.79 541.996 197.457 542.148C197.127 542.299 196.712 542.375 196.212 542.375C195.542 542.375 194.934 542.218 194.388 541.903C193.847 541.585 193.415 541.112 193.093 540.483C192.775 539.85 192.616 539.059 192.616 538.108C192.616 537.15 192.775 536.341 193.093 535.682C193.415 535.019 193.849 534.517 194.394 534.176C194.94 533.831 195.548 533.659 196.218 533.659C196.729 533.659 197.15 533.746 197.479 533.92C197.813 534.091 198.078 534.297 198.275 534.54C198.472 534.778 198.621 535.004 198.724 535.216H198.837V533.773H200.866V542.642C200.866 543.388 200.688 544.006 200.332 544.494C199.976 544.983 199.489 545.348 198.871 545.591C198.254 545.833 197.553 545.955 196.769 545.955ZM196.786 540.761C197.222 540.761 197.593 540.655 197.9 540.443C198.207 540.231 198.44 539.926 198.599 539.528C198.758 539.131 198.837 538.653 198.837 538.097C198.837 537.547 198.758 537.066 198.599 536.653C198.443 536.241 198.212 535.92 197.906 535.693C197.602 535.462 197.229 535.347 196.786 535.347C196.328 535.347 195.945 535.466 195.638 535.705C195.332 535.943 195.101 536.271 194.945 536.688C194.79 537.1 194.712 537.57 194.712 538.097C194.712 538.631 194.79 539.098 194.945 539.5C195.104 539.898 195.337 540.208 195.644 540.432C195.955 540.652 196.335 540.761 196.786 540.761ZM207.062 542.5V533.773H209.119V542.5H207.062ZM208.097 532.534C207.771 532.534 207.49 532.426 207.256 532.21C207.021 531.991 206.903 531.727 206.903 531.42C206.903 531.11 207.021 530.847 207.256 530.631C207.49 530.411 207.771 530.301 208.097 530.301C208.426 530.301 208.706 530.411 208.937 530.631C209.172 530.847 209.29 531.11 209.29 531.42C209.29 531.727 209.172 531.991 208.937 532.21C208.706 532.426 208.426 532.534 208.097 532.534ZM213.351 537.386V542.5H211.294V533.773H213.26V535.256H213.362C213.563 534.767 213.883 534.379 214.323 534.091C214.766 533.803 215.313 533.659 215.965 533.659C216.567 533.659 217.092 533.788 217.539 534.045C217.989 534.303 218.338 534.676 218.584 535.165C218.834 535.653 218.957 536.246 218.953 536.943V542.5H216.897V537.261C216.897 536.678 216.745 536.222 216.442 535.892C216.143 535.562 215.728 535.398 215.198 535.398C214.838 535.398 214.518 535.477 214.237 535.636C213.961 535.792 213.743 536.017 213.584 536.312C213.429 536.608 213.351 536.966 213.351 537.386Z" fill="white"/>
<rect x="16.5" y="569.5" width="360" height="43" rx="21.5" stroke="#1D1D1B"/>
<path d="M165.148 596.5V584.864H169.511C170.405 584.864 171.155 585.019 171.761 585.33C172.371 585.64 172.831 586.076 173.142 586.636C173.456 587.193 173.614 587.843 173.614 588.585C173.614 589.331 173.455 589.979 173.136 590.528C172.822 591.074 172.358 591.496 171.744 591.795C171.131 592.091 170.377 592.239 169.483 592.239H166.375V590.489H169.199C169.722 590.489 170.15 590.417 170.483 590.273C170.816 590.125 171.063 589.911 171.222 589.631C171.384 589.347 171.466 588.998 171.466 588.585C171.466 588.172 171.384 587.82 171.222 587.528C171.059 587.233 170.811 587.009 170.477 586.858C170.144 586.703 169.714 586.625 169.188 586.625H167.256V596.5H165.148ZM171.159 591.227L174.04 596.5H171.688L168.858 591.227H171.159ZM179.262 596.67C178.387 596.67 177.631 596.489 176.995 596.125C176.362 595.758 175.875 595.239 175.534 594.568C175.194 593.894 175.023 593.1 175.023 592.188C175.023 591.29 175.194 590.502 175.534 589.824C175.879 589.142 176.36 588.612 176.978 588.233C177.595 587.85 178.32 587.659 179.154 587.659C179.692 587.659 180.199 587.746 180.676 587.92C181.158 588.091 181.582 588.356 181.949 588.716C182.32 589.076 182.612 589.534 182.824 590.091C183.036 590.644 183.142 591.303 183.142 592.068V592.699H175.989V591.312H181.171C181.167 590.919 181.082 590.568 180.915 590.261C180.748 589.951 180.515 589.706 180.216 589.528C179.921 589.35 179.576 589.261 179.182 589.261C178.762 589.261 178.392 589.364 178.074 589.568C177.756 589.769 177.508 590.034 177.33 590.364C177.156 590.689 177.067 591.047 177.063 591.438V592.648C177.063 593.155 177.156 593.591 177.341 593.955C177.527 594.314 177.786 594.591 178.12 594.784C178.453 594.973 178.843 595.068 179.29 595.068C179.589 595.068 179.86 595.027 180.103 594.943C180.345 594.856 180.555 594.729 180.733 594.562C180.911 594.396 181.046 594.189 181.137 593.943L183.057 594.159C182.936 594.667 182.705 595.11 182.364 595.489C182.027 595.864 181.595 596.155 181.069 596.364C180.542 596.568 179.94 596.67 179.262 596.67ZM188.738 599.955C187.999 599.955 187.365 599.854 186.834 599.653C186.304 599.456 185.878 599.191 185.556 598.858C185.234 598.525 185.011 598.155 184.886 597.75L186.738 597.301C186.821 597.472 186.942 597.64 187.102 597.807C187.261 597.977 187.475 598.117 187.744 598.227C188.016 598.341 188.359 598.398 188.772 598.398C189.355 598.398 189.838 598.256 190.221 597.972C190.603 597.691 190.795 597.229 190.795 596.585V594.932H190.692C190.586 595.144 190.431 595.362 190.227 595.585C190.026 595.809 189.759 595.996 189.425 596.148C189.096 596.299 188.681 596.375 188.181 596.375C187.511 596.375 186.903 596.218 186.357 595.903C185.816 595.585 185.384 595.112 185.062 594.483C184.744 593.85 184.584 593.059 184.584 592.108C184.584 591.15 184.744 590.341 185.062 589.682C185.384 589.019 185.817 588.517 186.363 588.176C186.908 587.831 187.516 587.659 188.187 587.659C188.698 587.659 189.119 587.746 189.448 587.92C189.781 588.091 190.047 588.297 190.244 588.54C190.441 588.778 190.59 589.004 190.692 589.216H190.806V587.773H192.834V596.642C192.834 597.388 192.656 598.006 192.3 598.494C191.944 598.983 191.458 599.348 190.84 599.591C190.223 599.833 189.522 599.955 188.738 599.955ZM188.755 594.761C189.191 594.761 189.562 594.655 189.869 594.443C190.175 594.231 190.408 593.926 190.567 593.528C190.727 593.131 190.806 592.653 190.806 592.097C190.806 591.547 190.727 591.066 190.567 590.653C190.412 590.241 190.181 589.92 189.874 589.693C189.571 589.462 189.198 589.347 188.755 589.347C188.297 589.347 187.914 589.466 187.607 589.705C187.3 589.943 187.069 590.271 186.914 590.688C186.759 591.1 186.681 591.57 186.681 592.097C186.681 592.631 186.759 593.098 186.914 593.5C187.073 593.898 187.306 594.208 187.613 594.432C187.924 594.652 188.304 594.761 188.755 594.761ZM195.002 596.5V587.773H197.059V596.5H195.002ZM196.037 586.534C195.711 586.534 195.43 586.426 195.196 586.21C194.961 585.991 194.843 585.727 194.843 585.42C194.843 585.11 194.961 584.847 195.196 584.631C195.43 584.411 195.711 584.301 196.037 584.301C196.366 584.301 196.646 584.411 196.877 584.631C197.112 584.847 197.23 585.11 197.23 585.42C197.23 585.727 197.112 585.991 196.877 586.21C196.646 586.426 196.366 586.534 196.037 586.534ZM206.132 590.08L204.257 590.284C204.204 590.095 204.111 589.917 203.979 589.75C203.85 589.583 203.676 589.449 203.456 589.347C203.236 589.244 202.967 589.193 202.649 589.193C202.221 589.193 201.861 589.286 201.57 589.472C201.282 589.657 201.14 589.898 201.143 590.193C201.14 590.447 201.232 590.653 201.422 590.812C201.615 590.972 201.933 591.102 202.376 591.205L203.865 591.523C204.691 591.701 205.304 591.983 205.706 592.369C206.111 592.756 206.316 593.261 206.32 593.886C206.316 594.436 206.155 594.92 205.837 595.341C205.522 595.758 205.085 596.083 204.524 596.318C203.963 596.553 203.32 596.67 202.592 596.67C201.524 596.67 200.664 596.447 200.013 596C199.361 595.549 198.973 594.922 198.848 594.119L200.854 593.926C200.945 594.32 201.138 594.617 201.433 594.818C201.729 595.019 202.113 595.119 202.587 595.119C203.075 595.119 203.467 595.019 203.763 594.818C204.062 594.617 204.212 594.369 204.212 594.074C204.212 593.824 204.115 593.617 203.922 593.455C203.732 593.292 203.437 593.167 203.035 593.08L201.547 592.767C200.71 592.593 200.09 592.299 199.689 591.886C199.287 591.47 199.088 590.943 199.092 590.307C199.088 589.769 199.234 589.303 199.53 588.909C199.829 588.511 200.244 588.205 200.774 587.989C201.308 587.769 201.924 587.659 202.621 587.659C203.643 587.659 204.448 587.877 205.035 588.312C205.626 588.748 205.992 589.337 206.132 590.08ZM212.434 587.773V589.364H207.416V587.773H212.434ZM208.655 585.682H210.712V593.875C210.712 594.152 210.754 594.364 210.837 594.511C210.924 594.655 211.038 594.754 211.178 594.807C211.318 594.86 211.473 594.886 211.644 594.886C211.773 594.886 211.89 594.877 211.996 594.858C212.106 594.839 212.189 594.822 212.246 594.807L212.593 596.415C212.483 596.453 212.326 596.494 212.121 596.54C211.92 596.585 211.674 596.612 211.382 596.619C210.867 596.634 210.403 596.557 209.99 596.386C209.577 596.212 209.25 595.943 209.007 595.58C208.769 595.216 208.651 594.761 208.655 594.216V585.682ZM217.984 596.67C217.109 596.67 216.353 596.489 215.717 596.125C215.084 595.758 214.597 595.239 214.256 594.568C213.915 593.894 213.745 593.1 213.745 592.188C213.745 591.29 213.915 590.502 214.256 589.824C214.601 589.142 215.082 588.612 215.699 588.233C216.317 587.85 217.042 587.659 217.876 587.659C218.414 587.659 218.921 587.746 219.398 587.92C219.879 588.091 220.304 588.356 220.671 588.716C221.042 589.076 221.334 589.534 221.546 590.091C221.758 590.644 221.864 591.303 221.864 592.068V592.699H214.711V591.312H219.893C219.889 590.919 219.804 590.568 219.637 590.261C219.47 589.951 219.237 589.706 218.938 589.528C218.643 589.35 218.298 589.261 217.904 589.261C217.484 589.261 217.114 589.364 216.796 589.568C216.478 589.769 216.23 590.034 216.052 590.364C215.878 590.689 215.789 591.047 215.785 591.438V592.648C215.785 593.155 215.878 593.591 216.063 593.955C216.249 594.314 216.508 594.591 216.842 594.784C217.175 594.973 217.565 595.068 218.012 595.068C218.311 595.068 218.582 595.027 218.824 594.943C219.067 594.856 219.277 594.729 219.455 594.562C219.633 594.396 219.768 594.189 219.859 593.943L221.779 594.159C221.658 594.667 221.427 595.11 221.086 595.489C220.749 595.864 220.317 596.155 219.79 596.364C219.264 596.568 218.662 596.67 217.984 596.67ZM223.664 596.5V587.773H225.659V589.227H225.75C225.909 588.723 226.181 588.335 226.568 588.062C226.958 587.786 227.403 587.648 227.903 587.648C228.017 587.648 228.143 587.653 228.284 587.665C228.428 587.672 228.547 587.686 228.642 587.705V589.597C228.554 589.566 228.416 589.54 228.227 589.517C228.041 589.491 227.861 589.477 227.687 589.477C227.312 589.477 226.975 589.559 226.676 589.722C226.38 589.881 226.147 590.102 225.977 590.386C225.806 590.67 225.721 590.998 225.721 591.369V596.5H223.664Z" fill="#1D1D1B"/>
<path d="M132.778 651V639.364H139.994V640.875H134.534V644.42H139.477V645.926H134.534V651H132.778ZM144.553 651.176C143.734 651.176 143.02 650.989 142.411 650.614C141.801 650.239 141.327 649.714 140.99 649.04C140.653 648.366 140.484 647.578 140.484 646.676C140.484 645.771 140.653 644.979 140.99 644.301C141.327 643.623 141.801 643.097 142.411 642.722C143.02 642.347 143.734 642.159 144.553 642.159C145.371 642.159 146.085 642.347 146.695 642.722C147.304 643.097 147.778 643.623 148.115 644.301C148.452 644.979 148.621 645.771 148.621 646.676C148.621 647.578 148.452 648.366 148.115 649.04C147.778 649.714 147.304 650.239 146.695 650.614C146.085 650.989 145.371 651.176 144.553 651.176ZM144.558 649.75C145.089 649.75 145.528 649.61 145.876 649.33C146.225 649.049 146.482 648.676 146.649 648.21C146.82 647.744 146.905 647.231 146.905 646.67C146.905 646.114 146.82 645.602 146.649 645.136C146.482 644.667 146.225 644.29 145.876 644.006C145.528 643.722 145.089 643.58 144.558 643.58C144.024 643.58 143.581 643.722 143.229 644.006C142.88 644.29 142.621 644.667 142.45 645.136C142.284 645.602 142.2 646.114 142.2 646.67C142.2 647.231 142.284 647.744 142.45 648.21C142.621 648.676 142.88 649.049 143.229 649.33C143.581 649.61 144.024 649.75 144.558 649.75ZM150.017 651V642.273H151.659V643.659H151.75C151.909 643.189 152.189 642.82 152.591 642.551C152.996 642.278 153.455 642.142 153.966 642.142C154.072 642.142 154.197 642.146 154.341 642.153C154.489 642.161 154.604 642.17 154.688 642.182V643.807C154.619 643.788 154.498 643.767 154.324 643.744C154.15 643.718 153.975 643.705 153.801 643.705C153.4 643.705 153.042 643.79 152.727 643.96C152.417 644.127 152.17 644.36 151.989 644.659C151.807 644.955 151.716 645.292 151.716 645.67V651H150.017ZM159.004 654.455C158.311 654.455 157.714 654.364 157.214 654.182C156.718 654 156.313 653.759 155.999 653.46C155.684 653.161 155.449 652.833 155.294 652.477L156.754 651.875C156.857 652.042 156.993 652.218 157.163 652.403C157.338 652.593 157.572 652.754 157.868 652.886C158.167 653.019 158.552 653.085 159.021 653.085C159.665 653.085 160.197 652.928 160.618 652.614C161.038 652.303 161.249 651.807 161.249 651.125V649.409H161.141C161.038 649.595 160.891 649.801 160.697 650.028C160.508 650.256 160.247 650.453 159.913 650.619C159.58 650.786 159.146 650.869 158.612 650.869C157.923 650.869 157.302 650.708 156.749 650.386C156.199 650.061 155.764 649.581 155.442 648.949C155.124 648.312 154.964 647.53 154.964 646.602C154.964 645.674 155.122 644.879 155.436 644.216C155.754 643.553 156.19 643.045 156.743 642.693C157.296 642.337 157.923 642.159 158.624 642.159C159.165 642.159 159.603 642.25 159.936 642.432C160.269 642.61 160.529 642.818 160.714 643.057C160.904 643.295 161.05 643.506 161.152 643.688H161.277V642.273H162.942V651.193C162.942 651.943 162.768 652.559 162.419 653.04C162.071 653.521 161.599 653.877 161.004 654.108C160.413 654.339 159.747 654.455 159.004 654.455ZM158.987 649.46C159.476 649.46 159.889 649.347 160.226 649.119C160.567 648.888 160.824 648.559 160.999 648.131C161.177 647.699 161.266 647.182 161.266 646.58C161.266 645.992 161.179 645.475 161.004 645.028C160.83 644.581 160.574 644.233 160.237 643.983C159.9 643.729 159.483 643.602 158.987 643.602C158.476 643.602 158.05 643.735 157.709 644C157.368 644.261 157.11 644.617 156.936 645.068C156.766 645.519 156.68 646.023 156.68 646.58C156.68 647.152 156.768 647.653 156.942 648.085C157.116 648.517 157.374 648.854 157.714 649.097C158.059 649.339 158.483 649.46 158.987 649.46ZM168.396 651.176C167.578 651.176 166.864 650.989 166.254 650.614C165.644 650.239 165.171 649.714 164.834 649.04C164.497 648.366 164.328 647.578 164.328 646.676C164.328 645.771 164.497 644.979 164.834 644.301C165.171 643.623 165.644 643.097 166.254 642.722C166.864 642.347 167.578 642.159 168.396 642.159C169.214 642.159 169.929 642.347 170.538 642.722C171.148 643.097 171.622 643.623 171.959 644.301C172.296 644.979 172.464 645.771 172.464 646.676C172.464 647.578 172.296 648.366 171.959 649.04C171.622 649.714 171.148 650.239 170.538 650.614C169.929 650.989 169.214 651.176 168.396 651.176ZM168.402 649.75C168.932 649.75 169.372 649.61 169.72 649.33C170.069 649.049 170.326 648.676 170.493 648.21C170.663 647.744 170.749 647.231 170.749 646.67C170.749 646.114 170.663 645.602 170.493 645.136C170.326 644.667 170.069 644.29 169.72 644.006C169.372 643.722 168.932 643.58 168.402 643.58C167.868 643.58 167.425 643.722 167.072 644.006C166.724 644.29 166.464 644.667 166.294 645.136C166.127 645.602 166.044 646.114 166.044 646.67C166.044 647.231 166.127 647.744 166.294 648.21C166.464 648.676 166.724 649.049 167.072 649.33C167.425 649.61 167.868 649.75 168.402 649.75ZM177.935 642.273V643.636H173.168V642.273H177.935ZM174.446 640.182H176.145V648.438C176.145 648.767 176.194 649.015 176.293 649.182C176.391 649.345 176.518 649.456 176.673 649.517C176.832 649.574 177.005 649.602 177.19 649.602C177.327 649.602 177.446 649.593 177.548 649.574C177.651 649.555 177.73 649.54 177.787 649.528L178.094 650.932C177.995 650.97 177.855 651.008 177.673 651.045C177.491 651.087 177.264 651.11 176.991 651.114C176.545 651.121 176.128 651.042 175.741 650.875C175.355 650.708 175.043 650.451 174.804 650.102C174.565 649.754 174.446 649.316 174.446 648.79V640.182ZM183.048 654.273V642.273H184.707V643.688H184.849C184.948 643.506 185.09 643.295 185.276 643.057C185.461 642.818 185.719 642.61 186.048 642.432C186.378 642.25 186.813 642.159 187.355 642.159C188.06 642.159 188.688 642.337 189.241 642.693C189.795 643.049 190.228 643.562 190.543 644.233C190.861 644.903 191.02 645.71 191.02 646.653C191.02 647.597 190.863 648.405 190.548 649.08C190.234 649.75 189.802 650.267 189.253 650.631C188.704 650.991 188.077 651.17 187.372 651.17C186.842 651.17 186.408 651.081 186.071 650.903C185.738 650.725 185.476 650.517 185.287 650.278C185.098 650.04 184.952 649.828 184.849 649.642H184.747V654.273H183.048ZM184.713 646.636C184.713 647.25 184.802 647.788 184.98 648.25C185.158 648.712 185.416 649.074 185.753 649.335C186.09 649.593 186.503 649.722 186.991 649.722C187.499 649.722 187.923 649.587 188.264 649.318C188.605 649.045 188.863 648.676 189.037 648.21C189.215 647.744 189.304 647.22 189.304 646.636C189.304 646.061 189.217 645.544 189.043 645.085C188.872 644.627 188.615 644.265 188.27 644C187.929 643.735 187.503 643.602 186.991 643.602C186.499 643.602 186.082 643.729 185.741 643.983C185.404 644.237 185.149 644.591 184.974 645.045C184.8 645.5 184.713 646.03 184.713 646.636ZM194.963 651.193C194.41 651.193 193.91 651.091 193.463 650.886C193.016 650.678 192.662 650.377 192.401 649.983C192.143 649.589 192.014 649.106 192.014 648.534C192.014 648.042 192.109 647.636 192.298 647.318C192.488 647 192.743 646.748 193.065 646.562C193.387 646.377 193.747 646.237 194.145 646.142C194.543 646.047 194.948 645.975 195.361 645.926C195.884 645.866 196.308 645.816 196.634 645.778C196.959 645.737 197.196 645.67 197.344 645.58C197.491 645.489 197.565 645.341 197.565 645.136V645.097C197.565 644.6 197.425 644.216 197.145 643.943C196.868 643.67 196.455 643.534 195.906 643.534C195.334 643.534 194.884 643.661 194.554 643.915C194.228 644.165 194.003 644.443 193.878 644.75L192.281 644.386C192.471 643.856 192.747 643.428 193.111 643.102C193.478 642.773 193.901 642.534 194.378 642.386C194.855 642.235 195.357 642.159 195.884 642.159C196.232 642.159 196.601 642.201 196.991 642.284C197.385 642.364 197.753 642.511 198.094 642.727C198.438 642.943 198.721 643.252 198.94 643.653C199.16 644.051 199.27 644.568 199.27 645.205V651H197.611V649.807H197.543C197.433 650.027 197.268 650.242 197.048 650.455C196.829 650.667 196.546 650.843 196.202 650.983C195.857 651.123 195.444 651.193 194.963 651.193ZM195.332 649.83C195.802 649.83 196.204 649.737 196.537 649.551C196.874 649.366 197.13 649.123 197.304 648.824C197.482 648.521 197.571 648.197 197.571 647.852V646.727C197.51 646.788 197.393 646.845 197.219 646.898C197.048 646.947 196.853 646.991 196.634 647.028C196.414 647.062 196.2 647.095 195.991 647.125C195.783 647.152 195.609 647.174 195.469 647.193C195.139 647.235 194.838 647.305 194.565 647.403C194.296 647.502 194.08 647.644 193.918 647.83C193.759 648.011 193.679 648.254 193.679 648.557C193.679 648.977 193.834 649.295 194.145 649.511C194.455 649.723 194.851 649.83 195.332 649.83ZM207.572 644.403L206.033 644.676C205.968 644.479 205.866 644.292 205.726 644.114C205.589 643.936 205.404 643.79 205.169 643.676C204.934 643.562 204.641 643.506 204.288 643.506C203.807 643.506 203.406 643.614 203.084 643.83C202.762 644.042 202.601 644.316 202.601 644.653C202.601 644.945 202.709 645.18 202.925 645.358C203.141 645.536 203.489 645.682 203.97 645.795L205.357 646.114C206.16 646.299 206.758 646.585 207.152 646.972C207.546 647.358 207.743 647.86 207.743 648.477C207.743 649 207.591 649.466 207.288 649.875C206.989 650.28 206.571 650.598 206.033 650.83C205.499 651.061 204.879 651.176 204.175 651.176C203.197 651.176 202.4 650.968 201.783 650.551C201.165 650.131 200.786 649.534 200.646 648.761L202.288 648.511C202.391 648.939 202.601 649.263 202.919 649.483C203.237 649.699 203.652 649.807 204.163 649.807C204.72 649.807 205.165 649.691 205.499 649.46C205.832 649.225 205.999 648.939 205.999 648.602C205.999 648.33 205.896 648.1 205.692 647.915C205.491 647.729 205.182 647.589 204.766 647.494L203.288 647.17C202.474 646.985 201.872 646.689 201.482 646.284C201.095 645.879 200.902 645.366 200.902 644.744C200.902 644.229 201.046 643.778 201.334 643.392C201.622 643.006 202.019 642.705 202.527 642.489C203.035 642.269 203.616 642.159 204.271 642.159C205.214 642.159 205.957 642.364 206.499 642.773C207.04 643.178 207.398 643.722 207.572 644.403ZM215.651 644.403L214.111 644.676C214.046 644.479 213.944 644.292 213.804 644.114C213.668 643.936 213.482 643.79 213.247 643.676C213.012 643.562 212.719 643.506 212.366 643.506C211.885 643.506 211.484 643.614 211.162 643.83C210.84 644.042 210.679 644.316 210.679 644.653C210.679 644.945 210.787 645.18 211.003 645.358C211.219 645.536 211.567 645.682 212.048 645.795L213.435 646.114C214.238 646.299 214.836 646.585 215.23 646.972C215.624 647.358 215.821 647.86 215.821 648.477C215.821 649 215.67 649.466 215.366 649.875C215.067 650.28 214.649 650.598 214.111 650.83C213.577 651.061 212.957 651.176 212.253 651.176C211.276 651.176 210.478 650.968 209.861 650.551C209.243 650.131 208.865 649.534 208.724 648.761L210.366 648.511C210.469 648.939 210.679 649.263 210.997 649.483C211.315 649.699 211.73 649.807 212.241 649.807C212.798 649.807 213.243 649.691 213.577 649.46C213.91 649.225 214.077 648.939 214.077 648.602C214.077 648.33 213.974 648.1 213.77 647.915C213.569 647.729 213.26 647.589 212.844 647.494L211.366 647.17C210.552 646.985 209.95 646.689 209.56 646.284C209.173 645.879 208.98 645.366 208.98 644.744C208.98 644.229 209.124 643.778 209.412 643.392C209.7 643.006 210.098 642.705 210.605 642.489C211.113 642.269 211.694 642.159 212.349 642.159C213.293 642.159 214.035 642.364 214.577 642.773C215.118 643.178 215.476 643.722 215.651 644.403ZM219.081 651L216.513 642.273H218.268L219.979 648.682H220.064L221.78 642.273H223.536L225.24 648.653H225.325L227.024 642.273H228.78L226.217 651H224.484L222.712 644.699H222.581L220.808 651H219.081ZM233.303 651.176C232.484 651.176 231.77 650.989 231.161 650.614C230.551 650.239 230.077 649.714 229.74 649.04C229.403 648.366 229.234 647.578 229.234 646.676C229.234 645.771 229.403 644.979 229.74 644.301C230.077 643.623 230.551 643.097 231.161 642.722C231.77 642.347 232.484 642.159 233.303 642.159C234.121 642.159 234.835 642.347 235.445 642.722C236.054 643.097 236.528 643.623 236.865 644.301C237.202 644.979 237.371 645.771 237.371 646.676C237.371 647.578 237.202 648.366 236.865 649.04C236.528 649.714 236.054 650.239 235.445 650.614C234.835 650.989 234.121 651.176 233.303 651.176ZM233.308 649.75C233.839 649.75 234.278 649.61 234.626 649.33C234.975 649.049 235.232 648.676 235.399 648.21C235.57 647.744 235.655 647.231 235.655 646.67C235.655 646.114 235.57 645.602 235.399 645.136C235.232 644.667 234.975 644.29 234.626 644.006C234.278 643.722 233.839 643.58 233.308 643.58C232.774 643.58 232.331 643.722 231.979 644.006C231.63 644.29 231.371 644.667 231.2 645.136C231.034 645.602 230.95 646.114 230.95 646.67C230.95 647.231 231.034 647.744 231.2 648.21C231.371 648.676 231.63 649.049 231.979 649.33C232.331 649.61 232.774 649.75 233.308 649.75ZM238.767 651V642.273H240.409V643.659H240.5C240.659 643.189 240.939 642.82 241.341 642.551C241.746 642.278 242.205 642.142 242.716 642.142C242.822 642.142 242.947 642.146 243.091 642.153C243.239 642.161 243.354 642.17 243.438 642.182V643.807C243.369 643.788 243.248 643.767 243.074 643.744C242.9 643.718 242.725 643.705 242.551 643.705C242.15 643.705 241.792 643.79 241.477 643.96C241.167 644.127 240.92 644.36 240.739 644.659C240.557 644.955 240.466 645.292 240.466 645.67V651H238.767ZM247.362 651.17C246.658 651.17 246.029 650.991 245.476 650.631C244.927 650.267 244.495 649.75 244.18 649.08C243.87 648.405 243.714 647.597 243.714 646.653C243.714 645.71 243.872 644.903 244.186 644.233C244.504 643.562 244.94 643.049 245.493 642.693C246.046 642.337 246.673 642.159 247.374 642.159C247.915 642.159 248.351 642.25 248.68 642.432C249.014 642.61 249.271 642.818 249.453 643.057C249.639 643.295 249.783 643.506 249.885 643.688H249.987V639.364H251.686V651H250.027V649.642H249.885C249.783 649.828 249.635 650.04 249.442 650.278C249.252 650.517 248.991 650.725 248.658 650.903C248.324 651.081 247.893 651.17 247.362 651.17ZM247.737 649.722C248.226 649.722 248.639 649.593 248.976 649.335C249.317 649.074 249.574 648.712 249.749 648.25C249.927 647.788 250.016 647.25 250.016 646.636C250.016 646.03 249.929 645.5 249.754 645.045C249.58 644.591 249.324 644.237 248.987 643.983C248.65 643.729 248.233 643.602 247.737 643.602C247.226 643.602 246.8 643.735 246.459 644C246.118 644.265 245.86 644.627 245.686 645.085C245.516 645.544 245.43 646.061 245.43 646.636C245.43 647.22 245.518 647.744 245.692 648.21C245.866 648.676 246.124 649.045 246.464 649.318C246.809 649.587 247.233 649.722 247.737 649.722ZM255.469 647.653V647.545C255.476 646.841 255.546 646.28 255.679 645.864C255.815 645.447 256.009 645.11 256.259 644.852C256.509 644.595 256.81 644.36 257.162 644.148C257.389 644.004 257.594 643.843 257.776 643.665C257.957 643.487 258.101 643.282 258.207 643.051C258.313 642.82 258.366 642.564 258.366 642.284C258.366 641.947 258.287 641.655 258.128 641.409C257.969 641.163 257.757 640.973 257.491 640.841C257.23 640.705 256.938 640.636 256.616 640.636C256.325 640.636 256.046 640.697 255.781 640.818C255.516 640.939 255.296 641.129 255.122 641.386C254.948 641.64 254.848 641.968 254.821 642.369H253.094C253.12 641.688 253.293 641.112 253.611 640.642C253.929 640.169 254.349 639.811 254.872 639.568C255.399 639.326 255.98 639.205 256.616 639.205C257.313 639.205 257.923 639.335 258.446 639.597C258.969 639.854 259.374 640.216 259.662 640.682C259.954 641.144 260.099 641.684 260.099 642.301C260.099 642.725 260.033 643.108 259.901 643.449C259.768 643.786 259.579 644.087 259.332 644.352C259.09 644.617 258.798 644.852 258.457 645.057C258.135 645.258 257.874 645.466 257.673 645.682C257.476 645.898 257.332 646.153 257.241 646.449C257.151 646.744 257.101 647.11 257.094 647.545V647.653H255.469ZM256.327 651.108C256.016 651.108 255.749 650.998 255.526 650.778C255.302 650.555 255.19 650.286 255.19 649.972C255.19 649.661 255.302 649.396 255.526 649.176C255.749 648.953 256.016 648.841 256.327 648.841C256.634 648.841 256.899 648.953 257.122 649.176C257.349 649.396 257.463 649.661 257.463 649.972C257.463 650.18 257.41 650.371 257.304 650.545C257.202 650.716 257.065 650.852 256.895 650.955C256.724 651.057 256.535 651.108 256.327 651.108Z" fill="#1D1D1B"/>
<rect x="137" y="839" width="120" height="5" rx="2.5" fill="black"/>
</g>
<defs>
<filter id="filter0_f_1_368" x="235.773" y="25.1818" width="7.45454" height="4.18182" filterUnits="userSpaceOnUse" color-interpolation-filters="sRGB">
<feFlood flood-opacity="0" result="BackgroundImageFix"/>
<feBlend mode="normal" in="SourceGraphic" in2="BackgroundImageFix" result="shape"/>
<feGaussianBlur stdDeviation="0.5" result="effect1_foregroundBlur_1_368"/>
</filter>
<filter id="filter1_f_1_368" x="235.773" y="29.5455" width="7.45454" height="5.27273" filterUnits="userSpaceOnUse" color-interpolation-filters="sRGB">
<feFlood flood-opacity="0" result="BackgroundImageFix"/>
<feBlend mode="normal" in="SourceGraphic" in2="BackgroundImageFix" result="shape"/>
<feGaussianBlur stdDeviation="0.5" result="effect1_foregroundBlur_1_368"/>
</filter>
<clipPath id="clip0_1_368">
<rect width="393" height="852" fill="white"/>
</clipPath>
<clipPath id="clip1_1_368">
<rect width="300" height="100" fill="white" transform="translate(46.5 221)"/>
</clipPath>
</defs>
</svg>
