<svg width="393" height="852" viewBox="0 0 393 852" fill="none" xmlns="http://www.w3.org/2000/svg">
<g clip-path="url(#clip0_1_526)">
<rect width="393" height="852" fill="white"/>
<path d="M46.7666 23.7231C47.4085 23.7231 48.0173 23.8421 48.5928 24.0801C49.1683 24.3125 49.6774 24.6777 50.1201 25.1758C50.5684 25.6683 50.9198 26.3019 51.1743 27.0767C51.4289 27.8459 51.5562 28.7728 51.5562 29.8574V29.874C51.5562 31.2188 51.3625 32.3698 50.9751 33.3271C50.5877 34.2845 50.0316 35.0205 49.3066 35.5352C48.5872 36.0443 47.7267 36.2988 46.7251 36.2988C45.9891 36.2988 45.325 36.166 44.7329 35.9004C44.1463 35.6292 43.6593 35.2585 43.272 34.7881C42.8901 34.3122 42.6328 33.7699 42.5 33.1611L42.4834 33.0698H44.5835L44.6167 33.1528C44.7218 33.4295 44.8713 33.673 45.0649 33.8833C45.2642 34.0936 45.5021 34.2568 45.7788 34.373C46.061 34.4837 46.3765 34.5391 46.7251 34.5391C47.356 34.5391 47.8706 34.3537 48.269 33.9829C48.673 33.6066 48.9746 33.1058 49.1738 32.4805C49.3786 31.8496 49.4948 31.1523 49.5225 30.3887C49.528 30.3057 49.5308 30.2254 49.5308 30.1479C49.5308 30.0649 49.5308 29.9847 49.5308 29.9072L49.1572 27.9067C49.1572 27.453 49.0521 27.0407 48.8418 26.6699C48.6315 26.2992 48.3465 26.0059 47.9868 25.79C47.6326 25.5742 47.2314 25.4663 46.7832 25.4663C46.3516 25.4663 45.9559 25.5715 45.5962 25.7817C45.2365 25.992 44.9487 26.2798 44.7329 26.645C44.5171 27.0047 44.4092 27.4087 44.4092 27.8569V27.8735C44.4092 28.3384 44.5116 28.7507 44.7163 29.1104C44.9211 29.4645 45.2005 29.744 45.5547 29.9487C45.9089 30.1535 46.3128 30.2559 46.7666 30.2559C47.2204 30.2559 47.6271 30.1562 47.9868 29.957C48.3465 29.7578 48.6315 29.4811 48.8418 29.127C49.0521 28.7728 49.1572 28.3716 49.1572 27.9233V27.9067H49.6553V30.1147H49.3647C49.2209 30.4302 49.0078 30.7235 48.7256 30.9946C48.4434 31.2658 48.0947 31.4844 47.6797 31.6504C47.2702 31.8164 46.7887 31.8994 46.2354 31.8994C45.4717 31.8994 44.7965 31.7279 44.21 31.3848C43.6234 31.0417 43.1613 30.5713 42.8237 29.9736C42.4917 29.376 42.3257 28.7008 42.3257 27.9482V27.9316C42.3257 27.1182 42.5138 26.396 42.8901 25.7651C43.272 25.1287 43.7977 24.6307 44.4673 24.271C45.1424 23.9058 45.9089 23.7231 46.7666 23.7231ZM54.8247 34.3896C54.4484 34.3896 54.133 34.2651 53.8784 34.0161C53.6294 33.7616 53.5049 33.4517 53.5049 33.0864C53.5049 32.7157 53.6294 32.4058 53.8784 32.1567C54.133 31.9022 54.4484 31.7749 54.8247 31.7749C55.2065 31.7749 55.522 31.9022 55.771 32.1567C56.02 32.4058 56.1445 32.7157 56.1445 33.0864C56.1445 33.4517 56.02 33.7616 55.771 34.0161C55.522 34.2651 55.2065 34.3896 54.8247 34.3896ZM54.8247 28.2305C54.4484 28.2305 54.133 28.106 53.8784 27.8569C53.6294 27.6024 53.5049 27.2925 53.5049 26.9272C53.5049 26.5565 53.6294 26.2466 53.8784 25.9976C54.133 25.743 54.4484 25.6157 54.8247 25.6157C55.2065 25.6157 55.522 25.743 55.771 25.9976C56.02 26.2466 56.1445 26.5565 56.1445 26.9272C56.1445 27.2925 56.02 27.6024 55.771 27.8569C55.522 28.106 55.2065 28.2305 54.8247 28.2305ZM63.9038 36V33.7007H58.0435V31.9492C58.3589 31.4124 58.6743 30.8729 58.9897 30.3306C59.3107 29.7882 59.6344 29.2487 59.9609 28.7119C60.293 28.1696 60.6222 27.6356 60.9487 27.1099C61.2808 26.5786 61.61 26.0557 61.9365 25.541C62.2686 25.0208 62.6006 24.5145 62.9326 24.022H65.9458V31.9326H67.5645V33.7007H65.9458V36H63.9038ZM60.0356 31.9824H63.937V25.7319H63.8125C63.569 26.1082 63.3172 26.4956 63.0571 26.894C62.8026 27.2925 62.5452 27.6992 62.2852 28.1143C62.0251 28.5293 61.7677 28.9471 61.5132 29.3677C61.2586 29.7827 61.0068 30.2005 60.7578 30.6211C60.5088 31.0361 60.2681 31.4484 60.0356 31.8579V31.9824ZM72.02 36V26.1304H71.8706L68.8906 28.2305V26.2217L72.02 24.022H74.1533V36H72.02Z" fill="black"/>
<path d="M82.2507 30.5545C82.0199 30.5504 81.8275 30.4996 81.6736 30.4021C81.5237 30.3005 81.4124 30.1724 81.3395 30.0179C81.2666 29.8594 81.2382 29.6928 81.2544 29.518C81.2706 29.3391 81.3314 29.1745 81.4367 29.0241C81.542 28.8696 81.6979 28.7456 81.9044 28.6521L91.6243 24.1584C91.9038 24.0324 92.161 23.9815 92.3959 24.0059C92.6308 24.0263 92.8231 24.1096 92.973 24.2559C93.1228 24.3982 93.2119 24.5852 93.2403 24.8169C93.2727 25.0445 93.2241 25.3006 93.0945 25.5852L88.6294 35.3044C88.5322 35.5239 88.4046 35.6885 88.2467 35.7983C88.0887 35.9121 87.9207 35.9771 87.7425 35.9934C87.5643 36.0137 87.3962 35.9873 87.2382 35.9141C87.0803 35.8409 86.9527 35.7271 86.8555 35.5727C86.7583 35.4223 86.7097 35.2353 86.7097 35.0117L86.6976 30.6643C86.6976 30.5992 86.6652 30.5667 86.6004 30.5667L82.2507 30.5545Z" fill="black"/>
<rect x="135.5" y="12" width="122" height="36" rx="18" fill="black"/>
<circle cx="239.5" cy="30" r="6" fill="#0E101F"/>
<circle cx="239.5" cy="30" r="4.90909" fill="#01031A"/>
<g filter="url(#filter0_f_1_526)">
<ellipse cx="239.5" cy="27.2727" rx="2.72727" ry="1.09091" fill="white" fill-opacity="0.1"/>
</g>
<g filter="url(#filter1_f_1_526)">
<ellipse cx="239.5" cy="32.1818" rx="2.72727" ry="1.63636" fill="white" fill-opacity="0.1"/>
</g>
<path d="M284.917 32H286.083C286.728 32 287.25 32.5037 287.25 33.125V35.375C287.25 35.9963 286.728 36.5 286.083 36.5H284.917C284.272 36.5 283.75 35.9963 283.75 35.375V33.125C283.75 32.5037 284.272 32 284.917 32Z" fill="black"/>
<path d="M289.917 30H291.083C291.728 30 292.25 30.5037 292.25 31.125V35.375C292.25 35.9963 291.728 36.5 291.083 36.5H289.917C289.272 36.5 288.75 35.9963 288.75 35.375V31.125C288.75 30.5037 289.272 30 289.917 30Z" fill="black"/>
<path opacity="0.2" d="M294.917 27H296.083C296.728 27 297.25 27.5037 297.25 28.125V35.375C297.25 35.9963 296.728 36.5 296.083 36.5H294.917C294.272 36.5 293.75 35.9963 293.75 35.375V28.125C293.75 27.5037 294.272 27 294.917 27Z" fill="black"/>
<path opacity="0.2" d="M299.917 24H301.083C301.728 24 302.25 24.5037 302.25 25.125V35.375C302.25 35.9963 301.728 36.5 301.083 36.5H299.917C299.272 36.5 298.75 35.9963 298.75 35.375V25.125C298.75 24.5037 299.272 24 299.917 24Z" fill="black"/>
<path d="M315.107 32.6929C312.774 32.6929 311.119 31.0449 311.119 28.6982C311.119 26.3516 312.774 24.7036 315.107 24.7036H321.066C323.393 24.7036 325.054 26.3516 325.054 28.6982C325.054 31.0449 323.393 32.6929 321.066 32.6929H319.128C318.799 32.3501 318.772 31.6052 319.023 31.3284H320.994C322.53 31.3284 323.617 30.2473 323.617 28.6982C323.617 27.1558 322.53 26.0681 320.994 26.0681H315.18C313.644 26.0681 312.556 27.1558 312.556 28.6982C312.556 30.2473 313.644 31.3284 315.18 31.3284H315.529C315.45 31.7371 315.483 32.2314 315.542 32.6929H315.107ZM320.434 35.8438C318.1 35.8438 316.446 34.1958 316.446 31.8491C316.446 29.5024 318.1 27.8545 320.434 27.8545H322.365C322.675 28.1973 322.701 28.9158 322.477 29.219H320.506C318.97 29.219 317.883 30.3 317.883 31.8491C317.883 33.3916 318.97 34.4792 320.506 34.4792H326.32C327.856 34.4792 328.944 33.3916 328.944 31.8491C328.944 30.3 327.856 29.219 326.32 29.219H325.971C326.05 28.8037 326.023 28.3159 325.958 27.8545H326.393C328.726 27.8545 330.381 29.5024 330.381 31.8491C330.381 34.1958 328.726 35.8438 326.393 35.8438H320.434Z" fill="black"/>
<g opacity="0.3">
<path d="M340.416 24.7777C339.75 25.7866 339.75 27.1911 339.75 30C339.75 32.8089 339.75 34.2134 340.416 35.2223C340.704 35.659 341.075 36.034 341.506 36.3259C342.503 37 343.89 37 346.665 37H357.533C360.308 37 361.695 37 362.692 36.3259C363.123 36.034 363.494 35.659 363.782 35.2223C364.448 34.2134 364.448 32.8089 364.448 30C364.448 27.1911 364.448 25.7866 363.782 24.7777C363.494 24.341 363.123 23.966 362.692 23.6741C361.695 23 360.308 23 357.533 23H346.665C343.89 23 342.503 23 341.506 23.6741C341.075 23.966 340.704 24.341 340.416 24.7777Z" fill="black"/>
<path d="M366.75 29.75C366.75 30.6231 366.232 31.4112 365.436 31.75V27.75C366.232 28.0888 366.75 28.8769 366.75 29.75Z" fill="black"/>
</g>
<path d="M339.75 30C339.75 27.1911 339.75 25.7866 340.424 24.7777C340.716 24.341 341.091 23.966 341.528 23.6741C342.537 23 343.941 23 346.75 23H349.629V37H346.75C343.941 37 342.537 37 341.528 36.3259C341.091 36.034 340.716 35.659 340.424 35.2223C339.75 34.2134 339.75 32.8089 339.75 30Z" fill="#F7CE45"/>
<path d="M349.46 34.1719C347.709 34.1719 346.555 33.2319 346.447 31.8462L346.442 31.7764H347.994L348 31.8354C348.069 32.437 348.623 32.8667 349.46 32.8667C350.288 32.8667 350.83 32.4048 350.83 31.7495V31.7388C350.83 30.9976 350.277 30.5894 349.337 30.5894H348.451V29.4346H349.315C350.132 29.4346 350.658 29.0049 350.658 28.3765V28.3657C350.658 27.7212 350.212 27.3237 349.45 27.3237C348.687 27.3237 348.177 27.7373 348.112 28.3818L348.107 28.4302H346.614L346.619 28.3657C346.732 26.98 347.822 26.0776 349.45 26.0776C351.115 26.0776 352.189 26.9155 352.189 28.1509V28.1616C352.189 29.1284 351.48 29.7568 350.572 29.9448V29.9771C351.727 30.0845 352.479 30.7505 352.479 31.8032V31.814C352.479 33.2212 351.271 34.1719 349.46 34.1719ZM353.424 34V32.9097L355.921 30.4443C357.012 29.3862 357.307 28.9941 357.307 28.4517V28.4355C357.307 27.7749 356.856 27.313 356.115 27.313C355.357 27.313 354.836 27.8179 354.836 28.5537V28.5806H353.338L353.333 28.5591C353.333 27.0713 354.493 26.0508 356.19 26.0508C357.785 26.0508 358.902 26.9639 358.902 28.3013V28.3174C358.902 29.1982 358.446 29.9287 357.033 31.2339L355.599 32.5713V32.6948H359.015V34H353.424Z" fill="black"/>
<mask id="path-16-inside-1_1_526" fill="white">
<path d="M0 60H393V104H0V60Z"/>
</mask>
<path d="M0 60H393V104H0V60Z" fill="white"/>
<path d="M393 104V103.5H0V104V104.5H393V104Z" fill="#D2D2D2" mask="url(#path-16-inside-1_1_526)"/>
<path d="M29.912 88.1499C30.0706 88.3085 30.2724 88.395 30.5104 88.395C30.9862 88.395 31.3683 88.0201 31.3683 87.5443C31.3683 87.3063 31.2674 87.09 31.1016 86.9242L26.0548 81.9928L31.1016 77.0758C31.2674 76.91 31.3683 76.6865 31.3683 76.4557C31.3683 75.9799 30.9862 75.605 30.5104 75.605C30.2724 75.605 30.0706 75.6915 29.912 75.8501L24.3028 81.3295C24.1009 81.5169 24.0072 81.7477 24 82C24 82.2523 24.1009 82.4686 24.3028 82.6633L29.912 88.1499Z" fill="#1D1D1B"/>
<path d="M140.412 89V74.4545H145.597C146.724 74.4545 147.659 74.6487 148.403 75.0369C149.151 75.4252 149.709 75.9626 150.079 76.6491C150.448 77.331 150.633 78.1193 150.633 79.0142C150.633 79.9044 150.446 80.688 150.072 81.3651C149.702 82.0374 149.144 82.5606 148.395 82.9347C147.652 83.3087 146.717 83.4957 145.59 83.4957H141.662V81.6065H145.391C146.101 81.6065 146.679 81.5047 147.124 81.3011C147.574 81.0975 147.903 80.8016 148.111 80.4134C148.32 80.0251 148.424 79.5587 148.424 79.0142C148.424 78.465 148.317 77.9891 148.104 77.5866C147.896 77.1842 147.567 76.8764 147.117 76.6634C146.672 76.4455 146.087 76.3366 145.363 76.3366H142.607V89H140.412ZM147.593 82.4375L151.187 89H148.687L145.164 82.4375H147.593ZM157.698 89.2202C156.623 89.2202 155.697 88.9905 154.921 88.5312C154.149 88.0672 153.552 87.4162 153.131 86.5781C152.714 85.7353 152.506 84.7481 152.506 83.6165C152.506 82.4991 152.714 81.5142 153.131 80.6619C153.552 79.8097 154.139 79.1444 154.892 78.6662C155.65 78.188 156.535 77.9489 157.548 77.9489C158.164 77.9489 158.761 78.0507 159.338 78.2543C159.916 78.4579 160.434 78.7775 160.894 79.2131C161.353 79.6487 161.715 80.2145 161.98 80.9105C162.245 81.6018 162.378 82.4422 162.378 83.4318V84.1847H153.706V82.5938H160.297C160.297 82.035 160.183 81.5402 159.956 81.1094C159.729 80.6738 159.409 80.3305 158.997 80.0795C158.59 79.8286 158.112 79.7031 157.563 79.7031C156.966 79.7031 156.445 79.8499 156 80.1435C155.56 80.4323 155.219 80.8111 154.977 81.2798C154.741 81.7438 154.622 82.2481 154.622 82.7926V84.0355C154.622 84.7647 154.75 85.3849 155.006 85.8963C155.266 86.4077 155.628 86.7983 156.093 87.0682C156.557 87.3333 157.099 87.4659 157.719 87.4659C158.121 87.4659 158.488 87.4091 158.82 87.2955C159.151 87.1771 159.438 87.0019 159.679 86.7699C159.921 86.5379 160.105 86.2514 160.233 85.9105L162.243 86.2727C162.082 86.8646 161.793 87.383 161.377 87.8281C160.965 88.2685 160.446 88.6117 159.821 88.858C159.201 89.0994 158.493 89.2202 157.698 89.2202ZM169.308 93.3182C168.442 93.3182 167.696 93.2045 167.071 92.9773C166.451 92.75 165.944 92.4493 165.551 92.0753C165.158 91.7012 164.864 91.2917 164.67 90.8466L166.496 90.0938C166.623 90.3021 166.794 90.5223 167.007 90.7543C167.225 90.991 167.518 91.1922 167.888 91.358C168.262 91.5237 168.742 91.6065 169.329 91.6065C170.134 91.6065 170.8 91.41 171.325 91.017C171.851 90.6288 172.113 90.0085 172.113 89.1562V87.0114H171.979C171.851 87.2434 171.666 87.5014 171.425 87.7855C171.188 88.0696 170.861 88.3158 170.444 88.5241C170.028 88.7325 169.486 88.8366 168.818 88.8366C167.956 88.8366 167.18 88.6354 166.488 88.233C165.802 87.8258 165.257 87.2268 164.855 86.4361C164.457 85.6406 164.258 84.6629 164.258 83.5028C164.258 82.3428 164.455 81.3485 164.848 80.5199C165.246 79.6913 165.79 79.0568 166.481 78.6165C167.173 78.1714 167.956 77.9489 168.832 77.9489C169.509 77.9489 170.056 78.0625 170.473 78.2898C170.89 78.5123 171.214 78.7727 171.446 79.071C171.683 79.3693 171.865 79.6321 171.993 79.8594H172.149V78.0909H174.23V89.2415C174.23 90.179 174.012 90.9484 173.577 91.5497C173.141 92.151 172.551 92.5961 171.808 92.8849C171.069 93.1738 170.236 93.3182 169.308 93.3182ZM169.287 87.0753C169.898 87.0753 170.414 86.9332 170.835 86.6491C171.261 86.3603 171.583 85.9484 171.801 85.4134C172.023 84.8736 172.135 84.2273 172.135 83.4744C172.135 82.7405 172.026 82.0942 171.808 81.5355C171.59 80.9768 171.271 80.5412 170.849 80.2287C170.428 79.9115 169.907 79.7528 169.287 79.7528C168.648 79.7528 168.115 79.9186 167.689 80.25C167.263 80.5767 166.941 81.0218 166.723 81.5852C166.51 82.1487 166.403 82.7784 166.403 83.4744C166.403 84.1894 166.512 84.8168 166.73 85.3565C166.948 85.8963 167.27 86.3177 167.696 86.6207C168.127 86.9238 168.657 87.0753 169.287 87.0753ZM177.078 89V78.0909H179.202V89H177.078ZM178.15 76.4077C177.781 76.4077 177.464 76.2846 177.199 76.0384C176.938 75.7874 176.808 75.4891 176.808 75.1435C176.808 74.7931 176.938 74.4948 177.199 74.2486C177.464 73.9976 177.781 73.8722 178.15 73.8722C178.52 73.8722 178.835 73.9976 179.095 74.2486C179.36 74.4948 179.493 74.7931 179.493 75.1435C179.493 75.4891 179.36 75.7874 179.095 76.0384C178.835 76.2846 178.52 76.4077 178.15 76.4077ZM190.233 80.7543L188.308 81.0952C188.228 80.849 188.1 80.6146 187.925 80.392C187.754 80.1695 187.522 79.9872 187.229 79.8452C186.935 79.7031 186.568 79.6321 186.128 79.6321C185.527 79.6321 185.025 79.767 184.622 80.0369C184.22 80.3021 184.019 80.6454 184.019 81.0668C184.019 81.4313 184.154 81.7249 184.423 81.9474C184.693 82.17 185.129 82.3523 185.73 82.4943L187.463 82.892C188.467 83.1241 189.215 83.4815 189.708 83.9645C190.2 84.4474 190.446 85.0748 190.446 85.8466C190.446 86.5 190.257 87.0824 189.878 87.5938C189.504 88.1004 188.981 88.4981 188.308 88.7869C187.641 89.0758 186.867 89.2202 185.986 89.2202C184.764 89.2202 183.768 88.9598 182.996 88.4389C182.224 87.9134 181.751 87.1676 181.575 86.2017L183.628 85.8892C183.756 86.4242 184.019 86.8291 184.416 87.1037C184.814 87.3736 185.333 87.5085 185.972 87.5085C186.668 87.5085 187.224 87.3641 187.641 87.0753C188.057 86.7817 188.266 86.4242 188.266 86.0028C188.266 85.6619 188.138 85.3755 187.882 85.1435C187.631 84.9115 187.245 84.7363 186.725 84.6179L184.878 84.2131C183.86 83.9811 183.107 83.6117 182.619 83.1051C182.137 82.5985 181.895 81.9569 181.895 81.1804C181.895 80.5365 182.075 79.973 182.435 79.4901C182.795 79.0071 183.292 78.6307 183.926 78.3608C184.561 78.0862 185.288 77.9489 186.107 77.9489C187.286 77.9489 188.214 78.2045 188.891 78.7159C189.568 79.2225 190.015 79.902 190.233 80.7543ZM197.873 78.0909V79.7955H191.915V78.0909H197.873ZM193.513 75.4773H195.636V85.7969C195.636 86.2088 195.698 86.5189 195.821 86.7273C195.944 86.9309 196.103 87.0705 196.297 87.1463C196.496 87.2173 196.711 87.2528 196.943 87.2528C197.113 87.2528 197.263 87.241 197.39 87.2173C197.518 87.1937 197.618 87.1747 197.689 87.1605L198.072 88.9148C197.949 88.9621 197.774 89.0095 197.547 89.0568C197.319 89.1089 197.035 89.1373 196.694 89.142C196.136 89.1515 195.615 89.0521 195.132 88.8438C194.649 88.6354 194.258 88.3134 193.96 87.8778C193.662 87.4422 193.513 86.8954 193.513 86.2372V75.4773ZM200.222 89V78.0909H202.275V79.8239H202.389C202.588 79.2367 202.938 78.7751 203.44 78.4389C203.946 78.098 204.519 77.9276 205.159 77.9276C205.291 77.9276 205.447 77.9323 205.627 77.9418C205.812 77.9512 205.956 77.9631 206.061 77.9773V80.0085C205.975 79.9848 205.824 79.9588 205.606 79.9304C205.388 79.8973 205.17 79.8807 204.953 79.8807C204.451 79.8807 204.003 79.9872 203.61 80.2003C203.222 80.4086 202.914 80.6998 202.687 81.0739C202.46 81.4432 202.346 81.8646 202.346 82.3381V89H200.222ZM210.975 89.2415C210.284 89.2415 209.659 89.1136 209.1 88.858C208.542 88.5975 208.099 88.2211 207.772 87.7287C207.45 87.2363 207.289 86.6326 207.289 85.9176C207.289 85.3021 207.408 84.7955 207.644 84.3977C207.881 84 208.201 83.6851 208.603 83.4531C209.006 83.2211 209.455 83.0459 209.953 82.9276C210.45 82.8092 210.956 82.7192 211.472 82.6577C212.126 82.5819 212.656 82.5204 213.063 82.473C213.471 82.4209 213.767 82.3381 213.951 82.2244C214.136 82.1108 214.228 81.9261 214.228 81.6705V81.6207C214.228 81.0005 214.053 80.5199 213.703 80.179C213.357 79.8381 212.841 79.6676 212.154 79.6676C211.439 79.6676 210.876 79.8262 210.464 80.1435C210.057 80.456 209.775 80.804 209.619 81.1875L207.623 80.733C207.86 80.0701 208.205 79.535 208.66 79.1278C209.119 78.7159 209.647 78.4176 210.244 78.233C210.84 78.0436 211.468 77.9489 212.126 77.9489C212.561 77.9489 213.023 78.0009 213.511 78.1051C214.003 78.2045 214.463 78.3892 214.889 78.6591C215.32 78.929 215.672 79.3149 215.947 79.8168C216.222 80.3139 216.359 80.9602 216.359 81.7557V89H214.285V87.5085H214.2C214.062 87.7831 213.856 88.053 213.582 88.3182C213.307 88.5833 212.954 88.8035 212.524 88.9787C212.093 89.1539 211.577 89.2415 210.975 89.2415ZM211.437 87.5369C212.024 87.5369 212.526 87.4209 212.943 87.1889C213.364 86.9569 213.684 86.6539 213.901 86.2798C214.124 85.901 214.235 85.4962 214.235 85.0653V83.6591C214.16 83.7348 214.013 83.8059 213.795 83.8722C213.582 83.9337 213.338 83.9882 213.063 84.0355C212.789 84.0781 212.521 84.1184 212.261 84.1562C212 84.1894 211.783 84.2178 211.607 84.2415C211.195 84.2936 210.819 84.3812 210.478 84.5043C210.142 84.6274 209.872 84.8049 209.669 85.0369C209.47 85.2642 209.37 85.5672 209.37 85.946C209.37 86.4716 209.564 86.8693 209.953 87.1392C210.341 87.4044 210.836 87.5369 211.437 87.5369ZM224.28 78.0909V79.7955H218.321V78.0909H224.28ZM219.919 75.4773H222.042V85.7969C222.042 86.2088 222.104 86.5189 222.227 86.7273C222.35 86.9309 222.509 87.0705 222.703 87.1463C222.902 87.2173 223.117 87.2528 223.349 87.2528C223.52 87.2528 223.669 87.241 223.797 87.2173C223.925 87.1937 224.024 87.1747 224.095 87.1605L224.479 88.9148C224.355 88.9621 224.18 89.0095 223.953 89.0568C223.726 89.1089 223.442 89.1373 223.101 89.142C222.542 89.1515 222.021 89.0521 221.538 88.8438C221.055 88.6354 220.665 88.3134 220.366 87.8778C220.068 87.4422 219.919 86.8954 219.919 86.2372V75.4773ZM226.629 89V78.0909H228.752V89H226.629ZM227.701 76.4077C227.332 76.4077 227.015 76.2846 226.749 76.0384C226.489 75.7874 226.359 75.4891 226.359 75.1435C226.359 74.7931 226.489 74.4948 226.749 74.2486C227.015 73.9976 227.332 73.8722 227.701 73.8722C228.07 73.8722 228.385 73.9976 228.646 74.2486C228.911 74.4948 229.044 74.7931 229.044 75.1435C229.044 75.4891 228.911 75.7874 228.646 76.0384C228.385 76.2846 228.07 76.4077 227.701 76.4077ZM236.204 89.2202C235.182 89.2202 234.289 88.9858 233.527 88.517C232.765 88.0483 232.173 87.3925 231.751 86.5497C231.33 85.7069 231.119 84.7221 231.119 83.5952C231.119 82.4635 231.33 81.474 231.751 80.6264C232.173 79.7789 232.765 79.1207 233.527 78.652C234.289 78.1832 235.182 77.9489 236.204 77.9489C237.227 77.9489 238.12 78.1832 238.882 78.652C239.644 79.1207 240.236 79.7789 240.657 80.6264C241.079 81.474 241.29 82.4635 241.29 83.5952C241.29 84.7221 241.079 85.7069 240.657 86.5497C240.236 87.3925 239.644 88.0483 238.882 88.517C238.12 88.9858 237.227 89.2202 236.204 89.2202ZM236.211 87.4375C236.874 87.4375 237.424 87.2623 237.859 86.9119C238.295 86.5616 238.617 86.0952 238.825 85.5128C239.038 84.9304 239.145 84.2888 239.145 83.5881C239.145 82.892 239.038 82.2528 238.825 81.6705C238.617 81.0833 238.295 80.6122 237.859 80.2571C237.424 79.902 236.874 79.7244 236.211 79.7244C235.544 79.7244 234.99 79.902 234.55 80.2571C234.114 80.6122 233.79 81.0833 233.577 81.6705C233.368 82.2528 233.264 82.892 233.264 83.5881C233.264 84.2888 233.368 84.9304 233.577 85.5128C233.79 86.0952 234.114 86.5616 234.55 86.9119C234.99 87.2623 235.544 87.4375 236.211 87.4375ZM245.784 82.5227V89H243.66V78.0909H245.698V79.8665H245.833C246.084 79.2888 246.477 78.8248 247.012 78.4744C247.552 78.1241 248.231 77.9489 249.051 77.9489C249.794 77.9489 250.445 78.1051 251.004 78.4176C251.562 78.7254 251.996 79.1847 252.303 79.7955C252.611 80.4062 252.765 81.1615 252.765 82.0611V89H250.642V82.3168C250.642 81.526 250.436 80.9081 250.024 80.4631C249.612 80.0133 249.046 79.7884 248.326 79.7884C247.834 79.7884 247.396 79.8949 247.012 80.108C246.633 80.321 246.333 80.6335 246.11 81.0455C245.892 81.4527 245.784 81.9451 245.784 82.5227Z" fill="black"/>
<g clip-path="url(#clip1_1_526)">
<path d="M86.1407 369.741C80.9419 374.075 75.8196 378.346 70.5698 382.732C71.4235 376.447 72.2518 370.34 73.0928 364.119C66.0591 366.159 59.1147 368.16 52.183 370.174C53.3807 368.925 54.5658 367.676 55.7762 366.439C59.4205 362.678 63.0647 358.93 66.6962 355.169C66.9638 354.889 67.2314 354.596 67.2314 354.596C67.2314 354.596 66.8619 354.43 66.4924 354.251C60.1213 351.255 53.7375 348.272 47.3665 345.276C47.1371 345.174 46.9205 345.047 46.5 344.843C54.5785 343.415 62.4659 342.013 70.4934 340.598C65.4475 334.81 60.4908 329.111 55.394 323.272C63.3705 324.573 71.156 325.848 79.1198 327.148L63.2049 301.561C70.4552 306.164 77.7181 310.766 85.0958 315.445C85.7966 310.205 86.4847 305.042 87.1983 299.675C90.3965 304.188 93.4929 308.56 96.6529 313.01C101.367 305.947 106.031 298.973 110.707 292C110.644 293.262 110.58 294.537 110.504 295.812C110.287 299.279 110.07 302.76 109.854 306.227C109.739 308.063 109.65 309.912 109.497 311.748C109.484 311.952 109.459 312.258 109.459 312.258C109.459 312.258 109.752 312.194 109.968 312.156C116.492 310.868 123.004 309.58 129.528 308.305C129.884 308.229 130.241 308.165 130.751 308.076C127.323 314.387 123.946 320.595 120.519 326.867H150.425C150.055 327.033 149.673 327.186 149.456 327.263C138.817 331.38 128.177 335.498 117.524 339.603C117.27 339.705 116.875 339.858 116.875 339.858C116.875 339.858 117.104 340.177 117.27 340.419C120.353 344.843 123.411 349.292 126.469 353.729C126.635 353.971 126.915 354.366 127.068 354.608C126.788 354.608 126.648 354.608 126.508 354.596C122.366 354.328 118.238 354.06 114.11 353.792C112.453 353.69 110.797 353.601 109.153 353.474C108.847 353.448 108.388 353.41 108.388 353.41C108.388 353.41 108.516 353.856 108.605 354.162C111.204 363.303 113.778 372.456 116.339 381.597C116.39 381.788 116.454 382.031 116.543 382.4C115.486 381.368 114.313 380.233 113.281 379.226C109.064 375.108 104.833 370.99 100.628 366.847C100.437 366.656 100.144 366.375 100.144 366.375C100.144 366.375 99.9531 366.72 99.8257 366.962C96.9587 372.138 94.079 377.314 91.1993 382.477C91.0464 382.757 90.8807 383.038 90.6386 383.471C89.1223 378.843 87.657 374.356 86.1534 369.741H86.1407Z" fill="#1D1D1B"/>
<path d="M120.06 340.317C119.78 340.432 119.41 340.572 119.41 340.572C119.41 340.572 119.64 340.916 119.793 341.133C122.876 345.557 125.934 350.006 128.992 354.443C129.158 354.685 129.438 355.106 129.591 355.335C129.311 355.322 129.171 355.31 129.031 355.297C124.889 355.029 120.761 354.761 116.633 354.494C114.976 354.392 113.32 354.302 111.676 354.175C111.37 354.149 110.911 354.111 110.911 354.111C110.911 354.111 111.039 354.557 111.115 354.863C113.715 364.004 116.288 373.158 118.85 382.298C118.901 382.49 118.977 382.796 119.054 383.101C117.996 382.069 116.824 380.947 115.792 379.927C111.574 375.809 107.344 371.691 103.139 367.548C102.948 367.357 102.654 367.077 102.654 367.077C102.654 367.077 102.463 367.408 102.336 367.663C99.4689 372.839 96.5892 378.015 93.7095 383.178C93.5566 383.458 93.3909 383.739 93.1488 384.172C91.6325 379.545 90.1672 375.057 88.6636 370.442C83.4648 374.777 78.3425 379.047 73.0928 383.433C73.9465 377.148 74.7747 371.041 75.6157 364.82C68.5821 366.86 61.6376 368.861 54.7059 370.876C55.9037 369.626 57.1014 368.377 58.2992 367.14C61.9434 363.379 65.5877 359.631 69.2192 355.87C69.4995 355.59 69.7671 355.31 69.7671 355.31C69.7671 355.31 69.3848 355.131 69.0153 354.953C62.6443 351.957 56.2605 348.973 49.8894 345.978C49.6601 345.876 49.4434 345.748 49.0229 345.544C57.1014 344.116 64.9888 342.714 73.0163 341.299C67.9705 335.511 63.0138 329.812 57.9169 323.973C65.8935 325.274 73.6789 326.549 81.6427 327.849L65.7278 302.263C72.9781 306.865 80.2411 311.467 87.6188 316.146C88.3196 310.906 89.0077 305.743 89.7212 300.376C92.9195 304.889 96.0158 309.262 99.1759 313.711C103.89 306.674 108.554 299.7 113.218 292.714C113.154 293.976 113.09 295.251 113.014 296.526C112.797 299.993 112.581 303.474 112.364 306.941C112.249 308.777 112.16 310.626 112.007 312.462C111.994 312.678 111.969 312.971 111.969 312.971C111.969 312.971 112.262 312.908 112.479 312.869C119.003 311.582 125.514 310.294 132.038 309.019C132.395 308.943 132.751 308.879 133.261 308.79C129.833 315.1 126.457 321.309 123.029 327.581H152.96" fill="#FFED00"/>
<path d="M132.127 366.312L132.28 360.842H123.501L120.761 366.312H111.892L130.916 332.668H140.154L141.148 366.312H132.14H132.127ZM132.522 353.168L132.79 342.625L127.438 353.168H132.535H132.522Z" fill="white"/>
<path d="M139.887 332.923L140.868 366.057H132.382L132.535 360.587H123.335L120.595 366.057H112.313L131.044 332.923H139.887ZM127.017 353.423H132.777L133.07 341.516L127.017 353.423ZM140.384 332.413H130.751L130.611 332.668L111.88 365.802L111.446 366.567H120.914L121.054 366.286L123.653 361.097H132.012L131.872 366.044V366.567C131.859 366.567 132.382 366.567 132.382 366.567H141.39V366.044C141.378 366.044 140.397 332.91 140.397 332.91V332.413H140.384ZM127.846 352.913L132.509 343.747L132.28 352.913H127.846Z" fill="#1D1D1B"/>
<path d="M142.792 366.324L151.737 332.898V332.668H151.992H172.366L170.315 340.304H158.427L157.012 345.582H167.168L165.244 352.785H155.075L151.457 366.324H142.792Z" fill="white"/>
<path d="M172.035 332.923L170.124 340.049H158.223L156.668 345.837H166.836L165.04 352.53H154.872L151.24 366.069H143.098L151.966 332.936H172.01M172.698 332.413H151.482V332.859L142.626 365.929L142.461 366.567H151.661L151.762 366.184L155.292 353.028H165.46L165.562 352.645L167.359 345.952L167.524 345.315H157.356L158.63 340.547H170.532L170.634 340.164L172.545 333.038L172.711 332.4L172.698 332.413Z" fill="#1D1D1B"/>
<path d="M167.18 366.312L176.189 332.668H198.437L196.398 340.253H182.802L181.528 345.009H194.143L192.193 352.275H179.578L177.973 358.305H191.964L189.81 366.312H167.18Z" fill="white"/>
<path d="M198.106 332.923L196.207 339.998H182.611L181.197 345.264H193.811L192.002 352.02H179.387L177.642 358.548H191.633L189.619 366.057H167.512L176.38 332.923H198.106ZM198.768 332.413H175.998L175.896 332.796L167.028 365.929L166.862 366.567H190.027L190.129 366.184L192.142 358.675L192.308 358.038H178.317L179.795 352.53H192.41L192.512 352.148L194.321 345.391L194.487 344.754H181.872L183.006 340.508H196.602L196.704 340.126L198.602 333.05L198.768 332.413Z" fill="#1D1D1B"/>
<path d="M200.08 366.312L206.757 341.363H198.488L200.82 332.668H225.985L223.653 341.363H215.396L208.707 366.312H200.08Z" fill="white"/>
<path d="M225.654 332.923L223.462 341.108H215.193L208.516 366.057H200.412L207.089 341.108H198.819L201.011 332.923H225.641M226.316 332.413H200.628L200.526 332.796L198.335 340.98L198.169 341.618H206.439L199.928 365.929L199.762 366.567H208.924L209.025 366.184L215.613 341.605H223.883L223.985 341.222L226.176 333.038L226.342 332.4L226.316 332.413Z" fill="#1D1D1B"/>
<path d="M236.982 366.312L235.325 355.972C235.083 354.404 234.803 353.78 234.599 353.537C234.204 353.079 233.681 352.862 233.019 352.862H232.496L228.89 366.312H220.226L229.234 332.668H242.932C245.455 332.668 247.354 332.948 248.564 333.509C249.813 334.083 250.654 335.154 251.1 336.684C251.533 338.188 251.457 340.037 250.883 342.191C250.386 344.053 249.622 345.684 248.641 347.036C247.647 348.387 246.475 349.496 245.137 350.338C244.423 350.784 243.544 351.179 242.499 351.498C243.085 351.829 243.518 352.148 243.786 352.492C244.028 352.785 244.321 353.385 244.652 354.302C244.996 355.22 245.188 355.909 245.251 356.419L246.64 366.312H236.969H236.982ZM237.389 346.092C237.632 346.092 238.205 346.016 239.594 345.646C240.116 345.519 240.613 345.2 241.059 344.69C241.518 344.167 241.849 343.555 242.028 342.867C242.295 341.873 242.257 341.12 241.913 340.61C241.582 340.113 240.715 339.858 239.326 339.858H235.962L234.293 346.08H237.377L237.389 346.092Z" fill="white"/>
<path d="M242.932 332.923C245.442 332.923 247.277 333.191 248.462 333.739C249.635 334.287 250.437 335.294 250.858 336.76C251.278 338.226 251.202 340.024 250.641 342.127C250.144 343.963 249.418 345.557 248.437 346.883C247.456 348.221 246.322 349.292 245.009 350.121C244.181 350.644 243.111 351.09 241.811 351.434C242.665 351.842 243.264 352.25 243.595 352.658C243.824 352.926 244.092 353.512 244.423 354.404C244.754 355.297 244.945 355.985 245.009 356.457L246.36 366.057H237.198L235.58 355.934C235.376 354.621 235.121 353.767 234.79 353.384C234.344 352.875 233.745 352.62 233.006 352.62H232.293L228.687 366.069H220.544L229.413 332.936H242.92M233.975 346.347H237.389C237.759 346.347 238.511 346.194 239.658 345.901C240.231 345.761 240.766 345.417 241.25 344.856C241.734 344.295 242.079 343.657 242.27 342.931C242.55 341.86 242.512 341.044 242.129 340.47C241.747 339.896 240.817 339.616 239.339 339.616H235.784L233.975 346.347ZM242.932 332.413H229.031L228.929 332.796L220.06 365.929L219.895 366.567H229.082L229.184 366.184L232.688 353.117H233.019C233.605 353.117 234.064 353.308 234.408 353.703C234.561 353.882 234.841 354.43 235.07 355.998L236.689 366.133L236.752 366.567H246.933L246.857 365.98L245.506 356.38C245.442 355.858 245.239 355.144 244.895 354.213C244.538 353.244 244.245 352.645 243.977 352.326C243.76 352.071 243.48 351.816 243.098 351.561C243.939 351.268 244.665 350.924 245.277 350.542C246.627 349.687 247.838 348.553 248.845 347.163C249.851 345.786 250.628 344.129 251.125 342.242C251.712 340.049 251.788 338.15 251.342 336.607C250.883 335.001 249.979 333.866 248.666 333.267C247.405 332.694 245.532 332.413 242.932 332.413ZM236.166 340.126H239.339C240.6 340.126 241.441 340.355 241.709 340.763C242.002 341.21 242.028 341.898 241.785 342.816C241.607 343.466 241.301 344.04 240.868 344.537C240.448 345.009 240.002 345.302 239.543 345.417C238.179 345.774 237.632 345.85 237.402 345.85H234.65L236.179 340.139L236.166 340.126Z" fill="#1D1D1B"/>
<path d="M266.123 366.312L266.276 360.842H257.496L254.757 366.312H245.888L264.912 332.668H274.15L275.144 366.312H266.136H266.123ZM266.531 353.168L266.798 342.625L261.446 353.168H266.543H266.531Z" fill="white"/>
<path d="M273.896 332.923L274.877 366.057H266.39L266.543 360.587H257.344L254.604 366.057H246.334L265.065 332.923H273.908M261.013 353.423H266.773L267.066 341.516L261.013 353.423ZM274.392 332.413H264.759L264.619 332.668L245.888 365.802L245.455 366.567H254.923L255.063 366.286L257.662 361.097H266.021L265.881 366.044V366.567C265.868 366.567 266.39 366.567 266.39 366.567H275.399V366.044C275.386 366.044 274.405 332.91 274.405 332.91V332.413H274.392ZM261.854 352.913L266.518 343.747L266.288 352.913H261.854Z" fill="#1D1D1B"/>
<path d="M289.326 366.885C286.434 366.885 284.178 366.337 282.611 365.266C281.031 364.183 279.923 362.27 279.311 359.593C278.699 356.929 278.954 353.486 280.05 349.356C281.528 343.849 283.847 339.565 286.969 336.595C290.103 333.611 293.85 332.107 298.118 332.107C302.387 332.107 303.941 332.987 305.432 334.733C306.91 336.454 307.637 339.132 307.624 342.676V342.867L299.418 345.009V344.677C299.443 343.696 299.38 342.982 299.24 342.548C299.01 341.822 298.641 341.248 298.144 340.865C297.647 340.483 297.022 340.292 296.271 340.292C294.525 340.292 292.919 341.197 291.492 342.994C290.409 344.346 289.466 346.513 288.676 349.42C287.708 353.028 287.479 355.514 287.976 356.814C288.46 358.076 289.415 358.688 290.906 358.688C292.397 358.688 293.62 358.191 294.678 357.12C295.735 356.049 296.729 354.455 297.634 352.403L297.736 352.173L304.591 355.08L304.477 355.322C303.317 357.847 301.979 359.988 300.488 361.684C298.997 363.392 297.341 364.693 295.57 365.559C293.786 366.426 291.683 366.873 289.301 366.873L289.326 366.885Z" fill="white"/>
<path d="M298.131 332.362C301.431 332.362 303.801 333.203 305.241 334.899C306.681 336.582 307.395 339.183 307.369 342.676L299.673 344.69C299.698 343.683 299.635 342.943 299.482 342.472C299.24 341.694 298.845 341.082 298.297 340.661C297.749 340.241 297.073 340.024 296.271 340.024C294.436 340.024 292.779 340.955 291.301 342.829C290.193 344.218 289.237 346.386 288.447 349.356C287.466 353.028 287.224 355.539 287.746 356.903C288.269 358.267 289.326 358.943 290.919 358.943C292.512 358.943 293.786 358.395 294.882 357.298C295.978 356.202 296.971 354.596 297.889 352.505L304.26 355.22C303.113 357.732 301.801 359.835 300.323 361.531C298.845 363.214 297.226 364.489 295.481 365.355C293.735 366.21 291.683 366.643 289.326 366.643C286.969 366.643 284.28 366.12 282.764 365.075C281.235 364.03 280.165 362.181 279.566 359.555C278.954 356.916 279.209 353.55 280.305 349.432C281.77 343.951 284.051 339.743 287.147 336.799C290.244 333.854 293.901 332.388 298.131 332.388M298.131 331.852C293.799 331.852 289.976 333.382 286.803 336.403C283.656 339.399 281.299 343.734 279.821 349.279C278.699 353.448 278.457 356.941 279.069 359.644C279.706 362.398 280.853 364.361 282.471 365.47C284.076 366.567 286.383 367.127 289.326 367.127C292.27 367.127 293.888 366.681 295.697 365.789C297.507 364.909 299.189 363.583 300.705 361.85C302.208 360.128 303.559 357.974 304.731 355.424L304.948 354.953L304.464 354.749L298.093 352.033L297.634 351.842L297.43 352.301C296.538 354.328 295.557 355.883 294.525 356.941C293.518 357.961 292.372 358.446 290.932 358.446C289.492 358.446 288.676 357.897 288.23 356.725C287.759 355.475 287.988 353.04 288.944 349.483C289.721 346.602 290.651 344.473 291.709 343.147C293.098 341.388 294.601 340.534 296.283 340.534C297.965 340.534 297.545 340.7 298.004 341.057C298.462 341.414 298.794 341.936 299.01 342.612C299.099 342.905 299.201 343.479 299.176 344.664V345.34C299.163 345.34 299.813 345.174 299.813 345.174L307.509 343.16L307.891 343.058V342.663C307.904 339.055 307.152 336.327 305.636 334.555C304.107 332.757 301.584 331.839 298.131 331.839V331.852Z" fill="#1D1D1B"/>
<path d="M322.927 366.312L321.092 352.964L315.83 358.114L313.625 366.312H304.999L314.008 332.668H322.634L319.461 344.537L330.687 332.668H342.206L328.941 345.519L333.452 366.312H322.927Z" fill="white"/>
<path d="M314.199 332.923H322.303L318.952 345.442L330.789 332.923H341.569L328.648 345.429L333.121 366.057H323.144L321.258 352.428L315.588 357.974L313.422 366.057H305.318L314.186 332.923M313.816 332.413L313.715 332.796L304.846 365.929L304.68 366.567H313.842L313.944 366.184L316.072 358.229L320.927 353.486L322.672 366.108L322.736 366.554H333.796L333.656 365.942L329.234 345.595L341.951 333.28L342.856 332.4H330.598L330.445 332.566L319.984 343.619L322.812 333.038L322.978 332.4H322.316H314.212H313.816V332.413Z" fill="#1D1D1B"/>
<path d="M346.245 376.319H75.0296V391.745H346.245V376.319Z" fill="white"/>
<path d="M345.99 376.574V391.49H75.2844V376.574H345.99ZM346.5 376.064H74.7747V392H346.5V376.064Z" fill="#1D1D1B"/>
<path d="M126.826 322.992L126.852 322.711V322.584C126.864 322.584 126.864 322.571 126.864 322.571C126.915 322.38 126.928 322.189 126.915 321.997V321.972V321.946C127.03 320.939 127.005 319.919 126.979 319.065C126.903 316.873 126.699 315.228 126.317 313.762C125.769 311.658 124.902 309.67 123.781 308.012L123.513 307.617H346.232V323.005H126.826V322.992Z" fill="white"/>
<path d="M345.99 307.872V322.75H127.107C127.107 322.711 127.107 322.673 127.119 322.635C127.17 322.418 127.196 322.201 127.17 321.985C127.272 321.041 127.272 320.072 127.234 319.065C127.17 317.268 127.005 315.432 126.559 313.711C126.023 311.633 125.157 309.619 123.985 307.885H345.978M346.5 307.362H123.042L123.577 308.152C124.673 309.784 125.539 311.748 126.074 313.826C126.444 315.279 126.648 316.898 126.737 319.078C126.763 319.932 126.788 320.939 126.673 321.921V321.972V322.023C126.686 322.189 126.673 322.342 126.635 322.507V322.546V322.584C126.635 322.597 126.635 322.609 126.635 322.635C126.635 322.66 126.635 322.673 126.635 322.699L126.571 323.26H346.526V307.362H346.5Z" fill="#1D1D1B"/>
<path d="M338.141 309.657C339.122 309.657 340.065 309.899 340.957 310.396C341.862 310.893 342.563 311.595 343.085 312.512C343.595 313.43 343.862 314.387 343.862 315.394C343.862 316.401 343.608 317.344 343.111 318.249C342.601 319.155 341.9 319.856 340.995 320.366C340.091 320.876 339.148 321.118 338.141 321.118C337.135 321.118 336.192 320.863 335.287 320.366C334.382 319.868 333.681 319.155 333.172 318.249C332.662 317.344 332.42 316.401 332.42 315.394C332.42 314.387 332.675 313.43 333.197 312.512C333.72 311.595 334.42 310.893 335.325 310.396C336.23 309.899 337.16 309.657 338.141 309.657ZM338.141 310.779C337.351 310.779 336.599 310.97 335.873 311.365C335.147 311.76 334.586 312.321 334.166 313.061C333.745 313.8 333.541 314.565 333.541 315.381C333.541 316.197 333.745 316.949 334.153 317.676C334.561 318.402 335.121 318.976 335.848 319.384C336.574 319.792 337.338 319.996 338.128 319.996C338.918 319.996 339.696 319.792 340.422 319.384C341.148 318.976 341.709 318.402 342.117 317.676C342.524 316.949 342.728 316.184 342.728 315.381C342.728 314.578 342.524 313.8 342.104 313.061C341.683 312.321 341.123 311.76 340.397 311.365C339.67 310.97 338.918 310.779 338.128 310.779H338.141ZM335.555 318.441V312.372H336.791C337.95 312.372 338.587 312.372 338.727 312.385C339.135 312.423 339.454 312.5 339.683 312.627C339.912 312.755 340.103 312.946 340.244 313.214C340.384 313.481 340.473 313.762 340.473 314.081C340.473 314.399 340.333 314.896 340.04 315.202C339.747 315.508 339.352 315.712 338.829 315.776C339.008 315.853 339.161 315.916 339.25 316.006C339.352 316.082 339.492 316.248 339.658 316.477C339.708 316.541 339.849 316.783 340.103 317.217L340.817 318.441H339.301L338.791 317.459C338.447 316.796 338.167 316.375 337.937 316.21C337.708 316.044 337.428 315.955 337.084 315.955H336.765V318.453H335.529L335.555 318.441ZM336.791 314.986H337.287C338.001 314.986 338.447 314.96 338.613 314.909C338.791 314.858 338.918 314.756 339.02 314.616C339.122 314.476 339.173 314.323 339.173 314.144C339.173 313.966 339.122 313.826 339.033 313.698C338.944 313.571 338.791 313.469 338.625 313.418C338.447 313.367 338.001 313.328 337.3 313.328H336.803V314.986H336.791Z" fill="#1D1D1B"/>
<path d="M91.9638 366.618C84.3186 366.618 79.4511 364.667 77.5015 360.817C75.5647 357.005 75.1825 352.11 76.3547 346.271L76.393 346.08L90.2819 344.97L90.2309 345.289C89.7849 347.992 89.8104 350.057 90.2819 351.459C91.0464 353.69 92.6519 354.787 95.1876 354.787C97.7233 354.787 98.7171 354.2 100.042 353.066C101.38 351.918 102.259 350.567 102.654 349.05C103.037 347.635 102.884 346.347 102.234 345.238C101.571 344.116 99.5454 343.033 96.2197 342.013C90.6132 340.241 86.8542 337.857 85.0321 334.912C83.1845 331.954 82.866 328.142 84.0765 323.591C84.8665 320.608 86.3063 317.765 88.3451 315.113C90.3838 312.462 92.9832 310.345 96.0668 308.828C99.1504 307.311 103.075 306.546 107.739 306.546C112.402 306.546 117.563 307.961 119.856 310.74C122.15 313.52 122.8 317.994 121.768 324.012L121.729 324.203L107.981 325.223L108.019 324.917C108.35 322.393 108.146 320.557 107.395 319.435C106.655 318.339 105.356 317.778 103.508 317.778C101.661 317.778 100.692 318.198 99.711 319.04C98.7171 319.881 98.0418 320.914 97.7233 322.112C97.4939 322.966 97.5958 323.706 98.0291 324.381C98.4496 325.095 99.762 325.758 101.941 326.396C107.522 328.079 111.434 329.8 113.6 331.533C115.779 333.28 117.155 335.473 117.677 338.073C118.187 340.649 118.021 343.555 117.18 346.717C116.199 350.427 114.466 353.894 112.045 357.031C109.624 360.167 106.732 362.576 103.444 364.195C100.157 365.814 96.2961 366.643 91.9638 366.643V366.618Z" fill="white"/>
<path d="M107.726 306.788C113.422 306.788 117.397 308.152 119.652 310.893C121.908 313.634 122.532 317.982 121.513 323.961L108.274 324.942C108.618 322.354 108.401 320.468 107.611 319.282C106.821 318.109 105.458 317.51 103.508 317.51C101.559 317.51 100.59 317.943 99.5454 318.823C98.5005 319.703 97.8124 320.774 97.4812 322.023C97.2391 322.941 97.3537 323.77 97.8252 324.496C98.2712 325.261 99.6218 325.962 101.877 326.625C107.445 328.295 111.306 330.004 113.447 331.712C115.588 333.433 116.926 335.562 117.423 338.099C117.932 340.636 117.767 343.479 116.926 346.628C115.944 350.325 114.25 353.729 111.841 356.839C109.433 359.963 106.592 362.321 103.33 363.928C100.068 365.534 96.2834 366.35 91.9638 366.35C84.395 366.35 79.6422 364.463 77.7309 360.689C75.8196 356.916 75.4373 352.122 76.6096 346.309L89.9888 345.251C89.5428 348.005 89.5556 350.095 90.0525 351.536C90.8425 353.869 92.5627 355.029 95.2003 355.029C97.8379 355.029 98.8318 354.43 100.221 353.244C101.597 352.046 102.502 350.669 102.922 349.101C103.317 347.609 103.164 346.271 102.463 345.098C101.762 343.925 99.711 342.803 96.3089 341.758C90.7406 339.998 87.0581 337.665 85.2615 334.759C83.4394 331.852 83.1335 328.142 84.3313 323.642C85.1213 320.684 86.5229 317.88 88.5489 315.253C90.5749 312.627 93.1234 310.549 96.1815 309.045C99.2396 307.541 103.1 306.788 107.739 306.788M107.726 306.278C103.024 306.278 99.0612 307.056 95.9521 308.586C92.8303 310.116 90.2054 312.258 88.1412 314.935C86.077 317.612 84.6371 320.493 83.8344 323.502C82.5984 328.13 82.9424 332.005 84.8282 335.027C85.7584 336.544 87.1983 337.92 89.0968 339.119C90.9699 340.304 93.34 341.35 96.156 342.242C100.233 343.492 101.597 344.626 102.03 345.353C102.667 346.424 102.795 347.597 102.425 348.973C102.03 350.44 101.176 351.74 99.8894 352.862C98.5897 353.984 97.0607 354.532 95.2003 354.532C93.34 354.532 91.263 353.499 90.5367 351.383C90.078 350.032 90.0652 348.005 90.4985 345.34L90.6004 344.703L89.9506 344.754L76.5714 345.812L76.1891 345.837L76.1126 346.22C74.9276 352.122 75.3226 357.069 77.2849 360.932C78.2915 362.92 80.0627 364.438 82.5474 365.419C84.9684 366.388 88.1412 366.873 91.9766 366.873C95.8119 366.873 100.246 366.044 103.572 364.399C106.898 362.755 109.816 360.32 112.262 357.158C114.708 353.996 116.441 350.503 117.435 346.755C118.289 343.555 118.455 340.61 117.932 337.997C117.397 335.345 115.995 333.101 113.766 331.317C111.574 329.57 107.624 327.824 102.017 326.141C99.3797 325.376 98.5133 324.687 98.2584 324.254V324.241C97.8634 323.629 97.7742 322.954 97.9781 322.176C98.2839 321.029 98.921 320.034 99.8767 319.231C100.832 318.428 102.017 318.033 103.508 318.033C104.999 318.033 106.49 318.543 107.191 319.575C107.904 320.646 108.108 322.431 107.777 324.879L107.688 325.503L108.312 325.452L121.551 324.471L121.946 324.445L122.01 324.05C122.532 321.029 122.634 318.364 122.316 316.146C121.997 313.889 121.232 312.003 120.047 310.575C118.862 309.134 117.219 308.05 115.142 307.337C113.116 306.635 110.618 306.278 107.726 306.278Z" fill="#1D1D1B"/>
</g>
<path d="M17.2784 430V418.364H24.5739V419.875H19.0341V423.42H24.1932V424.926H19.0341V428.489H24.642V430H17.2784ZM26.2827 430V421.273H27.9134V422.693H28.0213C28.2031 422.212 28.5005 421.837 28.9134 421.568C29.3262 421.295 29.8205 421.159 30.3963 421.159C30.9796 421.159 31.4683 421.295 31.8622 421.568C32.2599 421.841 32.5535 422.216 32.7429 422.693H32.8338C33.0421 422.227 33.3736 421.856 33.8281 421.58C34.2827 421.299 34.8243 421.159 35.4531 421.159C36.2448 421.159 36.8906 421.407 37.3906 421.903C37.8944 422.4 38.1463 423.148 38.1463 424.148V430H36.4474V424.307C36.4474 423.716 36.2865 423.288 35.9645 423.023C35.6425 422.758 35.258 422.625 34.8111 422.625C34.258 422.625 33.8281 422.795 33.5213 423.136C33.2145 423.473 33.0611 423.907 33.0611 424.438V430H31.3679V424.199C31.3679 423.725 31.2202 423.345 30.9247 423.057C30.6293 422.769 30.2448 422.625 29.7713 422.625C29.4493 422.625 29.152 422.71 28.8793 422.881C28.6103 423.047 28.3925 423.28 28.2259 423.58C28.063 423.879 27.9815 424.225 27.9815 424.619V430H26.2827ZM42.4631 430.193C41.91 430.193 41.41 430.091 40.9631 429.886C40.5161 429.678 40.1619 429.377 39.9006 428.983C39.643 428.589 39.5142 428.106 39.5142 427.534C39.5142 427.042 39.6089 426.636 39.7983 426.318C39.9877 426 40.2434 425.748 40.5653 425.562C40.8873 425.377 41.2472 425.237 41.6449 425.142C42.0426 425.047 42.4479 424.975 42.8608 424.926C43.3835 424.866 43.8078 424.816 44.1335 424.778C44.4593 424.737 44.696 424.67 44.8438 424.58C44.9915 424.489 45.0653 424.341 45.0653 424.136V424.097C45.0653 423.6 44.9252 423.216 44.6449 422.943C44.3684 422.67 43.9555 422.534 43.4062 422.534C42.8343 422.534 42.3835 422.661 42.054 422.915C41.7282 423.165 41.5028 423.443 41.3778 423.75L39.7812 423.386C39.9706 422.856 40.2472 422.428 40.6108 422.102C40.9782 421.773 41.4006 421.534 41.8778 421.386C42.3551 421.235 42.857 421.159 43.3835 421.159C43.732 421.159 44.1013 421.201 44.4915 421.284C44.8854 421.364 45.2528 421.511 45.5938 421.727C45.9384 421.943 46.2206 422.252 46.4403 422.653C46.66 423.051 46.7699 423.568 46.7699 424.205V430H45.1108V428.807H45.0426C44.9328 429.027 44.768 429.242 44.5483 429.455C44.3286 429.667 44.0464 429.843 43.7017 429.983C43.357 430.123 42.9441 430.193 42.4631 430.193ZM42.8324 428.83C43.3021 428.83 43.7036 428.737 44.0369 428.551C44.3741 428.366 44.6297 428.123 44.804 427.824C44.982 427.521 45.071 427.197 45.071 426.852V425.727C45.0104 425.788 44.893 425.845 44.7188 425.898C44.5483 425.947 44.3532 425.991 44.1335 426.028C43.9138 426.062 43.6998 426.095 43.4915 426.125C43.2831 426.152 43.1089 426.174 42.9688 426.193C42.6392 426.235 42.3381 426.305 42.0653 426.403C41.7964 426.502 41.5805 426.644 41.4176 426.83C41.2585 427.011 41.179 427.254 41.179 427.557C41.179 427.977 41.3343 428.295 41.6449 428.511C41.9555 428.723 42.3513 428.83 42.8324 428.83ZM48.5327 430V421.273H50.2315V430H48.5327ZM49.3906 419.926C49.0952 419.926 48.8414 419.828 48.6293 419.631C48.4209 419.43 48.3168 419.191 48.3168 418.915C48.3168 418.634 48.4209 418.396 48.6293 418.199C48.8414 417.998 49.0952 417.898 49.3906 417.898C49.6861 417.898 49.938 417.998 50.1463 418.199C50.3584 418.396 50.4645 418.634 50.4645 418.915C50.4645 419.191 50.3584 419.43 50.1463 419.631C49.938 419.828 49.6861 419.926 49.3906 419.926ZM53.7159 418.364V430H52.017V418.364H53.7159Z" fill="#1D1D1B"/>
<rect x="16.25" y="439.25" width="360.5" height="39.5" rx="5.75" fill="white"/>
<rect x="16.25" y="439.25" width="360.5" height="39.5" rx="5.75" stroke="#A1A1A5" stroke-width="0.5"/>
<path d="M25.2273 456.273H26.5682V465.636C26.5682 466.174 26.4754 466.64 26.2898 467.034C26.108 467.428 25.8314 467.733 25.4602 467.949C25.0928 468.165 24.6288 468.273 24.0682 468.273C24.0227 468.273 23.9773 468.273 23.9318 468.273C23.8864 468.273 23.8409 468.273 23.7955 468.273V467.023C23.8409 467.023 23.8826 467.023 23.9205 467.023C23.9583 467.023 24 467.023 24.0455 467.023C24.4545 467.023 24.7538 466.902 24.9432 466.659C25.1326 466.42 25.2273 466.08 25.2273 465.636V456.273ZM25.8864 454.818C25.625 454.818 25.3996 454.729 25.2102 454.551C25.0246 454.373 24.9318 454.159 24.9318 453.909C24.9318 453.659 25.0246 453.445 25.2102 453.267C25.3996 453.089 25.625 453 25.8864 453C26.1477 453 26.3712 453.089 26.5568 453.267C26.7462 453.445 26.8409 453.659 26.8409 453.909C26.8409 454.159 26.7462 454.373 26.5568 454.551C26.3712 454.729 26.1477 454.818 25.8864 454.818ZM32.0696 465.182C31.2817 465.182 30.5904 464.994 29.9957 464.619C29.4048 464.244 28.9427 463.72 28.6094 463.045C28.2798 462.371 28.1151 461.583 28.1151 460.682C28.1151 459.773 28.2798 458.979 28.6094 458.301C28.9427 457.623 29.4048 457.097 29.9957 456.722C30.5904 456.347 31.2817 456.159 32.0696 456.159C32.8575 456.159 33.5469 456.347 34.1378 456.722C34.7325 457.097 35.1946 457.623 35.5241 458.301C35.8575 458.979 36.0241 459.773 36.0241 460.682C36.0241 461.583 35.8575 462.371 35.5241 463.045C35.1946 463.72 34.7325 464.244 34.1378 464.619C33.5469 464.994 32.8575 465.182 32.0696 465.182ZM32.0696 463.977C32.6681 463.977 33.1605 463.824 33.5469 463.517C33.9332 463.21 34.2192 462.807 34.4048 462.307C34.5904 461.807 34.6832 461.265 34.6832 460.682C34.6832 460.098 34.5904 459.555 34.4048 459.051C34.2192 458.547 33.9332 458.14 33.5469 457.83C33.1605 457.519 32.6681 457.364 32.0696 457.364C31.4711 457.364 30.9787 457.519 30.5923 457.83C30.206 458.14 29.92 458.547 29.7344 459.051C29.5488 459.555 29.456 460.098 29.456 460.682C29.456 461.265 29.5488 461.807 29.7344 462.307C29.92 462.807 30.206 463.21 30.5923 463.517C30.9787 463.824 31.4711 463.977 32.0696 463.977ZM38.9119 459.75V465H37.571V453.364H38.9119V457.636H39.0256C39.2301 457.186 39.5369 456.828 39.946 456.562C40.3589 456.294 40.9081 456.159 41.5938 456.159C42.1884 456.159 42.7093 456.278 43.1562 456.517C43.6032 456.752 43.9498 457.114 44.196 457.602C44.446 458.087 44.571 458.705 44.571 459.455V465H43.2301V459.545C43.2301 458.852 43.0502 458.316 42.6903 457.938C42.3343 457.555 41.84 457.364 41.2074 457.364C40.768 457.364 40.3741 457.456 40.0256 457.642C39.6809 457.828 39.4081 458.098 39.2074 458.455C39.0104 458.811 38.9119 459.242 38.9119 459.75ZM47.8651 459.75V465H46.5241V456.273H47.8196V457.636H47.9332C48.1378 457.193 48.4484 456.837 48.8651 456.568C49.2817 456.295 49.8196 456.159 50.4787 456.159C51.0696 456.159 51.5866 456.28 52.0298 456.523C52.473 456.761 52.8177 457.125 53.0639 457.614C53.3101 458.098 53.4332 458.712 53.4332 459.455V465H52.0923V459.545C52.0923 458.86 51.9143 458.326 51.5582 457.943C51.2022 457.557 50.7135 457.364 50.0923 457.364C49.6643 457.364 49.2817 457.456 48.9446 457.642C48.6113 457.828 48.348 458.098 48.1548 458.455C47.9616 458.811 47.8651 459.242 47.8651 459.75ZM58.679 465.182C57.9517 465.182 57.3097 464.998 56.7528 464.631C56.196 464.259 55.7604 463.737 55.446 463.062C55.1316 462.384 54.9744 461.583 54.9744 460.659C54.9744 459.742 55.1316 458.947 55.446 458.273C55.7604 457.598 56.1979 457.078 56.7585 456.71C57.3191 456.343 57.9669 456.159 58.7017 456.159C59.2699 456.159 59.7188 456.254 60.0483 456.443C60.3816 456.629 60.6354 456.841 60.8097 457.08C60.9877 457.314 61.1259 457.508 61.2244 457.659H61.3381V453.364H62.679V465H61.3835V463.659H61.2244C61.1259 463.818 60.9858 464.019 60.804 464.261C60.6222 464.5 60.3627 464.714 60.0256 464.903C59.6884 465.089 59.2396 465.182 58.679 465.182ZM58.8608 463.977C59.3987 463.977 59.8532 463.837 60.2244 463.557C60.5956 463.273 60.8778 462.881 61.071 462.381C61.2642 461.877 61.3608 461.295 61.3608 460.636C61.3608 459.985 61.2661 459.415 61.0767 458.926C60.8873 458.434 60.607 458.051 60.2358 457.778C59.8646 457.502 59.4063 457.364 58.8608 457.364C58.2926 457.364 57.8191 457.509 57.4403 457.801C57.0653 458.089 56.7831 458.481 56.5938 458.977C56.4081 459.47 56.3153 460.023 56.3153 460.636C56.3153 461.258 56.41 461.822 56.5994 462.33C56.7926 462.833 57.0767 463.235 57.4517 463.534C57.8305 463.83 58.3002 463.977 58.8608 463.977ZM68.3665 465.182C67.5786 465.182 66.8873 464.994 66.2926 464.619C65.7017 464.244 65.2396 463.72 64.9062 463.045C64.5767 462.371 64.4119 461.583 64.4119 460.682C64.4119 459.773 64.5767 458.979 64.9062 458.301C65.2396 457.623 65.7017 457.097 66.2926 456.722C66.8873 456.347 67.5786 456.159 68.3665 456.159C69.1544 456.159 69.8438 456.347 70.4347 456.722C71.0294 457.097 71.4915 457.623 71.821 458.301C72.1544 458.979 72.321 459.773 72.321 460.682C72.321 461.583 72.1544 462.371 71.821 463.045C71.4915 463.72 71.0294 464.244 70.4347 464.619C69.8438 464.994 69.1544 465.182 68.3665 465.182ZM68.3665 463.977C68.965 463.977 69.4574 463.824 69.8438 463.517C70.2301 463.21 70.5161 462.807 70.7017 462.307C70.8873 461.807 70.9801 461.265 70.9801 460.682C70.9801 460.098 70.8873 459.555 70.7017 459.051C70.5161 458.547 70.2301 458.14 69.8438 457.83C69.4574 457.519 68.965 457.364 68.3665 457.364C67.768 457.364 67.2756 457.519 66.8892 457.83C66.5028 458.14 66.2169 458.547 66.0312 459.051C65.8456 459.555 65.7528 460.098 65.7528 460.682C65.7528 461.265 65.8456 461.807 66.0312 462.307C66.2169 462.807 66.5028 463.21 66.8892 463.517C67.2756 463.824 67.768 463.977 68.3665 463.977ZM77.527 465.182C76.6861 465.182 75.9607 464.996 75.3509 464.625C74.7448 464.25 74.277 463.727 73.9474 463.057C73.6217 462.383 73.4588 461.598 73.4588 460.705C73.4588 459.811 73.6217 459.023 73.9474 458.341C74.277 457.655 74.7353 457.121 75.3224 456.739C75.9134 456.352 76.6027 456.159 77.3906 456.159C77.8452 456.159 78.294 456.235 78.7372 456.386C79.1804 456.538 79.5838 456.784 79.9474 457.125C80.3111 457.462 80.6009 457.909 80.8168 458.466C81.0327 459.023 81.1406 459.708 81.1406 460.523V461.091H74.4134V459.932H79.777C79.777 459.439 79.6785 459 79.4815 458.614C79.2884 458.227 79.0118 457.922 78.652 457.699C78.2959 457.475 77.8755 457.364 77.3906 457.364C76.8565 457.364 76.3944 457.496 76.0043 457.761C75.6179 458.023 75.3205 458.364 75.1122 458.784C74.9039 459.205 74.7997 459.655 74.7997 460.136V460.909C74.7997 461.568 74.9134 462.127 75.1406 462.585C75.3717 463.04 75.6918 463.386 76.1009 463.625C76.5099 463.86 76.9853 463.977 77.527 463.977C77.8793 463.977 78.1974 463.928 78.4815 463.83C78.7694 463.727 79.0175 463.576 79.2259 463.375C79.4342 463.17 79.5952 462.917 79.7088 462.614L81.0043 462.977C80.8679 463.417 80.6387 463.803 80.3168 464.136C79.9948 464.466 79.5971 464.723 79.1236 464.909C78.6501 465.091 78.1179 465.182 77.527 465.182ZM89.3849 468.068C88.2259 468.068 87.2012 467.909 86.3111 467.591C85.4209 467.277 84.6728 466.813 84.0668 466.199C83.4607 465.585 83.0024 464.833 82.6918 463.943C82.3812 463.053 82.2259 462.034 82.2259 460.886C82.2259 459.777 82.383 458.784 82.6974 457.909C83.0156 457.034 83.4759 456.292 84.0781 455.682C84.6842 455.068 85.419 454.6 86.2827 454.278C87.1501 453.956 88.1312 453.795 89.2259 453.795C90.2902 453.795 91.2221 453.97 92.0213 454.318C92.8243 454.663 93.4948 455.131 94.0327 455.722C94.5743 456.309 94.9796 456.97 95.2486 457.705C95.5213 458.439 95.6577 459.197 95.6577 459.977C95.6577 460.527 95.6312 461.083 95.5781 461.648C95.5251 462.212 95.4134 462.731 95.2429 463.205C95.0724 463.674 94.8092 464.053 94.4531 464.341C94.1009 464.629 93.6236 464.773 93.0213 464.773C92.7562 464.773 92.4645 464.731 92.1463 464.648C91.8281 464.564 91.5459 464.426 91.2997 464.233C91.0535 464.04 90.9077 463.78 90.8622 463.455H90.794C90.7031 463.674 90.563 463.883 90.3736 464.08C90.188 464.277 89.9437 464.434 89.6406 464.551C89.3414 464.669 88.9759 464.72 88.544 464.705C88.0516 464.686 87.6179 464.576 87.2429 464.375C86.8679 464.17 86.5535 463.894 86.2997 463.545C86.0497 463.193 85.8603 462.786 85.7315 462.324C85.6065 461.858 85.544 461.356 85.544 460.818C85.544 460.307 85.6198 459.839 85.7713 459.415C85.9228 458.991 86.133 458.619 86.402 458.301C86.6747 457.983 86.9929 457.729 87.3565 457.54C87.724 457.347 88.1198 457.227 88.544 457.182C88.9228 457.144 89.2675 457.161 89.5781 457.233C89.8887 457.301 90.1444 457.405 90.3452 457.545C90.5459 457.682 90.6728 457.833 90.7259 458H90.794V457.364H91.9986V462.5C91.9986 462.818 92.0876 463.098 92.2656 463.341C92.4437 463.583 92.7031 463.705 93.044 463.705C93.4304 463.705 93.7259 463.572 93.9304 463.307C94.1387 463.042 94.2808 462.633 94.3565 462.08C94.4361 461.527 94.4759 460.818 94.4759 459.955C94.4759 459.447 94.4058 458.947 94.2656 458.455C94.1293 457.958 93.9209 457.494 93.6406 457.062C93.3641 456.631 93.0137 456.25 92.5895 455.92C92.1652 455.591 91.6671 455.333 91.0952 455.148C90.527 454.958 89.8812 454.864 89.1577 454.864C88.2675 454.864 87.4702 455.002 86.7656 455.278C86.0649 455.551 85.4683 455.951 84.9759 456.477C84.4872 457 84.1141 457.636 83.8565 458.386C83.6027 459.133 83.4759 459.981 83.4759 460.932C83.4759 461.898 83.6027 462.756 83.8565 463.506C84.1141 464.256 84.4929 464.888 84.9929 465.403C85.4967 465.919 86.1198 466.309 86.8622 466.574C87.6046 466.843 88.4607 466.977 89.4304 466.977C89.8471 466.977 90.258 466.938 90.6634 466.858C91.0687 466.778 91.4266 466.691 91.7372 466.597C92.0478 466.502 92.2713 466.432 92.4077 466.386L92.7259 467.432C92.491 467.53 92.1842 467.629 91.8054 467.727C91.4304 467.826 91.0289 467.907 90.6009 467.972C90.1766 468.036 89.7713 468.068 89.3849 468.068ZM88.7259 463.545C89.2334 463.545 89.6444 463.443 89.9588 463.239C90.2732 463.034 90.5024 462.725 90.6463 462.312C90.7902 461.9 90.8622 461.379 90.8622 460.75C90.8622 460.114 90.7827 459.617 90.6236 459.261C90.4645 458.905 90.2296 458.655 89.919 458.511C89.6084 458.367 89.2259 458.295 88.7713 458.295C88.3395 458.295 87.9702 458.409 87.6634 458.636C87.3603 458.86 87.1274 459.159 86.9645 459.534C86.8054 459.905 86.7259 460.311 86.7259 460.75C86.7259 461.235 86.7902 461.691 86.919 462.119C87.0478 462.544 87.258 462.888 87.5497 463.153C87.8414 463.415 88.2334 463.545 88.7259 463.545ZM100.824 465.182C99.983 465.182 99.2576 464.996 98.6477 464.625C98.0417 464.25 97.5739 463.727 97.2443 463.057C96.9186 462.383 96.7557 461.598 96.7557 460.705C96.7557 459.811 96.9186 459.023 97.2443 458.341C97.5739 457.655 98.0322 457.121 98.6193 456.739C99.2102 456.352 99.8996 456.159 100.688 456.159C101.142 456.159 101.591 456.235 102.034 456.386C102.477 456.538 102.881 456.784 103.244 457.125C103.608 457.462 103.898 457.909 104.114 458.466C104.33 459.023 104.438 459.708 104.438 460.523V461.091H97.7102V459.932H103.074C103.074 459.439 102.975 459 102.778 458.614C102.585 458.227 102.309 457.922 101.949 457.699C101.593 457.475 101.172 457.364 100.688 457.364C100.153 457.364 99.6913 457.496 99.3011 457.761C98.9148 458.023 98.6174 458.364 98.4091 458.784C98.2008 459.205 98.0966 459.655 98.0966 460.136V460.909C98.0966 461.568 98.2102 462.127 98.4375 462.585C98.6686 463.04 98.9886 463.386 99.3977 463.625C99.8068 463.86 100.282 463.977 100.824 463.977C101.176 463.977 101.494 463.928 101.778 463.83C102.066 463.727 102.314 463.576 102.523 463.375C102.731 463.17 102.892 462.917 103.006 462.614L104.301 462.977C104.165 463.417 103.936 463.803 103.614 464.136C103.292 464.466 102.894 464.723 102.42 464.909C101.947 465.091 101.415 465.182 100.824 465.182ZM106.743 456.273L108.834 459.841L110.925 456.273H112.47L109.652 460.636L112.47 465H110.925L108.834 461.614L106.743 465H105.197L107.97 460.636L105.197 456.273H106.743ZM116.452 465.205C115.899 465.205 115.397 465.1 114.946 464.892C114.495 464.68 114.137 464.375 113.872 463.977C113.607 463.576 113.474 463.091 113.474 462.523C113.474 462.023 113.573 461.617 113.77 461.307C113.967 460.992 114.23 460.746 114.56 460.568C114.889 460.39 115.253 460.258 115.651 460.17C116.052 460.08 116.455 460.008 116.861 459.955C117.391 459.886 117.821 459.835 118.151 459.801C118.484 459.763 118.726 459.701 118.878 459.614C119.033 459.527 119.111 459.375 119.111 459.159V459.114C119.111 458.553 118.957 458.117 118.651 457.807C118.348 457.496 117.887 457.341 117.27 457.341C116.63 457.341 116.128 457.481 115.764 457.761C115.401 458.042 115.145 458.341 114.997 458.659L113.724 458.205C113.952 457.674 114.255 457.261 114.634 456.966C115.016 456.667 115.433 456.458 115.884 456.341C116.338 456.22 116.785 456.159 117.224 456.159C117.505 456.159 117.827 456.193 118.19 456.261C118.558 456.326 118.912 456.46 119.253 456.665C119.598 456.869 119.884 457.178 120.111 457.591C120.338 458.004 120.452 458.557 120.452 459.25V465H119.111V463.818H119.043C118.952 464.008 118.8 464.21 118.588 464.426C118.376 464.642 118.094 464.826 117.741 464.977C117.389 465.129 116.959 465.205 116.452 465.205ZM116.656 464C117.187 464 117.634 463.896 117.997 463.688C118.365 463.479 118.641 463.21 118.827 462.881C119.016 462.551 119.111 462.205 119.111 461.841V460.614C119.054 460.682 118.929 460.744 118.736 460.801C118.546 460.854 118.327 460.902 118.077 460.943C117.83 460.981 117.59 461.015 117.355 461.045C117.124 461.072 116.937 461.095 116.793 461.114C116.444 461.159 116.118 461.233 115.815 461.335C115.516 461.434 115.274 461.583 115.088 461.784C114.906 461.981 114.815 462.25 114.815 462.591C114.815 463.057 114.988 463.409 115.332 463.648C115.681 463.883 116.122 464 116.656 464ZM122.399 465V456.273H123.695V457.636H123.808C123.99 457.17 124.284 456.809 124.689 456.551C125.094 456.29 125.581 456.159 126.149 456.159C126.725 456.159 127.204 456.29 127.587 456.551C127.973 456.809 128.274 457.17 128.49 457.636H128.581C128.804 457.186 129.14 456.828 129.587 456.562C130.034 456.294 130.57 456.159 131.195 456.159C131.975 456.159 132.613 456.403 133.109 456.892C133.606 457.377 133.854 458.133 133.854 459.159V465H132.513V459.159C132.513 458.515 132.337 458.055 131.984 457.778C131.632 457.502 131.217 457.364 130.74 457.364C130.126 457.364 129.651 457.549 129.314 457.92C128.977 458.288 128.808 458.754 128.808 459.318V465H127.445V459.023C127.445 458.527 127.284 458.127 126.962 457.824C126.64 457.517 126.225 457.364 125.717 457.364C125.369 457.364 125.043 457.456 124.74 457.642C124.441 457.828 124.198 458.085 124.013 458.415C123.831 458.741 123.74 459.117 123.74 459.545V465H122.399ZM137.146 453.364V465H135.805V453.364H137.146ZM142.761 465.182C141.92 465.182 141.195 464.996 140.585 464.625C139.979 464.25 139.511 463.727 139.182 463.057C138.856 462.383 138.693 461.598 138.693 460.705C138.693 459.811 138.856 459.023 139.182 458.341C139.511 457.655 139.97 457.121 140.557 456.739C141.148 456.352 141.837 456.159 142.625 456.159C143.08 456.159 143.528 456.235 143.972 456.386C144.415 456.538 144.818 456.784 145.182 457.125C145.545 457.462 145.835 457.909 146.051 458.466C146.267 459.023 146.375 459.708 146.375 460.523V461.091H139.648V459.932H145.011C145.011 459.439 144.913 459 144.716 458.614C144.523 458.227 144.246 457.922 143.886 457.699C143.53 457.475 143.11 457.364 142.625 457.364C142.091 457.364 141.629 457.496 141.239 457.761C140.852 458.023 140.555 458.364 140.347 458.784C140.138 459.205 140.034 459.655 140.034 460.136V460.909C140.034 461.568 140.148 462.127 140.375 462.585C140.606 463.04 140.926 463.386 141.335 463.625C141.744 463.86 142.22 463.977 142.761 463.977C143.114 463.977 143.432 463.928 143.716 463.83C144.004 463.727 144.252 463.576 144.46 463.375C144.669 463.17 144.83 462.917 144.943 462.614L146.239 462.977C146.102 463.417 145.873 463.803 145.551 464.136C145.229 464.466 144.831 464.723 144.358 464.909C143.884 465.091 143.352 465.182 142.761 465.182ZM148.892 465.091C148.612 465.091 148.371 464.991 148.17 464.79C147.97 464.589 147.869 464.348 147.869 464.068C147.869 463.788 147.97 463.547 148.17 463.347C148.371 463.146 148.612 463.045 148.892 463.045C149.172 463.045 149.413 463.146 149.614 463.347C149.814 463.547 149.915 463.788 149.915 464.068C149.915 464.254 149.867 464.424 149.773 464.58C149.682 464.735 149.559 464.86 149.403 464.955C149.252 465.045 149.081 465.091 148.892 465.091ZM155.366 465.182C154.548 465.182 153.844 464.989 153.253 464.602C152.662 464.216 152.207 463.684 151.889 463.006C151.571 462.328 151.412 461.553 151.412 460.682C151.412 459.795 151.575 459.013 151.901 458.335C152.23 457.653 152.688 457.121 153.276 456.739C153.866 456.352 154.556 456.159 155.344 456.159C155.957 456.159 156.51 456.273 157.003 456.5C157.495 456.727 157.899 457.045 158.213 457.455C158.527 457.864 158.723 458.341 158.798 458.886H157.457C157.355 458.489 157.128 458.136 156.776 457.83C156.427 457.519 155.957 457.364 155.366 457.364C154.844 457.364 154.385 457.5 153.991 457.773C153.601 458.042 153.296 458.422 153.077 458.915C152.861 459.403 152.753 459.977 152.753 460.636C152.753 461.311 152.859 461.898 153.071 462.398C153.287 462.898 153.59 463.286 153.98 463.562C154.374 463.839 154.836 463.977 155.366 463.977C155.715 463.977 156.031 463.917 156.315 463.795C156.599 463.674 156.84 463.5 157.037 463.273C157.234 463.045 157.374 462.773 157.457 462.455H158.798C158.723 462.97 158.535 463.434 158.236 463.847C157.94 464.256 157.548 464.581 157.06 464.824C156.575 465.062 156.01 465.182 155.366 465.182ZM163.804 465.182C163.016 465.182 162.325 464.994 161.73 464.619C161.139 464.244 160.677 463.72 160.344 463.045C160.014 462.371 159.849 461.583 159.849 460.682C159.849 459.773 160.014 458.979 160.344 458.301C160.677 457.623 161.139 457.097 161.73 456.722C162.325 456.347 163.016 456.159 163.804 456.159C164.592 456.159 165.281 456.347 165.872 456.722C166.467 457.097 166.929 457.623 167.259 458.301C167.592 458.979 167.759 459.773 167.759 460.682C167.759 461.583 167.592 462.371 167.259 463.045C166.929 463.72 166.467 464.244 165.872 464.619C165.281 464.994 164.592 465.182 163.804 465.182ZM163.804 463.977C164.402 463.977 164.895 463.824 165.281 463.517C165.668 463.21 165.954 462.807 166.139 462.307C166.325 461.807 166.418 461.265 166.418 460.682C166.418 460.098 166.325 459.555 166.139 459.051C165.954 458.547 165.668 458.14 165.281 457.83C164.895 457.519 164.402 457.364 163.804 457.364C163.205 457.364 162.713 457.519 162.327 457.83C161.94 458.14 161.654 458.547 161.469 459.051C161.283 459.555 161.19 460.098 161.19 460.682C161.19 461.265 161.283 461.807 161.469 462.307C161.654 462.807 161.94 463.21 162.327 463.517C162.713 463.824 163.205 463.977 163.804 463.977ZM169.305 465V456.273H170.601V457.636H170.714C170.896 457.17 171.19 456.809 171.595 456.551C172 456.29 172.487 456.159 173.055 456.159C173.631 456.159 174.11 456.29 174.493 456.551C174.879 456.809 175.18 457.17 175.396 457.636H175.487C175.711 457.186 176.046 456.828 176.493 456.562C176.94 456.294 177.476 456.159 178.101 456.159C178.881 456.159 179.519 456.403 180.016 456.892C180.512 457.377 180.76 458.133 180.76 459.159V465H179.419V459.159C179.419 458.515 179.243 458.055 178.891 457.778C178.538 457.502 178.124 457.364 177.646 457.364C177.033 457.364 176.557 457.549 176.22 457.92C175.883 458.288 175.714 458.754 175.714 459.318V465H174.351V459.023C174.351 458.527 174.19 458.127 173.868 457.824C173.546 457.517 173.131 457.364 172.624 457.364C172.275 457.364 171.949 457.456 171.646 457.642C171.347 457.828 171.105 458.085 170.919 458.415C170.737 458.741 170.646 459.117 170.646 459.545V465H169.305Z" fill="#1D1D1B"/>
<path d="M17.2784 517V505.364H21.4261C22.3314 505.364 23.0814 505.528 23.6761 505.858C24.2708 506.187 24.7159 506.638 25.0114 507.21C25.3068 507.778 25.4545 508.419 25.4545 509.131C25.4545 509.847 25.3049 510.491 25.0057 511.062C24.7102 511.631 24.2633 512.081 23.6648 512.415C23.0701 512.744 22.322 512.909 21.4205 512.909H18.5682V511.42H21.2614C21.8333 511.42 22.2973 511.322 22.6534 511.125C23.0095 510.924 23.2708 510.652 23.4375 510.307C23.6042 509.962 23.6875 509.57 23.6875 509.131C23.6875 508.691 23.6042 508.301 23.4375 507.96C23.2708 507.619 23.0076 507.352 22.6477 507.159C22.2917 506.966 21.822 506.869 21.2386 506.869H19.0341V517H17.2784ZM29.3381 517.193C28.785 517.193 28.285 517.091 27.8381 516.886C27.3911 516.678 27.0369 516.377 26.7756 515.983C26.518 515.589 26.3892 515.106 26.3892 514.534C26.3892 514.042 26.4839 513.636 26.6733 513.318C26.8627 513 27.1184 512.748 27.4403 512.562C27.7623 512.377 28.1222 512.237 28.5199 512.142C28.9176 512.047 29.3229 511.975 29.7358 511.926C30.2585 511.866 30.6828 511.816 31.0085 511.778C31.3343 511.737 31.571 511.67 31.7188 511.58C31.8665 511.489 31.9403 511.341 31.9403 511.136V511.097C31.9403 510.6 31.8002 510.216 31.5199 509.943C31.2434 509.67 30.8305 509.534 30.2812 509.534C29.7093 509.534 29.2585 509.661 28.929 509.915C28.6032 510.165 28.3778 510.443 28.2528 510.75L26.6562 510.386C26.8456 509.856 27.1222 509.428 27.4858 509.102C27.8532 508.773 28.2756 508.534 28.7528 508.386C29.2301 508.235 29.732 508.159 30.2585 508.159C30.607 508.159 30.9763 508.201 31.3665 508.284C31.7604 508.364 32.1278 508.511 32.4688 508.727C32.8134 508.943 33.0956 509.252 33.3153 509.653C33.535 510.051 33.6449 510.568 33.6449 511.205V517H31.9858V515.807H31.9176C31.8078 516.027 31.643 516.242 31.4233 516.455C31.2036 516.667 30.9214 516.843 30.5767 516.983C30.232 517.123 29.8191 517.193 29.3381 517.193ZM29.7074 515.83C30.1771 515.83 30.5786 515.737 30.9119 515.551C31.2491 515.366 31.5047 515.123 31.679 514.824C31.857 514.521 31.946 514.197 31.946 513.852V512.727C31.8854 512.788 31.768 512.845 31.5938 512.898C31.4233 512.947 31.2282 512.991 31.0085 513.028C30.7888 513.062 30.5748 513.095 30.3665 513.125C30.1581 513.152 29.9839 513.174 29.8438 513.193C29.5142 513.235 29.2131 513.305 28.9403 513.403C28.6714 513.502 28.4555 513.644 28.2926 513.83C28.1335 514.011 28.054 514.254 28.054 514.557C28.054 514.977 28.2093 515.295 28.5199 515.511C28.8305 515.723 29.2263 515.83 29.7074 515.83ZM41.9474 510.403L40.4077 510.676C40.3433 510.479 40.241 510.292 40.1009 510.114C39.9645 509.936 39.7789 509.79 39.544 509.676C39.3092 509.562 39.0156 509.506 38.6634 509.506C38.1823 509.506 37.7808 509.614 37.4588 509.83C37.1368 510.042 36.9759 510.316 36.9759 510.653C36.9759 510.945 37.0838 511.18 37.2997 511.358C37.5156 511.536 37.8641 511.682 38.3452 511.795L39.7315 512.114C40.5346 512.299 41.133 512.585 41.527 512.972C41.9209 513.358 42.1179 513.86 42.1179 514.477C42.1179 515 41.9664 515.466 41.6634 515.875C41.3641 516.28 40.9455 516.598 40.4077 516.83C39.8736 517.061 39.2543 517.176 38.5497 517.176C37.5724 517.176 36.7751 516.968 36.1577 516.551C35.5402 516.131 35.1615 515.534 35.0213 514.761L36.6634 514.511C36.7656 514.939 36.9759 515.263 37.294 515.483C37.6122 515.699 38.027 515.807 38.5384 515.807C39.0952 515.807 39.5402 515.691 39.8736 515.46C40.2069 515.225 40.3736 514.939 40.3736 514.602C40.3736 514.33 40.2713 514.1 40.0668 513.915C39.866 513.729 39.5573 513.589 39.1406 513.494L37.6634 513.17C36.849 512.985 36.2467 512.689 35.8565 512.284C35.4702 511.879 35.277 511.366 35.277 510.744C35.277 510.229 35.4209 509.778 35.7088 509.392C35.9967 509.006 36.3944 508.705 36.902 508.489C37.4096 508.269 37.991 508.159 38.6463 508.159C39.5895 508.159 40.3319 508.364 40.8736 508.773C41.4152 509.178 41.7732 509.722 41.9474 510.403ZM50.0256 510.403L48.4858 510.676C48.4214 510.479 48.3191 510.292 48.179 510.114C48.0426 509.936 47.857 509.79 47.6222 509.676C47.3873 509.562 47.0938 509.506 46.7415 509.506C46.2604 509.506 45.8589 509.614 45.5369 509.83C45.215 510.042 45.054 510.316 45.054 510.653C45.054 510.945 45.1619 511.18 45.3778 511.358C45.5938 511.536 45.9422 511.682 46.4233 511.795L47.8097 512.114C48.6127 512.299 49.2112 512.585 49.6051 512.972C49.9991 513.358 50.196 513.86 50.196 514.477C50.196 515 50.0445 515.466 49.7415 515.875C49.4422 516.28 49.0237 516.598 48.4858 516.83C47.9517 517.061 47.3324 517.176 46.6278 517.176C45.6506 517.176 44.8532 516.968 44.2358 516.551C43.6184 516.131 43.2396 515.534 43.0994 514.761L44.7415 514.511C44.8438 514.939 45.054 515.263 45.3722 515.483C45.6903 515.699 46.1051 515.807 46.6165 515.807C47.1733 515.807 47.6184 515.691 47.9517 515.46C48.285 515.225 48.4517 514.939 48.4517 514.602C48.4517 514.33 48.3494 514.1 48.1449 513.915C47.9441 513.729 47.6354 513.589 47.2188 513.494L45.7415 513.17C44.9271 512.985 44.3248 512.689 43.9347 512.284C43.5483 511.879 43.3551 511.366 43.3551 510.744C43.3551 510.229 43.4991 509.778 43.7869 509.392C44.0748 509.006 44.4725 508.705 44.9801 508.489C45.4877 508.269 46.0691 508.159 46.7244 508.159C47.6676 508.159 48.41 508.364 48.9517 508.773C49.4934 509.178 49.8513 509.722 50.0256 510.403ZM53.456 517L50.8878 508.273H52.6435L54.3537 514.682H54.4389L56.1548 508.273H57.9105L59.6151 514.653H59.7003L61.3991 508.273H63.1548L60.5923 517H58.8594L57.0866 510.699H56.956L55.1832 517H53.456ZM67.6776 517.176C66.8594 517.176 66.1454 516.989 65.5355 516.614C64.9257 516.239 64.4522 515.714 64.1151 515.04C63.7779 514.366 63.6094 513.578 63.6094 512.676C63.6094 511.771 63.7779 510.979 64.1151 510.301C64.4522 509.623 64.9257 509.097 65.5355 508.722C66.1454 508.347 66.8594 508.159 67.6776 508.159C68.4957 508.159 69.2098 508.347 69.8196 508.722C70.4295 509.097 70.9029 509.623 71.2401 510.301C71.5772 510.979 71.7457 511.771 71.7457 512.676C71.7457 513.578 71.5772 514.366 71.2401 515.04C70.9029 515.714 70.4295 516.239 69.8196 516.614C69.2098 516.989 68.4957 517.176 67.6776 517.176ZM67.6832 515.75C68.2135 515.75 68.6529 515.61 69.0014 515.33C69.3499 515.049 69.6075 514.676 69.7741 514.21C69.9446 513.744 70.0298 513.231 70.0298 512.67C70.0298 512.114 69.9446 511.602 69.7741 511.136C69.6075 510.667 69.3499 510.29 69.0014 510.006C68.6529 509.722 68.2135 509.58 67.6832 509.58C67.1491 509.58 66.706 509.722 66.3537 510.006C66.0052 510.29 65.7457 510.667 65.5753 511.136C65.4086 511.602 65.3253 512.114 65.3253 512.67C65.3253 513.231 65.4086 513.744 65.5753 514.21C65.7457 514.676 66.0052 515.049 66.3537 515.33C66.706 515.61 67.1491 515.75 67.6832 515.75ZM73.142 517V508.273H74.7841V509.659H74.875C75.0341 509.189 75.3144 508.82 75.7159 508.551C76.1212 508.278 76.5795 508.142 77.0909 508.142C77.197 508.142 77.322 508.146 77.4659 508.153C77.6136 508.161 77.7292 508.17 77.8125 508.182V509.807C77.7443 509.788 77.6231 509.767 77.4489 509.744C77.2746 509.718 77.1004 509.705 76.9261 509.705C76.5246 509.705 76.1667 509.79 75.8523 509.96C75.5417 510.127 75.2955 510.36 75.1136 510.659C74.9318 510.955 74.8409 511.292 74.8409 511.67V517H73.142ZM81.7372 517.17C81.0327 517.17 80.4039 516.991 79.8509 516.631C79.3016 516.267 78.8698 515.75 78.5554 515.08C78.2448 514.405 78.0895 513.597 78.0895 512.653C78.0895 511.71 78.2467 510.903 78.5611 510.233C78.8793 509.562 79.3149 509.049 79.8679 508.693C80.4209 508.337 81.0478 508.159 81.7486 508.159C82.2902 508.159 82.7259 508.25 83.0554 508.432C83.3887 508.61 83.6463 508.818 83.8281 509.057C84.0137 509.295 84.1577 509.506 84.2599 509.688H84.3622V505.364H86.0611V517H84.402V515.642H84.2599C84.1577 515.828 84.0099 516.04 83.8168 516.278C83.6274 516.517 83.366 516.725 83.0327 516.903C82.6993 517.081 82.2675 517.17 81.7372 517.17ZM82.1122 515.722C82.6009 515.722 83.0137 515.593 83.3509 515.335C83.6918 515.074 83.9493 514.712 84.1236 514.25C84.3016 513.788 84.3906 513.25 84.3906 512.636C84.3906 512.03 84.3035 511.5 84.1293 511.045C83.955 510.591 83.6993 510.237 83.3622 509.983C83.0251 509.729 82.6084 509.602 82.1122 509.602C81.6009 509.602 81.1747 509.735 80.8338 510C80.4929 510.265 80.2353 510.627 80.0611 511.085C79.8906 511.544 79.8054 512.061 79.8054 512.636C79.8054 513.22 79.8925 513.744 80.0668 514.21C80.241 514.676 80.4986 515.045 80.8395 515.318C81.1842 515.587 81.6084 515.722 82.1122 515.722Z" fill="#1D1D1B"/>
<rect x="16.25" y="526.25" width="360.5" height="39.5" rx="5.75" fill="white"/>
<rect x="16.25" y="526.25" width="360.5" height="39.5" rx="5.75" stroke="#A1A1A5" stroke-width="0.5"/>
<path d="M28.5 549.864C28.0417 549.864 27.6231 549.752 27.2443 549.528C26.8655 549.301 26.5625 548.998 26.3352 548.619C26.1117 548.241 26 547.822 26 547.364C26 546.902 26.1117 546.483 26.3352 546.108C26.5625 545.729 26.8655 545.428 27.2443 545.205C27.6231 544.977 28.0417 544.864 28.5 544.864C28.9621 544.864 29.3807 544.977 29.7557 545.205C30.1345 545.428 30.4356 545.729 30.6591 546.108C30.8864 546.483 31 546.902 31 547.364C31 547.822 30.8864 548.241 30.6591 548.619C30.4356 548.998 30.1345 549.301 29.7557 549.528C29.3807 549.752 28.9621 549.864 28.5 549.864ZM37 549.864C36.5417 549.864 36.1231 549.752 35.7443 549.528C35.3655 549.301 35.0625 548.998 34.8352 548.619C34.6117 548.241 34.5 547.822 34.5 547.364C34.5 546.902 34.6117 546.483 34.8352 546.108C35.0625 545.729 35.3655 545.428 35.7443 545.205C36.1231 544.977 36.5417 544.864 37 544.864C37.4621 544.864 37.8807 544.977 38.2557 545.205C38.6345 545.428 38.9356 545.729 39.1591 546.108C39.3864 546.483 39.5 546.902 39.5 547.364C39.5 547.822 39.3864 548.241 39.1591 548.619C38.9356 548.998 38.6345 549.301 38.2557 549.528C37.8807 549.752 37.4621 549.864 37 549.864ZM45.5 549.864C45.0417 549.864 44.6231 549.752 44.2443 549.528C43.8655 549.301 43.5625 548.998 43.3352 548.619C43.1117 548.241 43 547.822 43 547.364C43 546.902 43.1117 546.483 43.3352 546.108C43.5625 545.729 43.8655 545.428 44.2443 545.205C44.6231 544.977 45.0417 544.864 45.5 544.864C45.9621 544.864 46.3807 544.977 46.7557 545.205C47.1345 545.428 47.4356 545.729 47.6591 546.108C47.8864 546.483 48 546.902 48 547.364C48 547.822 47.8864 548.241 47.6591 548.619C47.4356 548.998 47.1345 549.301 46.7557 549.528C46.3807 549.752 45.9621 549.864 45.5 549.864ZM54 549.864C53.5417 549.864 53.1231 549.752 52.7443 549.528C52.3655 549.301 52.0625 548.998 51.8352 548.619C51.6117 548.241 51.5 547.822 51.5 547.364C51.5 546.902 51.6117 546.483 51.8352 546.108C52.0625 545.729 52.3655 545.428 52.7443 545.205C53.1231 544.977 53.5417 544.864 54 544.864C54.4621 544.864 54.8807 544.977 55.2557 545.205C55.6345 545.428 55.9356 545.729 56.1591 546.108C56.3864 546.483 56.5 546.902 56.5 547.364C56.5 547.822 56.3864 548.241 56.1591 548.619C55.9356 548.998 55.6345 549.301 55.2557 549.528C54.8807 549.752 54.4621 549.864 54 549.864ZM62.5 549.864C62.0417 549.864 61.6231 549.752 61.2443 549.528C60.8655 549.301 60.5625 548.998 60.3352 548.619C60.1117 548.241 60 547.822 60 547.364C60 546.902 60.1117 546.483 60.3352 546.108C60.5625 545.729 60.8655 545.428 61.2443 545.205C61.6231 544.977 62.0417 544.864 62.5 544.864C62.9621 544.864 63.3807 544.977 63.7557 545.205C64.1345 545.428 64.4356 545.729 64.6591 546.108C64.8864 546.483 65 546.902 65 547.364C65 547.822 64.8864 548.241 64.6591 548.619C64.4356 548.998 64.1345 549.301 63.7557 549.528C63.3807 549.752 62.9621 549.864 62.5 549.864ZM71 549.864C70.5417 549.864 70.1231 549.752 69.7443 549.528C69.3655 549.301 69.0625 548.998 68.8352 548.619C68.6117 548.241 68.5 547.822 68.5 547.364C68.5 546.902 68.6117 546.483 68.8352 546.108C69.0625 545.729 69.3655 545.428 69.7443 545.205C70.1231 544.977 70.5417 544.864 71 544.864C71.4621 544.864 71.8807 544.977 72.2557 545.205C72.6345 545.428 72.9356 545.729 73.1591 546.108C73.3864 546.483 73.5 546.902 73.5 547.364C73.5 547.822 73.3864 548.241 73.1591 548.619C72.9356 548.998 72.6345 549.301 72.2557 549.528C71.8807 549.752 71.4621 549.864 71 549.864ZM79.5 549.864C79.0417 549.864 78.6231 549.752 78.2443 549.528C77.8655 549.301 77.5625 548.998 77.3352 548.619C77.1117 548.241 77 547.822 77 547.364C77 546.902 77.1117 546.483 77.3352 546.108C77.5625 545.729 77.8655 545.428 78.2443 545.205C78.6231 544.977 79.0417 544.864 79.5 544.864C79.9621 544.864 80.3807 544.977 80.7557 545.205C81.1345 545.428 81.4356 545.729 81.6591 546.108C81.8864 546.483 82 546.902 82 547.364C82 547.822 81.8864 548.241 81.6591 548.619C81.4356 548.998 81.1345 549.301 80.7557 549.528C80.3807 549.752 79.9621 549.864 79.5 549.864Z" fill="#1D1D1B"/>
<rect x="16" y="586" width="361" height="44" rx="22" fill="#1D1D1B"/>
<path d="M165.148 613.5V601.864H169.511C170.405 601.864 171.155 602.019 171.761 602.33C172.371 602.64 172.831 603.076 173.142 603.636C173.456 604.193 173.614 604.843 173.614 605.585C173.614 606.331 173.455 606.979 173.136 607.528C172.822 608.074 172.358 608.496 171.744 608.795C171.131 609.091 170.377 609.239 169.483 609.239H166.375V607.489H169.199C169.722 607.489 170.15 607.417 170.483 607.273C170.816 607.125 171.063 606.911 171.222 606.631C171.384 606.347 171.466 605.998 171.466 605.585C171.466 605.172 171.384 604.82 171.222 604.528C171.059 604.233 170.811 604.009 170.477 603.858C170.144 603.703 169.714 603.625 169.188 603.625H167.256V613.5H165.148ZM171.159 608.227L174.04 613.5H171.688L168.858 608.227H171.159ZM179.262 613.67C178.387 613.67 177.631 613.489 176.995 613.125C176.362 612.758 175.875 612.239 175.534 611.568C175.194 610.894 175.023 610.1 175.023 609.188C175.023 608.29 175.194 607.502 175.534 606.824C175.879 606.142 176.36 605.612 176.978 605.233C177.595 604.85 178.32 604.659 179.154 604.659C179.692 604.659 180.199 604.746 180.676 604.92C181.158 605.091 181.582 605.356 181.949 605.716C182.32 606.076 182.612 606.534 182.824 607.091C183.036 607.644 183.142 608.303 183.142 609.068V609.699H175.989V608.312H181.171C181.167 607.919 181.082 607.568 180.915 607.261C180.748 606.951 180.515 606.706 180.216 606.528C179.921 606.35 179.576 606.261 179.182 606.261C178.762 606.261 178.392 606.364 178.074 606.568C177.756 606.769 177.508 607.034 177.33 607.364C177.156 607.689 177.067 608.047 177.063 608.438V609.648C177.063 610.155 177.156 610.591 177.341 610.955C177.527 611.314 177.786 611.591 178.12 611.784C178.453 611.973 178.843 612.068 179.29 612.068C179.589 612.068 179.86 612.027 180.103 611.943C180.345 611.856 180.555 611.729 180.733 611.562C180.911 611.396 181.046 611.189 181.137 610.943L183.057 611.159C182.936 611.667 182.705 612.11 182.364 612.489C182.027 612.864 181.595 613.155 181.069 613.364C180.542 613.568 179.94 613.67 179.262 613.67ZM188.738 616.955C187.999 616.955 187.365 616.854 186.834 616.653C186.304 616.456 185.878 616.191 185.556 615.858C185.234 615.525 185.011 615.155 184.886 614.75L186.738 614.301C186.821 614.472 186.942 614.64 187.102 614.807C187.261 614.977 187.475 615.117 187.744 615.227C188.016 615.341 188.359 615.398 188.772 615.398C189.355 615.398 189.838 615.256 190.221 614.972C190.603 614.691 190.795 614.229 190.795 613.585V611.932H190.692C190.586 612.144 190.431 612.362 190.227 612.585C190.026 612.809 189.759 612.996 189.425 613.148C189.096 613.299 188.681 613.375 188.181 613.375C187.511 613.375 186.903 613.218 186.357 612.903C185.816 612.585 185.384 612.112 185.062 611.483C184.744 610.85 184.584 610.059 184.584 609.108C184.584 608.15 184.744 607.341 185.062 606.682C185.384 606.019 185.817 605.517 186.363 605.176C186.908 604.831 187.516 604.659 188.187 604.659C188.698 604.659 189.119 604.746 189.448 604.92C189.781 605.091 190.047 605.297 190.244 605.54C190.441 605.778 190.59 606.004 190.692 606.216H190.806V604.773H192.834V613.642C192.834 614.388 192.656 615.006 192.3 615.494C191.944 615.983 191.458 616.348 190.84 616.591C190.223 616.833 189.522 616.955 188.738 616.955ZM188.755 611.761C189.191 611.761 189.562 611.655 189.869 611.443C190.175 611.231 190.408 610.926 190.567 610.528C190.727 610.131 190.806 609.653 190.806 609.097C190.806 608.547 190.727 608.066 190.567 607.653C190.412 607.241 190.181 606.92 189.874 606.693C189.571 606.462 189.198 606.347 188.755 606.347C188.297 606.347 187.914 606.466 187.607 606.705C187.3 606.943 187.069 607.271 186.914 607.688C186.759 608.1 186.681 608.57 186.681 609.097C186.681 609.631 186.759 610.098 186.914 610.5C187.073 610.898 187.306 611.208 187.613 611.432C187.924 611.652 188.304 611.761 188.755 611.761ZM195.002 613.5V604.773H197.059V613.5H195.002ZM196.037 603.534C195.711 603.534 195.43 603.426 195.196 603.21C194.961 602.991 194.843 602.727 194.843 602.42C194.843 602.11 194.961 601.847 195.196 601.631C195.43 601.411 195.711 601.301 196.037 601.301C196.366 601.301 196.646 601.411 196.877 601.631C197.112 601.847 197.23 602.11 197.23 602.42C197.23 602.727 197.112 602.991 196.877 603.21C196.646 603.426 196.366 603.534 196.037 603.534ZM206.132 607.08L204.257 607.284C204.204 607.095 204.111 606.917 203.979 606.75C203.85 606.583 203.676 606.449 203.456 606.347C203.236 606.244 202.967 606.193 202.649 606.193C202.221 606.193 201.861 606.286 201.57 606.472C201.282 606.657 201.14 606.898 201.143 607.193C201.14 607.447 201.232 607.653 201.422 607.812C201.615 607.972 201.933 608.102 202.376 608.205L203.865 608.523C204.691 608.701 205.304 608.983 205.706 609.369C206.111 609.756 206.316 610.261 206.32 610.886C206.316 611.436 206.155 611.92 205.837 612.341C205.522 612.758 205.085 613.083 204.524 613.318C203.963 613.553 203.32 613.67 202.592 613.67C201.524 613.67 200.664 613.447 200.013 613C199.361 612.549 198.973 611.922 198.848 611.119L200.854 610.926C200.945 611.32 201.138 611.617 201.433 611.818C201.729 612.019 202.113 612.119 202.587 612.119C203.075 612.119 203.467 612.019 203.763 611.818C204.062 611.617 204.212 611.369 204.212 611.074C204.212 610.824 204.115 610.617 203.922 610.455C203.732 610.292 203.437 610.167 203.035 610.08L201.547 609.767C200.71 609.593 200.09 609.299 199.689 608.886C199.287 608.47 199.088 607.943 199.092 607.307C199.088 606.769 199.234 606.303 199.53 605.909C199.829 605.511 200.244 605.205 200.774 604.989C201.308 604.769 201.924 604.659 202.621 604.659C203.643 604.659 204.448 604.877 205.035 605.312C205.626 605.748 205.992 606.337 206.132 607.08ZM212.434 604.773V606.364H207.416V604.773H212.434ZM208.655 602.682H210.712V610.875C210.712 611.152 210.754 611.364 210.837 611.511C210.924 611.655 211.038 611.754 211.178 611.807C211.318 611.86 211.473 611.886 211.644 611.886C211.773 611.886 211.89 611.877 211.996 611.858C212.106 611.839 212.189 611.822 212.246 611.807L212.593 613.415C212.483 613.453 212.326 613.494 212.121 613.54C211.92 613.585 211.674 613.612 211.382 613.619C210.867 613.634 210.403 613.557 209.99 613.386C209.577 613.212 209.25 612.943 209.007 612.58C208.769 612.216 208.651 611.761 208.655 611.216V602.682ZM217.984 613.67C217.109 613.67 216.353 613.489 215.717 613.125C215.084 612.758 214.597 612.239 214.256 611.568C213.915 610.894 213.745 610.1 213.745 609.188C213.745 608.29 213.915 607.502 214.256 606.824C214.601 606.142 215.082 605.612 215.699 605.233C216.317 604.85 217.042 604.659 217.876 604.659C218.414 604.659 218.921 604.746 219.398 604.92C219.879 605.091 220.304 605.356 220.671 605.716C221.042 606.076 221.334 606.534 221.546 607.091C221.758 607.644 221.864 608.303 221.864 609.068V609.699H214.711V608.312H219.893C219.889 607.919 219.804 607.568 219.637 607.261C219.47 606.951 219.237 606.706 218.938 606.528C218.643 606.35 218.298 606.261 217.904 606.261C217.484 606.261 217.114 606.364 216.796 606.568C216.478 606.769 216.23 607.034 216.052 607.364C215.878 607.689 215.789 608.047 215.785 608.438V609.648C215.785 610.155 215.878 610.591 216.063 610.955C216.249 611.314 216.508 611.591 216.842 611.784C217.175 611.973 217.565 612.068 218.012 612.068C218.311 612.068 218.582 612.027 218.824 611.943C219.067 611.856 219.277 611.729 219.455 611.562C219.633 611.396 219.768 611.189 219.859 610.943L221.779 611.159C221.658 611.667 221.427 612.11 221.086 612.489C220.749 612.864 220.317 613.155 219.79 613.364C219.264 613.568 218.662 613.67 217.984 613.67ZM223.664 613.5V604.773H225.659V606.227H225.75C225.909 605.723 226.181 605.335 226.568 605.062C226.958 604.786 227.403 604.648 227.903 604.648C228.017 604.648 228.143 604.653 228.284 604.665C228.428 604.672 228.547 604.686 228.642 604.705V606.597C228.554 606.566 228.416 606.54 228.227 606.517C228.041 606.491 227.861 606.477 227.687 606.477C227.312 606.477 226.975 606.559 226.676 606.722C226.38 606.881 226.147 607.102 225.977 607.386C225.806 607.67 225.721 607.998 225.721 608.369V613.5H223.664Z" fill="white"/>
<rect x="137" y="839" width="120" height="5" rx="2.5" fill="black"/>
</g>
<defs>
<filter id="filter0_f_1_526" x="235.773" y="25.1818" width="7.45453" height="4.18182" filterUnits="userSpaceOnUse" color-interpolation-filters="sRGB">
<feFlood flood-opacity="0" result="BackgroundImageFix"/>
<feBlend mode="normal" in="SourceGraphic" in2="BackgroundImageFix" result="shape"/>
<feGaussianBlur stdDeviation="0.5" result="effect1_foregroundBlur_1_526"/>
</filter>
<filter id="filter1_f_1_526" x="235.773" y="29.5455" width="7.45453" height="5.27273" filterUnits="userSpaceOnUse" color-interpolation-filters="sRGB">
<feFlood flood-opacity="0" result="BackgroundImageFix"/>
<feBlend mode="normal" in="SourceGraphic" in2="BackgroundImageFix" result="shape"/>
<feGaussianBlur stdDeviation="0.5" result="effect1_foregroundBlur_1_526"/>
</filter>
<clipPath id="clip0_1_526">
<rect width="393" height="852" fill="white"/>
</clipPath>
<clipPath id="clip1_1_526">
<rect width="300" height="100" fill="white" transform="translate(46.5 292)"/>
</clipPath>
</defs>
</svg>
